<?xml version="1.0" standalone="no"?>
<!DOCTYPE svg PUBLIC "-//W3C//DTD SVG 20010904//EN"
 "http://www.w3.org/TR/2001/REC-SVG-20010904/DTD/svg10.dtd">
<svg data-landmark-id="002" version="1.0" xmlns="http://www.w3.org/2000/svg"
 width="762" height="366" viewBox="253 447 762 366"
 preserveAspectRatio="xMidYMid meet" role="img" aria-labelledby="title desc">
<title id="title">공중에 떠 있는 빨랫줄과 빨래</title>
<desc id="desc">원본 선 굵기를 유지하면서 전체 구성을 65퍼센트로 축소한 검은 잉크 선화</desc>
<metadata>
Created by potrace 1.16, written by Peter Selinger 2001-2019
</metadata>
<g transform="translate(627 627) scale(0.65) translate(-627 -627)">
<g transform="translate(0.000000,1254.000000) scale(0.025000,-0.025000)"
fill="#000000" stroke="none">
<path d="M46135 35049 c-82 -35 -113 -62 -149 -130 -50 -91 -76 -185 -76 -273
0 -151 22 -226 120 -408 24 -44 24 -48 6 -48 -8 0 -46 -16 -85 -35 -38 -19
-75 -35 -81 -35 -7 0 -38 -11 -69 -24 -31 -14 -94 -39 -141 -56 -107 -40 -150
-57 -275 -110 -105 -45 -289 -112 -365 -134 -25 -7 -59 -20 -77 -29 -18 -10
-38 -17 -46 -17 -26 0 -401 -127 -452 -153 -54 -28 -172 -74 -220 -86 -45 -12
-142 -49 -168 -64 -12 -8 -51 -22 -87 -31 -36 -10 -87 -26 -115 -37 -27 -11
-79 -30 -115 -41 -36 -11 -82 -29 -104 -40 -38 -19 -40 -19 -72 -2 -19 10 -37
27 -40 37 -6 19 10 222 26 339 6 37 10 93 10 125 0 32 7 91 15 133 8 41 19
147 25 235 6 88 15 194 20 235 21 165 30 290 24 317 -11 47 -42 99 -72 125
-33 28 -174 67 -337 93 -55 9 -122 21 -148 26 -26 5 -61 9 -78 9 -32 0 -118
-39 -138 -64 -24 -28 -53 -171 -61 -301 -5 -71 -13 -143 -19 -160 -5 -16 -15
-89 -20 -162 -10 -123 -25 -237 -51 -393 -18 -112 -20 -123 -31 -210 -6 -47
-17 -119 -24 -160 -8 -41 -17 -110 -21 -152 -7 -84 -12 -92 -64 -103 -19 -4
-55 -13 -80 -20 -110 -33 -160 -45 -235 -54 -44 -5 -97 -17 -117 -25 -21 -9
-50 -16 -64 -16 -15 0 -55 -8 -88 -19 -34 -10 -81 -24 -106 -30 -270 -70 -355
-92 -415 -111 -38 -12 -97 -28 -130 -36 -33 -8 -82 -21 -110 -28 -27 -8 -68
-20 -90 -26 -61 -18 -165 -45 -333 -89 -84 -22 -179 -50 -210 -61 -65 -25
-225 -68 -294 -80 -26 -5 -71 -16 -100 -24 -72 -21 -264 -75 -313 -88 -22 -5
-63 -19 -90 -29 -28 -10 -59 -19 -70 -19 -11 -1 -38 -8 -60 -16 -22 -9 -65
-22 -95 -29 -81 -20 -137 -35 -210 -56 -97 -27 -357 -87 -432 -99 -36 -5 -85
-17 -108 -25 -23 -8 -57 -15 -74 -15 -17 -1 -49 -8 -71 -16 -22 -8 -74 -21
-115 -29 -41 -9 -104 -22 -140 -30 -36 -8 -119 -20 -185 -25 -155 -14 -333
-38 -347 -46 -6 -4 -45 -10 -87 -14 -42 -5 -99 -15 -126 -23 -74 -23 -197 -53
-310 -78 -55 -11 -127 -30 -161 -40 -33 -10 -65 -19 -71 -19 -7 0 -13 43 -17
113 -9 156 -24 356 -41 527 -24 241 -36 371 -42 461 -7 110 -55 211 -116 245
-62 34 -137 47 -204 34 -32 -6 -132 -13 -223 -16 -91 -3 -175 -7 -187 -10 -58
-11 -133 -120 -133 -193 0 -18 6 -59 14 -90 9 -34 17 -141 20 -276 4 -121 11
-290 17 -375 5 -85 13 -267 18 -405 9 -250 9 -250 -12 -264 -12 -8 -51 -45
-87 -81 l-66 -67 -119 -6 c-66 -4 -140 -12 -165 -18 -24 -5 -90 -16 -145 -24
-55 -8 -138 -21 -185 -29 -47 -9 -103 -16 -126 -16 -22 0 -63 -6 -90 -14 -27
-8 -71 -17 -99 -20 -27 -4 -81 -13 -120 -21 -38 -8 -167 -33 -285 -55 -118
-22 -246 -47 -285 -55 -38 -7 -104 -19 -145 -25 -41 -6 -111 -17 -155 -25 -44
-8 -118 -17 -165 -20 -47 -4 -104 -11 -127 -16 -23 -5 -91 -16 -150 -24 -116
-16 -197 -29 -308 -50 -38 -8 -113 -21 -165 -30 -216 -38 -309 -55 -390 -74
-47 -11 -137 -27 -200 -36 -63 -9 -149 -23 -190 -30 -41 -8 -104 -16 -140 -20
-36 -4 -77 -9 -92 -12 -28 -5 -28 -5 -28 46 0 28 4 81 10 118 5 38 15 104 21
148 6 44 17 130 24 190 8 61 18 142 24 180 27 182 46 357 46 431 0 71 -3 85
-27 121 -45 68 -120 104 -252 120 -61 7 -147 18 -191 24 -44 5 -104 15 -134
21 -49 11 -57 10 -98 -12 -68 -36 -96 -86 -105 -184 -9 -103 -26 -237 -38
-301 -5 -27 -9 -95 -9 -150 -1 -55 -7 -134 -15 -175 -8 -41 -17 -113 -21 -160
-4 -47 -13 -110 -21 -141 -8 -31 -14 -79 -14 -106 0 -30 -8 -63 -21 -88 -13
-24 -23 -63 -25 -103 -2 -36 -5 -66 -6 -68 -3 -3 -277 -21 -663 -45 -246 -15
-1730 -15 -2060 1 -263 12 -488 9 -1165 -16 -96 -4 -267 -6 -380 -5 -113 1
-241 -3 -285 -9 -122 -16 -457 -32 -466 -23 -7 8 10 503 30 868 6 103 7 196 2
217 -5 20 -6 76 -4 125 10 167 -21 241 -119 283 -46 20 -73 23 -198 26 -80 1
-182 7 -227 13 -124 15 -182 -9 -225 -92 -18 -37 -22 -68 -29 -267 -5 -124
-13 -308 -19 -410 -5 -102 -14 -281 -20 -399 -6 -117 -15 -232 -20 -255 -5
-22 -10 -69 -10 -102 l0 -62 -227 -7 c-126 -4 -382 -4 -571 2 -217 6 -505 6
-785 0 -314 -7 -504 -6 -657 2 -306 16 -814 14 -1070 -5 -201 -14 -511 -13
-725 3 -33 2 -192 7 -352 10 l-293 5 0 29 c0 17 4 49 9 72 13 57 42 228 52
307 4 36 17 115 29 175 11 61 25 153 31 205 5 52 19 135 31 184 25 109 21 165
-18 243 -33 66 -79 98 -154 108 -25 4 -74 15 -109 26 -35 10 -90 19 -121 19
-31 0 -79 7 -106 15 -69 21 -102 18 -159 -13 -60 -33 -92 -77 -100 -140 -4
-26 -13 -69 -20 -97 -8 -27 -16 -79 -20 -115 -3 -36 -15 -103 -27 -150 -11
-47 -24 -114 -29 -150 -7 -57 -19 -135 -49 -330 -5 -30 -13 -90 -19 -133 -6
-42 -18 -102 -26 -132 -9 -30 -15 -60 -14 -67 4 -36 -1 -38 -83 -38 -46 0
-153 6 -238 14 -208 19 -921 49 -1495 62 -143 3 -318 12 -390 20 -71 8 -177
14 -234 14 l-104 0 6 128 c4 70 14 154 23 187 8 33 19 96 24 140 5 44 16 118
25 165 9 47 20 141 25 210 5 69 13 148 19 175 18 94 14 135 -22 195 -49 81
-110 109 -253 120 -60 5 -122 14 -139 20 -16 6 -71 14 -120 17 -79 5 -96 3
-132 -15 -51 -27 -90 -72 -101 -120 -5 -20 -17 -70 -27 -110 -10 -41 -21 -131
-25 -200 -4 -70 -12 -138 -17 -152 -6 -14 -16 -86 -22 -160 -7 -74 -16 -155
-21 -180 -6 -25 -14 -83 -20 -130 -5 -47 -14 -105 -19 -130 -5 -25 -7 -55 -5
-66 3 -12 1 -25 -6 -29 -14 -9 -288 13 -370 30 -36 7 -119 16 -185 20 -66 3
-156 13 -200 21 -78 14 -267 34 -515 54 -69 6 -163 17 -210 25 -47 8 -134 17
-195 20 -60 3 -186 15 -280 25 -226 26 -466 48 -650 60 -82 5 -166 14 -185 19
-33 10 -139 21 -370 41 -302 27 -347 31 -380 40 -19 5 -71 11 -115 15 -44 3
-124 15 -177 26 -53 10 -115 19 -137 19 -22 0 -78 7 -123 16 -187 35 -287 53
-358 64 -41 6 -103 18 -137 26 -34 8 -75 14 -90 14 -16 0 -56 7 -88 16 -56 15
-101 23 -335 58 -52 8 -115 19 -140 25 -25 5 -62 13 -84 16 -43 7 -41 -1 -17
115 6 25 10 67 11 93 0 27 9 79 19 115 17 61 27 113 77 397 9 50 22 124 29
165 38 208 64 437 54 474 -26 95 -122 161 -250 172 -41 4 -121 22 -178 40
-108 35 -161 41 -208 23 -61 -23 -113 -99 -113 -166 0 -21 -9 -76 -20 -123
-11 -47 -27 -123 -34 -170 -8 -47 -23 -130 -34 -185 -11 -55 -26 -131 -33
-170 -6 -38 -18 -97 -26 -130 -8 -33 -22 -105 -32 -160 -9 -55 -22 -109 -29
-121 -6 -12 -14 -52 -18 -90 -10 -100 -27 -135 -62 -129 -157 27 -350 55 -379
55 -19 0 -70 9 -112 19 -42 11 -107 24 -146 30 -125 19 -237 40 -269 50 -17 5
-58 13 -91 17 -33 4 -77 13 -97 20 -21 7 -66 16 -100 20 -57 6 -104 16 -333
69 -157 36 -202 45 -245 51 -25 3 -65 12 -90 19 -25 7 -63 16 -85 19 -36 6
-75 15 -235 56 -25 6 -76 18 -113 26 -37 7 -75 18 -85 23 -9 5 -66 21 -127 36
-60 16 -128 36 -150 46 -22 10 -50 19 -63 19 -42 0 -405 123 -430 145 -10 9
-9 37 3 145 9 74 22 198 30 275 7 77 19 154 25 170 7 17 14 75 17 130 5 96 4
102 -25 155 -30 57 -76 97 -121 106 -14 2 -46 11 -71 19 -25 8 -90 19 -145 24
-55 6 -131 17 -168 26 -104 24 -182 -6 -213 -82 -18 -43 -44 -177 -44 -228 0
-22 -9 -72 -20 -110 -11 -38 -20 -94 -20 -124 0 -29 -8 -91 -17 -138 -20 -96
-18 -95 -117 -45 -214 108 -268 138 -394 221 -20 13 -86 51 -147 83 -60 33
-119 68 -130 77 -29 26 -128 88 -161 103 -16 6 -51 26 -79 44 -27 17 -78 49
-113 70 -177 110 -322 206 -362 241 -25 22 -63 50 -85 63 -22 13 -66 48 -98
77 -32 29 -64 53 -70 53 -7 0 8 9 32 20 98 45 235 165 303 266 35 51 91 188
123 298 33 113 -1 231 -89 314 -93 89 -172 114 -282 92 -59 -12 -139 -51 -202
-99 -68 -51 -162 -196 -192 -298 -7 -24 -14 -43 -16 -43 -2 0 -34 31 -72 69
-54 52 -93 79 -168 117 -97 47 -101 48 -185 47 -78 -1 -94 -5 -156 -37 -79
-39 -115 -76 -151 -154 -28 -61 -14 -65 -119 31 -54 49 -92 59 -133 37 -26
-14 -60 -73 -60 -104 0 -37 61 -100 174 -180 99 -70 122 -95 174 -186 17 -30
43 -67 59 -81 37 -35 158 -116 185 -125 18 -5 14 -9 -28 -26 -81 -32 -256
-119 -299 -149 -23 -15 -97 -54 -165 -87 -173 -84 -203 -118 -166 -187 30 -55
95 -71 152 -36 17 10 41 22 55 26 13 4 106 47 206 95 212 103 271 129 373 163
41 14 93 32 116 41 23 8 64 18 91 22 49 6 51 5 69 -24 24 -42 73 -67 110 -58
16 4 45 25 66 47 l38 40 52 -38 c29 -21 73 -52 98 -68 25 -16 83 -60 130 -96
103 -80 214 -157 243 -169 12 -5 64 -39 116 -76 52 -36 124 -82 160 -101 36
-19 142 -85 236 -148 93 -62 202 -130 240 -150 123 -66 230 -127 245 -141 8
-7 89 -51 180 -97 148 -75 165 -86 163 -108 -7 -85 -21 -167 -31 -186 -7 -12
-12 -43 -12 -70 -1 -35 -24 -238 -29 -249 -1 -1 -45 -28 -99 -60 -53 -32 -124
-78 -157 -102 -33 -23 -80 -55 -104 -70 -24 -15 -65 -43 -90 -63 -25 -19 -68
-48 -96 -64 -27 -16 -68 -43 -90 -60 -22 -17 -62 -44 -88 -61 -26 -16 -67 -43
-90 -60 -24 -18 -95 -66 -158 -109 -107 -72 -179 -124 -301 -220 -28 -22 -76
-59 -107 -82 -31 -23 -99 -74 -151 -113 -123 -92 -221 -159 -390 -268 -166
-106 -207 -136 -405 -295 -467 -375 -830 -707 -879 -804 -46 -93 -40 -119 104
-418 127 -265 149 -313 160 -355 11 -42 80 -205 117 -275 8 -16 49 -97 91
-180 41 -82 92 -175 112 -205 20 -30 86 -151 146 -268 60 -117 128 -237 151
-267 88 -112 172 -137 269 -80 27 16 67 38 89 48 22 11 76 43 120 72 44 29
118 74 165 101 47 26 107 64 135 83 27 19 76 48 110 64 33 16 76 42 95 57 19
15 94 62 165 104 72 43 142 86 157 97 36 25 38 24 28 -11 -5 -16 -12 -71 -15
-122 -4 -51 -16 -149 -26 -218 -11 -69 -24 -163 -30 -209 -5 -46 -13 -102 -18
-125 -5 -22 -12 -72 -16 -111 -4 -38 -15 -117 -25 -175 -10 -58 -21 -132 -25
-165 -3 -33 -11 -76 -16 -95 -5 -19 -16 -100 -24 -180 -17 -156 -29 -247 -70
-520 -14 -96 -30 -220 -35 -275 -6 -55 -16 -134 -24 -175 -8 -41 -22 -142 -31
-225 -9 -82 -28 -240 -41 -350 -13 -110 -33 -283 -44 -385 -11 -102 -29 -264
-40 -360 -57 -492 -84 -782 -100 -1038 -5 -84 -12 -157 -15 -162 -9 -14 -35
-211 -35 -268 0 -29 -9 -89 -21 -133 -29 -111 -12 -185 58 -251 60 -57 103
-67 413 -98 110 -10 265 -28 413 -46 66 -8 158 -14 205 -14 48 0 139 -7 202
-15 63 -8 185 -22 270 -31 223 -23 352 -39 455 -57 50 -9 146 -23 215 -32 150
-19 331 -49 460 -75 167 -34 263 -51 345 -61 43 -5 111 -16 150 -25 153 -33
515 -95 605 -104 52 -5 145 -14 205 -19 169 -16 901 -33 965 -22 30 5 111 6
180 3 200 -9 478 -2 545 13 33 7 90 19 127 25 38 7 84 23 107 38 95 61 109
142 133 732 6 146 14 315 18 375 5 61 13 202 19 315 6 113 15 252 21 310 16
147 17 167 46 715 14 269 27 492 30 497 6 10 24 292 30 483 2 88 11 214 19
280 7 66 17 228 20 360 4 132 13 323 22 425 8 102 18 298 23 435 5 138 13 291
19 340 5 50 11 136 13 192 2 57 4 103 4 103 1 0 13 -17 26 -37 14 -21 126
-165 249 -320 123 -154 244 -307 269 -340 52 -67 130 -123 170 -123 59 0 224
135 485 395 66 66 135 132 152 146 140 114 471 435 579 561 27 31 95 107 151
169 110 120 141 179 129 242 -4 18 -41 92 -84 165 -42 74 -107 187 -143 253
-37 65 -96 163 -132 216 -35 54 -77 121 -93 148 -15 28 -52 87 -81 133 -29 45
-77 133 -107 195 -29 62 -76 147 -105 188 -29 41 -87 126 -128 189 -42 63 -91
134 -110 157 -18 23 -69 96 -111 162 -42 65 -106 161 -141 213 -36 51 -83 120
-105 153 -23 33 -67 94 -98 135 -32 41 -77 102 -102 135 -24 33 -61 80 -81
105 -40 49 -347 512 -334 505 4 -3 69 -12 146 -20 76 -8 144 -18 152 -20 7 -3
55 -12 105 -20 50 -7 141 -25 201 -39 61 -14 169 -34 242 -45 72 -11 148 -24
170 -29 21 -6 70 -13 108 -17 39 -3 122 -15 185 -25 63 -11 180 -29 260 -40
80 -11 152 -23 160 -26 23 -8 161 -23 320 -34 147 -10 260 -23 360 -41 30 -6
153 -17 272 -24 119 -8 288 -23 375 -34 87 -11 264 -27 393 -36 129 -9 278
-22 330 -30 52 -7 149 -16 215 -20 66 -3 156 -13 200 -20 44 -8 134 -19 200
-25 66 -6 127 -12 135 -15 8 -3 96 -11 195 -20 329 -27 511 -48 522 -59 4 -4
-25 -168 -36 -206 -6 -19 -11 -57 -11 -84 0 -27 -7 -88 -17 -136 l-16 -87
-122 5 c-109 4 -125 2 -162 -16 -103 -53 -156 -176 -167 -387 -4 -71 -11 -155
-16 -185 -5 -30 -14 -131 -20 -225 -6 -93 -18 -206 -26 -250 -8 -44 -18 -120
-23 -170 -16 -152 -32 -275 -52 -405 -10 -69 -22 -154 -25 -190 -4 -36 -11
-73 -16 -83 -5 -10 -14 -62 -19 -115 -6 -53 -15 -115 -20 -136 -6 -22 -17 -92
-25 -155 -7 -64 -18 -134 -23 -156 -10 -39 -24 -108 -43 -210 -5 -27 -16 -81
-25 -120 -9 -38 -22 -101 -28 -140 -14 -78 -38 -177 -60 -245 -8 -25 -19 -67
-25 -94 -11 -51 -51 -160 -102 -281 -108 -256 -360 -590 -670 -888 -107 -103
-222 -208 -256 -234 -110 -86 -335 -247 -394 -283 -56 -34 -265 -178 -383
-265 -33 -24 -85 -61 -115 -81 -30 -21 -80 -63 -111 -93 -31 -31 -69 -68 -85
-82 -34 -29 -137 -154 -207 -249 -151 -203 -215 -495 -158 -722 61 -244 165
-389 402 -558 128 -93 244 -141 464 -195 185 -45 506 -23 755 52 117 35 339
138 442 205 101 66 494 378 628 498 52 47 118 103 145 125 28 21 82 64 120 95
218 177 387 299 529 385 37 22 92 56 124 76 31 20 100 61 152 92 53 31 124 77
157 104 34 26 85 64 113 83 73 50 160 120 160 129 0 4 27 34 60 67 73 74 207
274 220 329 5 22 25 90 45 150 19 61 44 157 55 215 22 110 20 216 -10 520 -19
197 -23 414 -11 604 24 369 44 578 65 661 9 33 20 144 26 248 6 103 14 220 19
260 30 237 51 818 54 1502 l2 530 -33 60 c-18 33 -47 70 -66 83 -55 37 -165
62 -281 64 l-105 1 6 136 c3 75 12 175 20 224 8 48 14 103 14 122 0 22 6 38
15 41 8 3 106 1 217 -6 407 -23 919 -44 1723 -70 187 -6 390 -14 450 -18 l110
-7 -1 -30 c-5 -91 -46 -365 -62 -408 -6 -15 -23 -18 -130 -22 -172 -6 -219
-30 -275 -141 -44 -86 -75 -338 -83 -669 -4 -162 -18 -430 -35 -650 -5 -66
-13 -212 -18 -325 -11 -236 -15 -281 -36 -405 -8 -49 -15 -133 -15 -185 -2
-126 -23 -326 -61 -580 -6 -41 -17 -131 -25 -200 -14 -134 -39 -283 -48 -299
-3 -5 -13 -44 -21 -88 -16 -82 -73 -276 -106 -355 -10 -26 -19 -52 -19 -58 0
-18 -133 -281 -185 -367 -120 -196 -232 -363 -322 -479 -206 -267 -216 -277
-900 -944 -187 -182 -221 -221 -306 -345 -154 -225 -233 -401 -272 -610 -19
-100 -19 -231 -1 -287 8 -24 16 -65 19 -93 4 -31 24 -87 56 -151 43 -88 61
-111 135 -182 179 -169 315 -230 653 -291 155 -29 244 -24 513 26 232 43 493
158 690 304 182 135 305 256 491 484 45 55 108 129 139 165 31 36 121 146 201
245 189 236 424 484 639 672 464 406 495 439 623 639 89 139 207 539 207 703
0 92 -20 242 -50 376 -97 432 -110 534 -109 848 0 122 5 303 10 402 15 274 26
1015 17 1145 -5 63 -10 264 -13 445 -6 459 -21 864 -36 968 -16 117 -52 178
-131 225 l-57 33 -151 2 -151 1 6 26 c3 14 10 69 15 123 5 54 14 115 21 135 7
20 17 65 23 100 l11 62 385 0 c212 -1 1130 -4 2040 -7 1906 -7 1926 -7 2123 2
l147 7 0 -119 c0 -65 -8 -167 -17 -226 l-17 -108 -61 6 c-33 4 -78 11 -100 16
-76 16 -187 11 -223 -11 -72 -44 -119 -124 -141 -240 -7 -36 -18 -83 -26 -105
-7 -22 -16 -80 -20 -128 -4 -49 -11 -103 -17 -120 -9 -33 -31 -268 -29 -322 0
-16 -5 -64 -13 -105 -8 -41 -17 -138 -20 -215 -2 -77 -9 -160 -15 -185 -6 -25
-15 -103 -21 -175 -6 -71 -16 -152 -21 -180 -5 -27 -13 -129 -19 -225 -5 -96
-14 -204 -20 -240 -5 -36 -14 -144 -20 -240 -6 -96 -17 -215 -25 -265 -8 -49
-17 -169 -20 -265 -3 -96 -10 -197 -16 -225 -14 -74 -49 -503 -59 -715 -4
-102 -13 -221 -18 -265 -6 -44 -16 -165 -22 -270 -6 -104 -15 -239 -20 -300
-19 -214 -30 -392 -30 -482 0 -51 -6 -122 -14 -160 -8 -37 -17 -131 -20 -208
-4 -77 -11 -180 -17 -228 -5 -49 -14 -167 -19 -263 -6 -97 -17 -235 -24 -307
-8 -73 -22 -240 -31 -372 -9 -132 -26 -352 -37 -490 -11 -137 -26 -365 -33
-505 -12 -237 -18 -314 -45 -620 -6 -63 -15 -216 -21 -340 -17 -377 -62 -1125
-79 -1300 -5 -63 -15 -209 -20 -325 -5 -115 -12 -226 -15 -245 -7 -39 -30
-394 -45 -685 -5 -104 -16 -262 -25 -350 -8 -88 -19 -259 -25 -380 -6 -121
-16 -265 -21 -320 -5 -55 -14 -210 -19 -345 -5 -135 -14 -294 -20 -355 -6 -60
-18 -328 -26 -595 -8 -267 -19 -534 -24 -595 -5 -60 -10 -198 -11 -305 -3
-214 -1 -223 62 -294 55 -63 325 -144 689 -206 187 -32 262 -41 680 -76 96 -8
181 -17 189 -19 14 -5 277 -18 926 -46 223 -10 311 -10 381 -1 50 7 151 12
225 13 175 1 445 26 514 47 135 41 185 114 204 292 7 58 16 148 22 200 10 91
21 316 39 750 8 196 24 417 35 470 3 14 12 113 20 220 9 107 20 227 24 265 5
39 12 147 16 240 3 94 13 215 20 270 8 55 19 199 25 320 12 254 37 575 50 655
5 30 14 118 20 195 6 77 15 172 20 210 16 122 49 452 65 645 8 93 42 376 55
450 5 30 16 141 25 245 8 105 17 204 20 220 3 17 9 91 14 167 6 75 15 174 20
220 6 45 16 130 21 188 6 58 18 155 26 215 8 61 14 133 14 160 1 28 7 84 15
125 8 41 19 122 25 180 6 58 17 141 25 185 8 44 19 130 25 190 10 113 22 204
66 505 14 96 29 220 34 275 11 125 28 272 39 350 5 33 17 114 26 180 9 66 23
158 30 205 8 47 22 161 30 255 17 178 25 215 25 124 0 -30 5 -72 10 -94 6 -22
19 -124 29 -227 11 -103 22 -191 24 -195 3 -5 10 -66 17 -138 6 -71 16 -150
22 -175 9 -43 24 -155 48 -365 11 -100 37 -298 65 -495 8 -58 19 -145 25 -195
5 -49 14 -119 19 -155 9 -66 34 -240 71 -515 12 -82 28 -193 35 -245 18 -114
30 -209 55 -440 11 -96 22 -186 26 -199 3 -13 18 -139 34 -280 16 -141 34
-272 40 -291 5 -19 10 -54 10 -78 0 -24 4 -73 10 -110 5 -37 14 -119 20 -182
6 -63 17 -151 25 -195 16 -95 31 -237 46 -430 5 -77 14 -178 20 -225 5 -47 14
-143 19 -215 6 -71 14 -173 19 -225 5 -52 14 -156 20 -230 6 -74 18 -202 26
-285 8 -82 20 -215 25 -295 6 -80 13 -152 15 -160 5 -16 20 -146 35 -295 5
-49 18 -187 30 -305 12 -118 25 -262 30 -320 5 -58 14 -141 19 -185 6 -44 13
-138 16 -210 8 -192 24 -395 40 -525 8 -63 19 -169 26 -235 21 -222 46 -293
117 -348 19 -15 52 -31 71 -36 131 -33 174 -41 213 -41 23 0 70 -5 103 -10 33
-6 139 -15 235 -20 96 -6 240 -15 320 -20 259 -16 1065 -23 1170 -11 52 7 154
16 225 21 357 23 467 32 540 45 44 8 105 17 135 21 64 7 209 36 295 59 33 8
103 22 155 31 89 14 178 38 260 69 19 8 46 17 60 20 58 16 112 58 151 117 l39
61 -1 156 c0 207 -13 453 -54 1066 -9 121 -20 326 -25 455 -6 129 -15 285 -20
345 -5 61 -14 183 -20 272 -6 89 -15 176 -20 195 -6 18 -10 69 -10 113 0 76
-26 383 -35 415 -2 8 -9 101 -15 207 -6 105 -15 217 -21 250 -5 32 -18 175
-29 318 -23 302 -34 433 -55 640 -8 83 -15 186 -15 230 -1 44 -5 112 -10 150
-5 39 -16 174 -25 300 -8 127 -21 280 -29 340 -8 61 -17 182 -20 271 -3 88
-10 196 -16 240 -13 102 -38 395 -50 599 -5 88 -19 268 -30 400 -21 250 -45
588 -61 835 -5 80 -14 186 -20 235 -6 50 -15 153 -20 230 -5 77 -14 196 -20
265 -5 69 -14 202 -19 295 -5 94 -14 231 -19 305 -6 74 -18 233 -26 353 -8
120 -19 255 -25 300 -6 45 -15 145 -20 222 -5 77 -14 192 -19 255 -20 217 -51
625 -61 790 -5 91 -14 206 -19 255 -24 220 -42 444 -51 620 -6 105 -17 255
-25 335 -8 80 -15 183 -15 230 0 47 -7 126 -15 175 -8 50 -19 164 -25 255 -6
91 -13 174 -16 185 -2 11 -11 99 -19 196 -8 96 -18 187 -24 201 -5 15 -13 116
-16 225 -3 109 -10 239 -16 288 -5 50 -18 169 -29 265 -25 222 -54 388 -80
448 -47 110 -191 162 -320 117 -71 -25 -83 -21 -77 23 4 20 14 150 23 287 9
138 18 252 20 254 1 2 43 7 91 12 48 5 102 13 118 18 17 6 88 17 159 26 71 9
133 18 138 21 8 5 148 25 346 49 67 8 153 21 190 29 174 36 244 49 332 61 115
16 275 42 350 56 30 6 84 15 120 20 59 8 146 23 375 64 44 8 139 24 210 36 72
11 166 29 210 39 44 10 114 21 155 25 85 6 233 30 331 51 36 8 106 19 155 25
49 5 113 18 142 29 29 11 72 20 95 20 23 0 69 7 102 14 33 8 94 17 136 21 l76
6 -10 -63 c-8 -43 -7 -142 0 -318 6 -140 9 -317 6 -393 -4 -109 -2 -151 11
-196 10 -36 15 -87 13 -137 -3 -107 11 -523 23 -659 10 -124 27 -618 35 -1010
2 -143 9 -294 14 -335 5 -41 13 -205 16 -365 3 -159 12 -387 20 -505 8 -118
16 -300 20 -405 3 -104 10 -228 16 -275 5 -47 14 -152 19 -235 13 -225 39
-481 56 -559 9 -37 20 -114 24 -170 9 -109 31 -281 55 -441 23 -156 45 -327
60 -485 7 -80 21 -197 29 -260 8 -63 20 -169 26 -235 5 -66 15 -151 20 -190
20 -143 49 -413 55 -515 4 -58 10 -123 15 -145 7 -33 21 -215 35 -475 19 -333
39 -635 55 -810 10 -118 21 -280 24 -360 3 -80 10 -190 15 -245 6 -55 13 -210
16 -345 4 -135 11 -266 16 -292 5 -26 13 -175 19 -330 6 -156 15 -337 21 -403
6 -66 13 -151 15 -190 2 -38 8 -117 14 -175 5 -58 16 -195 24 -305 8 -110 20
-227 25 -260 6 -33 15 -136 21 -230 5 -93 14 -184 19 -202 5 -17 12 -67 16
-110 4 -43 16 -118 26 -168 10 -49 19 -111 19 -136 0 -25 8 -79 19 -120 10
-41 24 -100 31 -133 8 -41 22 -69 46 -96 l34 -38 -15 -57 c-8 -32 -21 -104
-30 -161 -8 -56 -18 -109 -21 -117 -3 -8 -11 -55 -19 -104 -7 -48 -23 -142
-35 -208 -26 -144 -22 -176 30 -227 43 -44 57 -46 94 -17 39 30 54 68 61 145
4 38 13 96 20 129 20 85 45 249 45 295 0 21 8 66 19 101 10 35 24 92 31 127 7
34 17 65 21 68 5 3 35 2 67 -2 l58 -6 -7 -60 c-4 -32 -10 -130 -13 -216 -4
-86 -12 -221 -18 -299 l-11 -143 29 -57 c31 -62 60 -81 107 -69 53 13 64 52
71 261 3 105 11 244 16 310 6 66 14 161 18 210 l7 90 85 7 c47 3 88 3 91 0 4
-4 10 -173 13 -376 7 -389 8 -398 57 -447 19 -19 73 -26 95 -11 20 13 44 70
44 104 0 18 -2 198 -4 399 l-4 367 76 5 c43 3 88 7 102 9 20 2 25 -2 27 -22 1
-14 6 -113 12 -220 5 -107 12 -202 16 -210 3 -9 6 -77 8 -151 2 -132 3 -137
32 -185 51 -82 118 -85 163 -9 17 30 21 50 17 80 -11 86 -37 416 -49 636 l-6
105 97 12 c130 16 123 18 123 -25 0 -44 25 -353 40 -493 6 -52 10 -117 10
-143 0 -74 59 -167 107 -167 34 0 76 33 94 75 18 41 18 49 5 127 -8 46 -17
130 -21 188 -3 58 -10 134 -15 170 -5 36 -11 119 -15 185 l-5 120 88 18 c139
27 127 36 141 -100 6 -65 16 -170 21 -233 30 -374 37 -423 64 -462 42 -62 117
-59 157 6 24 39 24 66 0 208 -11 62 -24 194 -31 293 -6 99 -15 209 -20 245 -5
36 -6 68 -2 72 5 5 153 28 183 28 9 0 29 -106 29 -155 0 -23 6 -64 14 -91 8
-27 19 -91 25 -141 6 -51 16 -105 22 -119 5 -15 12 -70 15 -123 4 -65 13 -110
26 -139 40 -84 122 -91 166 -13 25 45 27 78 8 141 -7 25 -16 83 -20 130 -10
124 -45 349 -60 395 -8 22 -17 66 -20 98 l-6 57 52 0 c29 0 84 7 123 15 38 8
71 15 71 15 1 0 4 -33 7 -72 3 -40 13 -118 22 -173 8 -55 22 -152 29 -216 7
-64 17 -122 21 -129 4 -6 11 -45 16 -85 9 -80 22 -114 63 -157 34 -38 70 -36
111 5 45 45 59 97 39 151 -9 22 -20 65 -25 95 -5 29 -15 63 -21 75 -7 11 -15
75 -20 141 -4 66 -14 170 -22 230 -25 179 -26 172 42 180 31 4 81 13 111 21
40 12 56 12 61 4 7 -11 23 -141 40 -322 4 -47 11 -91 14 -96 3 -6 17 -88 30
-183 26 -181 36 -208 89 -239 33 -18 72 -6 101 33 26 35 27 86 3 222 -33 187
-80 606 -69 617 4 4 39 12 77 18 39 5 86 13 106 16 l37 6 5 -43 c18 -159 32
-240 48 -281 11 -26 19 -62 19 -81 0 -18 7 -56 15 -83 8 -27 15 -74 15 -105 0
-165 67 -277 154 -255 18 4 33 21 52 59 25 49 26 55 14 97 -14 49 -34 160 -50
280 -6 41 -17 95 -26 120 -12 37 -27 156 -37 300 -2 23 2 26 48 31 28 4 68 11
90 17 22 5 56 13 76 16 l36 6 12 -109 c7 -60 21 -142 32 -182 10 -41 19 -97
19 -125 0 -27 9 -84 19 -125 10 -41 22 -98 25 -128 11 -87 67 -171 114 -171
24 0 79 42 91 68 16 34 13 88 -5 125 -9 17 -23 70 -30 117 -7 47 -18 108 -23
135 -17 83 -31 176 -40 255 -5 41 -12 98 -16 126 l-7 52 43 5 c24 2 77 12 118
21 41 9 80 15 86 12 7 -2 15 -36 20 -82 4 -43 13 -98 21 -123 8 -25 14 -66 14
-91 1 -46 3 -58 38 -210 11 -47 23 -112 27 -145 10 -86 35 -137 80 -165 l38
-24 36 20 c66 35 71 92 26 289 -25 111 -43 209 -76 423 -19 120 -20 145 -9
152 13 8 81 22 175 35 l40 6 13 -53 c12 -53 84 -474 101 -595 23 -155 121
-213 188 -112 26 40 26 42 15 107 -35 195 -112 658 -112 672 0 11 23 20 83 34
45 10 90 20 99 23 22 5 34 -19 43 -87 3 -30 12 -75 20 -100 7 -25 19 -85 25
-135 7 -49 17 -98 22 -107 4 -9 12 -59 18 -111 15 -150 68 -247 135 -247 36 0
73 30 89 72 18 45 16 60 -23 218 -21 89 -51 236 -60 300 -5 36 -16 92 -25 125
-21 78 -21 112 2 119 33 10 163 36 183 36 15 0 19 -7 19 -33 0 -19 9 -60 20
-92 11 -32 20 -75 20 -96 0 -21 6 -58 14 -81 8 -24 19 -79 25 -122 6 -43 18
-99 26 -123 8 -24 15 -62 15 -84 0 -117 102 -188 171 -120 37 38 39 91 4 215
-13 49 -29 132 -35 183 -6 52 -18 109 -26 128 -8 19 -14 53 -14 75 0 22 -9 66
-20 97 -30 85 -27 100 18 112 20 5 57 14 82 21 76 20 95 18 98 -10 2 -14 10
-47 19 -74 8 -26 21 -74 28 -105 14 -60 47 -183 63 -241 6 -19 15 -60 21 -90
26 -144 39 -184 70 -212 49 -43 105 -32 137 27 20 39 16 134 -10 183 -9 17
-20 63 -26 102 -6 39 -14 79 -19 89 -5 9 -21 73 -36 142 -14 68 -34 148 -44
178 -22 63 -19 79 18 86 14 3 49 12 77 20 28 8 64 15 81 15 27 0 31 -4 36 -32
3 -18 11 -53 17 -78 11 -43 19 -72 81 -300 16 -58 34 -136 40 -175 24 -164
128 -236 196 -136 29 43 29 72 -1 163 -13 40 -27 98 -31 128 -4 30 -15 82 -25
115 -10 33 -25 96 -35 140 -9 44 -23 111 -32 149 -8 37 -11 72 -6 76 4 4 50
17 102 30 109 26 121 20 121 -52 0 -21 9 -64 20 -95 11 -32 20 -69 20 -83 0
-27 42 -174 66 -229 9 -19 18 -57 21 -85 8 -73 53 -158 95 -180 32 -17 36 -17
66 -2 58 30 76 94 46 164 -9 20 -25 78 -36 127 -35 158 -47 209 -63 265 -8 30
-15 67 -15 82 0 15 -9 51 -20 80 -27 70 -26 88 4 88 13 0 51 9 84 19 34 11 76
23 95 26 l33 6 13 -62 c7 -35 20 -77 28 -94 9 -16 22 -57 29 -90 14 -64 65
-265 90 -352 18 -65 73 -145 107 -157 35 -13 72 5 97 46 26 43 25 83 -4 144
-36 75 -107 335 -120 441 -4 28 -15 77 -26 109 -11 32 -18 64 -16 70 2 6 32
16 66 23 33 7 78 18 99 26 46 16 56 10 64 -35 13 -69 72 -265 103 -340 8 -19
25 -79 39 -133 28 -116 68 -194 111 -219 30 -18 32 -18 65 5 19 12 43 40 53
61 21 43 20 48 -22 166 -48 138 -82 247 -82 266 0 24 -50 192 -74 246 -18 43
-11 53 49 64 22 4 58 13 79 21 36 12 41 12 50 -4 23 -40 106 -238 106 -253 0
-9 9 -34 21 -55 11 -22 36 -80 56 -130 62 -159 103 -232 135 -246 40 -16 76
-3 105 40 30 44 29 83 -3 151 -15 30 -46 105 -69 165 -35 91 -67 169 -162 392
-7 17 107 67 126 56 8 -5 45 -60 84 -123 39 -63 95 -153 124 -200 30 -47 69
-116 88 -155 41 -83 69 -117 113 -139 29 -15 35 -15 62 -1 33 17 70 69 70 97
0 24 -59 132 -139 252 -38 57 -101 161 -141 230 -39 69 -76 128 -81 132 -13 7
-11 64 2 104 12 33 1 230 -23 410 -5 41 -13 120 -18 175 -12 147 -38 389 -50
475 -6 41 -14 127 -20 190 -5 63 -16 160 -24 215 -21 143 -30 245 -27 285 2
36 -29 299 -54 455 -8 50 -19 146 -25 215 -6 69 -12 134 -15 146 -3 12 -9 75
-15 140 -16 186 -80 642 -111 794 -11 52 -26 136 -34 185 -8 50 -22 133 -31
185 -9 52 -20 124 -24 160 -5 36 -18 117 -29 180 -11 63 -32 185 -46 270 -14
85 -34 200 -45 255 -10 55 -26 147 -35 205 -9 58 -22 139 -30 180 -36 193 -97
577 -115 725 -15 127 -37 276 -48 325 -6 25 -15 88 -22 140 -6 52 -17 133 -25
180 -7 47 -23 141 -34 210 -44 266 -53 328 -61 405 -5 44 -17 136 -29 205 -11
69 -27 175 -36 235 -16 111 -43 276 -71 440 -8 50 -21 133 -29 186 -7 53 -20
141 -29 195 -16 95 -23 130 -66 329 -10 50 -23 117 -28 150 -6 33 -26 143 -47
245 -20 102 -43 217 -51 255 -8 39 -21 104 -30 145 -9 41 -22 109 -29 150 -6
41 -17 98 -23 125 -20 85 -44 207 -52 265 -4 30 -15 82 -23 115 -35 132 -55
223 -61 280 -6 54 -28 157 -102 480 -14 61 -31 133 -39 160 -7 28 -18 84 -24
125 -6 41 -15 95 -20 120 -6 25 -19 95 -31 155 -11 61 -27 139 -35 175 -8 36
-19 101 -25 145 -12 104 -47 305 -65 375 -8 30 -17 89 -20 130 -3 41 -13 109
-21 150 -14 76 -65 394 -85 530 -5 41 -13 91 -15 110 -5 31 -25 103 -56 195
-26 77 -42 63 162 137 30 11 71 26 90 33 19 7 76 25 125 40 92 27 109 33 275
103 52 22 120 49 150 60 30 11 80 29 110 41 30 11 105 36 167 55 61 19 158 53
215 75 56 21 123 46 148 54 80 26 293 103 360 130 144 58 227 90 260 102 19 8
73 29 120 49 46 20 91 36 100 36 9 0 33 9 55 20 51 26 52 25 60 -9 15 -69 92
-141 149 -141 28 0 96 29 96 42 0 4 11 15 24 23 21 14 28 14 59 2 18 -8 58
-18 88 -22 64 -9 110 -24 193 -65 68 -33 241 -80 296 -80 19 0 51 5 70 10 72
22 208 15 305 -15 113 -35 200 -55 242 -55 111 -1 189 102 132 174 -32 41 -58
50 -144 51 -54 1 -98 8 -138 23 -93 34 -199 47 -271 34 -33 -6 -70 -12 -81
-14 -37 -4 -159 13 -215 30 -57 16 -85 32 -59 32 26 0 176 117 210 162 98 135
115 241 57 350 -18 34 -46 74 -62 91 -40 40 -161 97 -206 97 -36 0 -165 -38
-238 -71 -23 -10 -45 -19 -47 -19 -3 0 -5 34 -5 75 0 107 -68 283 -134 349
-83 82 -166 95 -281 45z m166 -239 c28 -34 29 -40 30 -155 2 -97 -2 -127 -16
-155 -24 -49 -99 -159 -107 -160 -15 0 -77 128 -88 183 -14 68 -5 186 16 232
45 97 113 119 165 55z m-3036 -96 c22 -7 66 -16 98 -20 78 -9 78 -8 47 -284
-5 -41 -14 -138 -19 -215 -6 -77 -15 -174 -21 -215 -24 -186 -29 -231 -36
-327 l-6 -103 -55 0 c-52 0 -172 23 -313 59 -47 12 -64 21 -61 32 2 8 7 77 12
154 5 77 15 163 23 190 22 79 65 420 66 525 0 30 7 77 15 104 8 27 15 63 15
81 0 17 3 35 7 39 10 10 182 -5 228 -20z m-38297 -168 c56 -29 76 -61 74 -121
-3 -117 -43 -200 -149 -311 -52 -54 -89 -82 -158 -117 -49 -25 -90 -45 -92
-43 -2 1 -8 40 -15 85 -10 75 -10 85 10 129 11 26 25 68 31 95 29 126 97 214
206 267 71 35 60 33 93 16z m41925 -127 c14 -6 31 -22 38 -35 25 -47 -54 -165
-140 -208 -60 -31 -191 -59 -239 -53 -69 10 -132 30 -132 43 0 18 80 108 154
172 56 49 90 65 181 85 40 9 115 7 138 -4z m-42729 -115 c59 -33 112 -85 161
-160 36 -53 81 -171 71 -182 -3 -3 -23 2 -43 10 -21 8 -69 25 -108 38 -38 13
-95 37 -125 53 -228 121 -244 140 -191 217 46 66 143 76 235 24z m38874 -934
c70 -5 143 -14 162 -20 19 -5 52 -10 73 -10 l39 0 -6 -47 c-15 -131 -20 -217
-17 -303 2 -74 -1 -105 -14 -135 -13 -29 -18 -75 -20 -170 -2 -78 -10 -152
-19 -185 -9 -30 -16 -86 -16 -125 0 -96 -2 -98 -85 -74 -42 12 -110 22 -170
24 -55 2 -113 8 -128 14 -16 6 -53 11 -84 11 l-55 0 6 38 c3 20 11 79 16 130
6 51 15 112 20 135 5 23 17 98 25 167 21 166 33 245 50 305 7 28 18 94 24 149
13 115 15 120 48 111 14 -3 82 -10 151 -15z m-36131 -131 c15 -7 80 -18 143
-25 63 -8 117 -17 122 -22 10 -10 -16 -300 -30 -335 -7 -16 -12 -47 -12 -70 0
-65 -20 -255 -35 -332 -8 -38 -16 -108 -19 -154 -3 -47 -10 -89 -16 -95 -7 -7
-30 -5 -74 7 -35 9 -91 17 -123 17 -63 0 -169 22 -185 38 -6 6 -2 39 10 93 11
46 23 123 26 171 4 47 11 101 17 120 5 18 14 71 19 118 22 195 49 388 60 433
11 42 15 47 41 47 15 0 40 -5 56 -11z m29914 -131 c8 -14 20 -136 30 -298 10
-151 24 -338 33 -415 8 -77 17 -177 20 -222 l5 -81 -52 0 c-29 0 -127 -6 -220
-13 -102 -8 -171 -9 -176 -3 -5 5 -14 133 -20 284 -7 151 -16 295 -21 320 -9
44 -34 400 -28 405 2 2 64 8 138 14 75 7 158 16 185 20 82 14 93 13 106 -11z
m5760 -110 c-6 -17 -11 -54 -11 -82 0 -28 -7 -78 -14 -111 -8 -33 -20 -114
-26 -180 -6 -66 -16 -133 -21 -150 -5 -16 -16 -65 -22 -107 -18 -104 -3 -157
53 -194 40 -27 198 -56 425 -79 39 -4 86 -13 105 -20 19 -8 76 -16 126 -18
110 -7 158 12 205 76 28 39 29 42 29 171 0 72 5 148 10 168 10 36 22 134 40
322 5 54 13 103 18 108 11 11 26 -31 36 -97 4 -22 15 -76 26 -120 25 -109 50
-253 56 -333 3 -37 12 -87 20 -112 7 -25 18 -83 23 -130 5 -47 15 -121 21
-165 11 -76 16 -109 41 -242 5 -32 19 -107 29 -168 71 -415 116 -649 140 -737
11 -40 29 -122 40 -183 18 -100 28 -148 62 -285 11 -47 24 -116 52 -280 20
-113 53 -281 66 -330 5 -19 23 -109 40 -200 17 -91 46 -230 64 -310 60 -258
168 -804 196 -990 20 -128 43 -259 65 -365 8 -38 20 -103 25 -144 6 -40 12
-77 15 -81 8 -14 55 -315 55 -358 0 -24 6 -73 14 -110 8 -37 17 -103 20 -147
3 -44 13 -116 21 -160 27 -138 93 -565 105 -670 6 -55 15 -125 20 -155 5 -30
14 -98 20 -150 6 -52 15 -111 20 -130 5 -19 14 -77 20 -129 6 -52 13 -97 15
-101 2 -4 14 -67 25 -141 12 -74 30 -188 40 -254 11 -66 26 -165 35 -220 9
-55 20 -113 25 -130 5 -16 12 -57 15 -90 4 -33 13 -85 22 -115 8 -30 19 -84
23 -120 10 -81 45 -290 65 -390 8 -42 15 -91 15 -110 0 -36 27 -195 61 -358
10 -51 19 -107 19 -125 0 -18 6 -57 14 -87 18 -75 27 -132 87 -565 11 -82 27
-195 35 -250 8 -55 19 -158 24 -230 6 -71 15 -164 21 -205 6 -41 14 -122 19
-180 4 -58 14 -150 21 -205 19 -155 22 -142 -46 -171 -33 -14 -94 -29 -135
-34 -41 -5 -111 -18 -155 -29 -128 -30 -323 -80 -415 -106 -47 -13 -134 -38
-194 -55 -61 -17 -139 -37 -175 -44 -73 -15 -144 -32 -336 -82 -71 -18 -173
-44 -225 -58 -286 -73 -532 -129 -832 -186 -80 -15 -161 -33 -180 -38 -18 -6
-109 -24 -203 -41 -93 -16 -197 -34 -230 -40 -33 -6 -105 -20 -160 -31 -174
-36 -356 -71 -470 -90 -60 -10 -171 -30 -245 -44 -74 -14 -153 -26 -175 -26
-22 0 -65 -7 -95 -15 -30 -8 -70 -15 -89 -15 -19 0 -73 -9 -120 -20 -89 -21
-453 -83 -696 -120 -149 -23 -242 -39 -370 -64 -74 -14 -171 -29 -460 -71 -60
-9 -139 -22 -175 -30 -36 -8 -105 -19 -154 -25 -49 -6 -123 -18 -165 -26 -42
-8 -119 -19 -171 -24 -151 -14 -350 -39 -410 -51 -30 -6 -84 -14 -120 -19 -97
-12 -413 -60 -430 -65 -15 -5 -302 -41 -558 -71 -74 -8 -157 -14 -185 -12
l-52 3 -7 120 c-4 66 -12 179 -18 250 -6 72 -15 234 -21 360 -17 396 -35 698
-59 1010 -6 77 -17 277 -25 445 -8 168 -21 391 -30 495 -8 105 -20 255 -25
335 -5 80 -17 217 -25 305 -8 88 -19 234 -25 325 -6 91 -20 242 -31 335 -29
237 -35 293 -59 520 -11 110 -23 207 -25 216 -3 9 -12 81 -20 160 -8 79 -26
218 -40 309 -30 198 -51 350 -71 525 -8 71 -19 157 -25 190 -6 33 -14 103 -19
155 -30 355 -40 504 -50 725 -6 138 -16 295 -21 350 -5 55 -14 233 -19 395 -5
162 -14 354 -19 425 -6 72 -15 337 -21 590 -6 253 -15 512 -20 575 -5 63 -9
185 -9 270 -1 171 -16 442 -31 535 -5 33 -11 251 -15 485 -4 303 -10 455 -21
528 -12 80 -13 115 -5 150 6 26 15 85 21 132 7 70 44 210 55 210 1 0 1 -28 -2
-62 -3 -37 1 -88 10 -124 8 -33 12 -83 10 -111 -3 -28 0 -74 7 -101 6 -28 13
-118 14 -200 3 -142 4 -153 30 -196 36 -62 74 -80 145 -72 31 4 92 11 136 15
44 4 112 17 150 29 49 14 115 22 220 27 173 8 193 15 231 81 l27 46 -12 127
c-6 70 -15 141 -20 158 -5 16 -12 72 -16 123 -4 51 -11 106 -16 122 -14 51
-42 379 -33 387 15 14 226 79 279 87 28 3 77 15 110 25 33 10 101 25 150 34
50 9 131 25 180 35 50 10 119 22 155 25 36 4 83 11 104 17 22 5 88 13 146 18
102 7 253 35 350 65 25 8 88 21 140 30 52 9 127 24 165 35 39 10 121 28 184
40 137 26 301 67 476 121 181 55 250 76 325 98 161 47 221 65 305 93 50 16
124 36 165 43 41 7 120 25 175 40 55 15 127 32 160 37 56 10 112 27 290 90 77
28 219 66 365 99 52 12 149 36 215 54 66 18 138 36 160 40 34 6 113 27 370
100 91 25 179 45 292 65 62 11 123 24 135 29 28 11 33 0 19 -41z m-31572 -92
c15 -8 52 -18 82 -21 67 -7 170 -35 186 -49 9 -8 10 -22 4 -46 -5 -19 -14 -84
-21 -145 -6 -60 -18 -132 -25 -160 -8 -27 -17 -77 -21 -110 -3 -33 -17 -114
-29 -180 -13 -66 -31 -168 -41 -227 -16 -100 -19 -107 -38 -103 -97 21 -170
41 -218 61 -32 13 -74 24 -94 24 -33 0 -36 2 -30 23 25 85 55 240 67 347 4 41
14 95 22 120 8 25 18 70 21 100 12 94 67 354 78 367 13 17 23 16 57 -1z
m-3701 -720 c64 -32 617 -204 712 -221 19 -4 53 -12 75 -19 181 -59 340 -99
540 -136 147 -27 225 -42 285 -57 77 -18 155 -35 265 -58 44 -9 108 -22 142
-30 34 -8 81 -15 105 -15 49 0 230 -33 328 -60 95 -26 274 -58 360 -65 41 -4
98 -13 125 -20 28 -7 70 -16 95 -20 25 -3 57 -8 72 -11 l27 -5 -67 -82 c-86
-107 -246 -263 -325 -318 -178 -123 -258 -173 -355 -221 -135 -66 -342 -138
-397 -138 -23 0 -66 -7 -96 -16 -103 -31 -311 -34 -510 -8 -212 29 -360 74
-547 168 -108 54 -125 65 -277 187 -230 183 -427 434 -539 689 -16 36 -39 83
-52 105 -22 39 -22 46 -17 203 3 89 10 162 15 162 5 0 21 -6 36 -14z m24568
-91 c54 -8 124 -15 154 -15 100 -1 114 -32 86 -187 -8 -43 -20 -139 -26 -213
-7 -74 -18 -169 -25 -210 -7 -41 -16 -111 -20 -155 -4 -44 -13 -105 -21 -136
-8 -31 -14 -80 -14 -109 l0 -52 -92 7 c-51 3 -119 13 -151 21 -32 8 -71 14
-87 14 -51 0 -60 9 -60 56 0 66 18 223 41 359 20 118 33 240 48 465 9 121 23
170 51 170 9 0 61 -7 116 -15z m-5996 -30 c31 -8 99 -15 156 -15 147 0 139 19
130 -296 -4 -141 -13 -379 -21 -528 -8 -149 -15 -273 -15 -276 0 -7 -253 -2
-335 7 l-70 8 3 150 c2 83 7 185 13 227 5 42 9 98 8 125 -1 67 10 477 16 537
7 79 20 86 115 61z m-19170 -35 c34 -11 80 -20 101 -20 37 0 230 -28 236 -34
5 -5 -17 -252 -32 -371 -21 -158 -33 -276 -41 -387 -8 -112 4 -105 -129 -82
-49 8 -138 18 -197 21 -141 7 -150 15 -119 106 11 35 21 81 21 103 0 22 9 74
20 115 11 44 20 109 20 159 1 47 5 108 10 135 5 28 14 86 20 130 18 126 21
145 24 145 2 0 32 -9 66 -20z m10422 -80 c57 -11 133 -23 171 -26 l67 -7 0
-49 c0 -28 -6 -76 -14 -107 -8 -31 -20 -126 -26 -211 -14 -181 -21 -245 -44
-395 -9 -60 -19 -125 -22 -143 -4 -27 -9 -31 -27 -28 -12 3 -52 7 -89 11 -37
3 -84 12 -106 19 -22 8 -65 17 -97 21 -31 4 -59 13 -61 20 -3 7 4 77 15 156
11 79 22 160 25 179 2 19 11 76 20 125 9 50 16 119 16 155 1 36 7 94 15 130 8
36 14 83 15 106 0 37 13 64 32 64 4 0 54 -9 110 -20z m19810 -175 c4 -60 12
-141 18 -180 6 -38 15 -122 20 -185 5 -63 14 -131 20 -150 6 -19 15 -87 21
-150 5 -63 12 -137 15 -163 4 -27 2 -53 -3 -58 -5 -5 -66 -11 -135 -13 -70 -2
-132 -7 -139 -12 -7 -4 -49 -11 -93 -16 -45 -4 -92 -9 -106 -10 -24 -3 -25 0
-28 57 -1 33 -12 173 -24 310 -11 138 -22 277 -23 310 -1 33 -7 118 -13 189
-6 71 -9 133 -6 138 3 4 42 8 87 8 45 1 102 6 127 12 47 11 188 26 230 24 25
-1 25 -3 32 -111z m-16394 75 c19 0 118 -17 200 -35 20 -5 22 -11 22 -68 0
-34 -5 -80 -11 -102 -6 -22 -17 -77 -24 -123 -8 -45 -23 -120 -33 -165 -11
-45 -25 -122 -31 -172 -6 -49 -22 -144 -34 -210 -20 -106 -26 -120 -43 -118
-37 3 -199 31 -244 42 -25 6 -58 12 -75 13 -26 3 -30 7 -29 33 2 62 34 283 49
330 8 28 17 77 21 110 4 33 17 110 29 170 12 61 20 124 18 141 -5 33 31 164
48 175 5 3 33 0 62 -8 28 -7 62 -13 75 -13z m-9623 -156 c44 -14 101 -28 128
-31 47 -6 47 -6 47 -43 0 -21 -11 -96 -25 -166 -14 -70 -25 -146 -25 -169 0
-23 -6 -64 -14 -91 -8 -27 -19 -105 -26 -174 -9 -104 -28 -227 -35 -238 -2 -1
-44 6 -96 18 -51 11 -119 20 -150 20 -66 0 -159 16 -173 30 -6 6 -3 39 9 92 9
46 23 128 30 183 6 55 21 134 33 175 32 118 44 170 52 240 5 36 14 94 22 129
l13 63 65 -6 c36 -4 101 -18 145 -32z m-4543 -91 c-6 -26 -16 -93 -22 -148 -7
-55 -19 -120 -26 -145 -8 -25 -17 -86 -21 -135 -5 -80 -3 -95 16 -133 27 -54
66 -78 139 -85 31 -4 113 -14 182 -23 128 -16 253 -30 350 -40 50 -5 59 -3 92
23 21 15 45 46 55 69 l17 41 34 -71 c19 -39 58 -107 87 -151 84 -126 83 -123
34 -175 -23 -24 -50 -62 -60 -84 -16 -36 -16 -43 -3 -68 31 -60 106 -44 154
33 16 27 32 49 35 49 3 0 36 -30 73 -68 37 -37 111 -105 165 -151 98 -83 98
-84 79 -105 -23 -25 -67 -111 -75 -146 -8 -34 24 -87 58 -96 16 -4 34 0 51 11
27 17 74 106 74 140 1 49 12 48 146 -16 121 -57 391 -159 424 -159 34 -1 43
-16 27 -46 -24 -47 -33 -223 -13 -262 31 -59 81 -51 118 21 16 32 22 66 26
140 6 116 4 115 109 100 92 -13 274 -1 426 28 59 12 113 19 121 16 8 -3 15
-32 19 -80 11 -123 45 -170 112 -153 50 13 69 102 44 216 -14 64 -8 71 79 104
37 14 102 46 143 70 119 70 123 70 143 -4 18 -62 44 -100 71 -100 44 0 85 43
85 89 0 11 -16 43 -35 71 l-36 53 23 25 c34 36 199 162 213 162 6 0 17 -18 24
-40 16 -53 70 -110 105 -110 31 0 72 37 82 74 7 28 -34 127 -68 163 l-21 22
29 33 c16 19 40 50 54 71 30 44 30 44 80 11 37 -24 46 -26 106 -21 41 4 91 1
132 -7 37 -8 96 -17 132 -21 36 -4 98 -17 139 -31 91 -30 103 -30 168 0 46 22
56 32 84 88 31 59 33 74 45 233 7 94 13 187 13 208 1 57 2 56 156 -173 36 -52
72 -106 82 -120 133 -189 189 -264 230 -310 26 -31 71 -92 98 -135 27 -44 65
-102 84 -130 19 -27 57 -84 85 -125 27 -41 91 -131 141 -200 51 -69 102 -144
114 -167 12 -23 49 -82 82 -130 107 -154 164 -245 234 -373 69 -126 172 -301
208 -353 43 -63 187 -322 185 -333 -6 -23 -414 -437 -473 -479 -59 -43 -158
-142 -302 -303 -40 -44 -101 -101 -135 -127 -64 -47 -172 -145 -322 -288 l-81
-79 -32 39 c-34 41 -292 379 -392 514 -87 118 -130 140 -197 99 -45 -28 -68
-91 -62 -167 3 -32 2 -89 -2 -128 -16 -140 -31 -365 -41 -605 -5 -135 -14
-294 -19 -355 -5 -60 -18 -279 -30 -485 -11 -206 -24 -411 -29 -455 -5 -44
-14 -190 -20 -325 -7 -135 -17 -285 -23 -335 -6 -49 -12 -128 -13 -175 -6
-213 -27 -666 -31 -680 -3 -8 -10 -89 -15 -180 -5 -91 -16 -264 -25 -385 -8
-121 -22 -326 -29 -455 -8 -129 -19 -309 -25 -400 -5 -91 -15 -244 -20 -340
-6 -96 -13 -196 -16 -221 l-6 -46 -74 -17 c-101 -24 -263 -31 -679 -30 -675 2
-1179 27 -1475 73 -235 37 -514 84 -565 96 -33 7 -89 20 -125 28 -73 17 -340
61 -530 88 -69 9 -146 22 -171 28 -25 6 -90 13 -145 17 -54 3 -124 12 -154 19
-30 7 -91 16 -135 19 -44 4 -125 13 -180 21 -183 26 -531 55 -713 60 -78 3
-176 14 -301 36 -30 5 -70 9 -90 9 -42 1 -207 40 -236 57 -18 11 -19 15 -7 95
7 46 12 108 12 136 0 29 7 85 15 125 8 40 21 185 30 322 8 138 22 293 31 345
8 52 19 129 23 170 26 223 33 285 57 504 14 131 27 284 29 340 2 91 27 292 39
327 3 8 14 91 25 184 36 301 52 427 77 595 13 91 28 212 34 270 6 58 19 159
30 225 10 66 22 152 25 190 4 39 20 151 36 250 16 99 38 254 49 345 11 91 29
224 40 295 12 72 28 184 35 250 8 66 21 156 29 200 9 44 16 107 16 140 0 33 6
80 14 105 7 25 17 82 21 128 6 68 4 87 -9 108 -20 30 -73 64 -100 64 -20 0
-190 -98 -371 -215 -60 -39 -146 -90 -190 -114 -44 -24 -114 -65 -155 -92
-241 -157 -275 -177 -283 -166 -48 74 -134 232 -153 284 -14 36 -44 91 -68
122 -54 70 -129 210 -149 277 -8 28 -48 113 -88 190 -88 165 -127 253 -164
366 -23 68 -125 287 -198 423 -9 17 -30 62 -47 100 l-31 70 53 49 c29 27 87
81 128 121 41 39 100 89 132 111 31 21 105 79 165 129 173 143 353 275 651
477 78 54 200 140 270 192 70 52 150 111 177 131 79 57 157 115 237 175 40 31
125 90 188 133 155 105 210 144 245 176 17 15 84 62 150 105 66 43 167 108
225 146 58 38 107 67 109 65 2 -2 -1 -26 -7 -52z m862 -171 c8 -16 52 -77 97
-138 228 -304 467 -520 693 -628 210 -100 363 -150 551 -181 351 -57 422 -54
795 29 214 48 260 67 506 207 66 38 128 69 137 69 15 0 67 -91 67 -117 0 -26
-180 -176 -332 -276 -24 -16 -61 -41 -83 -57 -22 -15 -65 -38 -95 -51 -30 -12
-95 -39 -145 -59 -54 -23 -116 -41 -154 -45 -36 -3 -77 -13 -92 -20 -33 -17
-262 -40 -389 -38 -52 0 -123 8 -156 17 -34 9 -83 16 -108 16 -101 0 -359 86
-461 153 -27 19 -66 44 -87 58 -87 58 -266 199 -301 238 -21 23 -45 57 -54 76
-9 19 -35 47 -57 63 -23 17 -59 55 -81 87 -22 31 -56 78 -76 103 -48 63 -59
84 -134 251 -58 129 -65 152 -65 208 0 35 2 63 5 63 2 0 11 -13 19 -28z m3116
-421 c-11 -34 -41 -89 -67 -124 -48 -65 -122 -141 -130 -134 -2 3 -7 30 -10
60 -6 55 -5 55 37 93 24 22 75 69 114 106 39 37 72 65 74 64 2 -2 -6 -31 -18
-65z m21385 -182 c33 -5 80 -13 105 -18 25 -6 64 -10 87 -11 54 0 60 -20 45
-134 -6 -44 -14 -166 -17 -271 -4 -104 -11 -197 -16 -207 -5 -9 -9 -45 -10
-80 0 -35 -6 -121 -12 -193 l-12 -130 -95 -6 c-67 -5 -114 -2 -160 8 -36 8
-96 18 -135 21 -67 7 -70 8 -68 32 1 14 5 86 9 160 4 80 12 146 20 162 8 15
14 57 14 93 0 36 11 134 24 218 13 84 29 197 36 252 7 55 14 105 16 112 3 13
51 11 169 -8z m-14738 -29 c34 -4 67 -12 75 -16 7 -4 44 -11 83 -14 l70 -5 -3
-80 c-2 -44 -7 -111 -12 -150 -5 -38 -12 -131 -16 -205 -3 -74 -12 -153 -19
-175 -7 -22 -16 -92 -19 -155 -4 -63 -9 -127 -12 -142 l-6 -28 -121 3 c-67 2
-131 8 -142 14 -11 6 -51 13 -88 16 -38 2 -74 10 -79 15 -11 11 1 140 23 255
5 26 9 74 9 106 0 31 9 91 20 132 11 41 20 93 20 117 0 23 7 59 16 80 8 20 18
71 20 112 3 41 7 90 10 109 l5 33 52 -7 c29 -4 80 -11 114 -15z m9068 -58 l50
-7 8 -215 c4 -118 8 -224 7 -235 0 -11 -3 -137 -6 -281 l-6 -261 -226 -6
c-124 -4 -230 -3 -234 1 -17 17 11 657 32 733 6 20 10 91 10 157 0 71 4 122
10 124 16 5 301 -3 355 -10z m-5745 -61 c41 -5 93 -16 115 -24 22 -8 63 -19
90 -24 42 -7 50 -11 47 -28 -1 -11 -7 -74 -13 -140 -6 -66 -17 -145 -25 -175
-8 -30 -14 -77 -14 -105 0 -27 -7 -77 -14 -110 -8 -33 -18 -122 -22 -197 -7
-149 -13 -165 -57 -149 -14 6 -61 13 -104 16 -43 4 -116 13 -163 21 -144 25
-133 21 -126 57 4 18 11 68 17 112 5 44 16 100 24 125 7 25 19 77 25 115 6 39
18 108 26 155 26 153 34 204 44 285 5 44 10 82 10 84 0 2 15 0 33 -3 17 -4 66
-10 107 -15z m10997 -133 c-7 -77 -21 -197 -44 -387 -21 -169 -3 -152 -186
-171 -61 -7 -142 -18 -179 -26 -37 -8 -88 -14 -114 -14 -25 0 -92 -7 -148 -15
-172 -25 -456 -56 -607 -65 -79 -5 -198 -14 -264 -20 -273 -25 -386 -32 -495
-35 -63 -2 -203 -8 -310 -14 -224 -13 -1111 -7 -1350 8 -172 11 -417 35 -525
50 -38 6 -108 11 -155 11 -47 1 -105 5 -130 11 -25 5 -115 13 -200 19 -85 5
-182 14 -215 20 l-61 11 1 292 0 292 185 6 c102 4 223 12 270 17 157 21 732
36 1190 33 1241 -8 2484 -5 2690 7 195 11 496 26 609 30 l43 2 -5 -62z
m-14937 -656 c0 -26 -5 -86 -11 -132 -9 -75 -17 -159 -36 -390 -3 -36 0 -81 7
-103 6 -21 9 -41 7 -44 -3 -2 -31 -1 -62 2 l-56 7 6 107 c4 58 13 144 21 190
8 46 14 125 14 176 0 57 6 109 15 135 8 23 15 53 15 65 0 26 11 33 53 34 26 1
27 -1 27 -47z m15982 -7 c4 -22 14 -65 22 -95 9 -30 16 -75 16 -100 0 -25 5
-63 10 -85 15 -60 32 -274 33 -410 l1 -120 -50 -16 c-27 -10 -74 -20 -104 -24
-54 -6 -137 -21 -275 -50 -83 -17 -222 -32 -360 -40 -55 -4 -138 -12 -185 -20
-47 -8 -146 -19 -220 -25 -74 -6 -162 -18 -195 -25 -87 -20 -197 -32 -385 -45
-91 -6 -199 -15 -240 -21 -41 -5 -115 -12 -165 -15 -49 -3 -128 -12 -175 -20
-99 -17 -339 -37 -790 -65 -193 -12 -747 -26 -816 -21 l-51 4 -6 217 c-6 206
5 591 19 639 l6 22 257 1 c141 0 292 4 336 9 44 5 184 14 310 20 207 9 436 25
720 49 55 5 138 16 185 25 47 8 150 20 229 26 79 6 148 13 152 16 5 3 59 9
121 14 90 8 372 47 439 62 10 2 15 -11 19 -48 11 -101 64 -144 182 -144 42 0
89 -5 105 -12 15 -6 98 -14 183 -18 85 -4 181 -13 213 -21 55 -13 60 -12 102
10 54 29 95 85 95 132 0 18 7 59 15 89 8 30 15 69 15 86 0 31 1 32 73 47 39 8
90 14 112 13 39 -1 40 -2 47 -41z m-14972 -242 c-7 -109 -14 -238 -15 -288 -1
-49 -2 -118 -3 -152 l-2 -63 -80 0 c-97 0 -96 -1 -81 112 6 46 11 141 13 212
2 139 1 136 63 180 35 24 65 90 65 143 0 25 7 48 16 58 33 33 37 3 24 -202z
m253 162 c16 -79 19 -222 11 -482 l-5 -173 -32 0 c-18 0 -43 -3 -56 -7 l-24
-6 8 109 c9 137 14 228 20 424 3 85 8 161 10 168 3 8 16 12 32 10 23 -3 29 -9
36 -43z m2061 -40 c0 -33 -6 -152 -13 -265 -7 -113 -10 -248 -7 -302 l7 -96
-43 5 c-69 8 -71 9 -63 50 4 20 6 91 6 158 0 79 5 137 14 169 10 32 15 93 15
177 0 126 0 128 27 149 44 35 58 24 57 -45z m5628 48 l108 -17 0 -81 c0 -89
17 -135 60 -167 23 -17 45 -19 205 -18 99 1 203 1 230 2 28 1 95 -4 149 -10
92 -10 104 -9 145 9 56 24 92 72 99 135 5 45 5 46 36 39 33 -7 294 -28 541
-45 83 -6 175 -14 205 -19 141 -24 840 -71 1049 -71 l94 0 -6 -272 c-4 -149
-7 -346 -7 -438 l0 -166 -122 -2 c-68 -1 -159 3 -203 8 -44 6 -183 15 -310 20
-126 5 -257 14 -290 19 -33 6 -139 15 -235 21 -96 6 -229 15 -295 20 -66 5
-184 13 -263 19 -78 6 -168 15 -200 20 -31 5 -118 15 -192 21 -226 18 -522 50
-570 62 -25 5 -99 16 -165 24 -145 16 -212 27 -285 48 -30 9 -62 16 -72 16
-16 0 -18 10 -18 76 0 42 6 120 14 173 8 53 20 141 26 196 12 103 43 263 62
325 23 76 38 80 210 53z m-4373 -20 c32 -27 41 -97 48 -405 l6 -278 -58 0 -57
0 7 58 c4 31 7 184 6 340 -1 155 1 287 4 292 9 14 20 12 44 -7z m-228 -343
c-2 -190 -4 -346 -5 -346 0 -1 -43 -5 -95 -9 -89 -6 -93 -6 -86 12 5 10 10
102 13 206 l4 187 40 38 c55 51 68 82 74 165 7 93 10 99 36 95 l23 -3 -4 -345z
m-4069 210 c46 0 52 -13 40 -77 -22 -115 -34 -259 -27 -325 l6 -68 -79 0 c-58
0 -83 4 -92 15 -14 17 -10 87 17 347 l17 156 48 -24 c26 -13 58 -24 70 -24z
m3288 -79 c25 -11 55 -21 68 -21 l23 0 -8 -107 c-4 -60 -8 -165 -7 -235 l0
-128 -77 0 c-45 0 -81 5 -85 11 -3 6 -3 128 1 270 7 241 9 259 24 245 9 -8 37
-24 61 -35z m-2938 23 l37 -6 -4 -62 c-2 -33 -4 -132 -4 -219 l-1 -158 -92 3
-93 4 3 209 c1 116 4 216 7 223 5 13 83 16 147 6z m3333 -82 c53 -18 52 -11
46 -232 l-6 -205 -88 0 c-49 0 -94 3 -99 6 -7 5 -8 39 -1 110 6 57 8 143 6
192 -7 132 -5 137 65 136 31 -1 66 -4 77 -7z m-16747 -177 c44 -88 83 -171 87
-185 4 -14 25 -59 46 -100 48 -94 88 -183 149 -331 26 -64 63 -143 82 -175 19
-32 49 -95 67 -139 40 -96 90 -196 141 -285 21 -36 60 -105 88 -155 27 -49 68
-123 91 -164 22 -41 41 -79 41 -86 0 -7 -27 -28 -60 -47 -69 -41 -62 -45 -131
70 -24 40 -57 94 -72 119 -16 26 -39 76 -53 111 -13 36 -41 88 -61 116 -37 51
-307 583 -368 726 -18 41 -63 140 -100 219 -65 139 -131 302 -142 349 -5 19 6
35 48 78 29 30 56 51 60 46 4 -4 43 -79 87 -167z m12807 -340 c255 -30 475
-45 855 -55 211 -6 385 -12 386 -13 1 -1 -2 -65 -7 -142 -4 -77 -8 -248 -8
-380 -1 -132 -5 -255 -10 -272 -5 -18 -12 -121 -16 -230 -3 -109 -12 -229 -20
-268 -7 -38 -19 -140 -25 -225 -7 -85 -16 -186 -21 -225 -4 -38 -13 -133 -18
-210 -6 -77 -15 -158 -21 -180 -6 -22 -13 -167 -17 -322 -6 -272 -7 -283 -26
-283 -10 0 -58 -12 -106 -26 -364 -109 -620 -329 -735 -629 -15 -38 -42 -106
-61 -150 -74 -177 -79 -496 -11 -657 9 -21 16 -45 16 -55 0 -10 13 -46 29 -80
32 -67 31 -73 -29 -103 -28 -14 -246 -160 -327 -218 -149 -107 -347 -268 -458
-372 -33 -31 -87 -74 -120 -95 -33 -21 -89 -66 -125 -99 -222 -206 -539 -418
-697 -467 -38 -12 -85 -30 -105 -40 -20 -10 -65 -23 -100 -29 -35 -5 -72 -12
-83 -15 -20 -6 -21 0 -33 170 -8 125 -17 190 -30 223 -11 26 -26 77 -35 114
-18 76 -106 281 -163 379 -137 238 -301 417 -501 546 -17 11 -16 13 12 36 17
14 43 36 59 50 15 13 53 40 83 58 30 19 89 59 131 89 118 86 206 147 337 235
171 115 309 219 391 294 40 36 111 102 159 145 47 43 146 144 218 224 135 148
163 182 230 274 21 29 62 85 91 123 107 145 228 383 275 540 16 55 43 138 59
185 39 112 100 342 107 405 6 52 37 194 61 280 7 28 18 85 24 128 5 43 14 86
19 95 5 9 12 40 16 67 10 79 45 305 56 358 5 26 9 70 9 97 0 50 13 150 31 250
6 30 17 114 24 185 7 72 18 150 24 175 6 25 13 67 17 93 5 46 7 48 32 43 15
-4 86 -13 157 -21z m4614 -165 c6 -30 13 -158 16 -283 2 -126 7 -232 10 -236
4 -8 -9 -560 -22 -871 -14 -363 -9 -974 10 -1114 10 -71 20 -132 22 -136 3 -4
-44 -29 -103 -55 -59 -26 -112 -52 -118 -56 -6 -5 -37 -23 -70 -40 -125 -67
-238 -178 -374 -369 -88 -123 -161 -299 -180 -430 -34 -244 -34 -247 -21 -357
24 -205 74 -364 147 -466 19 -26 34 -49 34 -52 0 -2 -89 -94 -198 -202 -110
-109 -235 -243 -279 -298 -44 -55 -91 -109 -103 -120 -21 -19 -281 -333 -325
-393 -143 -195 -456 -496 -610 -584 -38 -23 -77 -46 -85 -53 -8 -7 -52 -27
-97 -45 -46 -17 -85 -36 -88 -41 -4 -5 -15 -9 -25 -9 -20 0 -32 41 -50 168 -4
31 -15 73 -24 92 -8 19 -29 71 -46 115 -17 44 -37 87 -44 95 -7 8 -34 58 -60
111 -66 137 -171 279 -313 426 -124 127 -158 153 -318 243 -71 40 -132 74
-133 76 -8 6 112 145 156 180 26 21 193 185 371 364 277 278 412 426 482 527
9 13 36 46 60 74 49 57 191 254 229 320 14 23 47 76 74 118 45 69 124 214 197
362 57 115 121 297 146 414 14 66 29 127 34 136 4 9 15 68 24 130 8 63 22 141
30 174 8 33 15 77 15 97 0 20 5 49 11 65 6 15 17 96 25 178 7 83 20 179 28
215 8 36 17 124 20 195 3 72 15 211 27 310 12 99 22 212 24 250 3 90 37 599
51 756 l7 76 713 -1 712 -1 11 -55z m11445 8 c10 -47 26 -206 26 -252 0 -26 5
-66 10 -89 10 -40 24 -176 55 -537 8 -91 19 -210 25 -265 6 -55 15 -167 20
-250 5 -82 14 -195 20 -250 10 -95 30 -361 50 -637 5 -71 11 -136 14 -145 3
-10 10 -97 16 -193 11 -181 21 -281 39 -410 5 -41 15 -176 21 -300 6 -124 15
-256 21 -295 6 -38 14 -176 19 -305 5 -129 14 -266 19 -303 6 -37 15 -156 21
-265 5 -108 14 -222 19 -252 6 -30 15 -154 21 -275 5 -121 15 -251 20 -290 5
-38 15 -162 21 -275 5 -113 14 -221 19 -240 5 -19 12 -87 15 -150 3 -63 12
-173 20 -245 8 -71 19 -239 24 -373 6 -133 13 -247 17 -254 4 -6 11 -88 16
-182 5 -94 13 -229 18 -301 4 -71 16 -245 24 -385 9 -140 20 -284 25 -320 6
-36 13 -130 16 -210 4 -80 11 -176 16 -215 5 -38 14 -142 20 -230 5 -88 16
-216 24 -285 7 -69 16 -184 20 -256 3 -71 10 -166 16 -210 5 -43 16 -167 24
-274 8 -107 19 -233 24 -280 6 -47 15 -141 20 -210 14 -185 39 -473 57 -660 9
-91 20 -221 24 -290 4 -69 15 -210 23 -315 26 -299 37 -456 47 -655 5 -102 15
-268 22 -370 14 -200 15 -552 3 -613 -5 -27 -3 -44 9 -62 13 -20 16 -53 16
-175 l0 -151 -53 -24 c-53 -25 -203 -69 -289 -86 -88 -17 -219 -43 -323 -65
-38 -8 -115 -19 -170 -24 -55 -4 -163 -16 -240 -24 -77 -9 -208 -21 -290 -26
-83 -5 -213 -14 -290 -20 -161 -13 -1008 -5 -1150 10 -49 5 -182 14 -295 20
-113 5 -225 14 -250 19 -25 5 -89 15 -143 20 -110 12 -135 22 -141 54 -27 134
-39 211 -46 317 -11 154 -25 324 -44 540 -8 91 -20 230 -26 310 -14 203 -38
454 -55 590 -17 128 -28 247 -51 520 -8 102 -19 226 -24 275 -6 50 -17 173
-25 275 -8 102 -19 219 -25 260 -5 41 -12 122 -15 180 -6 112 -38 475 -55 625
-5 50 -19 173 -30 275 -11 102 -24 219 -30 260 -5 41 -17 129 -25 195 -8 66
-22 170 -30 230 -19 135 -33 247 -91 715 -14 113 -31 234 -39 270 -7 36 -16
101 -19 145 -6 76 -19 176 -51 395 -8 52 -20 147 -26 210 -6 63 -15 141 -20
172 -5 32 -18 128 -29 215 -11 87 -26 203 -35 258 -25 156 -47 329 -79 605 -9
74 -23 185 -31 245 -9 61 -20 148 -25 195 -5 47 -15 130 -24 185 -8 55 -20
145 -26 200 -12 103 -17 149 -45 370 -9 72 -20 186 -25 255 -16 217 -29 298
-55 350 -49 97 -127 95 -180 -2 -24 -44 -28 -65 -33 -162 -2 -61 -9 -119 -14
-129 -13 -26 -61 -289 -88 -487 -6 -47 -18 -125 -25 -175 -8 -49 -16 -108 -19
-130 -9 -96 -28 -225 -41 -285 -8 -36 -17 -110 -20 -165 -3 -55 -12 -126 -21
-157 -8 -32 -19 -103 -24 -158 -5 -56 -12 -106 -16 -111 -3 -6 -12 -65 -19
-132 -7 -67 -20 -183 -29 -257 -8 -74 -25 -220 -36 -325 -21 -190 -32 -280
-71 -560 -12 -82 -25 -199 -30 -258 -4 -59 -10 -111 -13 -115 -3 -5 -10 -62
-15 -128 -6 -65 -16 -162 -21 -214 -6 -52 -20 -189 -31 -305 -12 -115 -25
-246 -29 -290 -5 -44 -20 -210 -34 -370 -27 -310 -30 -337 -45 -460 -22 -178
-33 -274 -41 -360 -5 -49 -14 -128 -19 -175 -6 -47 -15 -152 -21 -235 -6 -82
-15 -181 -21 -220 -5 -38 -14 -124 -19 -190 -6 -66 -17 -181 -25 -255 -19
-169 -25 -248 -70 -860 -8 -113 -20 -257 -25 -320 -19 -227 -30 -409 -40 -660
-6 -140 -17 -318 -25 -395 -8 -77 -15 -155 -15 -172 l0 -33 -77 0 c-87 0 -134
-20 -154 -64 -32 -68 40 -120 157 -114 57 3 64 1 64 -15 0 -59 -23 -264 -31
-273 -5 -6 -28 -15 -52 -18 -23 -4 -60 -13 -82 -20 -27 -10 -125 -16 -305 -20
-146 -4 -293 -11 -326 -17 -44 -8 -119 -8 -260 1 -110 6 -325 13 -479 16 -154
2 -316 9 -360 14 -44 6 -111 15 -150 20 -38 5 -113 9 -166 10 -56 0 -136 8
-193 20 -54 12 -168 25 -254 30 -207 12 -454 51 -557 89 -16 6 -70 23 -120 39
-136 42 -126 29 -131 173 -2 68 1 207 6 309 17 314 38 785 45 990 3 107 10
265 15 350 5 85 14 272 21 415 6 143 15 287 20 320 5 33 14 186 19 340 6 154
14 309 20 345 5 36 14 170 20 298 6 128 15 245 21 259 5 14 14 161 19 327 6
165 17 353 25 416 7 63 16 178 20 255 3 77 10 176 16 220 5 44 14 190 19 325
6 135 17 346 25 470 8 124 14 280 15 346 0 67 7 184 15 260 8 77 19 222 25
324 6 102 15 212 20 245 5 33 14 157 20 275 7 118 14 218 16 222 3 4 11 143
19 310 9 167 18 310 21 318 3 8 12 107 20 220 7 113 20 270 28 350 8 80 17
214 21 297 3 84 10 178 15 208 5 31 14 131 19 223 6 92 16 214 21 272 6 58 15
200 21 315 5 116 14 244 19 285 9 71 18 186 54 755 9 132 23 291 31 353 8 63
15 150 15 195 0 45 7 150 15 232 8 83 19 195 25 250 5 55 16 152 24 215 8 63
17 174 20 245 6 120 23 321 47 540 5 50 14 140 20 200 22 234 21 230 49 229
36 -2 165 -22 240 -39 148 -32 535 -82 710 -90 74 -4 171 -13 215 -21 136 -25
332 -45 520 -54 99 -5 207 -14 240 -19 33 -6 89 -11 125 -11 36 0 164 -11 285
-25 150 -17 274 -25 390 -25 94 0 208 -4 255 -10 47 -5 120 -12 163 -15 l79
-7 -6 -256 c-3 -142 -10 -363 -16 -492 -15 -348 -28 -1265 -20 -1495 7 -214
26 -312 70 -368 25 -31 140 -110 232 -157 65 -34 67 -34 101 -18 92 44 64 174
-48 224 -55 25 -108 69 -142 118 l-33 48 0 342 c0 187 4 379 10 426 10 91 23
775 31 1588 l0 32 80 0 c44 0 89 5 100 10 10 6 108 13 217 15 108 3 238 8 287
11 50 3 162 7 250 9 164 3 406 25 554 51 46 8 109 14 141 14 66 0 359 28 371
36 5 3 86 9 181 14 209 12 436 36 474 50 15 6 99 17 188 25 89 8 197 21 241
30 44 8 110 15 147 15 37 0 95 6 130 14 35 8 108 19 163 25 124 13 253 36 311
56 25 8 66 15 92 16 26 0 56 4 67 9 33 14 44 11 49 -12z m-19411 -551 c20 -39
37 -77 37 -83 0 -7 -39 -52 -87 -101 -49 -48 -137 -143 -197 -211 -60 -67
-114 -122 -119 -122 -5 0 -66 -59 -135 -131 -69 -72 -167 -166 -218 -209 -79
-68 -222 -197 -437 -396 -33 -30 -62 -54 -67 -54 -4 0 -15 11 -23 24 -9 13
-34 45 -57 71 -22 26 -40 51 -38 55 6 17 194 183 250 221 33 23 77 66 101 98
23 32 83 92 132 133 50 42 147 134 218 206 70 72 154 150 187 172 33 22 60 46
60 51 0 10 340 348 350 349 3 0 22 -33 43 -73z m4461 -2333 c12 -91 6 -376 -9
-419 -8 -22 -17 -60 -21 -85 -4 -24 -15 -58 -25 -75 -11 -16 -19 -40 -19 -52
0 -54 -112 -242 -205 -342 -91 -98 -427 -344 -445 -324 -4 4 -24 49 -43 100
-35 87 -37 99 -43 250 -4 101 -2 172 5 198 6 22 19 72 29 110 37 137 168 336
304 461 64 59 285 177 353 189 22 3 51 13 65 20 39 22 47 18 54 -31z m3604
-26 c27 -106 31 -129 41 -223 16 -146 14 -180 -19 -327 -61 -271 -157 -445
-357 -646 -65 -65 -136 -131 -158 -147 -22 -16 -54 -42 -71 -58 l-32 -29 -25
44 c-24 41 -57 130 -91 250 -24 83 -26 295 -3 368 9 30 30 105 47 165 26 95
40 125 101 216 78 118 204 249 284 294 28 16 66 41 85 56 37 28 144 78 171 79
10 0 19 -15 27 -42z m-7401 -1524 c36 -16 177 -157 276 -277 105 -126 254
-434 285 -587 29 -139 32 -168 32 -280 l0 -120 -103 0 c-59 0 -125 6 -153 14
-27 8 -71 17 -97 21 -105 14 -194 61 -362 187 -62 47 -163 154 -184 197 -12
23 -34 77 -48 119 -24 70 -25 86 -20 202 3 76 11 141 20 165 9 22 18 51 21 65
9 45 128 231 185 291 l56 58 30 -20 c16 -11 44 -27 62 -35z m3803 -656 c143
-49 445 -310 564 -488 71 -105 191 -350 210 -426 18 -77 39 -251 32 -263 -11
-17 -216 -34 -343 -28 -270 11 -457 80 -603 221 -76 73 -83 85 -124 188 -49
121 -52 309 -10 472 35 132 169 365 203 350 9 -4 41 -15 71 -26z m27910 -2387
c0 -22 9 -124 21 -228 11 -103 24 -226 29 -273 5 -47 10 -88 10 -92 0 -22
-181 -83 -325 -110 -27 -5 -79 -18 -115 -28 -36 -10 -155 -42 -265 -70 -110
-28 -234 -62 -275 -74 -74 -23 -156 -44 -440 -112 -311 -75 -348 -84 -454
-104 -60 -11 -113 -23 -117 -26 -5 -3 -41 -11 -81 -19 -219 -41 -645 -137
-707 -159 -24 -9 -73 -21 -110 -27 -36 -5 -138 -27 -226 -49 -238 -57 -350
-80 -388 -80 -18 0 -56 -7 -84 -15 -53 -16 -66 -18 -463 -90 -140 -25 -302
-54 -360 -65 -58 -11 -204 -33 -325 -50 -121 -17 -269 -40 -330 -51 -60 -10
-126 -19 -145 -19 -19 0 -86 -9 -150 -19 -63 -11 -151 -24 -195 -31 -126 -18
-263 -39 -350 -55 -44 -7 -136 -21 -205 -30 -69 -8 -159 -20 -200 -25 -41 -5
-136 -17 -210 -25 -74 -9 -192 -25 -261 -36 -70 -10 -138 -19 -152 -19 -14 0
-106 -16 -204 -35 -98 -19 -205 -35 -238 -35 -33 0 -87 -5 -120 -10 -128 -21
-465 -63 -560 -70 -55 -4 -167 -15 -249 -25 -125 -14 -150 -15 -157 -4 -5 8
-9 51 -9 97 0 46 -4 102 -9 125 -14 64 -30 221 -33 322 l-3 90 64 7 c35 4 71
10 80 14 9 3 50 10 91 15 41 4 131 15 200 23 69 8 159 17 200 21 41 4 122 16
180 26 58 10 120 19 139 19 32 0 221 28 431 64 47 9 157 25 245 36 88 12 194
28 235 36 41 7 131 20 200 29 133 16 277 37 400 60 76 14 136 22 355 50 66 9
152 22 190 30 39 8 111 19 160 24 50 5 102 14 116 19 14 6 52 13 85 17 32 3
91 13 129 21 39 7 158 26 265 40 107 14 199 28 203 31 4 3 43 11 85 18 42 7
115 20 162 28 47 9 114 21 150 27 363 62 864 155 878 164 4 2 74 16 154 30
214 37 312 56 408 78 47 11 126 28 175 38 50 10 101 23 115 28 14 5 88 21 165
36 77 15 190 40 250 56 61 16 162 41 225 55 63 15 171 42 240 60 237 63 445
116 558 140 61 13 121 29 131 35 11 5 68 19 128 31 59 11 173 39 253 61 80 22
176 47 214 55 37 8 82 21 100 29 17 7 46 13 64 14 31 0 32 -2 32 -39z m93
-853 c6 -51 30 -286 52 -521 15 -154 15 -170 1 -192 -20 -30 -114 -95 -138
-95 -10 0 -57 -14 -106 -31 -105 -37 -354 -105 -437 -120 -33 -5 -87 -18 -120
-29 -130 -40 -163 -49 -206 -55 -24 -4 -82 -20 -129 -36 -47 -16 -123 -38
-170 -48 -112 -25 -279 -66 -415 -103 -60 -16 -132 -34 -160 -40 -27 -6 -111
-26 -185 -45 -74 -19 -162 -38 -195 -42 -68 -10 -212 -45 -265 -65 -19 -8 -64
-17 -100 -21 -36 -3 -87 -13 -115 -20 -175 -47 -385 -95 -415 -95 -13 0 -49
-7 -79 -15 -67 -17 -235 -51 -347 -70 -45 -7 -91 -18 -102 -24 -11 -6 -71 -17
-133 -26 -126 -17 -254 -41 -269 -50 -5 -3 -63 -12 -127 -20 -65 -8 -149 -22
-188 -30 -248 -54 -367 -76 -476 -85 -52 -5 -122 -15 -155 -24 -124 -31 -273
-55 -369 -61 -54 -3 -131 -12 -171 -20 -39 -9 -102 -19 -140 -25 -38 -5 -143
-20 -234 -34 -91 -14 -203 -30 -250 -36 -47 -6 -108 -18 -136 -26 -28 -8 -82
-14 -120 -14 -80 0 -203 -13 -319 -34 -44 -8 -143 -22 -220 -31 -77 -9 -169
-20 -205 -26 -94 -15 -303 -36 -470 -49 -80 -6 -172 -15 -205 -20 -33 -5 -102
-16 -154 -25 -137 -22 -353 -21 -374 3 -19 22 -72 247 -88 377 -15 130 -26
231 -35 331 l-7 82 89 6 c49 3 116 11 149 16 33 6 125 17 205 25 142 15 220
27 430 65 58 10 170 26 250 35 80 9 192 23 250 32 140 20 310 40 505 58 88 8
180 20 205 26 47 10 145 25 400 59 80 10 215 31 300 45 85 15 188 31 229 36
41 6 82 14 91 19 10 5 82 16 161 24 79 8 155 19 169 24 14 5 60 12 103 16 43
4 89 11 103 16 13 5 66 15 117 20 50 6 108 16 127 21 19 5 78 14 130 19 52 5
127 17 165 25 39 8 108 21 155 29 262 44 456 78 540 96 52 11 151 31 220 44
69 14 177 37 240 51 63 14 152 33 198 41 46 8 94 19 108 24 13 5 50 14 82 20
31 5 95 19 142 30 73 17 215 48 365 80 22 5 94 22 160 39 239 60 322 80 430
106 61 14 153 37 205 50 52 13 145 33 205 45 61 11 136 30 168 41 33 11 114
33 180 49 271 64 337 82 447 115 63 19 160 45 215 59 55 13 118 28 140 33 82
21 92 18 98 -29z M42064 32198 c-12 -5 -30 -28 -40 -50 -15 -34 -16 -45 -5
-81 7 -23 16 -63 21 -89 15 -82 45 -112 90 -88 41 22 51 61 41 159 -15 137
-45 180 -107 149z M41232 31873 c-50 -20 -43 -176 9 -204 43 -22 79 32 79 118
0 63 -43 104 -88 86z M38311 31291 c-39 -39 -35 -192 5 -261 20 -32 56 -52 79
-44 27 11 47 62 39 97 -4 18 -7 56 -5 86 1 30 -4 69 -10 88 -17 53 -72 70
-108 34z M43149 31185 c-25 -14 -53 -60 -44 -74 2 -4 9 -56 14 -114 11 -114
28 -162 62 -172 54 -18 89 21 89 98 0 49 -25 190 -41 228 -14 36 -48 50 -80
34z M40792 30613 c-21 -8 -42 -59 -42 -100 1 -54 34 -202 53 -240 21 -39 50
-50 82 -29 34 23 39 53 26 164 -23 184 -51 233 -119 205z M39323 30587 c-35
-16 -44 -57 -31 -155 17 -133 55 -191 108 -162 11 6 23 22 26 35 9 36 -3 230
-15 254 -14 26 -60 41 -88 28z M36835 29896 c-14 -15 -26 -41 -31 -71 -8 -55
10 -256 26 -285 26 -48 88 -50 109 -3 16 35 16 301 0 336 -10 23 -46 47 -70
47 -5 0 -21 -11 -34 -24z M38100 29530 c-50 -50 1 -147 64 -119 37 17 51 60
32 97 -24 46 -63 55 -96 22z M43153 29524 c-25 -25 -25 -28 -19 -107 17 -198
73 -281 142 -212 24 24 25 31 19 88 -6 57 -18 138 -31 195 -4 20 -56 62 -77
62 -4 0 -20 -12 -34 -26z M41803 29518 c-39 -18 -45 -52 -33 -194 5 -71 17
-151 26 -177 28 -85 83 -96 120 -25 17 33 17 27 -5 253 -4 44 -13 90 -20 102
-17 33 -61 53 -88 41z M39125 28935 c-21 -20 -25 -33 -25 -87 0 -170 33 -303
76 -314 35 -9 72 3 79 25 11 34 -13 329 -29 360 -25 48 -64 54 -101 16z
M37246 28508 c-44 -25 -56 -115 -35 -265 13 -97 31 -140 63 -154 31 -15 72 8
82 45 8 33 -14 313 -26 337 -16 29 -62 49 -84 37z M40835 28085 c-35 -34 -34
-109 6 -295 24 -113 60 -161 110 -145 42 14 52 58 39 174 -15 136 -45 262 -67
279 -26 19 -62 14 -88 -13z M42955 27945 c-22 -21 -25 -33 -25 -102 0 -69 26
-194 55 -266 9 -21 45 -31 75 -22 51 16 56 86 20 270 -7 33 -14 70 -16 83 -4
20 -56 62 -77 62 -4 0 -19 -11 -32 -25z M38261 27271 c-24 -24 -36 -79 -27
-124 3 -18 10 -78 16 -135 14 -149 53 -213 110 -182 29 16 49 68 45 116 -2 21
-10 95 -17 164 -11 114 -14 127 -39 153 -32 32 -61 35 -88 8z M43949 26769
c-18 -18 -20 -30 -17 -112 4 -84 24 -189 50 -260 14 -37 39 -49 76 -36 51 18
66 87 38 179 -7 25 -17 79 -21 119 -6 63 -12 79 -35 103 -34 33 -62 36 -91 7z
M37156 26645 c-31 -31 -39 -93 -26 -190 22 -164 68 -243 126 -217 43 20 49 49
35 190 -19 196 -33 232 -91 232 -16 0 -36 -7 -44 -15z M42549 26449 c-20 -20
-21 -29 -16 -113 5 -85 24 -186 48 -248 14 -35 61 -55 94 -40 40 18 44 71 16
217 -6 33 -13 82 -17 109 -10 84 -76 124 -125 75z M39540 25800 c-37 -37 -41
-90 -22 -249 17 -130 58 -192 118 -177 45 12 55 52 43 168 -13 127 -24 179
-49 228 -27 53 -57 63 -90 30z M41230 25590 c-28 -28 -29 -160 0 -207 35 -59
86 -67 108 -17 17 36 15 169 -3 203 -23 46 -71 55 -105 21z M44184 24975 c-25
-25 -25 -28 -19 -118 17 -219 61 -311 136 -285 48 17 53 50 30 200 -24 150
-42 201 -77 217 -35 16 -42 14 -70 -14z M37437 24858 c-29 -23 -37 -63 -27
-140 5 -40 10 -95 10 -123 0 -60 39 -150 68 -159 26 -9 67 11 80 38 9 20 0
230 -14 324 -9 61 -72 93 -117 60z M42793 24858 c-37 -18 -52 -73 -43 -153 26
-213 34 -236 81 -261 28 -14 33 -14 55 0 34 23 39 57 26 176 -16 138 -35 210
-62 232 -25 20 -27 21 -57 6z M40779 24090 c-37 -22 -41 -59 -20 -192 27 -174
69 -253 124 -233 29 12 40 60 32 152 -11 140 -40 256 -69 275 -15 10 -48 9
-67 -2z M38793 24058 c-40 -19 -60 -104 -45 -194 6 -32 14 -86 17 -118 11 -95
76 -145 125 -96 25 25 26 107 5 258 -16 110 -25 136 -55 152 -22 12 -19 12
-47 -2z M41913 23484 c-23 -23 -25 -31 -20 -74 9 -72 56 -198 77 -205 47 -15
74 38 73 145 -1 141 -61 203 -130 134z M43395 23255 c-23 -22 -25 -32 -25
-108 0 -57 7 -105 20 -147 11 -34 20 -69 20 -77 0 -21 46 -63 70 -63 12 0 32
11 45 25 31 30 32 79 5 190 -11 44 -20 93 -20 108 0 82 -65 123 -115 72z
M37429 23021 c-30 -24 -41 -128 -26 -246 14 -121 41 -156 103 -141 38 10 52
53 43 133 -5 38 -8 101 -8 141 -1 68 -3 76 -30 103 -34 34 -50 36 -82 10z
M44550 22440 c-26 -26 -34 -61 -27 -128 9 -82 25 -121 60 -142 27 -17 33 -17
58 -5 15 8 31 24 34 36 10 31 -5 180 -21 211 -25 49 -71 61 -104 28z M39262
22143 c-38 -15 -57 -160 -33 -253 5 -19 12 -47 15 -63 8 -35 40 -67 66 -67 12
0 32 11 45 25 22 21 25 33 25 103 0 96 -26 218 -51 243 -19 19 -41 23 -67 12z
M41795 21985 c-23 -23 -25 -31 -25 -132 0 -145 34 -268 80 -293 15 -8 27 -7
48 4 52 27 64 86 37 189 -8 32 -18 83 -21 115 -9 84 -21 118 -50 131 -35 16
-42 14 -69 -14z M37602 21243 c-41 -16 -59 -123 -42 -254 18 -143 46 -190 106
-175 41 11 47 38 41 191 -6 157 -22 215 -63 234 -14 6 -26 11 -27 10 -1 0 -8
-3 -15 -6z M5537 23392 c-34 -21 -49 -63 -75 -212 -51 -283 -56 -333 -41 -380
16 -52 51 -77 93 -66 35 9 76 92 76 156 0 25 7 65 15 90 8 25 23 112 34 194
22 162 19 185 -31 220 -28 20 -36 20 -71 -2z M6423 23295 c-51 -21 -62 -58
-83 -263 -28 -265 -27 -336 5 -367 30 -31 56 -32 91 -2 29 25 46 96 64 264 6
51 17 121 25 155 20 86 19 135 -5 173 -27 44 -58 56 -97 40z M7318 23170 c-31
-19 -56 -110 -67 -250 -6 -74 -16 -162 -22 -195 -14 -76 10 -161 52 -184 67
-37 139 60 139 186 0 37 5 129 11 205 12 151 8 199 -22 229 -20 20 -63 25 -91
9z M8213 23050 c-51 -31 -70 -127 -79 -402 -8 -219 -3 -248 48 -274 44 -23 74
-11 100 39 18 36 23 72 34 242 7 110 17 220 22 244 12 55 0 100 -37 140 -34
36 -45 38 -88 11z M9084 23015 c-46 -32 -63 -101 -68 -271 -2 -88 -8 -215 -12
-284 -8 -142 2 -178 55 -199 64 -27 111 42 117 173 9 171 26 373 36 427 9 49
8 60 -11 97 -34 66 -76 87 -117 57z M9914 23003 c-43 -44 -55 -97 -59 -266 -2
-89 -9 -198 -15 -242 -11 -86 -6 -143 17 -188 28 -56 100 -61 127 -9 22 42 44
238 51 443 6 163 4 190 -11 221 -25 54 -77 73 -110 41z M28784 29389 c-76 -29
-131 -82 -170 -163 -41 -86 -43 -134 -9 -212 38 -85 81 -133 149 -165 77 -37
112 -36 187 1 80 41 130 88 167 158 50 93 50 123 4 217 -42 86 -75 121 -153
161 -58 29 -106 30 -175 3z m94 -187 c21 -14 62 -75 62 -93 0 -32 -49 -79 -81
-79 -35 0 -75 36 -85 76 -6 23 -1 33 34 66 43 40 49 43 70 30z M16374 28688
c-31 -14 -41 -43 -64 -174 -30 -176 -26 -229 20 -254 15 -8 27 -7 49 4 30 16
46 47 57 111 3 22 13 65 20 95 8 30 14 83 14 118 0 53 -4 67 -25 87 -26 27
-38 29 -71 13z M17351 28553 c-44 -36 -86 -316 -60 -391 13 -37 41 -56 70 -47
46 15 89 174 89 334 0 97 -47 146 -99 104z M16831 28531 c-11 -11 -22 -35 -25
-53 -2 -18 -9 -62 -14 -98 -11 -76 3 -123 41 -141 54 -24 90 38 104 177 7 79
0 108 -32 122 -36 17 -52 15 -74 -7z M16238 27660 c-18 -11 -63 -146 -73 -222
-14 -108 65 -155 112 -65 27 52 54 211 41 247 -15 43 -46 59 -80 40z M16730
27522 c-20 -21 -30 -42 -34 -78 -4 -27 -13 -71 -20 -99 -27 -94 -28 -112 -11
-144 19 -37 56 -49 88 -28 43 28 100 253 83 323 -15 58 -62 69 -106 26z
M17223 27175 c-36 -25 -55 -91 -61 -212 -5 -120 4 -165 40 -184 25 -13 61 9
83 50 19 38 36 260 24 307 -14 50 -48 65 -86 39z M16077 26828 c-38 -29 -146
-360 -134 -410 10 -37 59 -56 92 -34 30 20 70 95 79 151 4 22 20 82 37 133 35
112 35 117 4 147 -27 28 -52 32 -78 13z M16324 26279 c-27 -14 -64 -90 -64
-134 0 -32 21 -65 41 -65 30 0 71 35 94 80 31 61 31 75 0 105 -26 27 -39 29
-71 14z M15628 25904 c-14 -7 -45 -37 -68 -66 -23 -29 -73 -85 -110 -125 -71
-74 -87 -105 -76 -147 10 -42 41 -42 103 1 118 81 247 258 225 308 -16 35 -42
46 -74 29z M15958 25268 c-9 -7 -23 -30 -32 -50 -13 -34 -13 -39 0 -53 14 -13
19 -13 53 5 52 26 66 64 35 94 -19 19 -35 20 -56 4z M14895 25183 c-140 -76
-198 -171 -131 -215 36 -24 119 28 189 118 42 54 45 66 17 94 -24 24 -35 24
-75 3z M15565 24994 c-22 -15 -51 -36 -64 -48 -24 -21 -81 -104 -81 -117 0
-10 29 -39 39 -39 16 0 56 35 137 121 65 69 67 74 48 93 -21 22 -33 20 -79
-10z M14424 24804 c-71 -38 -183 -131 -190 -158 -8 -33 11 -64 43 -72 71 -18
278 154 259 214 -5 15 -43 42 -60 42 -2 0 -25 -12 -52 -26z M16036 24555
c-134 -91 -226 -178 -226 -215 0 -27 35 -60 64 -60 23 0 115 68 158 116 23 26
98 138 98 146 0 11 -31 38 -44 38 -7 0 -30 -11 -50 -25z M14800 24241 c-108
-68 -128 -115 -63 -150 57 -29 202 94 174 148 -21 39 -52 40 -111 2z M15115
23788 c-22 -11 -53 -31 -70 -43 -16 -13 -49 -32 -73 -44 -74 -37 -83 -107 -18
-138 33 -15 35 -15 106 23 94 50 180 130 180 166 0 58 -54 73 -125 36z M19738
28551 c-30 -27 -33 -35 -39 -112 -13 -149 -10 -257 6 -289 30 -58 103 -45 123
22 6 18 16 98 23 178 11 131 10 149 -5 177 -16 31 -43 53 -65 53 -6 0 -25 -13
-43 -29z M20742 28524 c-40 -28 -54 -72 -60 -184 -5 -119 8 -165 52 -176 63
-15 94 39 103 179 7 116 2 148 -27 177 -24 24 -38 25 -68 4z M20218 28475
c-34 -19 -45 -56 -53 -181 -9 -146 24 -217 85 -184 42 23 60 84 60 213 0 112
-1 119 -25 142 -28 29 -31 29 -67 10z M19683 27522 c-30 -19 -52 -117 -68
-298 -10 -107 27 -161 95 -139 33 11 48 44 64 145 27 170 21 266 -18 292 -14
10 -58 10 -73 0z M20723 27498 c-57 -27 -88 -272 -44 -345 37 -59 86 -52 121
17 26 50 38 219 21 273 -10 31 -54 71 -73 66 -2 0 -13 -5 -25 -11z M20125
27396 c-36 -36 -67 -178 -51 -240 8 -33 48 -60 76 -51 29 9 45 47 64 157 14
78 15 101 5 120 -24 45 -58 50 -94 14z M19607 26629 c-38 -22 -116 -252 -103
-303 8 -34 49 -60 81 -52 43 11 115 191 115 288 0 61 -46 94 -93 67z M20442
26588 c-37 -18 -76 -192 -58 -262 15 -58 91 -54 123 8 17 32 36 188 27 219 -4
14 -54 49 -66 46 -2 0 -13 -5 -26 -11z M19918 26219 c-18 -10 -68 -153 -68
-194 0 -50 27 -94 57 -95 16 0 50 37 69 73 23 44 43 161 31 183 -21 41 -55 53
-89 33z M19235 25644 c-9 -9 -32 -48 -52 -88 -19 -39 -45 -84 -58 -101 -30
-40 -65 -110 -65 -130 0 -9 11 -27 24 -40 22 -22 28 -23 56 -14 69 24 221 262
206 322 -14 59 -75 86 -111 51z M19786 25075 c-17 -18 -46 -63 -65 -98 -38
-71 -37 -110 3 -128 38 -17 76 10 128 93 59 93 66 120 39 147 -31 31 -68 27
-105 -14z M19350 24928 c-36 -24 -100 -121 -100 -150 0 -22 35 -58 56 -58 23
0 108 88 133 138 23 45 18 73 -15 86 -26 10 -39 7 -74 -16z M18613 24696 c-29
-15 -83 -85 -83 -107 0 -20 25 -49 43 -49 41 0 124 99 111 133 -9 24 -47 36
-71 23z M19763 24318 c-50 -47 -143 -173 -143 -195 0 -22 38 -53 66 -53 19 0
47 20 101 73 115 111 136 169 73 202 -41 21 -45 20 -97 -27z M18215 24298
c-36 -19 -176 -162 -194 -198 -30 -58 -33 -76 -15 -94 15 -16 20 -14 73 15
105 60 231 188 231 237 0 18 -38 52 -57 52 -10 0 -27 -6 -38 -12z M18399
23618 c-59 -63 -66 -81 -45 -113 34 -52 116 -36 160 32 48 74 32 133 -36 133
-24 0 -41 -11 -79 -52z M19140 23467 c-49 -23 -182 -129 -201 -160 -24 -41
-24 -62 1 -87 25 -25 76 -26 110 -4 41 28 160 147 176 177 12 21 12 32 3 50
-21 39 -44 46 -89 24z M32077 28629 c-45 -26 -57 -135 -38 -349 8 -92 49 -203
82 -221 25 -13 66 8 77 40 16 46 1 422 -19 480 -6 18 -24 38 -40 46 -33 18
-38 18 -62 4z M25339 28535 c-14 -8 -31 -27 -38 -42 -18 -43 -33 -173 -38
-330 -5 -142 -5 -142 21 -168 28 -28 67 -33 89 -10 26 25 45 96 56 210 29 291
3 390 -90 340z M32157 27599 c-33 -20 -50 -69 -50 -154 0 -131 22 -363 38
-394 19 -37 65 -57 95 -41 45 24 49 56 36 313 l-11 239 -28 24 c-30 26 -52 29
-80 13z M25249 27435 c-47 -26 -79 -152 -79 -315 0 -152 42 -231 106 -201 43
19 57 65 65 216 13 244 12 262 -16 290 -28 28 -39 30 -76 10z M25224 26735
c-90 -90 -57 -263 44 -231 55 18 70 188 21 237 -25 25 -35 24 -65 -6z M32237
26359 c-72 -42 -73 -320 -1 -522 32 -91 111 -93 135 -4 9 33 8 66 -5 162 -9
66 -16 164 -16 218 0 96 -1 99 -29 128 -31 31 -54 35 -84 18z M25154 25932
c-30 -19 -48 -83 -60 -207 -26 -264 -15 -367 40 -381 29 -7 69 14 86 45 10 21
30 285 30 414 0 100 -18 137 -65 137 -11 0 -25 -4 -31 -8z M32298 25225 c-52
-29 -54 -67 -23 -404 11 -109 68 -187 120 -163 35 16 58 67 51 111 -3 20 -10
115 -14 211 -10 184 -20 228 -61 250 -26 13 -40 12 -73 -5z M25083 24852 c-7
-4 -24 -35 -39 -67 -24 -54 -27 -75 -32 -212 -5 -171 2 -204 49 -229 33 -17
61 -7 80 27 19 37 49 239 49 336 0 89 -9 129 -34 145 -14 10 -58 10 -73 0z
M32380 24123 c-32 -22 -38 -30 -50 -76 -13 -45 5 -319 25 -387 7 -25 16 -58
19 -73 4 -16 19 -35 38 -47 28 -17 34 -17 58 -5 46 24 53 56 41 206 -6 73 -11
165 -11 203 0 87 -14 141 -45 172 -29 28 -42 30 -75 7z M24998 23814 c-53 -28
-69 -86 -79 -287 -5 -119 -5 -195 2 -220 11 -42 41 -77 64 -77 25 0 72 28 80
47 21 52 43 470 26 501 -19 37 -61 53 -93 36z M32457 22969 c-35 -21 -49 -68
-51 -173 0 -70 3 -109 13 -125 8 -14 17 -74 22 -138 8 -121 18 -149 65 -179
32 -22 66 -8 90 37 17 35 17 45 -7 349 -8 94 -17 146 -30 171 -33 66 -61 82
-102 58z M24926 22729 c-30 -18 -65 -112 -76 -207 -17 -149 -15 -293 3 -329
21 -39 50 -50 82 -29 34 22 43 44 54 123 6 37 17 115 26 173 26 179 19 246
-32 269 -29 13 -33 13 -57 0z M32557 21719 c-40 -23 -57 -82 -57 -198 0 -60 4
-121 10 -136 5 -14 14 -56 20 -93 19 -126 63 -182 116 -147 41 26 57 71 51
139 -35 389 -34 384 -67 418 -30 30 -45 33 -73 17z M24837 21688 c-39 -29 -59
-115 -64 -271 -6 -169 6 -224 53 -246 71 -32 113 70 121 294 5 128 3 156 -11
183 -25 48 -65 65 -99 40z M24782 20644 c-37 -25 -52 -69 -62 -176 -23 -233
-10 -348 42 -377 25 -14 29 -14 55 5 43 32 50 71 56 302 l6 214 -24 24 c-28
28 -42 30 -73 8z M32659 20475 c-45 -24 -54 -65 -52 -225 1 -136 16 -247 44
-338 14 -42 58 -67 93 -51 43 20 50 55 42 227 -6 138 -11 186 -32 330 -5 35
-35 72 -56 72 -7 -1 -25 -7 -39 -15z M24724 19418 c-21 -10 -49 -58 -65 -111
-4 -15 -9 -119 -10 -230 -2 -221 0 -235 53 -267 43 -26 71 -11 98 52 19 45 21
70 23 266 2 236 -4 270 -49 291 -14 6 -26 11 -27 10 -1 0 -11 -5 -23 -11z
M32748 19274 c-47 -25 -51 -45 -49 -220 2 -146 5 -170 29 -245 30 -92 61 -126
105 -115 44 11 48 42 38 276 -7 190 -11 220 -30 257 -11 23 -30 47 -40 53 -24
12 -20 13 -53 -6z M24654 18205 c-69 -47 -104 -358 -55 -477 34 -85 84 -91
123 -15 18 35 22 69 29 212 5 94 6 190 3 214 -10 70 -54 99 -100 66z M32834
18182 c-40 -26 -49 -115 -35 -340 10 -152 14 -179 36 -222 28 -55 59 -71 101
-51 42 19 48 49 35 161 -6 55 -11 131 -11 169 0 114 -38 261 -73 283 -15 10
-39 10 -53 0z M24608 17155 c-65 -36 -104 -292 -59 -392 35 -76 90 -70 128 15
22 50 26 75 31 199 l5 141 -26 26 c-30 30 -41 31 -79 11z M32910 17090 c-11
-11 -22 -32 -26 -47 -3 -16 -7 -33 -9 -38 -1 -6 1 -83 6 -170 9 -184 33 -281
75 -314 24 -19 27 -19 59 -4 51 25 57 49 45 193 -6 69 -15 170 -19 225 -8 107
-18 135 -53 159 -30 21 -54 20 -78 -4z M24544 16391 c-47 -28 -58 -73 -58
-232 1 -150 11 -195 50 -205 62 -16 89 24 104 153 21 182 9 267 -39 293 -25
13 -20 13 -57 -9z M32983 16025 c-36 -25 -46 -76 -38 -191 4 -57 3 -104 -2
-105 -20 -1 -82 -10 -138 -19 -33 -5 -79 -10 -103 -10 -52 0 -135 -40 -158
-76 -23 -34 -10 -72 32 -96 29 -17 42 -17 155 -7 68 6 142 17 164 25 53 18 62
18 92 -6 49 -39 101 -19 133 50 24 50 24 54 1 175 -6 28 -10 77 -11 110 -1
121 -64 194 -127 150z M24476 15749 c-41 -7 -63 -27 -73 -68 -9 -36 15 -71 78
-114 52 -36 58 -37 98 -28 26 5 55 6 74 0 43 -12 174 -11 198 1 27 15 52 68
45 95 -9 35 -63 62 -167 84 -141 29 -210 37 -253 30z M25393 15638 c-54 -27
-71 -64 -49 -106 26 -51 101 -68 381 -87 79 -5 94 -4 122 14 60 38 53 104 -15
144 -23 14 -65 22 -147 28 -63 5 -126 14 -141 19 -41 16 -106 10 -151 -12z
M31780 15631 c-146 -6 -173 -15 -206 -66 -14 -21 -14 -30 -4 -56 23 -53 58
-64 207 -62 223 3 338 28 361 77 15 34 -10 84 -52 101 -37 15 -61 16 -306 6z
M29991 15601 c-48 -26 -63 -58 -44 -94 20 -39 69 -57 153 -57 87 0 137 19 146
55 12 48 -9 72 -82 94 -81 25 -128 26 -173 2z M30720 15601 c-70 -8 -95 -23
-109 -62 -14 -41 7 -83 50 -98 49 -17 381 -15 424 3 68 29 79 116 17 147 -30
15 -288 22 -382 10z M26468 15570 c-78 -43 -72 -101 15 -141 49 -23 58 -24
251 -21 219 3 233 6 256 61 10 26 10 35 -4 56 -34 51 -65 58 -281 62 -186 3
-203 2 -237 -17z"/>
</g>
</g>
</svg>
