<?xml version="1.0" standalone="no"?>
<!DOCTYPE svg PUBLIC "-//W3C//DTD SVG 20010904//EN"
 "http://www.w3.org/TR/2001/REC-SVG-20010904/DTD/svg10.dtd">
<svg data-landmark-id="011" version="1.0" xmlns="http://www.w3.org/2000/svg"
 width="527" height="733" viewBox="358 228 527 733"
 preserveAspectRatio="xMidYMid meet" role="img" aria-labelledby="title desc">
<title id="title">UFO에 끌려 올라가는 소</title>
<desc id="desc">원본 선 굵기를 유지하면서 전체 구성을 65퍼센트로 축소한 검은 잉크 선화</desc>
<metadata>
Created by potrace 1.16, written by Peter Selinger 2001-2019
</metadata>
<g transform="translate(627 627) scale(0.65) translate(-627 -627)">
<g transform="translate(0.000000,1254.000000) scale(0.025000,-0.025000)"
fill="#000000" stroke="none">
<path d="M25060 48580 c-25 -10 -66 -26 -91 -34 -53 -19 -142 -102 -159 -150
-6 -17 -24 -57 -40 -88 -41 -77 -42 -174 -5 -253 37 -77 109 -150 165 -166 25
-7 51 -17 58 -22 15 -12 16 -178 2 -317 -6 -52 -15 -142 -21 -200 -6 -58 -12
-130 -14 -160 -3 -63 -29 -158 -49 -178 -10 -10 -63 -14 -217 -17 -112 -2
-224 -9 -249 -14 -25 -5 -64 -7 -87 -4 -23 3 -84 -2 -135 -11 -51 -9 -131 -20
-178 -25 -47 -5 -114 -15 -150 -24 -36 -9 -110 -24 -165 -33 -55 -9 -125 -24
-155 -34 -30 -10 -71 -21 -90 -25 -19 -3 -98 -26 -175 -50 -77 -24 -169 -50
-205 -58 -36 -8 -101 -28 -145 -44 -44 -17 -112 -42 -151 -57 -130 -48 -274
-114 -337 -154 -34 -22 -149 -86 -256 -142 -107 -57 -211 -118 -230 -135 -20
-17 -88 -65 -151 -105 -182 -117 -319 -225 -495 -391 -27 -26 -70 -64 -95 -84
-72 -59 -320 -317 -375 -389 -27 -37 -88 -115 -134 -174 -79 -100 -104 -137
-219 -317 -24 -38 -59 -92 -77 -120 -18 -27 -49 -79 -69 -115 -20 -36 -51 -87
-68 -115 -17 -27 -37 -68 -45 -90 -7 -21 -41 -90 -74 -152 -61 -115 -84 -167
-166 -373 -25 -63 -56 -140 -68 -170 -40 -98 -122 -352 -145 -450 -13 -52 -29
-115 -37 -140 -8 -25 -21 -74 -29 -110 -38 -181 -48 -220 -66 -275 -35 -105
-49 -168 -58 -265 -5 -52 -16 -113 -24 -135 -8 -22 -15 -59 -16 -81 0 -63 -29
-94 -89 -94 -31 0 -65 -9 -97 -25 -28 -15 -81 -29 -124 -35 -92 -12 -215 -41
-295 -70 -39 -14 -101 -25 -177 -30 -66 -5 -133 -16 -155 -25 -21 -9 -80 -21
-131 -26 -51 -4 -101 -13 -111 -19 -11 -5 -66 -17 -123 -25 -56 -8 -134 -24
-173 -36 -38 -11 -117 -30 -175 -41 -142 -27 -364 -75 -425 -93 -133 -39 -235
-63 -400 -95 -60 -12 -135 -28 -165 -36 -30 -7 -80 -18 -110 -24 -53 -10 -196
-52 -310 -90 -30 -10 -92 -30 -138 -44 -45 -14 -95 -32 -110 -40 -15 -7 -52
-17 -82 -21 -49 -6 -196 -48 -320 -91 -25 -8 -63 -20 -85 -25 -90 -23 -341
-122 -425 -168 -30 -17 -60 -31 -67 -31 -7 0 -63 -24 -125 -54 -62 -29 -131
-56 -153 -60 -22 -4 -71 -25 -108 -47 -38 -21 -71 -39 -74 -39 -3 0 -73 -38
-155 -85 -81 -47 -167 -95 -191 -107 -195 -101 -459 -337 -616 -552 -109 -149
-156 -241 -187 -365 -27 -108 -29 -147 -12 -188 6 -15 14 -56 18 -90 11 -90
88 -199 253 -359 102 -98 153 -139 240 -191 132 -79 530 -283 552 -283 8 0 40
-14 70 -31 31 -17 104 -48 163 -69 114 -40 180 -65 332 -124 140 -55 578 -203
680 -230 36 -9 89 -23 118 -31 29 -7 78 -26 110 -43 80 -41 161 -68 277 -92
55 -11 116 -25 135 -31 19 -6 89 -26 154 -45 66 -18 130 -34 141 -34 12 0 59
-11 106 -25 78 -24 188 -50 319 -76 30 -6 80 -17 110 -26 30 -8 84 -20 120
-27 36 -7 88 -20 115 -29 28 -9 77 -21 110 -27 33 -7 130 -29 215 -51 85 -21
180 -41 210 -45 30 -3 84 -14 120 -24 294 -84 354 -97 477 -104 75 -4 139 -14
169 -25 27 -10 94 -28 149 -40 177 -40 166 -35 209 -101 160 -249 550 -649
806 -826 41 -29 86 -64 99 -78 l24 -26 -31 -68 c-18 -38 -32 -74 -32 -81 0 -6
-20 -55 -44 -109 -24 -53 -51 -119 -59 -147 -8 -27 -31 -84 -50 -125 -20 -41
-43 -100 -51 -131 -8 -31 -22 -71 -30 -88 -16 -29 -57 -138 -128 -331 -17 -47
-34 -89 -39 -95 -8 -11 -30 -65 -84 -205 -18 -47 -66 -168 -107 -270 -41 -102
-85 -214 -98 -250 -13 -36 -27 -69 -31 -75 -3 -5 -19 -41 -34 -80 -15 -38 -35
-86 -44 -105 -10 -19 -24 -53 -31 -75 -7 -22 -24 -62 -37 -90 -30 -61 -60
-143 -77 -210 -7 -28 -21 -65 -30 -82 -9 -18 -16 -38 -16 -45 0 -7 -25 -74
-56 -148 -30 -74 -66 -166 -80 -204 -14 -38 -34 -86 -45 -107 -10 -21 -19 -47
-19 -58 0 -11 -4 -23 -10 -26 -5 -3 -18 -34 -29 -69 -21 -69 -110 -300 -166
-433 -19 -45 -35 -86 -35 -91 0 -5 -14 -40 -31 -78 -18 -38 -52 -127 -76 -199
-25 -71 -55 -155 -68 -185 -13 -30 -34 -82 -46 -115 -13 -33 -27 -65 -32 -72
-12 -16 -46 -108 -63 -168 -7 -27 -20 -66 -28 -85 -8 -19 -26 -66 -41 -105
-14 -38 -32 -86 -39 -105 -8 -19 -23 -62 -36 -95 -12 -33 -39 -100 -60 -150
-59 -141 -103 -254 -152 -390 -6 -16 -14 -34 -18 -40 -11 -15 -55 -128 -90
-230 -49 -148 -84 -243 -135 -370 -26 -66 -57 -145 -68 -175 -11 -30 -28 -73
-38 -95 -10 -22 -36 -98 -59 -170 -23 -71 -46 -135 -51 -141 -5 -6 -26 -60
-48 -120 -21 -60 -50 -140 -65 -179 -37 -99 -66 -183 -81 -235 -18 -65 -87
-253 -123 -335 -16 -38 -41 -101 -55 -140 -14 -38 -41 -112 -61 -163 -20 -52
-36 -102 -36 -113 0 -11 -18 -65 -40 -120 -22 -56 -40 -108 -40 -115 0 -8 -6
-25 -14 -37 -8 -12 -28 -62 -44 -112 -28 -86 -37 -107 -77 -200 -10 -22 -32
-80 -50 -130 -41 -112 -103 -268 -143 -360 -16 -38 -44 -110 -60 -160 -17 -49
-40 -115 -52 -145 -12 -30 -30 -77 -40 -105 -10 -27 -27 -72 -38 -100 -11 -27
-26 -66 -32 -85 -38 -106 -86 -231 -106 -275 -23 -52 -43 -107 -73 -210 -10
-33 -26 -78 -36 -100 -10 -22 -26 -67 -36 -100 -34 -111 -97 -290 -124 -350
-39 -88 -69 -168 -104 -275 -30 -96 -57 -170 -104 -290 -58 -148 -86 -228
-100 -281 -8 -30 -42 -125 -75 -210 -34 -85 -73 -185 -87 -224 -15 -38 -39
-97 -54 -130 -31 -66 -40 -92 -113 -310 -28 -82 -56 -163 -63 -180 -7 -16 -22
-52 -34 -80 -11 -27 -36 -95 -55 -150 -53 -158 -97 -278 -111 -305 -7 -14 -27
-65 -43 -115 -17 -49 -50 -142 -73 -205 -23 -63 -50 -137 -59 -165 -10 -27
-29 -75 -43 -105 -13 -30 -30 -81 -37 -113 -6 -32 -22 -77 -36 -100 -13 -23
-40 -94 -60 -157 -20 -63 -47 -142 -59 -175 -13 -33 -32 -87 -43 -120 -20 -58
-56 -152 -122 -320 -18 -44 -41 -111 -51 -149 -11 -38 -24 -76 -28 -85 -13
-25 -78 -222 -86 -261 -4 -19 -23 -68 -42 -110 -19 -41 -38 -90 -42 -110 -5
-19 -28 -87 -51 -150 -23 -63 -52 -149 -65 -190 -12 -41 -34 -103 -48 -137
-14 -34 -28 -77 -32 -95 -4 -18 -26 -83 -50 -143 -24 -61 -62 -164 -84 -230
-22 -66 -61 -178 -86 -250 -25 -71 -52 -150 -60 -175 -7 -25 -25 -76 -40 -115
-15 -38 -33 -90 -40 -115 -7 -25 -20 -65 -30 -90 -9 -25 -21 -70 -26 -100 -6
-30 -19 -69 -29 -85 -19 -31 -115 -297 -150 -415 -21 -71 -78 -236 -160 -460
-110 -303 -161 -447 -176 -505 -8 -33 -36 -112 -61 -175 -25 -63 -79 -216
-120 -340 -41 -124 -83 -241 -93 -260 -9 -19 -25 -60 -35 -90 -9 -30 -39 -107
-66 -172 -27 -64 -49 -123 -49 -132 0 -9 -11 -43 -25 -76 -14 -32 -34 -94 -46
-137 -12 -43 -32 -99 -45 -124 -12 -25 -32 -79 -43 -120 -11 -41 -31 -117 -46
-169 -15 -52 -33 -120 -39 -150 -7 -30 -26 -82 -43 -115 -17 -33 -47 -112 -67
-175 -21 -63 -44 -135 -53 -160 -8 -25 -28 -85 -45 -135 -17 -49 -47 -139 -68
-200 -20 -60 -51 -150 -67 -200 -16 -49 -42 -126 -58 -170 -56 -162 -63 -182
-93 -275 -17 -52 -62 -196 -102 -320 -65 -206 -88 -274 -155 -472 -13 -38 -29
-94 -35 -125 -7 -31 -18 -66 -25 -78 -8 -11 -25 -66 -39 -123 -14 -56 -35
-120 -46 -142 -11 -21 -29 -74 -40 -117 -24 -89 -59 -193 -72 -209 -11 -15
-50 -138 -82 -259 -32 -119 -91 -297 -113 -340 -15 -27 -31 -82 -63 -205 -20
-80 -52 -183 -82 -270 -16 -47 -42 -130 -58 -186 -15 -55 -43 -150 -63 -210
-19 -60 -40 -129 -47 -154 -32 -122 -50 -182 -79 -255 -17 -44 -31 -86 -31
-95 0 -8 -17 -60 -36 -115 -20 -55 -42 -126 -49 -157 -7 -31 -20 -76 -28 -100
-8 -24 -25 -77 -37 -118 -12 -41 -28 -89 -35 -107 -8 -18 -20 -63 -26 -100 -7
-37 -26 -104 -44 -148 -41 -103 -62 -169 -70 -225 -4 -25 -13 -56 -20 -70 -7
-14 -16 -45 -20 -70 -4 -25 -14 -61 -22 -80 -8 -19 -28 -80 -43 -135 -15 -55
-33 -113 -38 -130 -6 -16 -23 -70 -37 -120 -49 -163 -67 -220 -76 -231 -13
-16 -75 -209 -94 -294 -9 -41 -24 -97 -34 -125 -26 -71 -46 -142 -81 -285 -17
-69 -35 -141 -41 -160 -6 -19 -23 -80 -39 -135 -15 -55 -33 -113 -39 -128 -6
-15 -22 -78 -36 -139 -15 -61 -32 -123 -39 -137 -7 -14 -17 -48 -21 -76 -4
-27 -11 -58 -17 -68 -5 -10 -17 -48 -27 -85 -10 -37 -30 -98 -44 -137 -15 -38
-29 -90 -33 -115 -4 -24 -15 -62 -25 -85 -10 -22 -19 -51 -19 -65 0 -32 -32
-129 -82 -246 -23 -55 -38 -107 -38 -132 0 -22 -5 -53 -11 -69 -23 -56 -91
-249 -103 -293 -7 -25 -18 -56 -25 -67 -17 -33 -14 -154 5 -181 17 -25 64 -52
90 -52 10 0 35 12 55 26 33 23 42 38 69 118 16 50 30 103 30 117 0 14 14 63
31 109 51 141 60 172 75 259 9 47 20 94 27 105 6 12 16 53 23 91 16 87 36 156
169 580 9 28 22 75 29 105 8 30 21 87 30 125 10 39 27 94 38 123 11 29 28 83
38 120 9 37 31 116 49 175 18 59 45 167 61 240 40 181 65 276 95 360 15 39 32
103 40 142 7 38 28 102 45 140 31 68 60 156 101 300 11 39 27 90 36 115 8 25
21 70 28 100 12 54 22 87 91 303 19 60 34 115 34 123 0 8 11 47 25 87 14 39
35 108 46 152 34 138 56 217 92 320 34 99 55 167 97 315 12 41 35 113 52 160
16 47 36 108 45 135 37 122 65 224 78 278 7 32 25 86 38 120 14 35 30 88 36
120 5 31 17 69 25 84 7 16 26 69 41 118 15 50 43 132 61 183 19 51 46 141 60
200 14 59 32 125 40 147 8 22 21 63 28 90 8 28 32 102 55 165 23 63 50 144 60
180 10 36 40 119 65 184 26 66 51 140 57 165 12 55 73 256 100 327 11 28 30
84 44 125 13 41 43 126 65 189 23 63 49 142 57 175 16 63 47 170 88 309 13 45
54 159 91 252 99 254 170 452 187 519 8 33 29 98 46 145 16 47 45 132 64 190
19 58 51 148 71 200 21 52 49 142 63 200 13 58 33 119 43 135 19 32 56 141 95
276 13 46 48 152 78 234 30 83 65 179 78 215 12 36 49 132 81 214 32 81 58
154 58 162 0 22 112 367 157 483 29 74 178 505 198 571 8 25 37 106 65 180 28
74 75 205 104 290 30 85 77 221 105 302 28 81 51 152 51 158 0 6 15 52 34 103
18 51 40 112 49 137 8 25 34 95 57 155 76 202 112 300 125 340 35 110 55 182
55 198 0 10 5 27 11 38 11 21 66 173 121 334 16 50 37 102 44 118 8 15 19 46
24 70 10 44 70 225 140 417 23 63 48 138 55 165 6 28 20 65 29 82 9 18 16 38
16 46 0 19 41 144 75 227 15 36 40 106 56 155 17 50 37 104 45 120 19 40 78
199 116 310 17 50 48 131 69 181 22 50 39 98 39 105 0 14 37 130 64 204 8 22
15 55 16 74 0 20 22 82 52 145 28 61 59 136 69 166 9 30 29 87 43 125 14 39
30 86 35 105 13 48 78 219 95 250 8 14 19 41 24 60 6 19 23 67 37 105 15 39
33 91 40 116 7 26 20 60 29 77 9 17 16 36 16 41 0 6 14 39 31 73 17 35 41 92
53 128 13 36 40 110 60 165 51 136 96 276 96 299 0 10 18 62 41 115 22 53 50
119 61 146 11 28 27 66 35 85 9 19 26 69 38 111 13 42 32 94 44 117 12 23 21
46 21 51 0 6 18 47 40 93 22 46 40 89 40 96 0 11 77 215 141 374 11 26 19 60
19 77 0 17 18 75 39 128 21 54 49 132 61 173 12 41 31 95 41 120 10 25 23 63
28 85 5 22 32 94 60 160 70 162 86 200 111 270 12 33 29 76 38 95 23 54 91
249 108 309 8 30 26 82 40 115 14 34 28 70 31 81 3 11 21 53 39 93 19 39 40
100 48 135 7 34 26 89 41 122 15 33 33 78 40 100 7 22 23 65 35 95 12 30 30
78 40 105 68 188 102 280 129 348 17 43 31 85 31 94 0 15 55 151 105 260 14
29 34 89 45 134 12 46 27 94 34 108 8 14 17 46 21 70 4 24 21 74 37 110 43 95
100 246 167 441 22 63 47 138 57 165 10 28 32 82 50 120 29 64 46 106 104 260
10 28 22 66 25 85 4 19 22 72 41 118 19 45 34 89 34 97 0 7 26 81 59 162 32
81 73 186 91 233 18 47 45 110 60 141 16 30 32 73 36 95 4 21 20 68 36 104 29
64 78 186 122 305 13 33 34 89 48 125 14 36 30 79 36 95 6 17 19 53 30 80 142
358 162 414 187 500 9 33 37 106 61 162 24 56 44 106 44 112 0 5 14 40 31 78
40 89 159 390 159 402 0 11 57 154 88 221 12 25 35 79 51 120 16 41 44 109 61
150 17 41 56 140 85 220 77 209 78 209 193 500 134 338 139 350 169 440 13 41
37 104 53 140 15 36 46 110 68 165 21 55 49 125 62 155 12 30 35 87 50 125 16
39 45 111 65 160 21 50 50 126 67 170 16 44 60 148 98 230 37 83 77 182 89
220 12 39 41 111 66 160 69 141 145 310 145 323 0 19 89 186 105 197 9 6 20 4
32 -7 10 -9 47 -30 83 -48 36 -18 72 -38 80 -45 34 -30 557 -272 703 -326 87
-32 185 -74 217 -94 40 -25 98 -46 173 -65 61 -16 129 -36 149 -44 21 -9 57
-16 80 -16 24 -1 61 -8 83 -16 105 -40 268 -88 343 -100 46 -7 98 -17 115 -23
18 -5 55 -12 82 -16 48 -6 140 -24 326 -66 48 -10 113 -19 146 -19 33 0 80 -7
104 -16 29 -10 120 -21 259 -30 118 -8 260 -19 315 -24 88 -9 236 -15 845 -37
164 -6 299 -8 650 -7 367 0 472 3 505 14 17 5 109 14 205 19 96 6 189 14 205
20 17 5 77 12 135 15 58 3 141 13 185 21 44 8 119 22 166 30 47 9 101 20 120
25 19 6 55 10 81 10 26 0 59 5 74 10 14 6 58 15 98 20 133 18 401 90 601 160
133 47 138 48 190 58 74 15 230 68 310 106 61 29 168 76 340 150 28 11 92 43
143 71 51 27 103 54 115 60 104 47 281 145 321 177 27 21 56 37 64 36 8 -2 26
-39 42 -85 15 -45 34 -93 42 -105 9 -13 34 -80 57 -148 41 -122 112 -314 147
-395 21 -50 60 -157 129 -355 29 -85 61 -173 71 -195 14 -35 52 -140 165 -463
16 -45 39 -103 52 -130 13 -26 27 -60 31 -77 4 -16 32 -84 63 -150 50 -108 99
-249 138 -390 7 -27 44 -129 83 -225 38 -96 91 -240 117 -320 27 -80 74 -206
105 -280 32 -74 66 -160 75 -190 24 -74 56 -167 95 -270 89 -237 112 -299 126
-345 29 -93 42 -130 73 -197 17 -37 46 -111 65 -165 88 -250 128 -361 171
-470 75 -192 84 -217 91 -248 4 -16 21 -59 37 -95 16 -36 35 -85 43 -110 7
-25 25 -76 39 -115 14 -38 31 -83 37 -100 5 -16 25 -70 43 -120 18 -49 48
-135 66 -190 18 -55 47 -136 66 -180 18 -44 33 -83 33 -87 0 -5 15 -47 34 -96
65 -167 114 -297 136 -367 12 -38 39 -106 60 -150 21 -44 41 -95 45 -114 4
-19 25 -76 46 -128 22 -51 39 -99 39 -105 0 -7 13 -45 29 -85 30 -73 51 -135
134 -388 25 -77 60 -174 77 -215 47 -112 100 -257 120 -330 9 -36 36 -109 59
-164 23 -54 46 -119 53 -145 6 -25 19 -62 29 -81 27 -53 65 -156 87 -235 11
-39 32 -95 47 -125 25 -50 36 -76 79 -200 15 -42 121 -362 153 -460 8 -25 23
-67 35 -95 11 -27 29 -72 41 -100 73 -179 86 -214 93 -250 4 -22 15 -57 25
-77 11 -21 19 -42 19 -49 0 -14 69 -195 116 -303 19 -44 38 -100 41 -125 4
-25 19 -73 34 -106 15 -33 32 -80 38 -105 7 -25 27 -81 46 -125 18 -44 54
-147 80 -230 26 -82 62 -186 80 -230 18 -44 36 -96 40 -115 4 -19 16 -51 25
-71 10 -19 32 -73 48 -120 32 -90 91 -253 139 -384 16 -44 39 -98 50 -120 11
-22 23 -56 27 -75 3 -19 19 -71 35 -115 45 -124 61 -176 75 -231 8 -28 19 -61
26 -74 7 -14 28 -67 46 -120 17 -52 51 -147 74 -210 23 -63 48 -135 57 -160 8
-25 29 -81 45 -125 16 -44 36 -104 44 -134 8 -29 26 -78 40 -108 13 -31 30
-79 38 -107 8 -28 24 -76 36 -106 12 -30 30 -80 40 -110 10 -30 29 -84 43
-120 24 -64 67 -185 88 -245 6 -16 24 -73 41 -125 17 -52 38 -117 48 -145 10
-27 23 -66 30 -85 6 -19 21 -57 32 -85 11 -27 28 -79 38 -115 10 -36 27 -90
38 -120 11 -30 37 -109 57 -175 20 -66 50 -151 66 -190 38 -93 137 -369 198
-556 5 -14 16 -39 25 -57 9 -17 16 -39 16 -48 0 -9 17 -58 39 -108 21 -50 48
-125 61 -166 21 -70 48 -156 84 -260 68 -196 97 -282 161 -485 9 -27 24 -72
34 -100 44 -124 170 -500 186 -555 7 -25 22 -70 34 -100 12 -30 28 -80 36
-110 7 -30 28 -95 46 -145 17 -49 37 -112 45 -140 7 -27 22 -75 33 -106 11
-30 43 -136 72 -235 28 -98 57 -190 64 -204 7 -14 34 -88 60 -165 26 -77 54
-153 63 -170 8 -16 21 -54 28 -85 7 -30 26 -93 42 -140 16 -47 44 -128 60
-180 43 -132 50 -155 83 -240 28 -73 40 -107 109 -315 79 -241 100 -305 124
-390 14 -49 41 -135 61 -190 20 -55 49 -138 65 -185 16 -47 51 -150 78 -230
27 -80 68 -208 92 -285 23 -77 46 -151 52 -165 40 -101 90 -247 98 -291 11
-59 33 -129 91 -295 21 -61 39 -114 39 -118 0 -4 13 -38 30 -76 16 -37 37 -99
45 -137 13 -60 65 -196 175 -453 33 -78 48 -117 147 -410 33 -96 71 -197 85
-225 14 -27 29 -69 33 -93 4 -24 25 -84 47 -135 22 -51 52 -128 67 -172 102
-289 151 -425 169 -460 11 -22 23 -56 27 -75 4 -19 13 -46 20 -60 29 -57 122
-321 170 -485 15 -49 49 -153 77 -230 28 -77 71 -212 97 -300 26 -88 55 -173
63 -190 23 -43 95 -237 103 -277 10 -50 74 -265 96 -328 11 -30 31 -89 43
-130 13 -41 51 -157 85 -257 33 -101 61 -192 61 -202 0 -11 9 -44 19 -73 11
-29 38 -116 61 -193 46 -159 155 -502 175 -555 8 -19 23 -64 34 -100 11 -36
27 -87 36 -115 9 -27 22 -77 29 -110 7 -33 18 -70 24 -82 7 -12 12 -33 12 -47
0 -14 9 -52 19 -83 10 -32 38 -123 60 -203 23 -80 49 -165 57 -190 9 -25 33
-112 54 -195 48 -185 65 -247 183 -645 13 -47 28 -103 32 -125 4 -21 15 -56
26 -77 10 -20 19 -43 19 -51 0 -17 34 -131 66 -220 13 -38 24 -78 24 -90 0
-12 13 -60 29 -107 16 -47 53 -159 82 -250 59 -182 83 -220 139 -220 47 0 106
34 118 69 13 38 -18 166 -83 336 -14 39 -41 113 -59 165 -19 52 -39 109 -44
125 -6 17 -30 89 -53 160 -22 72 -49 153 -60 180 -10 28 -22 75 -28 105 -6 30
-22 87 -36 125 -26 70 -43 136 -66 250 -15 77 -58 223 -75 255 -25 46 -54 130
-54 155 0 14 -8 51 -19 82 -10 32 -23 85 -29 118 -5 33 -24 101 -40 150 -51
153 -101 318 -107 355 -6 39 -44 164 -87 287 -16 45 -33 107 -38 137 -5 30
-14 64 -20 75 -6 12 -22 60 -36 108 -14 49 -41 133 -61 188 -19 55 -41 126
-48 157 -7 32 -25 88 -39 125 -14 37 -32 100 -40 138 -8 39 -37 130 -65 203
-28 72 -51 138 -51 146 0 7 -16 56 -35 107 -19 52 -56 164 -81 249 -25 85 -70
223 -100 305 -56 153 -105 302 -144 435 -13 41 -35 103 -51 138 -16 35 -31 80
-35 100 -3 20 -26 87 -50 147 -61 156 -134 358 -184 510 -70 213 -191 547
-215 595 -12 25 -26 61 -30 80 -12 58 -83 269 -125 370 -21 52 -55 145 -75
205 -20 61 -59 152 -86 204 -27 51 -49 102 -49 113 0 11 -11 47 -24 81 -14 34
-44 114 -66 177 -23 63 -64 178 -92 255 -28 77 -55 163 -60 190 -15 71 -72
232 -101 285 -14 25 -28 68 -32 95 -4 28 -22 91 -40 140 -41 111 -183 538
-220 660 -15 50 -31 101 -36 115 -5 14 -20 68 -33 120 -13 52 -42 144 -65 204
-22 59 -52 151 -67 205 -14 53 -30 104 -36 114 -19 37 -99 274 -117 348 -11
42 -39 124 -65 181 -25 58 -55 141 -67 184 -12 44 -27 90 -34 104 -7 14 -25
67 -40 118 -15 51 -40 121 -55 156 -16 34 -49 134 -75 221 -63 218 -100 331
-192 585 -25 69 -51 148 -58 175 -14 52 -39 126 -62 185 -7 19 -17 59 -23 87
-10 58 -42 159 -58 189 -6 10 -23 57 -38 104 -14 47 -40 123 -56 170 -16 47
-35 114 -43 150 -8 36 -33 112 -56 170 -38 94 -72 201 -99 315 -6 22 -19 60
-29 85 -21 48 -84 241 -100 306 -16 65 -47 147 -77 205 -30 58 -46 100 -99
254 -18 55 -45 132 -60 170 -15 39 -32 90 -40 115 -7 25 -27 75 -44 113 -16
37 -35 86 -42 109 -6 24 -24 68 -40 100 -16 32 -29 64 -29 71 0 22 -68 237
-79 251 -5 6 -21 50 -35 96 -26 87 -34 111 -87 265 -17 50 -37 110 -45 135 -7
25 -25 77 -39 115 -15 39 -33 88 -40 110 -7 22 -20 54 -28 70 -8 17 -20 49
-26 73 -25 98 -36 131 -68 213 -18 48 -33 94 -33 103 0 9 -18 60 -41 113 -22
54 -47 118 -54 143 -7 25 -23 72 -35 105 -11 33 -27 80 -35 105 -8 25 -53 158
-100 295 -47 138 -92 270 -99 295 -7 25 -22 63 -33 85 -11 22 -26 58 -33 80
-6 22 -22 63 -34 90 -27 58 -35 79 -87 232 -21 62 -41 118 -46 125 -11 19 -72
195 -88 253 -24 94 -96 297 -125 355 -28 55 -58 137 -85 230 -7 25 -23 72 -35
105 -12 33 -30 87 -40 120 -10 33 -39 119 -65 190 -25 72 -50 144 -55 160 -12
42 -38 117 -73 210 -16 44 -44 123 -62 175 -18 52 -40 113 -50 135 -40 92 -48
114 -75 205 -15 52 -40 122 -55 155 -33 70 -98 252 -125 345 -29 99 -90 273
-103 295 -13 20 -42 92 -76 188 -34 94 -43 121 -61 182 -25 82 -86 248 -103
282 -8 15 -17 45 -21 66 -4 20 -21 68 -37 105 -17 37 -43 105 -59 152 -16 47
-43 117 -60 155 -17 39 -47 115 -66 170 -38 113 -61 178 -99 280 -14 39 -32
90 -40 115 -16 52 -31 96 -92 275 -25 72 -51 150 -60 175 -8 25 -30 81 -49
125 -19 44 -34 84 -34 89 0 5 -9 28 -19 50 -11 23 -31 77 -44 121 -14 44 -42
115 -61 158 -20 43 -36 86 -36 96 0 10 -16 53 -35 96 -20 43 -47 112 -60 154
-82 252 -118 356 -154 437 -23 51 -41 97 -41 103 0 6 -9 28 -20 48 -11 21 -20
45 -20 53 0 23 -43 145 -84 237 -20 45 -36 87 -36 95 0 7 -14 49 -31 93 -17
44 -34 94 -39 110 -15 51 -93 250 -200 505 -17 41 -45 116 -61 165 -15 50 -33
104 -39 120 -6 17 -33 95 -60 175 -61 180 -99 281 -110 295 -4 5 -17 45 -29
88 -12 43 -28 95 -37 115 -22 52 -104 291 -104 304 0 6 -16 45 -36 87 -20 42
-50 118 -66 170 -17 52 -43 119 -58 150 -15 31 -38 90 -50 131 -12 41 -31 92
-41 112 -11 21 -41 104 -68 185 -27 81 -64 186 -81 233 -17 47 -41 115 -54
151 -13 36 -30 79 -39 95 -8 16 -22 54 -31 84 -20 75 -129 369 -177 480 -10
25 -29 77 -40 115 -12 39 -34 95 -49 125 -15 30 -44 100 -65 155 -20 55 -48
129 -62 165 -14 36 -36 92 -48 125 -12 33 -49 134 -82 225 -34 91 -75 212 -92
270 -17 58 -38 126 -46 151 -21 66 -19 75 23 105 138 101 236 179 307 244 45
41 101 93 126 115 67 62 98 97 271 315 42 52 105 138 140 190 l65 95 59 7 c32
3 84 13 114 22 30 9 65 16 78 16 12 0 55 11 95 25 50 18 107 29 187 34 63 5
133 16 155 24 22 8 83 18 135 22 63 4 123 17 180 36 46 16 97 29 112 29 30 0
119 20 223 50 38 11 86 20 105 20 20 0 79 14 130 30 63 20 131 34 200 39 58 5
116 13 130 19 31 12 222 56 310 72 74 13 290 63 365 85 28 8 104 26 170 40 66
14 167 41 225 59 58 19 165 50 238 70 74 20 148 44 165 53 18 9 97 33 177 54
250 65 292 77 405 119 61 23 160 58 220 79 61 21 139 50 175 64 36 15 110 38
165 52 55 14 141 44 190 67 50 22 133 58 185 80 471 196 863 462 1011 687 27
40 54 92 60 115 5 22 17 64 26 92 33 108 -14 337 -94 465 -21 33 -55 86 -75
118 -66 105 -310 352 -383 388 -27 14 -59 33 -70 43 -21 19 -159 111 -288 192
-91 57 -429 222 -486 238 -24 6 -85 32 -137 56 -52 25 -123 54 -157 64 -34 10
-93 30 -132 45 -124 47 -289 106 -320 114 -71 20 -205 61 -270 84 -139 48
-250 89 -269 99 -11 6 -45 16 -75 24 -79 18 -194 49 -276 74 -38 12 -89 26
-112 31 -24 5 -64 14 -90 20 -58 12 -108 23 -233 50 -52 12 -117 29 -145 39
-27 10 -72 23 -100 29 -27 5 -77 20 -110 32 -33 11 -87 25 -120 31 -33 5 -96
18 -140 29 -45 10 -93 19 -109 19 -16 0 -63 9 -105 19 -120 30 -212 50 -266
57 -27 3 -65 13 -83 20 -18 7 -72 18 -120 25 -48 6 -104 17 -125 25 -20 8 -59
14 -85 14 -27 0 -75 8 -108 19 -118 37 -384 89 -497 98 -49 3 -97 13 -119 24
-21 11 -59 19 -85 19 -26 1 -66 7 -88 15 -22 8 -66 15 -97 15 -66 0 -78 12
-78 82 0 64 -27 246 -45 302 -8 27 -15 62 -15 78 0 16 -13 62 -30 101 -16 40
-34 95 -41 122 -25 108 -59 216 -82 262 -13 26 -27 68 -30 93 -4 25 -17 77
-31 115 -52 149 -83 232 -105 280 -12 28 -29 70 -38 95 -8 25 -32 81 -53 125
-21 44 -62 136 -90 205 -60 144 -173 374 -234 473 -109 178 -191 305 -261 402
-20 28 -77 111 -126 185 -144 216 -207 291 -452 539 -233 235 -356 344 -490
436 -40 28 -103 76 -140 107 -36 31 -92 74 -123 95 -107 72 -299 196 -399 255
-55 33 -125 75 -156 94 -30 18 -93 48 -140 67 -46 19 -111 46 -144 60 -33 15
-98 36 -144 47 -46 12 -125 39 -176 61 -51 21 -98 39 -106 39 -7 0 -67 16
-134 35 -66 19 -155 39 -196 45 -40 6 -112 19 -159 30 -350 79 -428 90 -665
92 -115 0 -218 5 -227 10 -16 8 -18 28 -18 206 1 113 7 246 16 312 8 63 17
165 20 225 7 121 15 139 68 150 84 18 186 107 235 204 27 54 34 154 15 199 -9
20 -22 57 -30 82 -16 53 -100 152 -141 167 -15 6 -58 22 -96 37 -78 30 -114
31 -177 6z m162 -188 c116 -76 126 -230 20 -322 l-47 -41 -74 6 c-111 9 -159
45 -175 128 -15 79 2 126 65 189 l57 58 64 0 c43 0 71 -6 90 -18z m298 -1607
c30 -8 102 -18 160 -21 58 -3 150 -16 205 -29 55 -14 127 -27 160 -31 33 -4
119 -22 190 -41 72 -20 153 -41 180 -48 116 -29 194 -55 255 -83 36 -16 85
-35 110 -42 86 -22 235 -84 284 -118 42 -29 152 -84 306 -154 25 -11 104 -62
175 -112 72 -51 165 -117 207 -147 354 -249 838 -715 1014 -977 19 -29 63 -88
98 -130 72 -89 155 -214 280 -422 48 -80 91 -152 96 -160 44 -72 283 -583 303
-645 14 -44 40 -114 57 -155 44 -105 122 -318 131 -360 4 -19 24 -74 43 -123
20 -48 41 -111 47 -140 6 -28 21 -88 34 -132 13 -44 31 -109 40 -145 8 -36 20
-81 25 -100 5 -19 10 -59 10 -87 0 -50 -1 -53 -25 -53 -43 0 -95 -28 -113 -61
-44 -80 -42 -79 -168 -79 -102 0 -116 -2 -135 -21 -18 -18 -20 -28 -14 -71 9
-64 4 -68 -110 -68 -49 0 -125 -7 -167 -14 -55 -10 -185 -15 -450 -16 -395 -2
-538 -8 -788 -34 -278 -29 -901 -53 -1408 -55 l-333 -1 -49 25 c-27 14 -56 25
-63 25 -27 0 -37 27 -48 136 -18 167 -19 189 -28 479 -5 166 -14 287 -22 315
-7 26 -12 91 -11 155 0 61 -4 126 -9 145 -10 34 -18 96 -38 302 -6 54 -14 105
-19 115 -5 10 -12 42 -16 72 -4 30 -16 71 -27 92 -10 21 -19 48 -19 59 0 26
-49 124 -112 222 l-49 77 26 127 c14 70 32 139 39 153 8 14 23 71 35 126 24
111 23 108 71 124 85 28 167 116 191 206 33 120 -45 291 -158 346 -63 30 -200
34 -251 6 -65 -35 -114 -91 -154 -172 -48 -98 -47 -133 7 -242 l37 -75 -73
-144 c-41 -79 -90 -163 -110 -187 l-36 -42 -44 13 c-24 7 -75 17 -114 23 -38
6 -96 17 -127 25 -83 20 -244 18 -357 -6 -52 -11 -109 -20 -128 -20 -19 0 -71
-9 -115 -21 -44 -11 -87 -18 -94 -15 -7 3 -25 27 -39 53 -14 26 -37 66 -50 88
-31 50 -75 182 -75 222 0 17 7 36 16 43 27 23 62 93 73 147 22 108 -60 262
-170 318 -41 22 -158 46 -187 39 -49 -12 -122 -54 -161 -93 -57 -57 -116 -183
-115 -246 1 -102 100 -242 189 -267 60 -17 75 -34 75 -87 0 -25 9 -84 20 -131
25 -107 53 -267 53 -301 0 -15 -19 -51 -43 -84 -51 -69 -170 -312 -170 -347 0
-14 -9 -54 -20 -88 -11 -34 -20 -71 -20 -82 0 -11 -7 -43 -14 -71 -8 -29 -20
-102 -26 -162 -5 -61 -17 -143 -25 -183 -9 -40 -20 -125 -25 -190 -5 -64 -16
-153 -24 -197 -8 -44 -16 -120 -16 -170 -1 -49 -6 -115 -11 -145 -5 -30 -14
-118 -19 -195 -6 -77 -16 -160 -24 -185 -8 -25 -17 -61 -21 -81 l-7 -36 -116
-6 c-181 -9 -807 2 -1007 18 -99 8 -294 15 -435 15 -178 0 -282 5 -345 15 -49
8 -137 15 -195 15 -188 1 -535 44 -635 78 -16 6 -79 22 -138 36 -74 18 -127
37 -165 60 -60 36 -215 76 -297 76 -45 0 -67 13 -135 75 -31 29 -68 49 -114
65 l-68 22 7 52 c4 28 8 89 10 136 2 91 35 257 90 455 32 114 49 164 160 470
26 72 60 168 76 215 43 124 99 260 124 300 12 19 48 82 80 140 32 58 76 131
97 164 21 32 38 62 38 67 0 13 145 244 194 309 49 65 126 179 177 262 20 32
61 84 90 116 30 32 88 97 129 146 41 48 102 109 135 136 33 26 80 67 105 91
181 176 558 468 685 532 39 19 106 63 150 97 102 79 215 146 385 227 171 83
450 196 560 229 47 14 137 43 200 65 139 48 261 79 316 79 22 0 76 9 119 21
44 11 145 27 225 35 80 8 165 19 190 24 25 5 79 10 120 10 41 1 111 10 155 20
73 17 122 18 530 15 373 -3 459 -7 505 -20z m-1453 -1756 c30 -29 32 -98 2
-145 -23 -37 -35 -40 -87 -22 -28 11 -38 10 -64 -5 -16 -9 -34 -17 -39 -17
-15 0 -49 63 -49 91 0 28 60 105 94 120 35 15 116 2 143 -22z m1766 6 c68 -51
84 -123 40 -175 -24 -29 -30 -31 -66 -26 -45 7 -107 37 -127 60 -7 9 -13 35
-13 58 0 34 6 47 32 70 35 32 102 38 134 13z m-168 -467 c-4 -13 -16 -41 -26
-63 -11 -22 -34 -82 -52 -134 -31 -90 -57 -127 -57 -83 0 18 130 302 138 302
2 0 0 -10 -3 -22z m-1525 -199 c32 -90 36 -109 20 -109 -5 0 -10 8 -10 18 0 9
-9 37 -20 61 -20 43 -39 132 -26 120 4 -4 20 -44 36 -90z m890 -134 c107 -14
368 -85 405 -109 69 -46 202 -216 235 -301 12 -33 29 -76 37 -95 27 -67 44
-146 59 -275 9 -71 20 -159 25 -195 5 -36 13 -153 19 -260 5 -107 15 -222 21
-255 6 -33 15 -208 20 -390 6 -181 11 -347 12 -369 2 -37 0 -39 -44 -56 -51
-21 -128 -22 -1383 -21 -539 0 -681 3 -688 13 -13 20 1 424 17 488 8 30 16
111 18 180 3 69 12 172 22 230 45 286 65 444 65 521 0 31 9 88 20 125 11 38
30 103 41 144 12 41 27 87 35 102 8 14 25 58 38 96 26 78 40 98 126 187 118
123 104 115 344 196 159 54 366 71 556 44z m-5092 -2120 c75 -24 243 -64 279
-66 10 -1 -4 -5 -32 -9 -82 -13 -187 -11 -248 5 -32 8 -69 15 -83 15 -30 0
-40 23 -26 56 14 30 15 30 110 -1z m10032 -30 c0 -8 -9 -15 -20 -15 -13 0 -18
5 -14 15 4 8 12 15 20 15 8 0 14 -7 14 -15z m-9133 -215 c23 -6 74 -10 112
-10 80 0 291 -13 561 -35 102 -8 256 -19 343 -25 86 -6 171 -15 188 -20 16 -5
94 -9 172 -8 241 0 947 -22 1047 -34 52 -6 275 -15 495 -19 220 -5 429 -10
465 -11 36 0 135 3 220 7 85 5 173 8 195 7 22 -2 211 -3 420 -3 209 1 416 -3
460 -8 78 -8 79 -8 22 -10 -32 0 -72 -8 -89 -17 -28 -14 -82 -15 -527 -8 -273
4 -509 8 -526 8 -16 0 -140 -2 -275 -3 -135 -2 -321 0 -415 4 -142 5 -639 11
-1570 20 -88 1 -205 4 -260 8 -55 4 -158 12 -230 17 -71 6 -233 14 -360 20
-126 5 -255 14 -285 19 -79 14 -252 37 -415 56 -381 43 -402 49 -195 55 217 6
392 2 447 -10z m8633 -24 c-20 -8 -104 -16 -195 -19 -88 -3 -176 -11 -195 -17
-19 -7 -109 -16 -200 -21 -91 -5 -205 -14 -255 -19 -49 -5 -301 -14 -560 -19
-258 -5 -553 -14 -655 -20 -201 -12 -716 -21 -756 -13 -59 11 -9 19 184 30
252 15 749 33 967 37 282 5 874 30 1069 46 114 9 438 24 581 27 l50 1 -35 -13z
m830 -10 c89 -23 207 -45 330 -61 63 -9 140 -22 170 -30 30 -7 86 -16 125 -20
38 -4 80 -11 95 -17 14 -5 68 -16 120 -23 52 -8 133 -23 180 -34 89 -22 198
-42 315 -60 39 -6 95 -15 125 -21 30 -6 91 -18 135 -26 44 -9 109 -22 145 -31
36 -8 90 -19 120 -24 31 -4 72 -15 92 -24 21 -8 51 -15 67 -15 28 0 64 -10
227 -61 33 -10 75 -19 92 -19 18 0 58 -9 89 -20 32 -11 70 -20 85 -20 16 0 54
-9 85 -20 32 -11 71 -20 87 -20 16 0 84 -18 150 -40 67 -22 150 -49 186 -60
36 -11 107 -33 158 -50 50 -16 127 -34 170 -39 43 -6 102 -21 132 -35 30 -14
60 -26 67 -26 7 0 27 -7 45 -14 74 -33 168 -66 186 -66 11 0 75 -23 143 -51
68 -28 174 -63 234 -79 103 -26 149 -46 349 -154 27 -14 58 -26 70 -26 12 0
57 -20 101 -45 44 -25 129 -70 188 -100 94 -48 202 -116 312 -198 16 -12 70
-52 120 -89 119 -88 141 -109 212 -198 133 -168 164 -221 184 -316 25 -121 25
-118 -28 -153 -27 -17 -58 -38 -70 -46 -19 -15 -102 -48 -188 -76 -16 -5 -55
-13 -85 -18 -52 -8 -161 -42 -260 -81 -25 -10 -71 -20 -103 -24 -31 -3 -85
-15 -120 -25 -77 -23 -143 -40 -227 -57 -36 -7 -83 -17 -105 -23 -22 -5 -76
-17 -120 -26 -44 -9 -106 -23 -137 -31 -32 -8 -69 -14 -82 -14 -13 0 -84 -15
-158 -34 -231 -60 -299 -74 -443 -96 -77 -11 -192 -34 -255 -51 -63 -17 -151
-37 -195 -44 -44 -6 -91 -17 -105 -22 -14 -6 -56 -14 -95 -17 -38 -4 -99 -16
-135 -27 -36 -11 -99 -24 -140 -29 -281 -34 -447 -62 -501 -83 -18 -8 -72 -17
-119 -21 -47 -4 -108 -13 -135 -21 -26 -8 -71 -15 -99 -15 -28 0 -98 -11 -156
-24 -124 -29 -218 -43 -366 -56 -60 -5 -125 -14 -144 -19 -19 -5 -98 -15 -174
-21 -76 -6 -166 -20 -200 -30 -34 -10 -142 -26 -241 -35 -100 -9 -210 -23
-245 -31 -36 -8 -105 -19 -154 -24 -49 -5 -175 -23 -280 -39 -105 -16 -243
-35 -306 -41 -63 -6 -158 -18 -210 -26 -53 -8 -123 -14 -155 -15 -77 0 -293
-23 -415 -44 -100 -16 -244 -29 -520 -45 -91 -5 -187 -12 -215 -15 -27 -4 -97
-9 -155 -11 -173 -7 -358 -21 -485 -38 -66 -9 -235 -20 -375 -26 -140 -6 -298
-14 -350 -19 -52 -5 -180 -10 -285 -10 -104 -1 -289 -8 -410 -17 -253 -18
-1754 -28 -2050 -13 -108 6 -190 5 -225 -1 -37 -7 -128 -7 -275 0 -349 17
-450 20 -975 35 -272 8 -517 19 -545 25 -27 5 -162 14 -300 20 -137 5 -275 14
-305 19 -30 5 -113 10 -185 10 -71 1 -168 8 -215 16 -47 8 -125 15 -175 15
-49 0 -130 7 -180 15 -49 8 -110 15 -135 15 -25 0 -90 9 -145 20 -62 13 -181
24 -315 31 -118 5 -251 17 -295 26 -44 9 -143 19 -220 24 -77 4 -171 13 -210
19 -38 6 -115 15 -170 20 -55 6 -125 14 -155 20 -30 5 -158 21 -285 35 -130
14 -276 36 -335 50 -58 15 -150 30 -205 35 -55 4 -156 17 -225 28 -69 12 -181
26 -250 32 -69 6 -132 13 -140 15 -8 2 -60 9 -115 14 -68 8 -137 23 -216 50
-72 24 -147 42 -195 46 -44 4 -99 14 -124 21 -25 8 -142 30 -260 50 -118 20
-255 46 -305 59 -49 13 -110 26 -135 30 -25 4 -71 16 -104 26 -32 11 -74 19
-92 19 -19 0 -96 16 -172 36 -75 19 -175 42 -222 50 -47 8 -157 33 -245 55
-88 23 -187 47 -220 54 -33 7 -82 19 -110 27 -27 9 -68 20 -90 26 -22 5 -74
20 -115 32 -41 12 -104 28 -140 35 -92 18 -305 78 -385 109 -22 8 -48 15 -58
16 -77 1 -507 176 -507 205 0 7 6 28 14 46 7 19 17 57 21 84 17 122 255 424
420 532 38 26 110 78 159 117 102 81 161 116 366 216 80 39 154 80 165 90 19
18 77 44 240 109 99 40 222 86 275 104 25 8 70 25 100 37 78 30 149 55 273 95
59 19 120 41 136 49 16 9 48 18 72 22 24 3 89 21 145 40 55 19 112 34 125 34
13 0 69 15 124 34 167 56 201 65 267 75 34 5 104 24 153 41 50 17 110 36 135
41 88 20 205 50 240 61 19 6 64 17 100 23 86 16 192 43 260 65 107 35 166 48
235 55 39 3 97 12 130 20 162 37 245 54 295 60 103 12 232 38 370 75 19 5 52
10 74 10 39 0 125 17 256 50 102 26 204 40 294 40 46 0 98 7 138 20 83 26 190
26 266 1 31 -11 104 -25 162 -31 58 -6 141 -20 185 -32 44 -11 154 -28 245
-39 91 -11 208 -26 260 -34 104 -17 308 -30 675 -45 232 -10 387 -20 565 -40
47 -5 297 -12 555 -15 259 -4 488 -11 510 -17 55 -13 1568 -30 2565 -29 804 2
1295 11 1610 31 85 6 326 15 535 20 209 5 405 14 436 19 31 5 243 17 470 25
228 9 484 24 569 32 85 9 211 20 280 24 254 17 401 42 468 81 18 10 44 19 57
19 13 0 56 13 97 29 40 16 87 33 103 39 43 15 122 14 185 -2z m-4100 -116
c-36 -4 -164 -7 -285 -7 l-220 1 185 6 c102 3 230 6 285 6 93 1 95 0 35 -6z
m9750 -2427 c-48 -62 -159 -169 -225 -218 -67 -49 -263 -167 -390 -234 -33
-17 -116 -61 -185 -98 -113 -59 -208 -95 -405 -152 -33 -10 -83 -29 -110 -43
-69 -36 -167 -75 -207 -83 -18 -4 -55 -15 -83 -25 -111 -41 -403 -130 -445
-136 -51 -7 -143 -34 -244 -71 -38 -14 -99 -32 -135 -39 -36 -8 -106 -26 -156
-40 -49 -14 -116 -32 -147 -40 -31 -8 -94 -30 -140 -49 -62 -26 -113 -39 -199
-51 -64 -8 -170 -30 -235 -50 -65 -19 -168 -43 -229 -54 -60 -10 -139 -28
-175 -39 -77 -24 -137 -38 -240 -56 -41 -7 -133 -27 -205 -45 -189 -46 -213
-52 -286 -65 -36 -7 -72 -15 -78 -20 -11 -6 -230 -43 -391 -65 -131 -18 -220
-33 -295 -50 -44 -10 -111 -21 -150 -25 -38 -4 -97 -13 -130 -22 -33 -8 -116
-19 -185 -23 -105 -6 -133 -11 -175 -32 -40 -20 -72 -27 -155 -32 -320 -20
-335 -22 -394 -49 -56 -26 -60 -26 -102 -12 -35 12 -60 13 -117 5 -117 -15
-291 -30 -462 -41 -88 -5 -203 -14 -255 -18 -52 -5 -160 -14 -240 -20 -80 -7
-158 -16 -174 -22 -16 -5 -56 -9 -90 -9 -43 0 -71 -6 -93 -20 -18 -11 -33 -16
-33 -11 0 5 -14 14 -30 21 -36 15 -142 16 -510 2 -151 -5 -394 -13 -540 -17
-368 -9 -534 -24 -587 -54 -18 -9 -28 -9 -45 0 -16 9 -84 12 -228 11 -113 0
-311 0 -440 1 -129 1 -271 1 -315 0 -44 -1 -186 -1 -315 0 -553 3 -889 -7
-930 -28 -28 -14 -32 -14 -56 2 -22 14 -56 18 -188 20 -88 2 -199 9 -246 15
-102 13 -131 13 -280 3 -63 -5 -189 -8 -280 -7 -165 0 -226 2 -657 22 -125 6
-347 12 -493 14 -273 3 -750 29 -830 45 -25 6 -108 12 -185 16 -77 3 -255 15
-395 27 -140 12 -286 22 -325 23 -38 2 -89 10 -112 19 -23 8 -62 18 -85 21
-24 3 -77 12 -118 20 -41 7 -131 18 -200 24 -77 6 -148 18 -184 30 -33 12
-101 26 -150 31 -50 6 -111 17 -136 24 -25 8 -85 17 -134 20 -49 3 -121 14
-160 25 -39 10 -102 24 -141 30 -106 17 -208 37 -330 65 -112 25 -152 34 -285
62 -41 8 -102 24 -135 34 -33 11 -121 31 -195 45 -74 14 -160 33 -190 42 -76
22 -156 40 -215 47 -27 4 -81 15 -120 26 -38 10 -115 26 -170 35 -55 9 -134
29 -175 45 -112 42 -384 130 -402 130 -25 0 -221 59 -567 170 -67 22 -127 40
-133 40 -12 0 -135 47 -168 64 -14 8 -92 35 -175 61 -82 26 -179 62 -215 80
-36 18 -85 37 -111 43 -59 15 -388 159 -509 224 -285 153 -370 206 -466 289
-95 82 -182 181 -164 187 6 2 37 -5 68 -16 31 -11 89 -27 127 -36 91 -21 239
-60 565 -150 69 -19 154 -40 189 -46 36 -6 86 -22 112 -36 27 -13 124 -40 216
-60 275 -59 293 -63 316 -75 12 -7 56 -15 98 -20 78 -8 214 -37 328 -70 35
-11 80 -19 100 -19 20 0 56 -10 81 -21 25 -11 108 -34 185 -50 77 -16 154 -33
170 -39 17 -5 55 -12 85 -16 30 -4 73 -13 94 -21 59 -20 379 -83 479 -94 49
-5 123 -21 165 -35 80 -28 186 -50 407 -84 72 -11 162 -27 200 -36 39 -8 122
-22 185 -30 63 -9 144 -19 180 -24 36 -5 99 -10 140 -10 41 0 109 -9 150 -20
48 -13 108 -20 166 -20 91 0 291 -23 516 -60 64 -10 163 -22 220 -25 57 -4
137 -13 178 -20 41 -8 120 -19 174 -25 55 -6 119 -17 143 -25 32 -11 92 -15
227 -15 129 0 195 -4 222 -14 40 -13 301 -34 499 -40 61 -1 153 -8 205 -14 91
-11 244 -21 645 -42 99 -5 243 -16 320 -25 237 -25 509 -36 1045 -41 283 -2
551 -8 595 -13 44 -6 188 -10 320 -10 506 0 1691 8 1920 14 132 3 317 7 410 9
94 2 213 8 265 14 52 6 232 16 400 22 168 6 348 18 400 26 53 7 141 14 195 14
125 1 513 25 705 45 80 8 177 14 217 15 39 0 100 6 135 14 35 7 124 19 198 26
74 6 158 16 185 20 28 5 151 16 275 25 124 9 275 23 335 32 131 18 257 30 420
43 134 10 289 32 386 55 40 9 117 15 204 15 77 1 163 5 190 10 68 13 219 35
400 59 83 11 170 27 195 36 25 8 99 22 165 30 66 8 154 21 195 29 41 8 101 15
134 15 32 1 84 7 115 15 31 8 99 20 151 26 52 6 124 20 160 30 36 10 90 21
120 25 55 6 132 21 290 55 47 10 109 21 138 25 29 3 81 15 115 25 34 11 76 20
94 20 18 0 76 9 130 19 97 19 156 30 283 52 36 7 90 18 120 26 30 8 120 28
200 44 390 78 448 89 490 95 25 3 71 15 102 25 32 10 87 23 123 28 37 5 76 16
88 24 31 20 113 45 172 52 28 4 84 15 125 26 143 39 185 48 234 54 55 6 102
19 281 75 66 21 140 41 165 45 25 3 71 15 103 26 31 10 65 19 75 19 9 1 28 7
42 15 38 22 44 18 20 -12z m-6352 -2020 c55 -14 78 -14 152 -5 99 14 210 16
210 5 0 -20 -85 -142 -146 -210 -37 -42 -83 -94 -102 -117 -69 -83 -231 -245
-286 -285 -30 -23 -94 -72 -141 -110 -92 -74 -293 -214 -354 -246 -21 -11 -51
-29 -67 -41 -16 -12 -81 -49 -144 -84 -63 -34 -131 -72 -150 -84 -19 -12 -59
-32 -89 -44 -30 -12 -78 -38 -107 -57 -29 -19 -58 -35 -64 -35 -7 0 -48 -16
-93 -36 -45 -20 -100 -42 -122 -50 -22 -7 -92 -31 -155 -54 -63 -22 -140 -48
-170 -56 -30 -8 -84 -27 -120 -41 -242 -97 -407 -146 -755 -222 -77 -17 -156
-37 -175 -44 -19 -6 -71 -12 -115 -13 -44 0 -124 -5 -178 -12 -83 -10 -103
-10 -134 3 -49 21 -71 19 -122 -11 -34 -19 -58 -25 -100 -24 -31 1 -85 -6
-121 -15 -38 -9 -174 -21 -325 -30 -143 -8 -303 -19 -356 -24 -150 -15 -895
-4 -944 14 -22 8 -134 21 -251 29 -234 17 -251 20 -229 43 24 24 29 62 16 142
-6 42 -11 94 -10 117 2 77 -46 135 -95 113 -37 -17 -49 -60 -49 -173 0 -105
16 -168 50 -193 29 -22 5 -27 -79 -14 -46 6 -145 16 -221 21 -84 6 -150 16
-167 25 -38 20 -111 19 -154 -2 -33 -15 -40 -15 -113 0 -43 10 -116 24 -163
32 -47 8 -114 21 -150 30 -36 8 -114 24 -175 35 -150 27 -375 94 -540 162 -38
16 -98 33 -132 38 -70 12 -116 31 -191 79 -41 26 -68 35 -126 41 -130 15 -563
200 -738 315 -45 30 -86 55 -91 55 -4 0 -38 20 -75 43 -37 24 -91 56 -120 70
-236 118 -673 512 -918 829 -73 94 -77 92 159 83 111 -5 229 -9 262 -10 61 -1
136 -17 258 -57 59 -18 72 -20 105 -9 24 8 65 11 112 7 41 -3 138 -11 215 -17
77 -6 187 -12 245 -15 58 -2 155 -9 215 -14 61 -6 238 -15 395 -20 234 -7 311
-13 429 -34 80 -14 148 -23 153 -20 18 11 982 6 1011 -5 19 -7 92 -9 215 -6
103 3 278 7 389 9 168 2 206 6 227 20 24 15 28 15 53 -1 20 -13 58 -19 152
-25 69 -3 218 -11 331 -18 113 -6 246 -9 295 -6 76 5 241 6 445 3 25 0 99 5
165 12 158 18 237 21 500 21 121 1 247 6 280 12 33 6 69 10 80 10 11 0 116 -3
234 -6 117 -3 315 -1 440 5 124 6 287 12 361 13 162 4 492 23 574 35 43 6 65
14 78 31 10 12 18 18 18 12 0 -13 78 -44 91 -36 6 3 112 8 237 10 347 7 597
24 626 41 5 4 59 10 120 14 274 19 355 29 390 46 20 9 36 21 36 26 0 5 7 6 17
3 9 -4 45 -14 81 -23z M24205 43508 c-39 -21 -68 -53 -86 -96 -24 -56 -24 -66
4 -127 45 -96 139 -133 213 -83 78 52 114 150 80 216 -40 78 -149 124 -211 90z
M25295 43502 c-34 -21 -85 -107 -85 -144 0 -13 12 -48 26 -76 31 -62 86 -98
134 -87 51 11 110 62 136 118 28 62 29 75 8 120 -36 75 -150 111 -219 69z
M24620 43281 c-16 -16 -32 -41 -36 -57 -4 -16 -17 -47 -29 -69 -14 -24 -25
-66 -29 -107 -4 -36 -13 -82 -21 -102 -8 -19 -15 -49 -15 -66 0 -16 -9 -56
-19 -87 -18 -52 -26 -127 -22 -205 2 -39 94 -171 133 -191 18 -9 60 -18 94
-20 34 -3 79 -14 102 -26 51 -26 74 -26 121 -2 20 11 63 31 96 46 121 53 191
161 182 283 -8 112 -47 389 -70 493 -24 107 -63 151 -117 129 -48 -20 -65 -66
-52 -141 6 -35 14 -89 17 -119 3 -30 17 -115 30 -189 14 -74 25 -154 25 -178
l0 -45 -62 7 c-73 7 -79 4 -104 -49 -11 -22 -25 -41 -31 -44 -13 -4 -17 3 -27
51 -14 62 -71 85 -119 47 -44 -35 -51 -27 -44 48 4 37 14 94 23 127 22 81 43
177 55 250 6 33 17 83 26 111 14 46 14 54 -1 82 -30 57 -65 65 -106 23z
M33485 40471 c-67 -17 -197 -92 -247 -144 -68 -70 -91 -107 -127 -205 -43
-115 -43 -216 -3 -331 51 -144 117 -214 258 -275 77 -33 95 -38 139 -32 27 3
76 1 108 -5 l57 -12 123 60 c153 76 207 122 252 217 36 77 62 228 53 309 -7
61 -93 232 -139 276 -20 20 -81 59 -135 87 -96 50 -102 51 -204 57 -58 3 -118
2 -135 -2z m143 -205 c15 -7 45 -17 67 -20 96 -18 136 -57 180 -179 64 -177
-4 -293 -225 -383 -80 -32 -118 -29 -223 21 -74 35 -83 44 -142 139 -25 42
-17 199 13 247 35 57 116 129 178 159 65 32 111 37 152 16z M33548 40030 c-45
-24 -55 -51 -32 -89 40 -68 124 -68 159 0 20 38 12 65 -28 90 -39 23 -52 23
-99 -1z M16345 40462 c-11 -1 -36 -9 -55 -17 -19 -7 -47 -16 -61 -19 -39 -8
-151 -99 -201 -164 -25 -31 -60 -93 -78 -137 -31 -78 -32 -82 -27 -199 5 -117
6 -120 52 -212 30 -59 62 -107 87 -130 43 -39 151 -94 183 -94 11 0 43 -10 71
-21 51 -22 53 -22 159 -5 138 21 234 64 304 135 65 66 124 189 147 304 17 85
17 86 -6 159 -53 166 -93 221 -223 306 -99 63 -267 109 -352 94z m282 -234
c72 -43 133 -148 133 -225 0 -69 -51 -201 -95 -246 -35 -36 -142 -96 -192
-107 -46 -11 -205 13 -239 35 -43 28 -74 65 -106 130 -28 55 -30 64 -24 134
11 120 37 163 153 253 61 47 106 56 248 50 67 -3 98 -9 122 -24z M16413 40038
c-49 -24 -54 -104 -8 -134 31 -20 68 -12 101 21 62 62 -12 152 -93 113z
M20409 40401 c-37 -4 -69 -15 -95 -33 -22 -16 -45 -28 -50 -28 -16 0 -143 -88
-170 -118 -13 -15 -46 -67 -72 -117 -94 -173 -98 -276 -20 -481 26 -70 98
-149 168 -184 157 -79 302 -106 415 -77 110 29 268 111 312 163 67 78 103 147
113 213 5 34 16 83 25 110 15 47 15 50 -16 157 -37 132 -49 151 -136 235 -76
73 -164 121 -278 150 -72 19 -99 20 -196 10z m211 -226 c103 -28 137 -57 187
-155 48 -96 53 -141 24 -192 -11 -18 -27 -59 -36 -92 -29 -99 -75 -133 -255
-188 -75 -22 -250 15 -312 67 -58 49 -72 76 -85 160 -23 157 42 289 171 346
27 11 69 34 95 51 53 34 96 34 211 3z M29346 40390 c-15 -5 -36 -15 -45 -22
-9 -7 -32 -21 -51 -31 -20 -10 -69 -48 -110 -86 -60 -55 -85 -87 -125 -162
l-50 -94 0 -155 c0 -156 0 -156 33 -222 40 -82 96 -139 201 -202 80 -48 80
-48 204 -58 202 -16 334 21 438 123 60 59 149 200 149 237 0 12 7 39 15 59 21
51 19 167 -5 244 -43 142 -187 303 -294 329 -23 6 -65 20 -94 30 -57 21 -209
27 -266 10z m305 -226 c73 -22 118 -70 154 -164 44 -112 33 -215 -30 -302 -48
-66 -90 -94 -191 -129 -99 -35 -139 -35 -251 1 -90 28 -101 37 -146 125 -38
74 -42 86 -42 160 0 70 4 87 30 133 95 173 270 237 476 176z M29461 39956
c-51 -28 -61 -77 -32 -143 26 -55 64 -76 108 -58 30 13 40 32 57 104 7 33 -18
77 -54 96 -35 18 -48 18 -79 1z M24828 40331 c-13 -11 -38 -23 -54 -26 -48
-11 -121 -43 -168 -75 -163 -110 -245 -281 -232 -481 15 -243 146 -408 356
-449 30 -6 76 -20 102 -31 56 -23 116 -24 163 -5 19 8 60 20 91 25 39 8 79 26
139 66 92 60 115 89 193 241 40 78 41 85 42 180 2 90 -2 108 -33 197 -45 124
-72 164 -161 231 -98 73 -137 96 -166 96 -14 0 -46 11 -72 25 -61 33 -162 35
-200 6z m261 -237 c129 -70 169 -126 181 -252 8 -83 7 -90 -22 -157 -35 -83
-49 -100 -140 -161 -66 -44 -72 -46 -116 -39 -59 9 -95 9 -154 0 -85 -13 -152
24 -240 134 -15 18 -39 170 -32 196 13 43 68 161 87 187 26 36 112 95 163 113
21 8 77 14 123 15 78 0 89 -3 150 -36z M24845 39895 c-58 -57 -12 -175 69
-175 60 0 91 43 80 112 -14 83 -95 118 -149 63z M29095 37076 c-64 -64 -31
-167 45 -136 44 18 63 77 39 123 -23 44 -49 48 -84 13z M20964 37058 c-27 -15
-44 -38 -44 -63 0 -23 65 -187 88 -223 30 -46 94 -40 119 13 14 30 14 37 -2
86 -44 137 -110 213 -161 187z M22184 36982 c-30 -20 -34 -49 -20 -178 16
-151 19 -159 56 -174 60 -25 102 35 75 109 -8 24 -15 64 -15 90 0 106 -49 185
-96 153z M24843 36982 c-30 -19 -37 -101 -34 -417 0 -16 1 -77 1 -133 0 -70 5
-113 15 -132 43 -84 94 -14 95 131 1 176 1 195 0 239 -1 25 2 78 5 118 14 142
-24 231 -82 194z M26001 36831 c-25 -25 -54 -128 -46 -160 3 -14 13 -66 20
-116 19 -122 22 -133 44 -145 30 -16 47 -3 73 53 33 74 33 270 0 333 -29 57
-58 68 -91 35z M27554 36812 c-44 -29 -65 -155 -39 -237 44 -140 122 -69 118
107 -2 92 -22 138 -58 138 -5 0 -15 -4 -21 -8z M23677 36758 c-36 -28 -50
-147 -27 -230 21 -75 87 -81 111 -11 21 64 -6 224 -41 243 -23 13 -23 13 -43
-2z M21270 36640 c-26 -26 -25 -48 4 -141 30 -97 48 -123 100 -149 46 -22 71
-19 86 11 17 31 11 64 -25 123 -19 31 -37 74 -41 94 -14 71 -81 105 -124 62z
M28293 36545 c-41 -17 -60 -48 -79 -124 -25 -98 8 -149 77 -121 22 9 41 35 74
95 52 95 54 107 20 140 -27 28 -46 30 -92 10z M22430 36060 c-11 -11 -20 -33
-20 -48 0 -15 9 -53 20 -85 11 -31 20 -65 20 -75 0 -28 66 -158 84 -165 14 -6
44 14 47 31 1 4 3 54 4 112 3 103 2 106 -32 168 -47 84 -83 102 -123 62z
M27172 36030 c-32 -20 -82 -106 -81 -140 0 -8 10 -44 22 -80 27 -80 56 -101
107 -80 49 20 61 59 53 176 -5 84 -10 102 -29 121 -28 28 -31 28 -72 3z
M26950 35960 c-44 -44 -8 -154 44 -134 18 7 36 49 36 84 0 29 -29 70 -50 70
-5 0 -19 -9 -30 -20z M25762 35832 c-23 -23 -38 -142 -22 -172 25 -48 105 -27
143 37 21 37 12 64 -41 121 -34 37 -54 40 -80 14z M24823 35814 c-25 -25 -25
-25 -21 -172 5 -160 14 -195 57 -210 36 -12 68 4 80 41 15 40 14 289 0 320
-11 25 -47 47 -75 47 -8 0 -26 -12 -41 -26z M26008 35824 c-33 -17 -44 -55
-53 -179 -10 -131 24 -198 91 -181 35 9 46 39 61 156 7 58 15 119 19 137 5 26
1 37 -19 57 -29 29 -59 32 -99 10z M18232 23334 c-123 -61 -436 -533 -563
-849 -15 -38 -39 -91 -53 -117 -42 -80 -92 -207 -145 -373 -13 -38 -31 -92
-41 -120 -10 -27 -23 -72 -28 -100 -5 -27 -14 -63 -20 -80 -27 -78 -46 -179
-51 -266 l-6 -95 -56 -75 c-31 -41 -69 -94 -85 -119 -38 -58 -62 -61 -155 -16
-85 40 -375 126 -428 126 -20 0 -61 7 -91 15 -30 8 -89 15 -130 15 -41 0 -94
5 -118 10 -44 11 -76 6 -297 -40 -101 -22 -116 -26 -234 -69 -63 -23 -95 -42
-135 -78 -28 -27 -67 -61 -87 -76 -65 -49 -179 -214 -179 -259 0 -7 -10 -31
-22 -53 -45 -82 -34 -299 22 -429 25 -60 159 -195 226 -229 98 -49 208 -88
268 -93 34 -3 86 -16 116 -27 101 -39 331 -26 589 34 46 11 86 17 90 14 3 -4
-3 -21 -13 -38 -21 -35 -91 -169 -216 -412 -74 -145 -96 -184 -150 -265 -9
-14 -29 -50 -44 -80 -16 -30 -52 -91 -81 -135 -28 -44 -64 -105 -80 -135 -15
-30 -60 -104 -99 -165 -40 -60 -94 -148 -121 -195 -27 -47 -78 -128 -114 -180
-36 -52 -81 -126 -100 -163 -20 -37 -79 -143 -132 -235 -53 -92 -100 -178
-104 -192 -4 -14 -18 -41 -31 -61 -26 -42 -204 -403 -204 -415 0 -4 -6 -15
-14 -23 -13 -15 -66 -139 -66 -155 0 -3 -28 -55 -62 -113 -61 -104 -63 -109
-64 -183 -1 -41 -9 -102 -19 -135 -27 -88 -29 -464 -2 -512 9 -18 17 -42 17
-55 0 -13 10 -43 22 -68 11 -25 31 -74 44 -109 13 -35 34 -80 47 -100 13 -20
41 -63 63 -96 53 -80 167 -199 229 -239 157 -101 389 -207 500 -228 28 -5 97
-23 155 -40 58 -16 134 -38 170 -48 36 -10 91 -30 123 -44 43 -20 74 -26 125
-26 66 0 195 -19 262 -40 19 -5 96 -10 171 -10 84 0 169 -6 220 -16 77 -15 93
-15 194 0 292 42 312 46 604 130 195 55 551 288 705 462 44 49 116 127 161
174 125 133 173 192 227 282 27 45 57 92 68 103 10 11 30 39 43 63 l24 43 7
-118 c4 -65 9 -284 11 -486 3 -203 6 -371 9 -375 5 -9 22 -229 36 -453 6 -97
16 -184 25 -209 8 -23 15 -60 15 -80 0 -21 9 -82 21 -137 11 -54 24 -120 28
-148 11 -67 36 -158 62 -225 12 -30 27 -72 35 -93 24 -66 65 -139 120 -219 84
-121 87 -131 79 -212 -3 -39 -11 -91 -16 -116 -6 -25 -12 -91 -15 -148 -2 -59
-9 -114 -17 -130 -8 -15 -17 -67 -21 -117 -4 -49 -11 -108 -16 -130 -6 -22
-15 -86 -20 -142 -6 -55 -17 -120 -25 -144 -8 -23 -18 -74 -21 -113 -3 -39 -9
-98 -14 -131 -13 -90 -49 -341 -60 -418 -6 -37 -10 -80 -10 -95 0 -15 -9 -56
-20 -90 -11 -36 -20 -93 -20 -130 0 -37 -5 -85 -10 -107 -12 -51 -68 -422 -80
-536 -13 -115 -39 -290 -46 -309 -8 -19 -22 -160 -33 -321 -4 -69 -11 -131
-15 -138 -10 -15 -35 -181 -46 -301 -4 -47 -13 -98 -19 -115 -7 -16 -9 -45 -6
-65 3 -20 1 -49 -5 -65 -10 -27 -17 -79 -39 -295 -8 -79 -18 -142 -56 -355
-28 -158 -29 -198 -6 -242 26 -53 94 -111 146 -124 22 -6 67 -21 99 -32 59
-21 99 -23 241 -16 59 3 76 0 105 -19 25 -16 50 -22 91 -22 31 0 78 -7 105
-15 27 -9 85 -18 129 -21 77 -6 82 -5 127 25 67 43 99 96 108 179 5 37 13 96
19 132 23 144 43 378 42 503 -1 73 4 148 10 167 6 20 12 138 14 276 3 177 8
257 19 302 9 33 16 93 16 133 0 74 3 100 40 399 12 91 25 219 31 285 6 66 14
165 19 220 10 126 27 250 45 340 8 39 19 111 25 160 6 50 16 119 22 155 6 36
14 108 19 160 10 124 35 324 48 380 6 25 11 84 11 131 0 47 6 108 14 135 8 27
19 83 25 125 6 42 16 89 22 105 6 16 15 80 19 141 13 175 42 209 157 179 34
-9 73 -16 89 -16 15 0 50 -7 78 -15 79 -23 231 -55 259 -55 14 0 52 -7 84 -15
32 -8 95 -19 139 -24 82 -10 184 -47 200 -72 5 -8 12 -97 16 -199 4 -102 8
-192 9 -200 1 -8 -2 -43 -6 -77 -5 -40 -3 -90 5 -137 10 -60 10 -87 0 -141 -8
-43 -14 -204 -17 -463 -2 -218 -5 -476 -6 -572 -1 -96 1 -344 5 -550 3 -206 2
-420 -3 -475 -5 -55 -11 -239 -13 -410 -2 -170 -9 -393 -16 -495 -7 -102 -12
-331 -13 -510 -1 -307 1 -327 20 -371 24 -53 64 -86 147 -123 50 -22 73 -26
161 -26 69 0 114 5 138 15 54 22 115 19 172 -10 49 -25 54 -26 195 -20 179 8
181 8 225 47 54 47 68 82 76 193 5 55 11 124 15 153 4 36 2 70 -9 110 -13 44
-17 122 -21 352 -2 163 -9 308 -14 325 -13 38 -30 404 -41 895 -9 451 -8 357
-15 1035 -3 297 -9 608 -12 690 -5 121 -3 167 10 233 16 78 16 91 -1 221 l-17
137 22 65 c12 37 22 90 22 122 l0 57 98 0 c53 0 126 -5 162 -11 36 -6 139 -12
230 -14 91 -2 201 -9 245 -14 44 -6 143 -15 220 -21 77 -6 201 -15 275 -20 74
-6 248 -15 385 -20 138 -5 268 -14 290 -19 22 -5 107 -14 188 -20 81 -6 153
-13 159 -17 6 -4 88 -8 182 -11 94 -2 221 -9 281 -15 61 -6 135 -11 165 -11
338 6 819 -1 910 -13 125 -16 177 -17 216 -4 60 20 1522 38 1660 20 58 -7 117
-7 200 1 146 13 306 4 335 -20 18 -15 20 -31 25 -196 2 -99 9 -247 15 -328 5
-82 7 -157 4 -168 -4 -10 1 -83 9 -161 8 -79 20 -305 26 -503 6 -198 16 -389
21 -425 6 -36 13 -139 15 -230 2 -91 9 -212 14 -270 5 -58 12 -170 15 -250 4
-80 13 -175 21 -212 8 -37 14 -120 14 -185 1 -65 5 -157 11 -205 5 -48 10
-167 10 -264 1 -125 6 -187 15 -210 10 -23 12 -55 8 -106 -4 -45 -2 -95 6
-128 14 -66 33 -301 30 -385 -2 -83 19 -242 38 -290 20 -48 59 -88 111 -114
59 -31 271 -33 324 -4 22 12 69 27 106 34 62 11 73 10 129 -10 78 -26 88 -26
175 3 40 13 88 27 107 30 19 4 58 18 87 32 44 21 56 33 77 77 23 50 24 57 16
167 -5 63 -13 183 -19 265 -6 83 -15 182 -21 220 -21 148 -32 288 -25 331 5
33 1 62 -14 107 -21 65 -33 134 -57 327 -33 259 -45 373 -58 570 -4 47 -13
126 -21 175 -23 143 -35 266 -35 353 0 45 -4 101 -9 124 -23 104 -41 261 -41
356 0 57 -4 145 -10 195 -33 314 -40 415 -45 637 -2 80 -8 174 -14 210 -6 36
-11 126 -11 200 0 152 18 215 62 224 41 9 611 23 682 17 76 -7 92 -20 101 -80
3 -20 10 -54 15 -76 6 -22 15 -65 21 -95 7 -30 25 -100 41 -155 17 -55 40
-149 53 -210 13 -60 30 -137 39 -170 9 -33 20 -94 26 -135 6 -41 17 -104 26
-140 8 -36 22 -105 30 -155 8 -49 27 -139 43 -200 16 -60 34 -141 40 -180 28
-171 34 -202 51 -235 9 -19 20 -64 24 -99 4 -35 21 -128 37 -205 17 -78 36
-179 44 -226 8 -47 21 -110 30 -140 8 -30 15 -69 15 -87 0 -18 7 -53 15 -77 9
-25 17 -72 19 -104 2 -32 11 -83 19 -113 29 -102 77 -344 77 -385 0 -23 9 -70
19 -105 10 -35 22 -87 25 -116 4 -29 25 -123 48 -210 22 -87 51 -205 64 -263
80 -351 106 -392 249 -394 51 -1 69 3 94 21 18 14 45 23 66 23 19 0 61 9 92
19 157 52 232 71 274 71 30 0 73 12 126 35 45 19 88 35 97 35 31 0 113 49 146
86 l33 38 -6 107 c-3 65 -11 118 -20 136 -9 16 -25 81 -36 146 -12 64 -28 134
-36 155 -8 20 -21 66 -29 102 -7 36 -24 97 -36 135 -12 39 -26 98 -31 133 -10
60 -50 196 -69 232 -5 10 -16 46 -24 81 -8 35 -28 104 -45 152 -17 48 -31 104
-31 123 0 19 -7 51 -16 72 -8 20 -25 71 -36 112 -25 94 -114 442 -127 495 -31
125 -54 226 -62 270 -5 27 -13 62 -19 76 -6 15 -18 53 -25 85 -8 33 -23 93
-35 134 -34 125 -67 261 -80 335 -19 107 -47 220 -63 252 -8 15 -24 69 -36
118 -12 50 -31 124 -41 165 -11 41 -31 127 -44 190 -14 63 -29 127 -34 141 -6
14 -13 52 -17 85 -4 32 -13 81 -21 107 -22 78 -8 123 68 214 167 201 268 393
358 678 15 50 31 110 35 134 4 24 20 84 36 133 16 49 29 105 29 124 0 20 9 70
19 112 11 44 22 135 26 212 4 74 16 171 26 215 10 44 19 105 19 135 0 31 6 80
14 110 7 30 16 88 20 128 3 40 13 89 21 108 9 22 16 89 20 182 4 81 13 167 20
192 8 25 18 127 23 226 6 100 15 191 21 202 6 12 11 42 11 69 0 59 17 220 36
333 7 47 11 102 8 122 -4 21 -2 64 4 95 10 52 21 238 27 438 1 39 5 95 9 125
4 30 3 155 -2 278 -4 123 -5 251 -1 286 3 35 2 86 -3 112 -5 27 -13 95 -18
152 -5 56 -16 114 -24 130 -7 15 -17 53 -20 85 -6 47 -5 57 8 57 32 0 272
-140 420 -244 94 -67 334 -306 426 -424 50 -64 100 -128 111 -142 11 -14 41
-59 65 -100 25 -41 65 -106 89 -145 24 -38 68 -117 98 -175 30 -58 66 -127 81
-155 42 -77 95 -202 123 -285 13 -41 35 -100 47 -130 75 -177 167 -420 186
-490 10 -36 29 -103 43 -150 14 -47 28 -103 32 -125 4 -22 15 -60 26 -84 10
-24 19 -59 19 -78 0 -19 16 -82 36 -141 22 -66 39 -141 44 -194 5 -48 11 -92
15 -97 8 -14 55 -240 55 -268 0 -12 11 -57 25 -99 14 -42 25 -100 25 -128 0
-29 7 -77 16 -107 19 -61 35 -138 59 -284 9 -55 23 -129 30 -165 29 -137 28
-166 -9 -218 -33 -47 -123 -226 -146 -292 -38 -111 -74 -244 -80 -305 -5 -38
-13 -104 -20 -145 -6 -41 -11 -176 -12 -299 0 -206 2 -226 20 -250 42 -57 100
-48 142 21 17 28 19 54 19 262 0 127 5 263 10 301 10 73 73 321 85 332 6 6 -2
-178 -9 -202 -2 -9 3 -159 21 -630 3 -82 5 -180 4 -217 -2 -118 58 -190 128
-154 16 8 32 23 36 31 10 27 6 257 -5 305 -14 56 -14 583 -1 606 11 20 14 8
32 -121 10 -73 27 -162 65 -335 28 -130 37 -182 41 -238 13 -150 70 -233 142
-203 55 23 66 96 33 223 -23 89 -51 230 -62 317 -5 36 -13 78 -18 95 -6 17
-13 54 -16 81 -4 28 -16 83 -26 124 -10 41 -19 85 -19 98 0 12 -6 42 -14 65
-28 86 -27 104 3 43 92 -192 151 -339 151 -377 0 -15 22 -89 61 -203 5 -16 24
-73 41 -125 40 -125 70 -183 103 -198 41 -19 64 -14 97 18 34 34 34 58 3 140
-32 83 -106 294 -117 335 -5 22 -27 85 -49 140 -144 375 -170 436 -226 516
-28 41 -30 48 -13 36 23 -16 159 -193 228 -297 51 -77 192 -365 192 -392 0
-36 64 -162 95 -186 49 -39 106 -25 124 31 14 40 7 62 -56 197 -28 58 -62 137
-77 175 -28 72 -172 329 -236 422 -19 28 -62 81 -95 118 -33 37 -64 73 -70 80
-19 22 -149 121 -198 150 -27 15 -52 37 -57 49 -21 54 -50 159 -50 181 0 27
-35 183 -52 230 -6 17 -15 64 -20 105 -5 41 -15 93 -23 115 -8 22 -19 65 -25
95 -23 128 -94 452 -109 500 -6 19 -11 56 -11 81 0 25 -8 70 -18 100 -10 30
-29 99 -41 154 -12 55 -28 123 -36 150 -8 28 -17 68 -21 90 -4 22 -18 69 -31
104 -13 35 -30 97 -38 137 -7 40 -21 86 -29 102 -19 36 -33 76 -97 267 -27 83
-65 182 -84 222 -19 39 -50 110 -69 157 -19 47 -46 101 -59 119 -14 17 -59 98
-101 179 -42 81 -89 169 -106 195 -16 26 -41 68 -56 93 -34 58 -82 130 -132
201 -22 32 -47 70 -55 86 -19 36 -227 284 -275 327 -39 35 -90 77 -182 148
-30 24 -72 59 -93 77 -43 40 -58 50 -220 155 -64 43 -135 83 -157 91 -48 17
-218 101 -238 117 -8 7 -18 22 -23 35 -47 125 -319 419 -469 508 -124 73 -497
255 -523 255 -12 0 -69 14 -127 31 -212 63 -278 80 -410 105 -74 14 -166 34
-203 45 -38 12 -108 24 -155 29 -48 5 -98 13 -112 18 -14 5 -100 15 -190 22
-91 6 -190 18 -220 26 -30 8 -93 17 -140 21 -47 3 -109 14 -139 24 -40 14 -70
17 -120 13 -36 -3 -109 -1 -161 4 -52 6 -147 16 -210 22 -63 6 -160 18 -214
26 -55 9 -197 20 -315 25 -213 9 -336 18 -561 39 -63 6 -320 15 -570 20 -437
9 -540 15 -715 39 -71 9 -727 22 -1290 25 -110 1 -360 7 -555 14 -195 6 -526
16 -735 22 -209 5 -474 14 -590 20 -115 5 -358 12 -540 15 -306 6 -519 17
-900 46 l-151 12 28 27 c15 15 30 40 33 56 3 16 15 57 26 92 23 75 24 120 4
186 -8 27 -15 67 -15 88 0 42 -63 171 -131 268 -72 104 -186 181 -351 241
-100 36 -125 42 -213 44 -60 1 -114 8 -135 17 -99 42 -364 29 -540 -25 -63
-19 -133 -38 -155 -42 -22 -4 -66 -18 -98 -31 -69 -29 -89 -25 -111 21 -16 32
-15 36 13 112 35 92 52 144 92 278 17 55 42 132 55 170 14 39 29 86 34 105 29
116 94 508 111 675 5 50 14 128 19 175 6 47 12 188 15 313 5 250 3 263 -58
329 -96 103 -211 -3 -352 -323 -19 -44 -53 -107 -76 -140 -22 -33 -56 -98 -74
-144 -19 -46 -47 -110 -63 -142 -16 -32 -59 -126 -96 -210 -69 -157 -120 -254
-215 -410 -31 -51 -65 -110 -76 -131 -11 -21 -49 -67 -85 -101 l-64 -63 -96
21 c-222 49 -315 72 -376 91 -36 11 -71 17 -77 13 -28 -17 -379 6 -435 29 -15
6 -72 14 -127 17 l-100 6 -7 55 c-10 89 -9 462 2 501 6 20 17 112 24 205 8 93
19 185 25 204 6 19 11 64 11 100 0 36 7 90 15 120 8 30 15 76 15 102 0 26 6
80 14 120 52 263 46 344 -26 388 -42 25 -44 25 -106 -6z m-43 -391 c-4 -57
-10 -107 -14 -113 -16 -26 -105 7 -105 39 0 17 119 186 125 179 1 -2 -1 -49
-6 -105z m2266 -461 c-3 -18 -13 -36 -20 -39 -20 -7 -116 17 -121 31 -9 24 26
108 82 197 l59 93 3 -125 c2 -68 0 -139 -3 -157z m-2370 184 l50 -14 -3 -98
c-2 -62 -7 -103 -15 -111 -10 -10 -31 -10 -102 2 -50 8 -104 15 -122 15 -30 0
-31 2 -24 28 5 15 27 67 50 116 l41 89 37 -6 c21 -4 61 -13 88 -21z m2207
-320 c18 -8 50 -18 70 -21 53 -8 68 -27 68 -86 0 -56 -13 -89 -35 -89 -8 0
-58 17 -110 38 l-97 37 6 39 c8 50 33 96 51 96 8 0 29 -6 47 -14z m-2245 -48
c57 -14 83 -60 61 -106 l-13 -27 -178 -3 -179 -2 7 32 c11 52 49 103 86 116
38 13 148 8 216 -10z m2223 -254 l112 -36 -7 -82 c-4 -44 -12 -87 -18 -94 -14
-17 -45 -13 -167 22 -135 39 -150 46 -150 68 0 51 68 158 100 158 10 0 69 -16
130 -36z m-2193 -65 c23 -19 17 -122 -8 -145 -46 -41 -298 -32 -424 16 -30 11
-27 35 13 107 l25 45 190 -6 c114 -4 196 -11 204 -17z m1982 -234 c120 -41
230 -86 242 -101 13 -16 -24 -152 -45 -160 -16 -6 -168 53 -266 104 -87 45
-92 56 -59 131 25 59 29 60 128 26z m-2204 -94 l200 -6 0 -55 0 -55 -45 -1
c-71 -1 -182 -15 -210 -26 -14 -5 -56 -13 -95 -18 -38 -5 -89 -15 -112 -22
-23 -6 -45 -9 -48 -6 -6 6 8 127 21 187 5 22 8 23 47 16 23 -5 132 -11 242
-14z m2023 -215 c31 -13 73 -27 92 -31 19 -4 67 -22 106 -40 40 -18 86 -36
103 -40 17 -4 32 -12 32 -18 3 -25 -3 -51 -16 -71 -7 -12 -20 -46 -29 -76 -24
-84 -27 -86 -73 -47 -23 18 -56 40 -74 48 -19 7 -65 33 -103 56 -38 23 -97 52
-132 63 -69 23 -68 18 -25 100 22 42 49 80 58 80 2 0 29 -11 61 -24z m-1754
-117 l56 -22 50 22 c42 18 57 20 88 11 49 -13 137 -13 187 1 87 25 721 -64
866 -121 29 -12 82 -27 118 -35 129 -28 314 -96 366 -135 28 -21 70 -47 93
-59 65 -33 171 -177 172 -233 0 -10 -20 -40 -45 -68 -53 -60 -59 -97 -20 -135
47 -48 181 -17 285 66 43 35 121 69 220 98 41 12 98 28 125 36 179 51 597 45
735 -11 193 -78 320 -171 341 -247 6 -23 24 -65 40 -93 42 -74 41 -146 -3
-232 -48 -93 -81 -125 -121 -119 -67 12 -165 40 -250 73 -102 39 -129 42 -157
14 -24 -24 -25 -27 -1 -65 20 -33 228 -145 268 -145 12 0 24 -4 27 -8 9 -14
-119 -79 -171 -87 -26 -4 -56 -11 -66 -16 -27 -15 -304 -22 -388 -10 -41 6
-99 13 -129 16 -125 12 -291 56 -409 109 -42 19 -90 37 -107 40 -16 4 -51 21
-76 39 -108 77 -155 82 -215 22 -40 -40 -43 -78 -11 -134 l21 -38 -22 -84
c-13 -46 -32 -113 -42 -148 -11 -35 -19 -81 -19 -101 0 -65 -64 -382 -94 -468
-8 -23 -18 -70 -22 -104 -4 -35 -20 -107 -36 -162 -16 -54 -35 -128 -42 -165
-20 -97 -71 -285 -101 -368 -14 -40 -25 -80 -25 -88 0 -9 -7 -29 -15 -45 -9
-17 -22 -60 -29 -97 -8 -38 -25 -106 -39 -153 -13 -47 -29 -103 -35 -125 -16
-59 -42 -137 -56 -165 -7 -14 -34 -92 -60 -175 -26 -82 -55 -168 -64 -190 -26
-66 -171 -388 -188 -415 -8 -14 -34 -63 -58 -110 -69 -138 -136 -251 -189
-318 -27 -35 -55 -78 -62 -95 -8 -18 -36 -57 -62 -87 -27 -30 -75 -90 -107
-134 -75 -101 -298 -326 -401 -402 -91 -68 -174 -118 -182 -110 -3 3 -1 40 5
83 27 193 33 385 14 487 -34 185 -178 395 -331 481 -103 59 -296 136 -376 151
-22 3 -52 12 -66 20 -14 7 -63 25 -110 39 -46 15 -108 36 -137 46 -30 11 -64
19 -75 19 -12 1 -40 8 -62 16 -46 18 -167 48 -275 68 -41 8 -86 19 -101 24
-14 6 -74 22 -135 36 -60 14 -134 33 -164 41 -30 8 -80 20 -110 25 -94 16
-240 49 -258 58 -43 22 -154 44 -189 38 -21 -4 -78 -11 -128 -16 -49 -5 -117
-14 -150 -19 -120 -20 -165 -23 -165 -12 0 7 20 55 44 109 24 53 47 108 51
122 11 36 164 342 181 361 8 9 36 58 63 110 65 128 221 396 291 499 31 47 79
122 106 168 27 46 74 125 104 176 30 51 69 111 87 133 17 21 37 52 44 69 7 16
29 54 48 84 19 30 44 71 56 90 12 19 31 55 42 80 52 114 112 232 155 307 26
46 78 145 116 220 75 149 113 222 171 322 59 104 181 342 181 355 0 6 57 124
127 261 261 516 292 568 340 579 15 4 53 22 83 41 31 18 69 37 85 40 17 4 70
21 120 37 80 28 168 42 287 47 20 0 61 -9 92 -20z m-1884 -209 c19 -5 87 -12
150 -15 233 -10 355 -42 557 -147 112 -58 116 -64 81 -125 -50 -89 -45 -85
-75 -66 -23 15 -50 18 -163 18 -146 0 -171 -3 -390 -41 -333 -57 -415 -81
-446 -130 -19 -28 -11 -60 18 -75 15 -8 34 -7 77 5 37 10 92 15 161 14 108 -2
243 16 400 54 93 22 320 31 320 13 0 -25 -174 -357 -197 -375 -16 -12 -41 -20
-64 -20 -21 0 -85 -15 -141 -34 -69 -23 -133 -37 -193 -41 -49 -4 -103 -14
-119 -22 -24 -12 -53 -14 -157 -8 -114 6 -136 11 -191 37 -35 17 -83 36 -108
44 -64 20 -111 51 -184 123 -60 58 -65 67 -72 118 -12 101 1 232 30 293 53
112 121 179 248 242 45 23 105 56 131 74 28 20 67 36 95 40 26 4 74 12 107 20
76 16 82 16 125 4z m4038 -1359 c136 -56 374 -131 418 -131 16 0 50 -7 76 -14
28 -9 122 -17 245 -22 178 -6 202 -5 232 11 19 9 62 19 95 22 99 8 246 58 333
113 46 30 49 30 184 30 76 0 171 -5 211 -10 40 -6 204 -17 363 -25 344 -18
632 -34 659 -38 18 -2 20 -11 20 -137 1 -160 13 -198 105 -337 59 -89 132
-165 228 -238 59 -44 68 -60 53 -99 -5 -15 -10 -45 -10 -67 0 -22 -8 -61 -18
-87 -122 -309 -130 -449 -35 -636 60 -119 214 -236 378 -289 119 -38 126 -38
296 -38 156 1 156 1 265 41 60 22 135 44 166 50 31 6 82 19 114 30 31 11 104
25 163 32 l106 11 91 -36 c50 -21 96 -37 102 -37 5 0 33 -20 60 -45 38 -34 64
-72 101 -147 49 -97 51 -103 51 -186 0 -73 4 -91 25 -128 14 -24 29 -71 35
-111 16 -115 30 -150 108 -268 96 -146 227 -249 432 -341 117 -52 207 -69 370
-68 125 0 142 3 229 32 52 18 108 32 125 32 63 1 192 69 311 164 132 105 297
309 386 476 27 49 64 77 193 145 84 44 89 45 178 45 90 0 91 0 207 -58 102
-51 131 -61 241 -81 69 -12 159 -28 200 -36 97 -19 145 -18 255 4 163 33 314
99 418 181 76 61 204 238 254 351 58 131 98 311 89 404 -8 98 -40 224 -77 302
-27 58 -31 75 -27 134 3 63 7 71 54 132 28 36 78 89 113 116 124 100 248 279
291 421 19 64 7 61 174 36 60 -9 135 -16 166 -16 31 0 90 -9 131 -20 41 -11
100 -20 132 -20 32 0 82 -9 112 -19 29 -10 98 -22 152 -26 54 -3 123 -15 153
-25 30 -10 116 -35 190 -55 152 -41 275 -86 329 -119 20 -12 70 -38 111 -57
41 -18 120 -60 175 -91 55 -32 103 -58 107 -58 24 0 194 -140 241 -198 99
-123 164 -227 170 -275 4 -24 18 -66 32 -92 14 -27 25 -55 25 -64 0 -8 13 -56
29 -106 33 -99 51 -179 76 -330 9 -55 21 -128 26 -162 7 -38 8 -107 4 -176 -5
-72 -3 -147 5 -205 10 -80 10 -98 -5 -142 -9 -28 -20 -101 -24 -161 -8 -117
-13 -129 -61 -129 -49 0 -196 -81 -269 -148 -17 -15 -62 -38 -100 -52 l-70
-24 -53 23 c-29 13 -71 32 -93 42 -22 10 -66 28 -97 41 -66 26 -70 33 -29 41
33 7 54 37 45 62 -9 22 -77 55 -116 55 -18 0 -64 -11 -103 -24 -38 -13 -99
-29 -134 -36 -36 -6 -87 -24 -114 -38 -27 -15 -79 -43 -116 -62 -90 -47 -132
-81 -190 -154 -62 -78 -85 -125 -111 -222 -26 -97 -30 -225 -10 -357 13 -92
13 -100 -5 -155 -11 -31 -32 -71 -48 -88 -41 -47 -157 -114 -214 -123 -27 -4
-62 -14 -78 -22 -17 -9 -91 -46 -165 -83 -219 -108 -315 -213 -408 -448 -87
-218 -53 -451 89 -611 79 -91 201 -164 304 -182 22 -4 62 -16 89 -27 96 -37
336 -32 418 8 58 29 186 65 233 66 50 1 150 -37 173 -65 11 -14 58 -136 92
-242 54 -169 138 -237 405 -327 65 -22 184 -29 248 -14 46 10 47 1 13 -93 -76
-208 -182 -380 -265 -431 -42 -26 -104 -113 -116 -163 -9 -36 12 -177 36 -245
10 -30 19 -68 19 -85 0 -18 14 -72 30 -120 17 -49 30 -96 30 -106 0 -9 7 -42
15 -73 8 -31 19 -99 26 -150 6 -51 19 -112 29 -136 11 -24 22 -60 25 -80 4
-20 12 -53 20 -72 23 -58 53 -172 60 -225 4 -27 13 -64 20 -80 6 -17 15 -57
19 -90 8 -60 47 -209 64 -243 5 -9 12 -44 15 -77 3 -33 14 -89 25 -125 24 -80
41 -145 57 -230 8 -36 20 -83 29 -105 8 -22 15 -48 16 -57 0 -9 11 -52 24 -95
13 -43 32 -105 41 -138 10 -33 31 -100 48 -150 16 -49 37 -128 47 -175 10 -47
35 -148 55 -225 51 -191 51 -184 -15 -216 -30 -15 -86 -35 -125 -44 -38 -9
-107 -27 -151 -40 -54 -17 -106 -25 -153 -25 -52 0 -83 -6 -111 -20 -78 -40
-109 -20 -125 80 -4 25 -11 53 -16 62 -5 9 -16 50 -25 90 -9 40 -25 111 -36
158 -10 47 -28 126 -38 175 -11 50 -32 142 -49 205 -16 63 -32 142 -36 175 -4
33 -14 77 -21 99 -8 21 -14 69 -14 105 0 37 -7 90 -15 117 -8 27 -21 90 -29
139 -8 50 -19 104 -25 120 -6 17 -15 64 -20 105 -4 41 -15 104 -24 140 -9 36
-26 119 -38 185 -12 66 -28 136 -34 155 -7 19 -22 94 -34 165 -12 72 -31 157
-41 190 -11 33 -20 78 -20 101 0 22 -9 76 -20 120 -11 43 -23 103 -26 134 -3
30 -12 91 -20 135 -7 44 -18 120 -24 168 -10 94 -27 134 -84 195 -60 65 -116
78 -186 42 -36 -18 -60 -20 -407 -21 -202 0 -498 -1 -657 -2 l-289 -2 -13 38
c-19 55 -144 255 -173 278 -59 47 -72 99 -46 185 20 67 19 129 -6 263 -36 200
-90 281 -235 353 -76 37 -94 42 -172 46 -48 2 -109 -1 -137 -6 -55 -11 -178
-60 -221 -89 -42 -27 -172 -62 -233 -63 -52 0 -54 1 -112 60 -32 33 -59 68
-59 76 0 32 -72 135 -133 189 -99 88 -336 196 -432 195 -11 0 -65 -11 -119
-24 -79 -20 -113 -34 -170 -72 -121 -82 -174 -144 -230 -269 l-49 -110 0 -135
c0 -97 4 -146 15 -175 8 -22 21 -70 28 -106 17 -86 3 -112 -106 -195 -128 -97
-248 -267 -269 -379 l-11 -60 -179 -8 c-102 -4 -278 -3 -405 3 -124 6 -355 15
-513 21 -159 6 -314 14 -345 20 -31 5 -113 9 -182 9 -69 0 -152 5 -185 10 -33
6 -152 15 -265 20 -113 6 -215 13 -227 15 -27 6 -30 33 -9 73 9 17 14 60 14
117 0 109 -26 189 -93 286 -67 97 -145 237 -152 270 -9 47 34 174 68 199 19
14 159 235 172 272 61 173 79 310 53 424 -27 124 -58 178 -161 281 -90 89
-147 127 -230 153 -22 7 -63 23 -92 36 -63 29 -148 31 -309 8 -125 -18 -124
-18 -224 -6 -91 10 -195 58 -244 112 -49 54 -94 183 -131 376 -17 88 -42 138
-159 322 -35 54 -139 130 -250 182 -59 28 -115 50 -124 50 -9 1 -35 7 -57 15
-71 26 -167 35 -257 25 -123 -15 -204 -49 -368 -156 -25 -16 -87 -72 -138
-124 -105 -108 -162 -207 -208 -358 -14 -48 -37 -114 -50 -147 -33 -83 -51
-164 -64 -275 -16 -142 -30 -177 -108 -262 -48 -52 -108 -74 -257 -92 -145
-18 -189 -28 -249 -58 -121 -62 -198 -131 -256 -234 -63 -113 -170 -480 -170
-587 0 -23 -7 -60 -15 -82 -8 -22 -14 -64 -15 -92 0 -39 -4 -53 -14 -53 -8 0
-18 5 -21 10 -4 6 -32 23 -64 39 -35 18 -72 48 -96 77 -22 26 -57 55 -81 65
-99 44 -209 265 -260 521 -9 46 -24 97 -34 113 -19 31 -42 176 -61 385 -17
186 -41 554 -38 595 5 89 2 175 -9 275 -7 58 -12 186 -11 285 2 314 -1 477
-12 566 -11 92 -4 122 62 264 130 280 231 552 299 802 10 39 28 90 40 113 21
41 35 90 124 440 116 455 149 575 208 760 17 52 36 136 44 186 8 51 28 129 45
175 23 60 34 111 39 179 10 117 64 290 91 290 6 0 31 -9 57 -19z m3957 -72
c50 -5 164 -13 255 -19 91 -5 224 -14 295 -20 260 -21 639 -31 1055 -28 399 2
427 1 465 -16 35 -17 70 -20 295 -22 140 -2 302 -8 360 -14 58 -6 130 -10 160
-9 84 3 467 -9 635 -20 437 -28 589 -35 785 -36 178 0 221 -3 252 -17 24 -11
91 -20 195 -28 157 -11 343 -26 480 -39 39 -3 75 -10 79 -14 10 -10 6 -79 -5
-110 -19 -49 -104 -153 -209 -257 -228 -224 -277 -362 -194 -556 23 -54 47
-137 62 -210 23 -120 23 -122 6 -200 -31 -140 -93 -247 -228 -393 -125 -136
-110 -125 -313 -222 -75 -36 -143 -44 -264 -31 -72 7 -124 18 -150 32 -22 11
-47 20 -55 20 -28 0 -197 59 -244 85 -94 52 -185 77 -270 72 -99 -6 -236 -45
-292 -84 -63 -43 -189 -178 -230 -246 -130 -215 -189 -289 -305 -378 -94 -73
-170 -108 -263 -123 -69 -11 -89 -19 -129 -51 l-48 -37 -140 5 c-156 6 -242
24 -343 75 -74 37 -192 131 -255 203 -49 56 -127 205 -127 244 0 14 -9 51 -20
82 -14 39 -20 83 -20 138 0 187 -82 372 -213 479 -54 44 -218 122 -312 148
-119 33 -136 33 -217 1 -40 -17 -98 -36 -128 -43 -30 -7 -80 -23 -111 -36
-291 -123 -626 -110 -819 31 -89 65 -150 195 -150 320 0 69 52 257 85 308 7
12 21 49 31 82 51 182 19 255 -188 422 -95 77 -175 175 -183 223 -3 19 -10 55
-16 80 -7 36 -6 55 6 89 8 24 15 52 15 62 0 10 4 29 10 43 l10 26 407 -1 c225
0 449 -5 498 -10z m-8516 -2715 c47 -8 143 -28 212 -45 69 -16 153 -29 185
-29 32 -1 77 -5 99 -10 22 -4 83 -18 135 -30 52 -12 120 -26 150 -31 30 -6 93
-21 140 -35 47 -14 110 -32 140 -41 30 -8 82 -23 115 -33 69 -20 191 -50 250
-61 22 -4 72 -20 110 -36 39 -17 90 -33 114 -37 24 -4 56 -15 70 -25 14 -10
62 -36 107 -59 117 -58 155 -84 206 -141 61 -68 92 -125 130 -240 l32 -94 -13
-176 c-7 -97 -19 -191 -27 -209 -7 -18 -20 -67 -29 -109 -23 -109 -35 -128
-100 -152 -31 -12 -63 -21 -73 -21 -9 0 -46 -9 -80 -20 -35 -11 -74 -20 -86
-20 -12 0 -39 -9 -60 -20 -104 -52 -849 -22 -964 39 -11 6 -46 14 -78 17 -33
4 -76 13 -98 21 -21 7 -50 13 -65 13 -14 0 -46 10 -70 21 -25 11 -121 33 -213
49 -93 15 -174 33 -181 38 -7 5 -41 22 -77 38 -36 16 -100 51 -142 79 -42 27
-102 65 -132 84 -84 50 -116 88 -241 286 -67 105 -91 201 -106 416 -9 128 -8
151 7 190 9 24 19 76 23 114 4 39 14 84 24 102 9 18 17 41 17 53 0 12 9 24 23
29 65 24 157 50 197 56 25 4 54 12 65 18 50 27 169 32 284 11z m16501 -401
c-1 -32 -6 -121 -11 -198 -6 -77 -10 -161 -10 -187 1 -26 -5 -77 -14 -113 -8
-37 -15 -94 -15 -128 0 -34 -7 -94 -15 -132 -8 -39 -19 -142 -24 -230 -6 -88
-14 -181 -20 -205 -16 -69 -54 -382 -61 -500 -3 -58 -20 -188 -37 -290 -17
-102 -37 -225 -43 -275 -6 -49 -18 -108 -26 -130 -7 -22 -18 -71 -24 -110 -6
-38 -19 -99 -29 -135 l-18 -65 -54 -6 c-30 -3 -84 -16 -120 -29 l-66 -24 -59
23 c-32 13 -88 33 -124 46 -36 12 -79 35 -96 52 -40 40 -86 124 -108 198 -25
85 -31 98 -81 176 -44 66 -50 71 -139 114 -87 42 -100 45 -174 45 -61 0 -95
-6 -148 -26 -250 -95 -236 -92 -364 -68 -248 47 -410 132 -426 222 -3 20 -20
61 -36 90 -24 42 -29 61 -25 95 2 23 0 66 -5 96 -9 50 -7 60 22 125 59 133 75
159 150 235 115 118 163 145 320 187 245 64 354 137 430 289 39 78 42 120 25
365 -6 97 -5 126 10 175 26 91 68 165 130 228 48 48 62 57 93 57 24 0 58 13
104 41 63 38 73 41 116 35 115 -16 144 -25 195 -58 112 -75 267 -138 338 -138
51 0 136 41 259 125 113 78 123 83 158 84 20 1 22 -3 22 -56z m-10125 -562
c169 -54 315 -160 389 -285 55 -92 86 -206 86 -317 0 -80 4 -104 29 -164 46
-115 66 -148 119 -197 54 -51 88 -70 207 -118 l80 -32 175 7 c96 4 231 8 300
8 l125 2 70 -38 c106 -56 193 -145 235 -239 21 -49 30 -210 14 -273 -12 -50
-78 -187 -126 -261 -149 -231 -164 -261 -173 -359 -7 -68 -6 -72 32 -145 21
-42 64 -109 94 -151 71 -95 78 -109 106 -194 26 -81 28 -115 9 -153 -7 -15
-17 -46 -21 -69 -3 -23 -12 -46 -18 -51 -13 -11 -234 0 -397 19 -52 6 -131 15
-175 19 -44 5 -156 18 -250 30 -93 11 -217 25 -275 30 -58 4 -143 18 -188 29
-102 26 -133 20 -187 -41 -55 -60 -68 -98 -54 -154 8 -29 10 -109 7 -232 -3
-103 -1 -236 3 -297 5 -60 9 -355 9 -655 1 -661 17 -1429 40 -1895 17 -344 17
-355 1 -364 -21 -14 -227 -24 -338 -18 -54 3 -147 14 -208 24 l-110 18 -9 85
c-5 47 -9 119 -9 160 1 914 2 1291 0 1360 -2 153 12 760 19 771 7 12 19 792
15 981 -2 97 1 139 14 177 15 45 15 52 0 87 -32 78 -99 122 -196 129 -35 3
-82 7 -104 10 -106 15 -186 28 -245 40 -36 8 -87 18 -115 23 -27 5 -84 17
-125 26 -41 9 -122 25 -180 37 -140 29 -215 48 -404 103 -87 25 -164 46 -170
46 -7 0 -20 6 -29 13 -15 11 -15 20 -1 117 8 58 19 139 23 180 8 71 33 191 66
310 8 30 15 66 15 80 0 68 118 238 192 276 47 24 181 62 241 67 127 12 259 79
349 178 128 140 148 186 173 385 9 71 28 160 41 197 13 38 24 75 24 84 0 8 18
56 41 107 90 200 261 373 442 449 101 41 254 59 322 38z m5245 -1786 c130 -21
129 -20 185 -56 102 -66 138 -112 191 -241 54 -132 87 -168 182 -198 55 -17
73 -18 135 -10 139 20 238 51 317 100 43 26 77 40 100 40 19 0 55 5 80 11 100
23 201 -23 265 -120 36 -53 55 -256 31 -329 -8 -26 -20 -80 -25 -121 -13 -98
-3 -119 99 -217 91 -87 110 -116 110 -169 0 -46 -33 -62 -97 -46 -29 8 -71 8
-130 2 -96 -11 -172 -11 -1283 -8 -410 1 -789 6 -842 11 -117 11 -118 14 -64
129 38 79 81 129 166 190 175 127 219 238 150 373 -43 83 -53 225 -23 311 12
32 24 71 28 87 9 42 87 159 121 183 36 26 180 91 204 93 3 0 48 -7 100 -15z
m-7547 -729 c44 -26 208 -90 337 -132 41 -13 97 -36 124 -52 l49 -27 -1 -140
c0 -103 -5 -150 -16 -177 -9 -21 -16 -66 -16 -100 0 -35 -7 -88 -15 -118 -8
-30 -15 -86 -15 -125 0 -38 -7 -92 -16 -120 -10 -35 -13 -69 -9 -110 5 -49 1
-76 -19 -141 -15 -45 -29 -117 -32 -160 -3 -44 -10 -101 -16 -128 -6 -27 -12
-85 -13 -130 -4 -102 -21 -265 -41 -381 -8 -49 -22 -155 -30 -235 -29 -285
-43 -427 -54 -555 -6 -71 -18 -168 -26 -214 -8 -46 -14 -104 -14 -130 0 -53
-26 -272 -42 -347 -6 -27 -11 -84 -12 -125 l-1 -74 -91 1 c-57 0 -112 7 -146
18 -30 9 -86 21 -124 26 -289 37 -336 51 -336 101 0 26 25 235 42 359 6 41 15
147 20 235 5 88 16 185 25 215 8 30 15 78 15 108 0 59 2 77 61 452 5 30 13 93
19 140 6 47 17 107 25 134 8 27 15 86 15 131 0 55 6 99 20 138 11 31 20 69 20
84 0 35 17 163 35 268 8 44 17 114 21 155 3 41 12 97 20 124 8 27 21 106 29
175 9 69 22 153 30 186 8 33 16 107 19 165 2 58 10 118 16 134 6 15 15 60 20
99 6 39 19 100 30 135 11 35 20 83 20 106 0 65 10 69 73 32z m9620 -825 l157
-1 0 -68 c0 -38 6 -91 14 -118 21 -74 40 -322 32 -424 -4 -51 -2 -116 3 -148
6 -31 17 -96 26 -144 8 -48 15 -140 15 -205 0 -65 5 -145 11 -178 5 -33 14
-116 19 -185 22 -299 29 -370 36 -381 4 -6 11 -71 15 -143 5 -72 13 -169 19
-216 6 -47 15 -148 19 -225 14 -224 30 -406 37 -416 10 -16 27 -188 29 -289 1
-52 5 -123 10 -157 9 -71 -2 -83 -74 -83 -22 0 -61 -7 -87 -16 -70 -24 -289
-32 -454 -17 l-85 8 -7 40 c-4 22 -10 105 -13 185 -4 80 -12 170 -20 200 -19
75 -38 297 -39 455 -1 142 -30 664 -46 815 -17 166 -51 798 -53 980 -1 181 4
724 8 730 3 5 46 5 428 1z m-9961 -3027 c17 -9 63 -20 102 -25 104 -13 109
-16 103 -52 -2 -18 -12 -59 -21 -93 -11 -41 -17 -109 -19 -203 -1 -101 -5
-137 -12 -124 -21 37 -83 93 -104 93 -33 0 -59 -17 -76 -50 -20 -38 -20 -158
0 -207 8 -21 16 -58 17 -83 l3 -45 -47 -3 -48 -3 0 63 c1 101 18 297 34 373
25 122 31 266 12 303 -22 43 -57 50 -112 24 -64 -31 -72 -56 -84 -239 -15
-248 -30 -446 -35 -470 -7 -32 -39 -29 -61 4 -22 35 -22 111 0 215 9 42 16 99
16 126 0 27 6 65 14 83 7 19 16 71 20 116 3 45 14 108 24 140 l18 58 77 -3
c42 -2 84 1 94 7 26 15 49 13 85 -5z m432 -79 c17 -13 18 -26 12 -200 -3 -103
-9 -192 -13 -198 -4 -6 -10 -52 -14 -102 -7 -93 -33 -247 -45 -266 -8 -14
-166 -1 -176 15 -4 6 -8 33 -8 59 0 48 0 49 28 42 67 -14 108 65 121 232 4 54
13 108 19 119 17 32 35 200 27 261 -6 47 -4 53 12 53 10 0 26 -7 37 -15z
m12383 -97 c13 -17 81 -283 99 -383 7 -44 18 -98 23 -120 9 -35 23 -106 38
-186 4 -23 -2 -30 -46 -58 -43 -26 -81 -39 -81 -28 0 1 -7 38 -16 82 -9 47
-17 147 -19 240 -3 177 -25 321 -55 371 -23 36 -26 80 -7 87 23 10 55 7 64 -5z
m-230 -120 c-2 -235 14 -376 69 -600 22 -91 19 -112 -18 -132 -18 -10 -46 -16
-63 -14 -26 3 -32 9 -47 55 -10 28 -22 82 -28 120 -5 37 -19 97 -30 133 -10
36 -29 110 -41 165 -11 55 -34 139 -49 187 -22 68 -26 90 -17 102 10 12 172
62 213 65 8 1 11 -26 11 -81z m-383 -115 c-7 -114 3 -157 76 -343 11 -30 27
-89 35 -130 7 -41 21 -96 31 -121 23 -61 15 -79 -35 -79 -46 0 -49 4 -75 100
-10 36 -29 93 -42 128 -16 43 -24 83 -24 127 0 36 -7 82 -15 102 -20 52 -53
185 -61 243 -6 46 -5 49 22 64 16 8 44 15 61 16 l33 0 -6 -107z m-9536 32 c5
-4 -20 -781 -26 -787 -4 -4 -33 -4 -65 -1 l-57 6 -1 131 c-1 72 -1 194 0 271
1 83 -4 188 -13 258 -9 65 -14 123 -10 128 4 8 161 2 172 -6z m-308 -3 c0 -5
-12 -42 -26 -83 -26 -72 -26 -77 -19 -234 5 -88 10 -209 12 -270 2 -60 5 -128
6 -150 2 -39 1 -40 -29 -39 -17 1 -44 10 -59 20 l-28 18 6 364 c4 289 8 367
19 373 17 11 118 12 118 1z m561 -11 c22 -17 23 -25 26 -187 2 -93 7 -248 11
-344 5 -97 5 -189 0 -207 -9 -35 -46 -53 -104 -53 l-34 0 0 84 c0 91 20 276
46 421 17 98 10 174 -21 234 -26 51 -20 71 19 71 19 0 44 -8 57 -19z m7523
-173 c10 -54 37 -279 41 -343 3 -38 10 -146 17 -238 11 -161 11 -168 -8 -187
-10 -11 -33 -22 -50 -26 l-30 -6 -13 154 c-6 84 -11 223 -10 308 1 85 -3 175
-9 200 -5 25 -13 71 -17 103 l-6 57 40 0 c34 0 41 -4 45 -22z m-339 -20 c17 1
38 3 47 4 15 3 18 -12 22 -137 3 -77 10 -167 15 -200 20 -111 9 -225 -21 -225
-5 0 -4 9 2 19 15 29 12 95 -6 141 -28 71 -77 77 -107 15 -30 -62 -15 -134 33
-168 12 -8 20 -18 19 -23 -7 -37 30 -63 55 -38 18 18 25 6 45 -79 16 -70 14
-86 -11 -91 -13 -2 -49 -9 -82 -15 -32 -6 -62 -9 -66 -6 -4 2 -13 53 -19 112
-7 59 -19 140 -26 178 -8 39 -19 142 -26 230 -6 88 -18 175 -25 194 -15 37
-18 83 -6 95 4 4 34 4 67 0 33 -4 74 -7 90 -6z m-348 -158 c1 -106 7 -156 22
-212 25 -92 48 -204 67 -326 19 -130 20 -124 -23 -120 -65 5 -73 49 -85 440
-6 179 -8 333 -5 342 16 41 23 5 24 -124z M20665 20469 c-50 -16 -244 -65
-350 -89 -55 -13 -112 -29 -127 -37 -55 -27 -60 -78 -10 -111 23 -15 55 -17
307 -14 l280 3 61 30 c34 16 75 29 92 29 32 0 36 -3 73 -53 28 -37 134 -90
165 -83 33 9 40 43 15 76 l-20 28 24 16 c51 34 41 106 -18 130 -17 8 -89 17
-160 21 -70 4 -130 11 -133 16 -24 39 -132 59 -199 38z M18902 20200 c-71 -30
-158 -107 -169 -149 -3 -14 -14 -44 -24 -66 -49 -108 8 -229 134 -285 52 -23
92 -18 172 22 57 29 72 44 111 114 45 81 47 156 7 234 -48 91 -166 157 -231
130z M15470 16593 c-25 -14 -58 -42 -73 -62 -30 -38 -32 -73 -8 -136 6 -16 16
-49 21 -72 15 -59 67 -124 121 -151 l46 -23 54 20 c75 29 114 79 129 172 21
126 -5 181 -115 241 -82 44 -114 47 -175 11z M17150 16191 c-49 -26 -132 -117
-159 -173 -29 -60 -19 -96 43 -162 37 -40 48 -46 83 -46 43 0 98 31 143 80 14
15 44 33 67 39 86 24 106 149 35 217 -57 55 -155 76 -212 45z"/>
</g>
</g>
</svg>
