<?xml version="1.0" standalone="no"?>
<!DOCTYPE svg PUBLIC "-//W3C//DTD SVG 20010904//EN"
 "http://www.w3.org/TR/2001/REC-SVG-20010904/DTD/svg10.dtd">
<svg data-landmark-id="018" version="1.0" xmlns="http://www.w3.org/2000/svg"
 width="705" height="690" viewBox="280 273 705 690"
 preserveAspectRatio="xMidYMid meet" role="img" aria-labelledby="title desc">
<title id="title">연필이 직접 구름을 그리는 장면</title>
<desc id="desc">원본 선 굵기를 유지하면서 전체 구성을 65퍼센트로 축소한 검은 잉크 선화</desc>
<metadata>
Created by potrace 1.16, written by Peter Selinger 2001-2019
</metadata>
<g transform="translate(627 627) scale(0.65) translate(-627 -627)">
<g transform="translate(0.000000,1254.000000) scale(0.025000,-0.025000)"
fill="#000000" stroke="none">
<path d="M42519 45815 c-3 -3 -44 -10 -90 -16 -122 -16 -343 -83 -468 -141
-35 -17 -88 -51 -118 -75 -30 -25 -80 -60 -111 -78 -36 -21 -119 -96 -227
-207 -288 -293 -358 -369 -435 -473 -41 -55 -115 -142 -165 -195 -50 -52 -108
-117 -129 -145 -22 -27 -44 -54 -51 -60 -6 -5 -35 -39 -64 -75 -29 -36 -77
-90 -105 -120 -29 -30 -70 -77 -91 -105 -22 -27 -53 -66 -70 -86 -16 -19 -52
-62 -80 -94 -27 -33 -57 -66 -65 -75 -51 -53 -206 -237 -253 -300 -30 -41 -76
-95 -102 -120 -54 -51 -299 -355 -360 -445 -22 -33 -86 -117 -143 -188 -107
-135 -131 -172 -142 -222 -4 -22 -14 -32 -35 -38 -17 -5 -52 -21 -80 -35 -94
-48 -111 -65 -325 -327 -19 -23 -52 -70 -72 -103 -27 -44 -54 -72 -95 -99 -50
-33 -63 -49 -95 -112 -20 -40 -56 -94 -81 -120 -48 -51 -144 -164 -283 -337
-51 -63 -130 -151 -176 -196 -51 -50 -98 -107 -118 -143 -20 -36 -67 -94 -119
-145 -48 -47 -126 -137 -173 -200 -49 -66 -120 -147 -167 -189 -94 -85 -130
-145 -138 -230 -5 -55 -8 -58 -93 -146 -48 -49 -108 -118 -133 -151 -26 -34
-79 -97 -120 -140 -40 -44 -105 -117 -144 -164 -39 -47 -88 -103 -108 -125
-21 -22 -64 -76 -98 -120 -33 -44 -95 -118 -137 -165 -42 -47 -123 -141 -180
-210 -57 -69 -131 -154 -165 -190 -34 -36 -83 -94 -109 -130 -61 -83 -136
-175 -210 -259 -33 -36 -93 -109 -135 -161 -61 -77 -237 -279 -261 -300 -3 -3
-21 -27 -40 -55 -19 -27 -60 -77 -90 -110 -31 -33 -105 -123 -165 -200 -120
-154 -192 -239 -274 -324 -29 -31 -71 -81 -94 -111 -22 -30 -67 -80 -98 -110
-32 -30 -69 -73 -84 -95 -24 -37 -129 -159 -270 -315 -122 -134 -183 -207
-250 -295 -38 -49 -78 -99 -88 -110 -11 -11 -50 -60 -87 -110 -66 -89 -101
-130 -211 -249 -30 -34 -77 -88 -104 -121 -27 -33 -74 -87 -105 -121 -30 -33
-71 -87 -90 -120 -19 -32 -82 -108 -141 -169 -58 -60 -143 -157 -189 -215 -46
-58 -109 -132 -140 -165 -31 -33 -102 -116 -157 -185 -55 -69 -115 -138 -133
-155 -17 -16 -47 -51 -67 -77 -37 -51 -38 -52 -184 -221 -135 -156 -178 -207
-203 -247 -13 -19 -50 -64 -83 -100 -64 -69 -171 -200 -214 -263 -15 -21 -60
-75 -100 -119 -160 -175 -207 -228 -294 -332 -49 -60 -116 -143 -149 -185 -58
-75 -92 -116 -200 -241 -31 -36 -87 -105 -125 -155 -201 -261 -282 -362 -377
-470 -34 -38 -77 -88 -95 -109 -19 -22 -50 -58 -69 -80 -20 -23 -56 -68 -80
-101 -25 -32 -70 -86 -101 -120 -30 -33 -74 -85 -96 -115 -22 -30 -51 -66 -65
-80 -13 -14 -45 -52 -70 -85 -26 -33 -88 -107 -138 -165 -50 -58 -107 -132
-126 -165 -20 -33 -51 -70 -69 -82 -31 -21 -118 -122 -159 -186 -10 -16 -55
-70 -100 -120 -45 -51 -109 -126 -142 -166 -135 -171 -307 -376 -329 -396 -7
-5 -40 -46 -75 -90 -35 -44 -82 -100 -105 -125 -23 -25 -52 -63 -65 -85 -13
-22 -39 -60 -59 -84 -20 -24 -49 -61 -66 -82 -16 -21 -77 -91 -135 -156 -58
-65 -117 -134 -130 -153 -26 -38 -307 -379 -326 -395 -6 -5 -36 -44 -67 -85
-31 -41 -88 -109 -126 -150 -39 -41 -85 -99 -103 -128 -29 -48 -87 -126 -148
-202 -11 -14 -44 -56 -73 -93 -28 -38 -78 -97 -109 -131 -54 -58 -102 -116
-427 -518 -69 -84 -139 -167 -156 -184 -18 -17 -75 -82 -126 -146 -52 -63
-134 -161 -184 -218 -49 -57 -117 -138 -150 -180 -33 -42 -98 -125 -145 -184
-47 -58 -117 -148 -157 -199 -75 -95 -81 -103 -219 -252 -46 -50 -98 -111
-116 -136 -18 -25 -50 -66 -70 -90 -45 -52 -172 -207 -283 -344 -44 -54 -85
-103 -90 -109 -11 -11 -144 -179 -223 -280 -23 -31 -45 -63 -49 -73 -3 -10
-15 -29 -25 -43 -10 -14 -26 -36 -36 -49 -24 -33 -83 -94 -107 -112 -11 -8
-34 -30 -50 -50 -17 -20 -71 -83 -120 -140 -50 -57 -102 -120 -115 -139 -26
-36 -150 -191 -161 -200 -3 -3 -38 -45 -78 -95 -39 -49 -93 -114 -119 -144
-26 -29 -54 -64 -62 -76 -15 -23 -80 -99 -162 -192 -27 -29 -48 -57 -48 -62 0
-5 -25 -34 -54 -66 -30 -31 -68 -76 -83 -100 -15 -24 -76 -94 -134 -157 -116
-123 -140 -152 -182 -213 -15 -23 -71 -90 -124 -151 -110 -124 -141 -161 -238
-289 -38 -49 -90 -112 -116 -140 -26 -27 -92 -105 -146 -172 -113 -140 -444
-536 -453 -543 -35 -26 -92 -159 -114 -265 -7 -33 -27 -87 -43 -120 -17 -33
-43 -98 -58 -145 -45 -139 -68 -204 -76 -216 -9 -11 -79 -198 -134 -354 -18
-53 -44 -125 -58 -160 -57 -145 -234 -617 -312 -835 -30 -82 -83 -228 -119
-323 -36 -96 -68 -190 -72 -210 -3 -21 -19 -59 -34 -87 -16 -27 -51 -112 -80
-189 -28 -76 -59 -155 -69 -175 -10 -20 -55 -146 -100 -280 -45 -134 -90 -260
-100 -280 -23 -45 -122 -295 -151 -380 -11 -35 -27 -73 -35 -85 -7 -11 -19
-43 -26 -71 -7 -27 -22 -70 -34 -95 -20 -40 -79 -196 -192 -508 -18 -51 -39
-105 -47 -120 -8 -15 -43 -115 -79 -222 -36 -107 -75 -220 -87 -250 -28 -71
-45 -123 -59 -185 -7 -27 -28 -81 -48 -120 -37 -71 -53 -112 -148 -380 -94
-266 -132 -369 -164 -435 -17 -36 -31 -72 -31 -81 0 -19 -41 -155 -73 -239
-56 -147 -101 -271 -138 -372 -21 -59 -43 -117 -50 -129 -13 -25 -75 -196 -91
-249 -10 -35 -152 -396 -207 -524 l-29 -70 23 -45 c29 -57 58 -85 112 -106 41
-16 45 -16 101 3 33 11 90 42 128 69 38 27 101 67 139 88 39 21 99 61 135 90
36 29 101 78 145 110 44 31 91 65 105 76 14 10 55 37 93 61 37 24 116 79 177
123 60 44 141 103 181 130 40 28 140 100 223 162 83 61 174 128 201 148 28 20
101 73 163 118 62 45 189 136 283 202 150 105 296 210 409 294 19 14 48 35 65
47 51 35 108 76 231 164 66 47 142 99 169 117 72 46 140 93 193 134 58 43 149
107 309 215 67 45 166 115 220 155 54 40 154 110 223 156 137 90 185 123 203
138 31 25 77 55 85 55 13 0 151 97 197 139 22 20 65 54 95 75 30 20 73 51 95
67 60 44 202 141 238 163 88 54 227 149 262 180 47 42 97 78 265 190 109 72
208 139 468 318 35 23 87 61 115 84 86 68 178 132 247 171 36 20 85 51 110 68
25 17 77 53 115 80 39 27 100 71 137 99 104 79 155 111 230 144 32 15 56 35
79 69 54 80 148 193 239 288 47 50 119 135 160 190 41 55 98 125 126 155 28
30 102 118 163 195 212 265 326 407 404 500 23 27 54 67 68 90 14 22 34 47 44
55 33 27 175 198 330 396 140 179 231 291 260 319 17 17 71 80 120 140 49 61
92 112 95 115 3 3 66 79 140 170 73 91 158 192 187 225 30 33 69 82 88 110 18
27 48 66 67 86 84 91 167 188 212 248 26 35 83 103 125 150 42 47 115 138 164
203 48 64 134 166 191 226 57 61 130 143 162 184 32 40 63 78 70 83 6 6 84
100 172 210 88 110 215 265 282 345 68 80 146 177 175 215 30 39 70 88 90 110
20 22 73 90 119 150 46 61 122 153 171 205 48 52 118 136 157 185 38 50 89
110 112 135 23 25 53 63 66 85 13 22 43 60 65 85 23 25 62 72 88 105 75 97
148 184 208 249 31 34 78 88 105 121 26 33 82 98 123 145 42 47 105 119 141
160 35 41 79 91 98 110 18 19 49 60 69 90 20 30 87 107 148 170 68 70 121 135
137 167 14 29 64 94 111 145 46 51 99 109 117 128 17 19 59 71 92 115 33 44
73 89 88 100 14 11 42 38 61 60 19 22 36 42 39 45 8 7 199 236 229 274 14 17
52 63 86 101 81 92 305 367 378 463 32 42 100 121 152 177 51 55 113 125 136
155 109 139 207 259 247 300 24 25 85 97 137 160 51 63 103 124 115 135 12 11
61 67 109 125 47 58 88 107 91 110 3 3 39 45 80 94 41 49 103 121 137 160 35
39 77 90 95 114 18 24 65 80 103 125 39 45 90 109 114 141 24 33 77 95 117
138 40 44 88 100 106 124 87 118 243 306 411 494 51 58 113 140 181 240 13 19
56 66 95 104 40 37 116 123 169 190 52 66 121 148 152 181 31 33 103 119 160
190 57 72 141 171 186 221 46 50 98 114 117 143 19 28 83 108 143 177 60 68
138 162 174 208 36 45 95 116 132 157 138 154 241 275 264 311 13 21 51 63 85
95 65 62 177 198 225 275 16 25 74 97 129 160 194 222 280 323 325 379 25 31
86 103 135 159 50 57 123 144 164 194 40 50 94 114 120 141 26 28 85 97 133
155 47 58 105 123 128 145 23 22 80 92 128 155 47 63 138 169 202 235 64 66
125 134 135 150 34 52 121 158 170 205 26 25 71 77 100 115 28 39 110 133 181
210 71 78 154 170 184 205 30 35 74 86 98 112 23 27 42 53 42 58 0 5 42 53 94
107 51 54 127 139 167 189 41 50 123 148 183 217 59 69 116 138 126 154 10 15
43 52 74 82 31 29 93 99 138 154 46 56 101 122 123 147 23 25 48 57 57 71 10
15 48 60 85 101 37 41 109 129 158 196 81 110 93 122 121 122 31 0 107 42 135
76 9 10 38 51 65 89 50 73 106 137 211 242 44 44 65 74 74 105 29 106 30 108
82 142 29 18 86 73 127 122 41 49 87 102 101 119 15 16 63 71 107 122 88 100
112 138 112 178 0 19 11 32 49 55 30 19 96 85 172 172 68 78 149 170 181 206
31 35 70 92 88 127 25 49 51 80 122 141 96 82 267 286 293 347 8 20 15 51 15
70 0 30 18 52 171 208 95 96 219 233 277 304 131 160 211 253 318 370 89 98
144 164 144 174 0 4 17 25 38 47 55 56 162 182 202 234 19 25 65 77 102 117
37 40 78 89 92 110 13 21 48 63 77 94 66 69 192 215 250 289 23 30 84 102 134
160 101 117 239 286 276 340 13 19 52 70 86 112 34 42 85 112 114 155 29 43
67 95 85 115 19 21 50 69 69 108 20 39 52 93 72 121 73 102 183 390 183 481 0
19 4 48 9 64 52 162 54 175 48 298 -4 84 -13 150 -31 216 -14 52 -26 111 -26
130 0 116 -171 527 -327 783 -29 48 -63 111 -75 140 -31 72 -239 329 -470 582
-146 159 -535 454 -763 579 -38 21 -82 49 -97 61 -15 13 -54 33 -85 45 -32 12
-71 30 -88 40 -16 10 -88 39 -160 66 -71 26 -170 63 -220 82 -49 19 -166 54
-260 77 -93 24 -186 50 -205 58 -19 8 -91 20 -160 27 -132 13 -532 25 -541 15z
m331 -332 c58 -3 117 -12 131 -19 14 -7 57 -18 95 -24 319 -51 583 -128 778
-227 27 -14 75 -29 106 -33 48 -7 79 -23 211 -108 85 -55 175 -116 200 -135
26 -20 66 -45 90 -58 44 -22 122 -83 191 -149 20 -19 80 -75 133 -125 140
-130 273 -263 303 -304 14 -20 44 -56 67 -81 77 -83 370 -628 409 -760 9 -30
27 -89 40 -130 41 -127 56 -257 59 -485 2 -202 1 -211 -20 -246 -12 -19 -28
-60 -34 -89 -12 -57 -79 -241 -106 -294 -15 -29 -61 -100 -146 -225 -21 -29
-37 -59 -37 -66 0 -7 -38 -55 -85 -106 -84 -91 -255 -305 -306 -384 -15 -22
-44 -60 -65 -84 -22 -24 -77 -87 -124 -140 -93 -105 -140 -164 -179 -222 -15
-21 -49 -62 -76 -91 -70 -73 -165 -185 -200 -233 -15 -22 -45 -56 -65 -75 -21
-19 -75 -82 -121 -140 -45 -58 -113 -139 -149 -180 -134 -151 -202 -231 -251
-297 -48 -64 -127 -156 -250 -288 -30 -33 -88 -100 -128 -148 l-73 -89 -20 54
c-11 29 -26 78 -33 108 -35 135 -193 492 -275 617 -22 34 -40 66 -40 71 0 4
-19 36 -42 71 -24 35 -56 84 -73 110 -58 92 -201 276 -284 367 -31 33 -77 90
-104 126 -47 64 -158 177 -312 318 -44 40 -95 93 -114 117 -18 24 -37 43 -42
43 -4 0 -45 35 -91 78 -154 146 -212 191 -371 287 -87 52 -160 95 -163 95 -4
0 -35 24 -71 53 -63 50 -121 84 -283 164 -41 20 -94 50 -116 66 -23 16 -61 31
-85 34 -24 3 -75 21 -114 41 -66 32 -236 97 -335 127 -25 7 -58 18 -75 24 -63
23 -193 50 -270 57 -44 4 -89 13 -100 20 -11 7 -60 18 -110 23 -123 15 -155
21 -155 29 0 13 111 155 187 242 42 46 101 118 131 160 31 41 90 113 132 160
72 80 231 273 330 400 78 100 190 228 315 360 73 77 182 208 316 380 27 36 83
101 122 144 40 44 83 95 97 114 14 19 72 83 128 141 57 58 137 147 177 196 64
80 236 249 392 386 57 50 214 144 260 155 15 4 50 18 76 31 27 13 81 31 120
38 40 8 79 16 87 20 32 12 177 23 240 19 36 -3 112 -7 170 -11z m-3210 -3234
c47 -6 106 -19 132 -30 30 -12 57 -17 77 -13 16 4 43 2 58 -4 127 -47 201 -72
216 -72 64 0 403 -142 424 -178 7 -11 38 -30 70 -42 32 -12 95 -39 141 -61 45
-21 85 -39 89 -39 3 0 14 -6 22 -14 9 -8 56 -36 106 -62 49 -26 115 -66 146
-88 112 -81 199 -141 237 -165 22 -13 57 -40 78 -60 21 -20 66 -57 98 -84 33
-26 90 -77 129 -112 38 -36 92 -81 121 -100 59 -40 377 -371 419 -436 45 -72
95 -137 130 -172 33 -32 201 -275 269 -388 20 -33 46 -72 59 -85 12 -13 35
-56 51 -96 16 -40 35 -80 42 -88 21 -24 117 -223 141 -290 7 -20 24 -59 39
-87 14 -28 30 -80 36 -116 5 -35 17 -81 25 -100 8 -20 15 -59 15 -87 0 -55
-24 -97 -119 -210 -80 -95 -101 -110 -101 -71 0 24 -48 152 -65 171 -7 8 -22
42 -34 75 -12 33 -43 98 -68 145 -55 102 -105 197 -163 305 -23 44 -48 87 -54
95 -7 8 -28 42 -46 75 -37 65 -89 143 -127 189 -13 16 -35 50 -48 76 -20 40
-77 115 -172 225 -14 17 -57 67 -95 112 -76 91 -257 284 -302 322 -16 14 -51
52 -78 85 -28 34 -73 78 -100 98 -28 20 -80 63 -117 96 -59 53 -123 109 -201
176 -14 12 -47 36 -75 54 -27 17 -67 47 -88 66 -21 19 -48 38 -60 42 -12 3
-38 18 -57 33 -48 36 -148 100 -260 166 -52 31 -135 81 -185 111 -66 40 -100
54 -128 54 -21 0 -48 6 -60 14 -20 13 -88 42 -197 86 -25 10 -93 39 -151 64
-59 25 -113 46 -121 46 -24 0 -170 40 -198 55 -15 8 -69 19 -121 24 -98 11
-359 62 -359 71 0 13 194 222 213 230 26 10 245 3 367 -11z m-499 -545 c31 -8
89 -14 128 -14 46 0 80 -5 94 -14 23 -16 122 -48 267 -86 47 -13 103 -31 125
-41 22 -10 69 -29 105 -43 106 -40 161 -67 202 -96 21 -15 58 -31 83 -35 25
-3 77 -24 115 -46 38 -21 72 -39 75 -39 11 0 161 -93 245 -151 47 -32 123 -85
170 -116 155 -105 321 -235 368 -290 26 -30 58 -61 72 -68 14 -7 108 -96 211
-197 271 -268 367 -376 388 -438 6 -19 25 -46 41 -60 34 -28 96 -112 198 -268
37 -57 87 -129 110 -159 24 -30 55 -78 69 -106 14 -29 31 -59 38 -67 28 -34
165 -301 165 -322 0 -7 8 -26 18 -43 21 -36 52 -116 82 -210 13 -38 31 -89 41
-113 32 -72 26 -97 -39 -171 -32 -36 -86 -101 -120 -145 -51 -64 -63 -75 -68
-60 -4 11 -18 45 -30 76 -13 32 -24 64 -24 73 0 13 -29 80 -105 240 -13 28
-42 91 -66 140 -23 50 -59 112 -80 138 -21 27 -48 74 -59 105 -12 30 -33 70
-49 87 -15 17 -45 63 -66 101 -21 38 -52 87 -70 109 -17 22 -44 61 -58 86 -15
25 -38 56 -53 70 -14 13 -32 38 -39 55 -11 28 -93 125 -205 245 -25 27 -81 87
-125 135 -126 136 -265 275 -330 329 -33 28 -100 86 -150 130 -49 45 -117 98
-150 120 -33 21 -86 63 -117 92 -31 30 -70 59 -86 66 -15 7 -50 31 -77 55 -51
43 -86 65 -342 213 -79 45 -143 86 -143 91 0 15 -64 48 -95 48 -18 0 -53 15
-85 36 -69 45 -121 72 -174 89 -99 33 -276 103 -326 130 -23 12 -102 39 -255
86 -33 10 -85 21 -115 24 -30 4 -72 13 -93 21 -20 8 -58 14 -82 14 -25 0 -45
3 -45 8 0 4 46 53 102 110 l103 102 125 -6 c69 -3 150 -12 181 -20z m-506
-464 c61 -5 139 -16 175 -25 36 -9 92 -23 125 -31 33 -8 87 -23 120 -34 33
-10 76 -22 95 -26 19 -4 48 -12 65 -19 16 -7 59 -25 95 -40 36 -15 83 -36 106
-46 22 -10 43 -19 47 -19 9 0 232 -110 357 -177 58 -30 136 -80 174 -109 39
-30 88 -59 110 -64 46 -12 46 -11 112 -63 27 -21 114 -86 194 -145 80 -59 165
-125 189 -147 25 -22 72 -65 105 -95 34 -31 77 -68 97 -82 20 -15 65 -58 100
-95 35 -37 120 -125 189 -194 193 -194 280 -287 280 -299 0 -6 17 -29 38 -53
21 -23 43 -53 49 -67 6 -14 33 -55 59 -90 130 -172 242 -351 262 -417 7 -23
29 -65 49 -95 19 -29 45 -73 56 -98 11 -25 25 -52 32 -60 7 -8 15 -28 19 -44
4 -16 23 -63 43 -104 20 -42 42 -102 49 -134 8 -32 23 -75 33 -96 11 -21 22
-60 26 -87 3 -28 14 -71 23 -97 20 -61 18 -66 -109 -204 -55 -60 -102 -116
-105 -126 -3 -10 -8 -18 -12 -18 -4 0 -27 63 -51 141 -25 77 -53 154 -63 170
-10 16 -18 35 -18 43 0 21 -101 218 -132 256 -15 19 -28 42 -28 51 0 9 -18 44
-40 78 -22 34 -52 85 -66 114 -14 29 -43 72 -63 97 -20 25 -48 63 -60 85 -44
74 -75 120 -135 195 -33 41 -71 94 -84 118 -13 23 -44 60 -69 80 -24 20 -52
51 -62 67 -25 42 -188 226 -280 315 -42 41 -109 109 -148 150 -90 94 -225 216
-280 254 -24 16 -63 52 -88 81 -25 29 -66 65 -92 80 -27 15 -62 41 -80 58 -17
16 -59 48 -92 71 -34 22 -94 63 -134 90 -39 27 -90 61 -112 75 -22 14 -42 29
-45 32 -3 4 -56 32 -119 63 -63 31 -138 73 -166 92 -29 18 -55 34 -58 34 -3 0
-36 17 -74 39 -37 21 -95 48 -128 61 -74 28 -149 57 -195 77 -37 17 -107 36
-205 58 -33 7 -76 19 -95 28 -19 8 -60 18 -90 21 -30 4 -71 13 -90 20 -56 22
-141 44 -193 52 l-49 7 34 36 c19 20 51 57 71 82 56 71 122 137 143 141 11 3
33 3 49 1 17 -2 80 -8 140 -13z m-484 -541 c28 -11 79 -23 259 -63 63 -14 139
-35 168 -46 30 -11 64 -20 76 -20 12 0 55 -16 96 -36 41 -20 98 -43 125 -50
28 -7 82 -24 120 -39 39 -14 81 -30 95 -34 14 -5 59 -29 100 -54 41 -26 107
-62 145 -82 84 -43 167 -94 256 -157 37 -27 82 -55 101 -63 20 -8 64 -41 100
-74 35 -33 82 -72 104 -87 21 -15 64 -48 94 -73 30 -26 78 -64 105 -85 94 -70
409 -369 462 -438 37 -47 137 -162 234 -268 42 -47 102 -119 133 -160 30 -41
72 -97 93 -124 21 -27 54 -76 73 -107 19 -32 56 -89 82 -126 25 -37 57 -88 69
-113 12 -25 40 -67 60 -93 21 -26 46 -69 55 -95 10 -26 33 -74 50 -107 18 -33
48 -99 67 -146 19 -47 39 -94 45 -105 17 -33 51 -127 61 -169 14 -63 38 -147
50 -178 8 -21 8 -34 -1 -50 -9 -19 -103 -134 -209 -259 l-26 -31 -6 35 c-3 19
-21 68 -40 109 -19 41 -44 108 -57 149 -12 41 -30 91 -39 110 -79 156 -101
204 -101 218 0 9 -10 33 -22 52 -23 37 -83 151 -149 283 -22 43 -67 113 -102
156 -34 43 -79 107 -100 142 -22 35 -52 85 -68 111 -16 26 -47 61 -68 76 -22
16 -57 51 -77 78 -20 27 -40 51 -44 54 -3 3 -37 43 -74 90 -81 101 -623 641
-681 679 -22 14 -85 62 -141 107 -102 84 -335 245 -447 309 -34 20 -89 54
-122 76 -33 21 -85 51 -115 65 -55 26 -81 36 -243 93 -48 17 -102 38 -120 47
-39 21 -208 83 -262 96 -77 20 -180 50 -233 69 -30 11 -70 19 -91 19 -20 0
-63 7 -94 15 -32 8 -87 15 -123 15 l-65 0 53 62 c29 34 91 101 137 150 l84 88
71 -6 c39 -3 83 -10 97 -15z m-240 -608 c57 -16 145 -34 196 -40 73 -9 114
-21 205 -62 62 -28 142 -62 177 -75 49 -18 185 -84 230 -111 2 -1 -7 -15 -20
-31 -56 -68 -183 -219 -208 -247 -15 -16 -54 -64 -86 -105 -50 -64 -187 -224
-205 -240 -13 -12 -258 -318 -280 -350 -31 -46 -105 -136 -185 -224 -35 -39
-97 -112 -137 -162 -40 -50 -114 -138 -163 -195 -50 -57 -119 -140 -155 -184
-35 -44 -100 -121 -145 -171 -142 -161 -190 -218 -220 -259 -16 -22 -50 -65
-75 -95 -26 -30 -80 -95 -121 -145 -40 -49 -80 -97 -88 -105 -8 -8 -85 -103
-171 -210 -86 -107 -163 -202 -171 -210 -8 -8 -36 -43 -63 -78 -26 -35 -56
-71 -65 -80 -20 -19 -211 -252 -285 -345 -26 -34 -69 -85 -95 -112 -25 -28
-68 -77 -96 -110 -27 -32 -64 -75 -81 -94 -17 -20 -62 -76 -99 -126 -38 -49
-120 -150 -184 -224 -64 -73 -136 -159 -161 -191 -52 -67 -189 -230 -205 -245
-6 -5 -31 -35 -55 -65 -25 -30 -66 -79 -92 -108 -27 -30 -87 -106 -135 -169
-47 -64 -104 -134 -127 -157 -23 -22 -72 -79 -110 -126 -72 -88 -93 -111 -187
-214 -32 -34 -97 -110 -145 -171 -48 -60 -122 -148 -164 -195 -42 -47 -114
-132 -160 -190 -86 -107 -150 -183 -231 -274 -25 -28 -103 -123 -174 -211 -71
-88 -131 -162 -135 -165 -3 -3 -30 -34 -58 -70 -29 -36 -58 -72 -65 -80 -8 -8
-98 -121 -202 -250 -104 -129 -219 -266 -256 -305 -58 -60 -302 -359 -434
-532 -70 -91 -157 -194 -249 -297 -50 -56 -143 -168 -209 -250 -65 -82 -143
-177 -172 -210 -30 -34 -91 -108 -137 -166 -45 -58 -107 -134 -139 -170 -31
-36 -88 -104 -125 -151 -38 -48 -114 -139 -169 -204 -55 -65 -125 -151 -155
-192 -31 -40 -88 -110 -127 -155 -250 -293 -334 -392 -460 -548 -78 -96 -168
-206 -200 -245 -106 -126 -314 -386 -339 -423 -14 -21 -87 -109 -162 -196 -75
-87 -164 -193 -196 -235 -32 -42 -62 -78 -66 -81 -4 -3 -33 -39 -65 -80 -31
-41 -79 -98 -105 -127 -27 -29 -73 -85 -104 -125 -30 -40 -69 -89 -86 -108
-17 -19 -56 -69 -87 -110 -32 -41 -82 -104 -113 -140 -32 -36 -76 -92 -100
-125 -23 -33 -62 -79 -87 -103 -24 -24 -54 -60 -68 -80 -13 -20 -52 -66 -85
-102 -34 -36 -93 -108 -132 -160 -39 -52 -90 -115 -113 -140 -23 -25 -89 -106
-148 -180 -100 -129 -119 -151 -198 -237 -19 -21 -50 -58 -69 -83 -19 -25 -60
-72 -90 -105 -30 -33 -91 -105 -135 -159 -44 -54 -88 -108 -99 -120 -10 -11
-37 -46 -59 -76 -47 -64 -244 -308 -265 -329 -8 -8 -68 -80 -133 -160 -145
-178 -196 -239 -261 -313 -28 -32 -67 -80 -87 -107 -20 -27 -82 -103 -138
-168 -111 -128 -211 -254 -412 -518 -71 -93 -137 -179 -147 -190 -11 -11 -43
-49 -73 -85 -29 -36 -78 -91 -107 -123 -30 -32 -85 -99 -124 -150 -39 -50
-104 -130 -145 -177 -41 -47 -94 -110 -117 -140 -24 -30 -76 -91 -117 -135
-40 -44 -127 -147 -193 -230 -65 -82 -127 -159 -136 -170 -9 -11 -57 -69 -106
-129 -48 -60 -97 -118 -107 -129 -44 -47 -480 -606 -574 -736 -44 -61 -90
-123 -103 -138 -13 -16 -62 -79 -110 -142 -47 -62 -91 -115 -98 -118 -6 -2
-27 2 -45 10 -19 8 -77 22 -130 32 -91 17 -98 17 -174 0 -44 -9 -91 -23 -105
-30 -14 -7 -41 -16 -60 -20 -19 -4 -67 -23 -107 -41 -39 -19 -76 -34 -81 -34
-17 0 -52 130 -52 195 0 41 -6 73 -20 100 -11 22 -20 46 -20 55 0 9 -16 48
-35 88 -40 84 -106 154 -190 202 -30 17 -55 34 -55 37 0 3 15 22 33 43 17 20
39 46 47 56 22 29 164 198 171 204 6 5 188 225 314 379 44 54 100 121 124 150
24 28 57 72 73 99 17 26 56 74 87 107 31 33 92 103 136 155 44 52 105 121 137
155 68 72 212 248 271 328 36 50 111 141 292 352 23 28 78 93 121 145 43 52
81 97 84 100 7 6 203 243 280 339 30 38 92 116 138 172 45 57 99 122 119 144
53 57 117 135 206 250 84 109 134 169 185 224 18 20 65 78 105 129 114 147
167 213 247 309 41 49 109 134 150 188 41 54 109 135 151 179 42 45 112 126
156 181 44 55 91 112 104 126 87 93 172 190 196 222 34 47 233 290 243 297 3
3 30 37 60 75 29 39 69 88 89 111 20 22 74 87 121 145 47 57 95 115 107 129
75 88 187 223 243 294 36 46 77 99 92 117 117 148 187 239 208 269 13 19 50
62 81 95 31 33 123 143 205 245 81 102 161 199 176 216 16 17 46 55 68 84 22
29 58 73 81 98 65 69 149 174 167 207 16 31 49 73 166 210 38 44 98 118 134
165 36 47 105 128 152 180 172 189 413 476 540 644 24 32 80 97 123 145 43 47
90 106 104 131 31 53 106 147 218 274 98 111 156 180 260 306 44 53 104 126
133 161 100 120 119 144 184 224 36 44 78 98 94 121 16 23 74 94 129 158 55
64 118 142 140 173 22 31 46 58 53 61 13 4 154 176 187 227 10 17 44 57 75 90
31 33 116 133 188 223 73 89 140 170 150 180 39 40 126 144 172 205 26 36 62
81 79 100 17 18 55 63 84 99 63 79 181 216 262 307 33 36 87 97 120 135 33 38
65 74 70 80 6 6 30 38 54 71 25 33 72 89 106 125 33 36 79 87 100 115 22 27
64 77 94 110 29 33 65 77 78 99 14 21 58 74 99 117 73 79 146 165 194 229 25
33 58 72 140 165 25 29 79 91 120 140 41 49 98 114 125 145 65 74 159 187 213
258 24 32 65 82 92 112 26 30 75 89 109 130 159 196 283 343 386 460 86 96
100 114 135 165 48 71 71 99 164 195 46 47 97 108 116 135 18 28 74 93 125
145 51 52 114 127 141 165 26 39 53 75 59 80 28 24 229 259 303 353 45 57 101
127 125 155 25 29 80 95 123 147 95 114 127 150 179 205 66 67 198 226 230
276 17 26 72 92 123 147 87 94 219 253 306 366 21 28 55 69 76 91 20 22 73 85
118 140 44 55 97 118 117 140 21 22 64 74 96 115 32 41 88 109 124 150 35 41
93 109 127 150 34 41 65 77 68 80 23 20 275 326 318 388 l23 32 133 0 c115 0
146 -4 237 -29z m1020 -388 c118 -65 147 -83 233 -152 38 -30 92 -68 120 -85
49 -30 71 -47 230 -181 39 -33 89 -72 111 -87 43 -29 350 -334 409 -406 20
-24 56 -60 81 -80 25 -21 79 -77 122 -127 42 -49 94 -108 115 -130 21 -22 38
-45 38 -50 0 -6 -21 -31 -46 -55 -26 -25 -60 -64 -78 -86 -17 -23 -76 -94
-131 -160 -55 -65 -143 -169 -195 -232 -52 -63 -128 -153 -167 -201 -40 -47
-124 -150 -188 -227 -63 -78 -122 -148 -131 -155 -8 -7 -35 -43 -59 -81 -25
-37 -48 -68 -53 -68 -8 0 -96 -100 -232 -265 -158 -193 -334 -397 -426 -495
-34 -36 -84 -96 -112 -133 -28 -37 -84 -105 -125 -150 -41 -45 -92 -104 -113
-132 -55 -72 -129 -162 -188 -226 -28 -30 -96 -109 -151 -174 -55 -65 -132
-155 -170 -199 -39 -45 -105 -124 -147 -176 -42 -52 -122 -146 -178 -209 -56
-63 -127 -149 -158 -191 -31 -42 -85 -107 -118 -146 -61 -68 -181 -209 -218
-255 -10 -13 -40 -49 -65 -79 -25 -30 -64 -77 -85 -105 -22 -27 -47 -57 -56
-65 -9 -8 -62 -71 -118 -140 -95 -117 -197 -238 -331 -389 -31 -35 -72 -83
-91 -105 -19 -22 -53 -61 -76 -86 -23 -25 -88 -104 -146 -176 -107 -133 -132
-163 -203 -244 -23 -25 -53 -61 -68 -82 -15 -20 -33 -42 -40 -50 -16 -15 -148
-173 -222 -263 -27 -34 -63 -75 -78 -91 -16 -16 -65 -76 -110 -134 -44 -58
-126 -156 -181 -219 -56 -62 -126 -143 -156 -180 -56 -68 -77 -93 -165 -190
-55 -62 -53 -60 -127 -153 -29 -36 -88 -108 -132 -160 -43 -51 -97 -115 -120
-143 -22 -27 -59 -70 -82 -95 -22 -25 -92 -108 -154 -185 -110 -135 -128 -157
-215 -255 -23 -25 -121 -144 -218 -265 -167 -207 -244 -299 -306 -370 -201
-229 -301 -347 -338 -402 -15 -23 -41 -56 -58 -75 -16 -18 -82 -94 -145 -168
-137 -161 -146 -171 -241 -278 -41 -46 -90 -106 -110 -134 -20 -27 -52 -66
-71 -86 -19 -21 -56 -64 -82 -97 -27 -33 -69 -82 -95 -110 -26 -27 -86 -97
-132 -155 -84 -104 -239 -294 -353 -433 -105 -129 -157 -190 -221 -262 -35
-38 -102 -117 -149 -175 -264 -323 -419 -511 -483 -588 -40 -48 -91 -111 -114
-141 -23 -30 -87 -108 -141 -175 -55 -66 -149 -180 -208 -252 -59 -72 -124
-154 -144 -183 -33 -46 -106 -137 -251 -311 -22 -26 -81 -94 -130 -151 -50
-57 -107 -126 -127 -154 -20 -27 -53 -66 -73 -85 -20 -19 -85 -96 -143 -170
-122 -155 -247 -304 -342 -406 -37 -38 -111 -124 -165 -190 -119 -142 -138
-164 -190 -224 -23 -25 -66 -79 -97 -120 -31 -41 -98 -124 -148 -185 -50 -60
-123 -153 -162 -205 -39 -52 -106 -129 -149 -171 -44 -42 -99 -103 -123 -135
-24 -33 -83 -102 -131 -154 -48 -52 -162 -186 -253 -298 -92 -112 -200 -243
-239 -290 -72 -86 -204 -249 -264 -327 -17 -22 -52 -62 -78 -90 -26 -27 -114
-133 -196 -233 -153 -187 -182 -223 -315 -377 -41 -49 -97 -116 -125 -150 -27
-33 -91 -106 -142 -161 -51 -54 -118 -133 -150 -174 -31 -41 -111 -140 -177
-218 -67 -79 -148 -176 -181 -216 -33 -40 -105 -126 -160 -191 -115 -136 -239
-284 -374 -447 -121 -146 -159 -188 -170 -188 -5 0 -35 16 -67 35 -71 43 -151
74 -224 87 -30 5 -74 13 -98 19 -55 12 -345 11 -441 -1 -58 -8 -86 -6 -140 7
-104 25 -119 45 -151 193 -15 70 -16 95 -7 139 17 89 -6 308 -44 418 -40 114
-98 218 -148 268 -23 21 -41 43 -41 48 0 5 27 38 60 74 34 36 104 117 158 181
53 64 103 124 111 132 8 8 77 94 153 190 76 96 153 193 172 215 18 22 77 99
131 170 103 137 142 186 240 298 33 37 92 108 130 156 39 49 100 124 137 167
69 81 108 130 375 464 86 107 169 209 185 226 16 17 54 67 86 111 55 78 108
144 227 283 30 36 110 133 177 215 67 83 174 209 238 281 63 72 128 150 145
175 16 24 54 73 85 109 31 36 82 99 113 140 31 41 84 107 117 145 33 39 122
147 199 240 76 94 149 182 162 196 57 61 141 160 205 239 38 47 74 91 81 98 7
8 25 30 40 50 15 21 59 73 98 117 39 44 106 127 150 185 85 113 160 205 234
286 26 28 76 88 112 133 35 46 113 140 173 209 59 70 119 144 133 165 13 21
52 71 86 110 35 40 99 117 143 172 192 239 236 293 274 335 45 50 153 182 227
277 26 34 102 126 169 205 66 79 159 193 206 253 48 61 104 130 126 155 21 25
52 63 67 85 16 22 59 74 95 115 36 41 84 100 107 130 22 30 49 64 60 75 10 11
50 58 88 105 38 47 94 115 124 151 97 115 215 259 337 414 170 216 257 321
333 400 37 39 96 107 130 150 68 86 113 142 176 216 59 69 136 166 170 215 17
23 48 62 70 85 22 24 92 107 155 185 63 77 183 224 266 325 83 101 159 198
169 214 19 29 224 285 446 555 61 74 127 160 147 190 20 30 61 82 92 115 30
33 80 89 110 124 30 35 64 74 75 85 16 17 296 365 323 401 21 29 115 140 183
215 42 47 134 158 206 247 72 90 168 205 215 255 47 51 119 134 160 183 42 50
91 106 109 125 33 36 237 284 320 392 26 32 60 71 77 86 16 15 39 47 52 71 12
24 49 74 83 111 34 37 107 120 162 185 55 65 105 123 110 129 6 6 32 39 59 74
26 35 56 71 66 80 9 9 93 112 185 227 164 205 248 303 371 435 34 36 78 90 99
120 62 89 235 302 367 448 34 38 331 394 467 561 61 74 144 171 263 308 44 51
95 112 112 136 46 66 208 259 387 461 63 72 140 165 171 206 30 41 97 125 149
185 52 61 155 187 231 280 75 94 175 212 222 262 47 51 111 128 143 170 51 70
179 231 193 243 4 3 49 57 100 120 172 211 234 280 252 280 5 0 31 -12 59 -27z
m1608 -1480 c10 -21 39 -65 63 -98 25 -34 66 -101 93 -150 26 -50 54 -97 61
-106 8 -8 14 -19 14 -24 0 -4 17 -38 38 -75 22 -36 42 -77 45 -91 4 -13 22
-48 42 -77 19 -30 35 -57 35 -60 0 -4 17 -47 39 -97 103 -240 120 -292 121
-363 0 -23 7 -59 15 -79 21 -49 19 -68 -8 -90 -30 -24 -182 -199 -330 -381
-65 -80 -159 -189 -208 -242 -50 -54 -99 -111 -109 -126 -10 -16 -26 -38 -36
-49 -11 -11 -46 -52 -79 -90 -33 -39 -62 -72 -65 -75 -3 -3 -27 -32 -54 -65
-26 -33 -69 -82 -95 -110 -25 -27 -71 -79 -101 -115 -30 -36 -63 -71 -72 -78
-9 -7 -59 -65 -111 -130 -52 -64 -105 -129 -118 -143 -13 -14 -69 -79 -124
-144 -55 -66 -118 -139 -141 -164 -22 -26 -75 -90 -118 -144 -43 -53 -85 -103
-95 -110 -9 -6 -39 -39 -66 -72 -28 -33 -90 -107 -140 -165 -125 -146 -173
-203 -242 -290 -33 -41 -99 -118 -147 -170 -48 -52 -114 -129 -146 -171 -32
-41 -82 -102 -112 -134 -29 -32 -75 -86 -103 -121 -27 -34 -90 -109 -140 -166
-157 -181 -299 -354 -400 -485 -31 -40 -87 -106 -124 -145 -95 -101 -247 -278
-376 -438 -60 -74 -143 -173 -185 -220 -42 -47 -97 -112 -122 -145 -25 -33
-90 -107 -144 -164 -55 -57 -119 -132 -143 -167 -24 -35 -81 -104 -126 -154
-45 -49 -113 -129 -151 -177 -37 -48 -97 -122 -133 -163 -37 -41 -84 -97 -106
-125 -21 -27 -74 -88 -116 -135 -111 -124 -424 -494 -547 -648 -29 -36 -77
-93 -105 -126 -29 -32 -65 -78 -82 -101 -16 -23 -56 -72 -87 -111 -32 -38 -93
-114 -137 -169 -44 -55 -99 -120 -122 -145 -22 -25 -66 -76 -95 -115 -30 -38
-82 -101 -115 -140 -32 -38 -80 -97 -106 -130 -26 -33 -90 -109 -143 -170 -53
-60 -135 -159 -183 -220 -112 -142 -100 -128 -187 -220 -41 -44 -90 -103 -108
-130 -18 -27 -64 -82 -102 -122 -38 -40 -111 -124 -162 -185 -118 -145 -189
-228 -258 -303 -30 -33 -79 -94 -107 -135 -29 -41 -100 -129 -158 -195 -124
-142 -187 -215 -274 -316 -34 -41 -91 -105 -125 -143 -33 -38 -68 -79 -76 -92
-9 -13 -38 -47 -65 -75 -28 -29 -89 -103 -137 -163 -48 -61 -114 -140 -145
-175 -32 -35 -69 -80 -83 -100 -14 -20 -65 -83 -115 -140 -49 -57 -105 -122
-123 -145 -19 -22 -52 -61 -75 -86 -42 -45 -145 -168 -227 -270 -24 -30 -69
-82 -100 -115 -89 -97 -157 -177 -185 -220 -15 -22 -44 -58 -64 -80 -21 -22
-66 -76 -102 -120 -35 -44 -111 -137 -170 -207 -59 -69 -121 -146 -137 -170
-17 -24 -55 -67 -86 -96 -58 -55 -152 -167 -203 -242 -34 -50 -52 -71 -122
-145 -25 -27 -90 -102 -143 -165 -53 -63 -123 -146 -157 -185 -33 -38 -75 -90
-93 -113 -18 -24 -68 -82 -111 -130 -43 -47 -112 -131 -154 -186 -85 -113
-155 -197 -225 -271 -25 -27 -95 -111 -154 -185 -59 -74 -126 -157 -149 -185
-23 -27 -76 -95 -117 -150 -41 -55 -114 -145 -162 -200 -48 -55 -151 -179
-228 -275 -77 -96 -164 -202 -193 -235 -28 -33 -71 -87 -95 -120 -24 -33 -75
-94 -114 -135 -39 -41 -124 -140 -189 -220 -162 -199 -288 -350 -312 -375 -43
-43 -155 -175 -247 -290 -52 -66 -110 -136 -128 -155 -17 -19 -46 -55 -63 -80
-37 -54 -84 -114 -192 -240 -45 -52 -103 -124 -130 -160 -52 -70 -73 -95 -176
-211 -37 -41 -90 -105 -119 -144 -29 -38 -81 -101 -115 -140 -54 -62 -105
-127 -196 -249 -23 -31 -65 -80 -169 -196 -17 -19 -76 -92 -132 -162 -55 -71
-105 -128 -110 -128 -4 0 -22 22 -39 50 -28 45 -89 99 -149 130 -50 27 -138
43 -270 50 -129 7 -317 35 -333 49 -15 14 -10 147 8 181 38 73 55 149 66 291
13 166 7 212 -40 310 l-29 62 60 61 c32 33 103 117 156 185 53 68 120 153 147
187 83 106 337 418 354 435 9 8 59 67 112 130 53 63 132 156 175 207 44 52
118 144 166 204 49 61 123 152 166 202 43 50 119 141 168 201 49 61 166 198
259 305 94 107 182 211 195 230 36 53 107 137 181 215 69 72 358 403 534 611
55 65 116 136 136 158 87 101 289 347 328 401 24 33 70 87 101 120 32 33 107
121 166 196 95 118 158 194 262 314 69 79 291 350 407 496 71 90 151 187 176
214 25 28 86 101 134 164 48 63 127 160 174 215 100 116 199 240 223 276 8 14
40 52 69 86 30 33 86 99 126 145 39 46 110 129 158 184 47 55 159 190 247 300
89 110 194 236 233 280 40 44 105 121 145 170 40 50 120 143 179 209 58 65
120 136 136 158 17 22 49 63 72 91 24 29 86 106 139 172 53 66 122 147 154
180 32 33 113 130 181 215 128 161 192 238 294 349 34 36 106 122 160 191 55
69 127 157 160 195 66 77 112 135 170 210 20 28 66 82 100 120 34 39 122 141
195 229 73 87 140 166 149 176 31 33 77 86 124 145 57 71 46 58 188 232 63 76
123 149 135 163 12 14 55 64 95 111 186 217 229 269 280 339 31 41 111 138
180 216 68 77 160 182 204 234 44 52 101 117 126 144 25 28 67 78 94 111 26
33 84 100 129 149 44 49 108 122 141 162 197 236 247 295 310 368 122 140 170
199 215 261 24 33 69 87 100 120 31 33 85 98 120 145 35 47 71 91 81 97 21 16
135 151 207 247 30 39 84 103 121 141 70 73 140 154 207 241 82 106 159 200
189 229 17 17 73 82 125 145 51 63 96 117 100 120 3 3 39 46 79 95 41 50 93
110 117 135 23 25 64 73 91 107 87 112 305 376 400 485 51 59 141 167 200 241
110 136 357 425 472 552 35 38 87 102 116 140 29 39 92 116 141 171 154 176
189 217 205 243 9 14 64 80 123 146 59 66 180 207 269 314 89 107 207 247 262
310 105 121 263 310 330 396 22 28 71 86 110 131 38 44 111 129 161 190 103
123 217 257 301 354 30 36 98 115 150 177 52 61 104 122 117 135 12 14 39 45
60 71 21 26 42 47 47 47 5 0 17 -17 28 -37z m-17810 -16221 c18 -21 48 -68 66
-107 34 -74 39 -106 53 -372 l7 -122 38 -39 c22 -22 57 -48 78 -58 44 -19 46
-18 144 41 45 28 213 96 294 119 92 27 315 15 370 -19 15 -9 111 -157 111
-171 0 -6 10 -33 21 -59 23 -52 27 -173 14 -400 -8 -156 -7 -174 20 -231 14
-29 25 -60 25 -69 0 -48 117 -209 157 -216 5 -1 37 -3 73 -4 36 -2 84 -10 108
-19 39 -14 47 -14 106 5 156 48 388 42 631 -15 83 -20 109 -35 131 -78 9 -18
30 -45 45 -61 24 -23 29 -38 31 -80 6 -187 -20 -345 -80 -477 -36 -81 -37 -93
-9 -221 18 -83 39 -113 103 -144 45 -21 64 -24 150 -23 55 0 167 -3 249 -9
136 -8 156 -12 210 -39 49 -25 66 -40 93 -84 40 -67 40 -86 2 -132 -32 -39
-210 -174 -333 -253 -159 -103 -480 -320 -532 -361 -22 -17 -65 -45 -95 -63
-64 -37 -121 -76 -205 -140 -61 -46 -147 -104 -226 -153 -24 -15 -71 -48 -104
-72 -61 -45 -144 -104 -378 -265 -70 -48 -144 -101 -165 -118 -20 -16 -71 -49
-112 -73 -41 -24 -91 -57 -112 -72 -34 -27 -64 -48 -288 -203 -52 -36 -122
-86 -155 -110 -114 -84 -248 -177 -475 -330 -85 -58 -193 -134 -240 -170 -47
-36 -121 -90 -165 -121 -160 -110 -220 -154 -240 -172 -23 -21 -55 -43 -140
-97 -33 -21 -97 -65 -143 -97 -52 -36 -84 -54 -86 -46 -55 203 -96 271 -260
434 -61 61 -148 149 -193 197 -100 104 -194 169 -318 218 -33 13 -89 41 -125
62 -62 35 -68 37 -157 37 -51 0 -93 4 -93 9 0 5 17 47 38 93 21 45 47 108 57
138 9 30 32 91 51 135 46 111 121 305 155 400 15 44 48 131 73 193 25 62 46
117 46 122 0 6 12 28 26 50 14 21 37 75 49 119 20 67 127 345 264 686 15 39
33 91 40 117 6 27 23 72 37 100 14 29 34 76 44 103 44 121 102 283 115 320 7
22 25 67 40 100 15 33 40 98 55 145 15 47 37 108 48 135 11 28 31 86 45 130
46 143 106 315 121 343 8 15 21 52 29 82 9 30 30 89 47 130 47 109 119 298
134 350 8 25 21 61 29 80 16 33 37 88 121 315 21 55 53 143 73 195 76 203 112
312 123 368 24 129 157 182 239 94z m-1664 -5432 c5 -8 -138 -216 -206 -300
l-20 -25 19 40 c113 241 178 331 207 285z M42325 44941 c-59 -35 -159 -137
-263 -266 -117 -146 -160 -222 -142 -254 15 -28 55 -37 83 -18 41 27 421 416
439 450 23 43 22 54 -7 82 -29 30 -68 32 -110 6z M42416 44475 c-84 -51 -175
-172 -161 -216 11 -35 51 -46 83 -22 32 23 126 136 148 176 32 60 -10 98 -70
62z M41204 43772 c-94 -69 -286 -300 -340 -409 -29 -58 -27 -95 6 -113 15 -8
27 -7 47 4 89 46 413 429 413 488 0 25 -36 58 -63 58 -13 0 -42 -13 -63 -28z
M41325 43329 c-67 -59 -155 -178 -155 -210 0 -30 30 -69 53 -69 54 0 217 191
217 255 0 21 -36 55 -60 55 -10 0 -35 -14 -55 -31z M44933 42618 c-13 -6 -25
-19 -28 -30 -4 -10 -38 -67 -77 -126 -101 -152 -165 -293 -153 -332 19 -60 80
-41 147 47 24 32 61 80 82 107 47 62 79 125 100 198 21 74 20 104 -4 128 -22
22 -35 24 -67 8z M43594 41461 c-64 -39 -202 -231 -228 -317 -8 -26 16 -54 45
-54 57 0 269 288 255 345 -9 37 -37 47 -72 26z M43696 41009 c-42 -33 -134
-162 -166 -233 -34 -74 -37 -107 -14 -130 33 -33 92 23 219 209 66 98 74 126
46 154 -27 27 -51 27 -85 0z M37764 39781 c-31 -19 -113 -120 -141 -174 -18
-36 -10 -73 18 -82 28 -9 72 23 135 99 68 81 86 116 71 141 -21 40 -39 43 -83
16z M32124 33134 c-54 -36 -137 -118 -192 -189 -42 -55 -75 -95 -189 -226 -93
-108 -113 -176 -58 -201 34 -15 77 14 177 124 46 51 99 107 119 125 46 42 175
201 217 269 36 56 40 85 16 108 -22 23 -45 20 -90 -10z M32585 27667 c-19 -18
-41 -49 -49 -69 -14 -33 -14 -38 0 -52 30 -30 63 -13 100 49 46 80 11 130 -51
72z M31935 26930 c-55 -35 -310 -334 -440 -515 -22 -31 -45 -62 -51 -69 -17
-19 -44 -73 -44 -90 0 -23 29 -46 56 -46 18 0 39 15 68 48 24 26 86 93 137
150 52 57 128 146 170 198 43 52 101 121 132 152 91 96 108 155 52 180 -35 16
-45 15 -80 -8z M24894 18752 c-77 -50 -99 -67 -109 -79 -5 -7 -55 -35 -110
-62 -151 -75 -271 -192 -246 -240 18 -33 46 -34 103 -5 59 29 174 118 228 175
19 20 58 48 87 62 75 38 125 74 145 105 22 33 22 37 2 56 -22 23 -53 19 -100
-12z M23599 17819 c-35 -23 -89 -62 -119 -88 -30 -25 -68 -57 -85 -71 -55 -45
-172 -165 -184 -188 -28 -53 16 -105 66 -78 99 51 443 382 443 426 0 13 -30
40 -44 40 -7 0 -42 -19 -77 -41z M22488 16997 c-62 -42 -90 -106 -53 -121 16
-6 100 55 115 84 24 45 -14 68 -62 37z M12940 17390 c-204 -8 -570 -60 -660
-94 -19 -8 -60 -17 -90 -21 -30 -4 -66 -12 -80 -17 -14 -6 -47 -16 -75 -23
-27 -7 -70 -20 -95 -29 -25 -8 -63 -19 -85 -25 -60 -14 -147 -46 -222 -81
-130 -59 -198 -93 -233 -115 -19 -12 -49 -26 -65 -32 -17 -6 -51 -25 -75 -42
-25 -17 -92 -64 -150 -103 -216 -147 -415 -326 -563 -508 -56 -69 -104 -127
-107 -130 -25 -23 -156 -233 -203 -327 -15 -29 -27 -64 -27 -79 0 -14 -15 -58
-34 -97 -18 -40 -36 -89 -40 -109 -8 -45 -6 -44 -54 -15 -72 45 -158 85 -201
92 -24 4 -75 18 -115 32 -141 48 -232 73 -316 83 -47 6 -132 18 -190 27 -240
37 -881 4 -989 -51 -14 -7 -53 -18 -86 -25 -33 -6 -91 -20 -130 -32 -234 -69
-274 -84 -365 -132 -25 -13 -102 -51 -171 -85 -116 -57 -213 -117 -377 -232
-136 -97 -184 -138 -381 -328 -157 -151 -216 -216 -259 -282 -31 -47 -70 -102
-87 -124 -108 -137 -308 -526 -336 -655 -4 -20 -17 -63 -28 -96 -54 -162 -81
-264 -81 -305 0 -25 -9 -88 -20 -140 -29 -139 -38 -452 -16 -537 9 -33 19
-117 23 -185 3 -67 12 -141 20 -163 8 -22 26 -85 40 -140 14 -55 32 -113 40
-129 8 -15 21 -53 29 -83 28 -107 204 -433 273 -507 14 -14 23 -28 20 -30 -2
-2 -35 -16 -74 -31 -123 -49 -284 -134 -446 -238 -81 -52 -223 -161 -241 -185
-7 -10 -35 -34 -63 -54 -100 -73 -310 -316 -410 -475 -82 -131 -126 -210 -136
-248 -5 -22 -23 -65 -40 -96 -32 -63 -129 -324 -129 -349 0 -9 -8 -46 -19 -81
-24 -82 -61 -319 -61 -384 0 -27 -5 -87 -11 -132 -10 -69 -9 -98 5 -184 10
-56 19 -141 22 -188 7 -124 72 -373 136 -526 11 -27 31 -81 44 -119 13 -38 38
-91 55 -119 16 -27 48 -87 69 -133 21 -45 58 -105 82 -131 24 -26 58 -68 76
-92 35 -49 277 -317 303 -335 9 -6 58 -50 110 -98 117 -107 173 -148 269 -195
41 -21 93 -50 115 -64 48 -33 213 -117 252 -129 37 -11 166 -65 228 -94 75
-36 136 -55 285 -87 74 -16 155 -36 180 -44 69 -22 207 -52 290 -64 41 -6 107
-16 145 -22 164 -25 286 -30 580 -26 276 4 318 7 385 25 78 22 232 46 360 57
41 3 107 14 145 25 39 10 90 23 115 28 25 6 59 15 75 21 17 6 73 22 125 37 52
15 138 43 190 64 52 21 111 41 130 45 19 4 59 18 89 31 54 24 81 21 81 -11 0
-25 108 -177 190 -268 31 -34 68 -81 84 -104 15 -22 42 -52 59 -65 57 -42 192
-151 202 -163 26 -30 200 -139 345 -217 41 -23 86 -48 100 -58 56 -38 406
-189 442 -190 7 -1 31 -8 53 -16 50 -19 91 -32 275 -83 80 -22 183 -52 230
-66 47 -14 128 -30 181 -35 53 -6 131 -19 173 -30 43 -11 128 -24 189 -30 62
-6 155 -18 207 -26 52 -8 158 -19 235 -25 77 -5 190 -14 250 -19 61 -5 225
-10 365 -9 244 0 355 6 575 29 55 5 154 14 220 20 122 9 194 19 342 46 45 8
123 21 173 30 50 8 106 20 123 28 18 7 59 16 92 21 33 4 75 13 95 21 31 12 91
26 260 63 25 5 83 23 130 39 47 16 119 39 160 52 129 39 223 73 290 106 36 17
76 35 90 39 41 13 211 96 249 123 20 13 72 42 116 64 99 50 166 93 276 180 47
38 90 68 95 68 5 0 27 -12 48 -26 74 -51 351 -148 511 -180 66 -13 149 -31
185 -39 36 -8 99 -19 140 -25 41 -5 91 -14 110 -20 19 -6 116 -15 215 -20 99
-5 223 -17 275 -26 180 -33 1135 -19 1435 20 61 8 180 22 265 31 85 9 187 25
225 35 39 11 93 22 120 25 28 4 93 19 145 35 52 16 138 39 190 50 269 61 535
169 816 330 84 48 165 90 180 94 49 12 229 143 362 263 273 246 296 271 395
412 169 242 235 347 304 486 31 62 33 69 104 295 23 74 50 151 59 170 10 20
20 74 24 125 4 49 14 114 22 144 20 79 20 505 -1 541 -8 14 -14 49 -15 78 0
29 -9 77 -19 108 -11 30 -23 88 -26 127 -4 40 -16 99 -27 132 -29 86 -69 188
-78 200 -4 6 -27 48 -50 95 -56 110 -90 165 -171 275 -115 156 -354 403 -464
479 -38 26 -101 72 -140 103 -38 30 -117 79 -175 109 -58 31 -132 71 -165 89
-33 19 -78 37 -100 40 -22 4 -64 18 -93 31 -29 14 -83 32 -120 41 -37 8 -93
24 -125 34 -31 10 -67 19 -80 19 -12 0 -68 7 -124 17 -115 19 -112 15 -88 103
8 30 15 69 15 87 0 17 11 62 24 100 13 37 30 111 37 163 16 120 22 450 11 595
-9 105 -16 141 -63 335 -12 47 -27 114 -35 150 -8 36 -25 92 -38 125 -13 33
-36 94 -51 135 -58 156 -136 301 -178 331 -58 42 -85 38 -156 -23 -88 -76 -91
-89 -43 -184 124 -245 232 -553 232 -664 0 -15 11 -84 24 -152 40 -202 35
-595 -9 -753 -8 -27 -17 -72 -20 -100 -10 -75 -50 -206 -84 -274 -37 -73 -37
-72 -7 -138 37 -79 58 -86 256 -89 180 -3 218 -10 425 -79 113 -38 318 -131
440 -199 110 -62 257 -181 421 -342 184 -182 216 -223 325 -429 17 -33 41 -71
51 -85 20 -25 78 -145 78 -162 0 -4 18 -54 40 -109 22 -56 40 -116 40 -133 0
-18 6 -52 14 -77 8 -24 18 -89 22 -144 10 -118 5 -470 -6 -535 -5 -25 -14 -76
-21 -115 -6 -38 -32 -128 -56 -200 -25 -71 -52 -152 -60 -180 -20 -67 -38
-104 -105 -205 -31 -48 -67 -109 -81 -136 -14 -27 -51 -78 -82 -114 -31 -36
-91 -108 -133 -160 -83 -104 -114 -135 -279 -277 -106 -91 -145 -118 -303
-210 -35 -20 -87 -55 -115 -78 -27 -22 -88 -59 -135 -81 -79 -38 -119 -54
-260 -105 -30 -11 -77 -31 -105 -43 -67 -31 -100 -43 -160 -60 -27 -8 -81 -26
-120 -41 -120 -45 -187 -63 -268 -70 -44 -3 -101 -15 -128 -25 -27 -11 -66
-20 -87 -20 -20 0 -55 -5 -77 -10 -22 -6 -107 -19 -188 -30 -81 -11 -152 -22
-157 -25 -13 -8 -625 -33 -880 -36 -41 0 -217 4 -391 9 -256 8 -323 13 -348
26 -18 10 -76 20 -140 25 -60 5 -114 12 -120 15 -13 9 -220 52 -291 61 -30 4
-66 12 -80 17 -14 5 -54 16 -90 23 -150 32 -447 157 -522 220 -54 46 -86 35
-203 -70 -88 -79 -204 -159 -343 -237 -62 -35 -147 -83 -190 -106 -86 -49
-248 -116 -303 -126 -21 -4 -48 -15 -60 -24 -13 -10 -37 -24 -54 -30 -30 -12
-245 -75 -320 -94 -22 -6 -65 -19 -95 -29 -69 -23 -399 -98 -515 -118 -433
-73 -816 -102 -1300 -100 -386 1 -776 27 -873 58 -18 5 -84 13 -145 17 -62 4
-124 13 -139 20 -15 8 -78 21 -140 30 -179 24 -428 83 -548 129 -19 8 -46 17
-60 20 -14 4 -65 22 -115 41 -171 66 -190 73 -230 83 -71 17 -108 35 -220 107
-60 39 -137 86 -170 104 -218 124 -425 322 -627 603 -21 29 -49 86 -63 128
-42 125 -110 169 -195 126 -161 -83 -214 -107 -283 -131 -44 -15 -93 -33 -110
-41 -18 -7 -66 -23 -107 -35 -41 -12 -95 -29 -120 -38 -25 -8 -79 -21 -120
-28 -41 -7 -109 -20 -150 -28 -41 -8 -93 -15 -116 -16 -62 0 -247 -36 -282
-54 -27 -14 -83 -16 -424 -16 -244 0 -408 4 -433 11 -22 6 -65 15 -95 20 -30
5 -86 16 -125 24 -38 8 -101 17 -139 20 -38 3 -83 12 -101 20 -19 7 -69 19
-112 25 -82 12 -279 70 -349 101 -22 11 -45 19 -50 19 -5 0 -27 9 -49 20 -22
11 -46 20 -55 20 -9 0 -20 4 -25 9 -6 5 -50 30 -100 56 -83 44 -168 97 -425
265 -176 115 -387 337 -507 533 -15 25 -45 71 -66 101 -21 31 -44 74 -52 96
-8 22 -26 60 -40 84 -87 148 -157 450 -180 771 -17 246 -5 392 45 538 11 31
20 72 20 90 0 85 100 340 193 496 35 59 83 139 106 178 84 146 409 484 521
543 14 7 50 34 80 60 84 71 272 175 420 233 36 14 79 33 95 41 17 9 50 16 74
16 79 0 161 70 161 137 0 27 -35 80 -105 158 -96 108 -265 388 -265 439 0 9
-13 42 -29 74 -15 31 -34 89 -41 127 -7 39 -21 86 -30 105 -21 42 -56 191 -65
277 -3 35 -13 79 -20 98 -22 50 -21 365 0 426 9 24 18 93 21 154 5 107 20 173
94 420 10 33 21 73 24 88 19 83 195 392 315 553 118 158 244 295 351 383 36
29 82 73 104 97 21 25 52 52 69 60 16 9 72 47 124 85 93 69 182 129 236 159
66 37 196 100 242 118 223 86 362 130 480 149 50 7 105 19 124 25 18 5 74 14
125 18 50 5 116 14 146 21 74 17 450 18 505 1 22 -7 83 -19 135 -27 252 -37
305 -47 331 -60 15 -8 53 -15 84 -15 48 0 70 -8 169 -59 63 -32 130 -61 150
-65 19 -4 48 -17 63 -30 60 -49 109 -59 163 -31 37 19 58 58 69 132 21 131 47
202 134 373 57 110 96 173 225 357 87 124 353 381 511 495 113 82 534 308 572
308 9 0 59 16 110 36 97 37 103 39 232 73 43 11 82 23 88 27 5 3 40 10 77 15
37 5 99 16 137 24 379 79 937 83 1230 9 33 -9 100 -20 148 -25 48 -5 111 -16
140 -24 119 -35 187 -59 273 -96 50 -21 98 -39 107 -39 18 0 162 -66 322 -147
139 -70 253 -145 380 -249 121 -99 396 -378 448 -454 21 -30 56 -80 78 -110
22 -30 79 -136 128 -235 130 -264 147 -304 177 -410 7 -27 20 -66 29 -85 17
-41 33 -123 45 -236 5 -45 17 -99 28 -120 17 -33 21 -70 27 -239 8 -238 -9
-581 -31 -635 -24 -56 -30 -160 -11 -197 20 -37 70 -81 103 -89 46 -12 77 8
205 131 193 185 341 300 431 335 18 7 110 50 203 95 199 97 222 105 470 161
88 20 268 44 327 44 29 0 81 7 116 16 59 15 70 15 121 1 31 -9 99 -18 151 -21
52 -2 127 -12 165 -21 185 -45 297 -76 368 -101 97 -35 116 -27 164 61 76 141
24 193 -287 286 -251 76 -404 95 -715 92 -328 -5 -586 -45 -725 -113 -19 -10
-53 -20 -75 -24 -42 -8 -131 -41 -205 -77 -24 -12 -64 -30 -89 -41 -24 -10
-61 -32 -80 -49 -20 -17 -63 -48 -96 -70 -54 -34 -80 -53 -192 -136 l-29 -22
8 77 c5 42 7 178 5 302 -3 201 -6 231 -25 282 -15 40 -22 80 -22 129 0 56 -8
96 -40 190 -22 66 -40 131 -40 145 0 14 -7 38 -15 53 -8 16 -28 71 -45 122
-17 52 -38 104 -46 116 -8 12 -14 28 -14 36 0 7 -25 56 -56 108 -31 51 -62
108 -69 126 -13 31 -66 116 -127 206 -50 73 -149 195 -213 262 -32 33 -74 83
-95 110 -81 108 -229 235 -392 335 -40 25 -89 59 -108 76 -34 31 -316 182
-389 208 -20 7 -70 27 -111 43 -41 16 -115 44 -165 60 -49 17 -121 43 -160 58
-75 28 -254 68 -357 80 -35 4 -77 13 -95 20 -18 8 -54 17 -80 20 -26 4 -70 13
-98 20 -57 16 -383 23 -615 15z"/>
</g>
</g>
</svg>
