<?xml version="1.0" standalone="no"?>
<!DOCTYPE svg PUBLIC "-//W3C//DTD SVG 20010904//EN"
 "http://www.w3.org/TR/2001/REC-SVG-20010904/DTD/svg10.dtd">
<svg data-landmark-id="026" version="1.0" xmlns="http://www.w3.org/2000/svg"
 width="702" height="292" viewBox="289 330 702 292"
 preserveAspectRatio="xMidYMid meet" role="img" aria-labelledby="title desc">
<title id="title">구름 위에서 응원하는 관중</title>
<desc id="desc">원본 선 굵기를 유지하면서 전체 구성을 65퍼센트로 축소한 검은 잉크 선화</desc>
<metadata>
Created by potrace 1.16, written by Peter Selinger 2001-2019
</metadata>
<g transform="translate(627 627) scale(0.65) translate(-627 -627)">
<g transform="translate(0.000000,836.000000) scale(0.025000,-0.025000)"
fill="#000000" stroke="none">
<path d="M11815 25563 c-22 -9 -76 -19 -120 -22 -115 -10 -260 -60 -326 -112
-20 -16 -41 -29 -47 -29 -5 0 -49 -27 -98 -59 -141 -94 -335 -295 -442 -458
-102 -156 -122 -190 -134 -223 -6 -19 -26 -57 -43 -85 -48 -76 -92 -177 -105
-242 -7 -32 -25 -83 -41 -114 -15 -31 -37 -96 -49 -145 -11 -49 -25 -100 -31
-114 -6 -14 -17 -50 -24 -80 -14 -55 -35 -130 -54 -185 -35 -103 -51 -166 -51
-199 0 -20 -4 -46 -10 -56 -5 -10 -17 -60 -25 -112 -9 -51 -24 -120 -35 -153
-10 -33 -26 -96 -35 -140 -9 -44 -25 -114 -36 -155 -10 -41 -21 -100 -25 -130
-3 -30 -17 -91 -29 -135 -12 -44 -26 -105 -30 -135 -4 -30 -13 -82 -21 -115
-7 -33 -14 -76 -14 -96 0 -20 -6 -52 -14 -70 -7 -19 -17 -61 -20 -94 -4 -33
-16 -98 -26 -145 -11 -47 -24 -114 -30 -150 -6 -36 -18 -105 -26 -155 -9 -49
-19 -124 -23 -166 -4 -42 -10 -80 -14 -86 -9 -14 -27 -125 -38 -228 -5 -49
-13 -110 -18 -135 -6 -25 -15 -92 -22 -150 -6 -58 -18 -152 -26 -210 -8 -58
-21 -168 -29 -245 -7 -77 -18 -165 -24 -196 -5 -31 -14 -119 -20 -195 -5 -77
-14 -163 -19 -193 -6 -29 -13 -119 -16 -200 -3 -81 -9 -162 -15 -180 -5 -18
-12 -133 -15 -255 -3 -121 -10 -243 -15 -271 -5 -27 -14 -228 -20 -445 -6
-217 -15 -420 -20 -450 -18 -108 -23 -244 -10 -289 8 -33 9 -65 0 -130 -14
-113 -18 -433 -8 -646 5 -93 10 -228 12 -300 4 -123 4 -128 -10 -85 -7 25 -14
56 -14 70 0 14 -8 42 -19 63 -10 20 -22 54 -25 74 -4 21 -20 85 -37 143 -50
181 -56 203 -73 285 -9 44 -26 107 -36 140 -11 33 -20 71 -20 85 -1 14 -7 36
-15 50 -8 14 -15 45 -15 70 0 25 -7 56 -15 70 -8 14 -14 46 -15 71 0 25 -9 72
-20 104 -11 32 -20 70 -20 84 -1 14 -7 37 -15 51 -8 14 -14 39 -15 55 0 17
-12 64 -26 105 -14 41 -32 107 -39 145 -7 39 -17 84 -23 101 -5 17 -13 59 -17
93 -4 35 -18 97 -31 139 -13 41 -24 90 -24 108 0 19 -6 51 -14 71 -8 21 -24
79 -36 128 -11 50 -26 108 -32 130 -6 22 -17 72 -24 110 -7 39 -21 111 -32
160 -11 50 -23 119 -26 155 -4 35 -13 73 -19 85 -6 11 -14 43 -17 70 -13 97
-41 271 -56 340 -8 39 -22 106 -30 150 -8 44 -21 112 -29 150 -7 39 -18 106
-24 150 -6 44 -20 139 -31 210 -11 72 -20 150 -20 175 0 25 -7 72 -15 105 -8
33 -15 98 -15 145 -1 47 -5 117 -11 155 -5 39 -13 113 -18 165 -11 126 -29
280 -42 360 -6 36 -17 154 -24 263 -8 109 -17 203 -21 208 -7 13 -18 238 -34
755 -13 403 -16 379 57 464 21 25 56 74 78 110 21 36 52 83 67 105 144 202
193 302 229 465 6 25 18 71 26 102 35 127 -5 358 -75 431 -36 38 -101 67 -149
67 -47 0 -125 -38 -166 -81 -15 -16 -32 -29 -36 -29 -18 0 -44 56 -48 99 -4
49 -62 180 -97 219 -25 28 -107 72 -134 72 -47 0 -119 -36 -165 -82 l-49 -50
-33 32 c-17 17 -54 39 -81 50 -49 18 -51 18 -92 0 -23 -10 -61 -39 -86 -64
-44 -43 -106 -150 -106 -181 0 -20 -3 -19 -47 11 -45 31 -88 29 -161 -8 -54
-26 -152 -152 -152 -194 0 -14 -9 -42 -20 -64 -25 -49 -29 -243 -6 -312 8 -24
17 -59 21 -78 27 -138 122 -319 245 -465 36 -42 76 -91 90 -109 120 -157 138
-177 174 -200 l29 -18 -7 -109 c-5 -86 -3 -116 9 -145 10 -23 15 -69 15 -128
0 -50 5 -120 11 -156 5 -36 14 -119 19 -185 21 -289 32 -403 41 -438 6 -22 14
-85 20 -140 5 -56 13 -133 19 -172 6 -38 14 -106 19 -150 5 -44 13 -93 19
-110 6 -16 13 -67 16 -113 4 -46 13 -109 21 -140 8 -31 15 -90 15 -132 0 -41
5 -91 10 -110 6 -19 15 -73 21 -118 5 -46 19 -111 30 -144 11 -34 24 -95 29
-137 5 -42 19 -121 30 -176 12 -55 26 -123 31 -151 5 -28 16 -67 24 -87 8 -20
15 -58 15 -84 0 -26 6 -68 14 -93 8 -25 20 -72 27 -105 6 -33 17 -78 24 -100
7 -22 18 -56 24 -76 6 -19 14 -64 17 -100 4 -35 10 -71 15 -80 4 -9 10 -39 13
-68 3 -28 10 -61 17 -72 6 -12 26 -85 45 -163 19 -77 41 -164 49 -192 8 -28
15 -66 15 -85 1 -19 7 -52 15 -74 8 -22 17 -60 21 -85 4 -25 17 -86 30 -135
12 -50 26 -115 30 -145 3 -30 13 -71 21 -90 8 -19 19 -57 24 -85 5 -27 18 -81
29 -120 30 -106 70 -286 89 -400 9 -54 34 -137 58 -195 8 -19 17 -60 21 -90 3
-30 18 -82 34 -115 15 -33 28 -73 28 -90 0 -16 13 -70 29 -120 16 -49 32 -108
36 -130 3 -22 15 -67 25 -100 30 -94 61 -224 69 -290 4 -33 15 -74 25 -92 9
-18 23 -61 31 -96 8 -35 25 -86 37 -113 12 -27 25 -69 29 -94 7 -47 37 -163
62 -240 36 -107 47 -149 47 -173 0 -14 21 -76 46 -139 25 -62 49 -131 54 -153
8 -42 14 -59 63 -192 16 -45 33 -99 38 -120 4 -21 28 -105 53 -188 l45 -150 0
-185 c0 -102 -5 -207 -10 -235 -5 -27 -14 -107 -19 -177 -5 -70 -14 -146 -20
-169 -6 -22 -11 -80 -10 -128 3 -167 -20 -867 -30 -931 -6 -36 -15 -139 -21
-230 -11 -187 -12 -209 -27 -450 -6 -96 -14 -309 -18 -472 l-7 -297 -71 -4
c-74 -4 -222 -30 -266 -46 -14 -5 -41 -12 -61 -15 -20 -4 -67 -26 -103 -50
-73 -48 -129 -62 -188 -46 -21 6 -55 14 -75 20 -21 5 -52 10 -69 10 -36 0
-153 -36 -234 -72 -30 -14 -84 -38 -120 -53 -204 -87 -509 -347 -634 -540 -22
-33 -50 -72 -62 -87 -12 -15 -30 -49 -40 -75 -10 -26 -19 -50 -20 -52 -2 -2
-38 17 -81 41 -124 72 -240 118 -294 118 -25 0 -63 7 -82 15 -43 18 -110 20
-139 4 -11 -6 -49 -15 -85 -20 -49 -7 -93 -24 -186 -74 -154 -81 -221 -140
-282 -247 -26 -46 -53 -94 -61 -108 -26 -45 -43 -84 -54 -125 -18 -70 -20 -71
-95 -46 -37 12 -80 28 -95 36 -45 23 -196 20 -251 -5 -24 -11 -54 -20 -67 -20
-63 0 -248 -130 -279 -196 -21 -42 -8 -76 38 -99 42 -22 68 -13 104 36 36 49
115 103 198 135 86 34 164 32 266 -5 96 -35 112 -46 151 -99 45 -62 102 -68
138 -14 13 20 17 48 17 123 0 106 4 118 104 299 63 114 237 234 386 266 33 7
107 14 165 14 97 1 110 -2 165 -29 33 -16 80 -39 105 -50 25 -12 70 -36 100
-54 l55 -33 3 -59 c3 -88 9 -103 44 -121 62 -32 118 28 118 126 0 43 10 77 44
157 119 274 345 497 666 658 213 107 306 125 415 80 33 -14 86 -28 118 -32
l57 -6 53 55 c49 50 62 57 153 86 154 48 250 62 469 69 183 5 204 4 250 -14
36 -14 76 -20 141 -21 59 -1 113 -8 155 -21 35 -11 98 -25 139 -31 41 -6 101
-20 133 -31 31 -10 64 -19 73 -19 17 0 101 -36 252 -106 50 -24 95 -44 99 -44
3 0 20 -10 37 -23 17 -13 68 -43 113 -67 136 -72 355 -285 407 -395 7 -16 30
-66 49 -109 l36 -79 -51 -96 c-59 -110 -60 -139 -7 -167 54 -27 103 7 122 86
3 14 27 56 52 94 26 38 51 80 56 94 14 36 116 188 157 234 19 21 54 50 76 63
23 14 65 49 95 79 29 30 80 69 113 86 33 18 74 44 91 59 93 79 264 155 342
152 47 -2 74 6 215 57 187 69 291 82 708 88 225 4 282 2 324 -11 30 -8 90 -15
142 -15 81 0 103 -5 240 -51 107 -36 172 -52 225 -56 85 -6 131 -26 176 -73
32 -34 131 -84 207 -105 94 -26 221 -125 348 -273 55 -63 70 -91 90 -170 20
-78 95 -88 135 -19 25 45 81 102 145 150 65 49 235 137 264 137 12 0 48 9 81
19 107 35 157 41 380 42 233 2 362 -11 475 -50 30 -10 82 -27 115 -36 95 -28
326 -136 368 -172 21 -19 61 -45 90 -58 109 -52 243 -202 319 -358 38 -78 39
-81 27 -129 -12 -44 -11 -53 6 -85 51 -93 145 -55 145 59 0 47 18 81 113 215
107 151 316 322 521 426 178 90 244 117 318 132 36 8 95 25 130 38 34 14 81
28 103 32 22 3 68 15 102 25 47 14 70 17 95 9 62 -17 125 -11 186 20 104 52
258 82 447 85 131 3 274 18 296 31 26 17 366 25 423 10 31 -8 87 -12 146 -10
83 3 99 1 130 -18 19 -12 60 -25 90 -29 159 -21 342 -68 419 -109 30 -16 59
-29 66 -29 17 0 190 -75 233 -102 20 -12 46 -32 57 -44 11 -12 40 -31 65 -44
65 -33 157 -118 189 -175 16 -28 48 -67 72 -87 42 -34 63 -70 127 -210 28 -62
62 -85 101 -69 28 12 51 47 51 77 0 20 -112 216 -153 267 l-30 39 34 71 c83
175 191 286 356 365 75 35 83 37 198 40 115 3 124 2 198 -27 126 -50 222 -39
265 32 24 38 70 72 152 110 95 44 132 57 162 57 16 0 43 8 61 18 27 14 60 17
227 17 198 0 212 -2 345 -47 17 -5 53 -16 80 -23 65 -16 233 -89 300 -129 207
-124 376 -312 360 -400 -9 -43 17 -103 50 -118 45 -21 76 -1 101 66 35 88 226
297 326 355 92 53 180 93 217 98 20 3 52 11 71 18 78 28 229 48 333 42 102 -5
268 -42 327 -72 16 -8 38 -15 50 -15 11 0 47 -13 80 -30 73 -37 82 -37 150 1
137 76 217 80 347 16 48 -24 110 -60 136 -80 61 -47 98 -48 155 -7 23 16 52
30 64 30 13 0 48 7 78 15 92 25 231 18 375 -17 22 -5 76 -18 120 -28 245 -55
388 -115 520 -220 39 -31 91 -70 116 -87 25 -17 79 -71 120 -119 41 -48 90
-106 110 -128 40 -46 100 -152 118 -208 8 -24 24 -45 47 -59 32 -20 36 -20 59
-5 13 9 29 24 34 34 12 23 -11 115 -42 161 -14 20 -30 50 -36 68 -7 17 -23 41
-37 54 -31 29 -30 59 3 111 82 131 168 209 316 286 115 60 192 80 417 107 74
9 158 21 185 28 76 18 359 13 415 -7 25 -8 52 -16 62 -16 26 0 199 -73 239
-100 20 -14 55 -48 77 -76 98 -124 163 -135 199 -33 12 34 26 54 41 60 29 11
99 -4 146 -32 19 -11 60 -23 90 -26 43 -4 62 -13 93 -39 21 -19 41 -34 44 -34
4 0 32 -31 63 -69 l56 -70 0 -86 c0 -78 2 -88 25 -110 27 -28 37 -30 66 -14
26 14 69 104 69 146 0 17 9 47 19 65 11 18 24 51 30 73 6 22 26 66 44 96 19
31 43 76 55 100 26 53 154 214 183 229 11 7 51 40 88 74 38 34 101 84 141 111
l72 50 81 -2 c55 -1 89 3 109 13 31 16 68 68 68 96 0 92 290 206 655 259 91
13 349 3 395 -16 19 -8 73 -23 120 -34 100 -23 133 -37 260 -113 90 -53 309
-241 333 -285 6 -10 26 -36 46 -58 20 -23 47 -60 61 -83 14 -24 48 -80 76
-125 28 -45 56 -99 63 -119 7 -21 17 -40 22 -43 5 -4 9 -24 9 -45 0 -51 41
-144 73 -165 20 -13 30 -14 46 -6 33 18 61 62 61 97 0 41 31 63 156 112 88 35
203 44 247 20 12 -7 45 -15 72 -19 101 -14 222 -70 319 -146 47 -37 115 -156
141 -246 30 -105 31 -117 5 -159 -23 -38 -25 -57 -8 -93 14 -31 62 -59 82 -48
28 16 113 122 120 148 20 78 160 239 269 308 31 20 60 37 64 37 3 0 29 15 57
34 57 37 157 79 231 97 28 6 66 18 85 25 92 36 224 44 297 19 81 -28 171 -30
233 -5 43 18 82 23 182 27 l128 5 91 -46 c50 -26 104 -57 119 -68 33 -24 88
-21 160 7 64 26 327 34 391 12 79 -27 232 -98 276 -128 24 -16 63 -42 87 -59
63 -43 154 -155 188 -230 32 -70 36 -95 24 -152 -7 -32 -5 -40 18 -62 54 -55
92 -32 150 90 49 103 113 177 203 234 77 49 151 35 243 -47 82 -74 95 -79 125
-49 14 14 25 37 26 53 2 59 7 73 47 121 32 38 55 54 99 70 100 35 155 36 307
5 17 -3 58 3 102 17 71 23 76 23 109 7 20 -9 42 -17 51 -17 22 0 71 27 130 72
60 45 295 163 357 179 85 22 115 22 143 0 34 -27 80 -27 123 0 35 21 47 23
253 35 127 7 318 -9 370 -30 21 -9 49 -16 63 -16 14 0 36 -7 48 -15 26 -17
144 -55 171 -55 24 0 150 -61 226 -109 124 -78 268 -211 310 -287 12 -21 37
-64 56 -94 19 -30 34 -63 34 -75 0 -33 37 -84 66 -91 41 -10 77 7 87 41 18 58
32 68 137 95 58 15 178 12 204 -5 13 -9 52 -18 87 -22 88 -8 140 -33 206 -98
31 -30 60 -55 64 -55 5 0 18 -19 30 -43 12 -23 27 -49 34 -57 8 -8 23 -40 34
-70 15 -40 30 -61 52 -74 30 -18 32 -18 58 1 45 34 48 63 17 143 -28 70 -125
206 -187 260 -29 26 -187 108 -249 130 -151 52 -268 57 -401 16 -126 -38 -125
-38 -189 46 -70 93 -209 238 -280 293 -83 64 -279 174 -330 184 -25 5 -76 21
-115 36 -153 57 -295 85 -443 86 -75 1 -140 3 -144 5 -3 2 0 27 7 55 8 28 16
92 20 142 7 96 45 205 73 206 22 1 52 40 52 69 0 15 -13 48 -29 73 -28 45 -28
46 -15 110 8 35 14 90 14 121 0 32 11 101 25 155 29 116 32 215 8 283 -17 47
-17 50 5 102 12 29 22 61 22 69 0 9 6 34 13 55 11 31 12 62 4 149 -5 61 -10
153 -11 205 -1 52 -5 165 -10 250 -4 85 -3 160 1 166 4 6 42 21 83 33 41 12
109 35 150 51 41 16 90 32 109 35 18 4 56 17 85 30 28 12 67 26 86 30 30 7
153 64 278 130 133 69 312 196 397 280 200 198 457 643 540 938 8 26 16 51 19
56 15 24 75 296 81 366 4 44 13 98 21 120 7 22 17 74 20 117 4 42 9 80 13 85
3 5 32 29 63 52 63 47 184 199 216 271 11 25 30 79 42 120 12 41 28 90 36 108
19 44 19 214 0 250 -7 15 -21 52 -31 82 -10 30 -32 78 -50 105 -17 28 -35 62
-38 77 -4 14 -23 47 -42 72 -19 25 -43 63 -54 84 -11 22 -42 59 -68 82 -47 42
-153 100 -183 100 -13 0 -15 24 -12 172 2 95 8 196 14 223 5 28 12 94 15 147
l5 97 36 12 c21 6 48 17 62 25 40 21 190 81 250 99 30 10 81 31 112 46 32 16
64 29 72 29 8 0 54 15 103 34 81 31 303 106 528 178 50 16 122 42 160 58 39
16 104 41 146 54 42 13 95 34 116 45 22 11 64 23 94 27 30 4 77 17 105 30 28
12 86 34 130 49 43 15 90 33 104 41 14 7 57 23 95 34 39 12 99 35 135 50 106
46 312 120 350 126 19 3 62 16 95 29 33 13 80 29 105 35 25 6 86 28 135 49
118 51 198 81 212 81 6 0 21 -14 33 -30 73 -102 234 -66 291 67 24 56 22 110
-7 169 -24 48 -96 104 -134 104 -33 0 -104 -30 -141 -61 l-26 -21 -64 32 c-35
18 -89 47 -119 66 -30 18 -84 45 -119 59 -35 13 -71 31 -80 39 -9 8 -45 25
-81 39 -65 25 -207 92 -625 297 -121 60 -296 140 -390 179 -93 40 -210 91
-260 115 -49 24 -102 46 -118 50 -15 4 -85 34 -155 67 -290 139 -328 157 -352
164 -14 4 -67 27 -117 51 -51 24 -96 44 -100 44 -10 0 -140 53 -203 82 -25 11
-58 27 -75 34 -62 25 -220 107 -233 119 -11 10 -9 19 12 50 72 106 46 224 -63
280 -65 32 -99 32 -169 -4 -128 -65 -158 -210 -64 -300 21 -19 36 -39 34 -44
-2 -8 -25 -493 -42 -922 -5 -121 -14 -240 -19 -265 -9 -41 -13 -109 -26 -505
-3 -77 -10 -216 -16 -310 -5 -93 -12 -217 -15 -275 -2 -58 -6 -130 -7 -160 -2
-30 -9 -201 -16 -380 -6 -179 -14 -334 -17 -345 -4 -11 -9 -76 -13 -145 l-6
-125 -42 -6 c-41 -5 -102 -40 -156 -88 -41 -36 -87 -132 -87 -179 0 -39 0 -39
-57 -55 -65 -19 -71 -23 -130 -89 -30 -33 -47 -65 -62 -116 -27 -88 -26 -103
4 -197 27 -81 53 -128 89 -157 19 -15 21 -27 21 -140 0 -107 3 -128 22 -163
24 -45 115 -128 186 -169 52 -31 51 -29 38 -89 -5 -23 -17 -91 -26 -152 -9
-60 -20 -132 -25 -160 -5 -27 -12 -70 -15 -95 -10 -68 -61 -213 -116 -326 -27
-56 -49 -106 -49 -112 0 -14 -92 -135 -145 -192 -24 -25 -50 -60 -59 -77 -9
-18 -29 -39 -45 -48 -16 -8 -56 -38 -88 -66 -79 -69 -268 -179 -308 -179 -9 0
-48 -14 -87 -30 -38 -17 -81 -30 -94 -30 -14 0 -41 -8 -62 -19 -26 -13 -65
-20 -127 -22 l-90 -4 -7 55 c-3 30 -6 82 -7 115 -1 36 -9 80 -22 111 -21 51
-21 52 -4 108 l18 57 -29 42 c-59 86 -69 113 -55 159 12 38 10 48 -17 122 -17
45 -40 119 -51 166 -99 399 -170 652 -201 709 -5 10 -3 26 6 41 19 36 18 44
-20 89 -19 22 -42 62 -51 88 -9 27 -32 82 -50 123 -18 41 -45 113 -60 160 -14
47 -39 112 -55 145 -16 33 -44 94 -63 135 -19 41 -44 85 -56 97 -12 13 -26 46
-31 75 -6 28 -18 64 -28 79 -9 16 -37 61 -61 101 -24 40 -58 91 -76 113 -18
22 -41 58 -53 81 -24 46 -130 192 -156 213 -10 8 -27 33 -38 55 -11 23 -33 55
-48 71 -15 17 -40 48 -55 70 -14 22 -41 56 -58 75 -18 19 -50 58 -72 85 -82
104 -148 174 -236 250 l-91 80 6 50 c9 71 35 210 51 275 41 172 48 204 75 370
6 36 15 90 20 120 5 30 12 112 16 182 8 148 1 176 -52 202 -33 15 -38 15 -77
-2 -50 -23 -57 -31 -127 -142 -29 -47 -60 -92 -69 -100 -29 -26 -136 -181
-186 -270 -57 -102 -187 -300 -197 -300 -4 0 -29 13 -55 30 -26 17 -54 30 -62
30 -8 0 -38 14 -68 30 -29 17 -75 37 -101 46 -26 9 -78 31 -117 50 -99 47
-324 134 -349 134 -12 0 -50 9 -86 21 -109 35 -125 39 -172 39 -25 0 -65 9
-89 20 -35 16 -66 20 -156 20 -69 0 -129 5 -155 14 -73 24 -525 40 -572 21
-17 -7 -80 -18 -141 -24 -64 -6 -150 -23 -205 -40 -52 -16 -120 -34 -150 -40
-72 -14 -137 -31 -180 -46 -106 -38 -211 -79 -255 -100 -123 -59 -184 -85
-199 -85 -15 0 -66 69 -66 89 0 6 -6 25 -14 43 -8 18 -38 98 -67 178 -28 80
-62 165 -75 190 -13 25 -24 49 -24 53 0 14 -58 146 -98 224 -54 106 -131 149
-190 107 -38 -26 -75 -95 -84 -154 -27 -172 -17 -488 22 -762 6 -37 10 -112
10 -168 0 -56 4 -110 10 -120 12 -23 11 -25 -132 -134 -62 -47 -128 -103 -146
-125 -18 -22 -84 -85 -146 -141 -80 -69 -124 -117 -146 -156 -18 -30 -51 -74
-75 -97 -23 -23 -65 -76 -92 -118 -55 -85 -109 -153 -164 -208 -32 -33 -73
-89 -151 -213 -16 -24 -48 -70 -73 -103 -43 -57 -81 -124 -175 -300 -23 -44
-48 -87 -55 -95 -20 -24 -62 -111 -76 -160 -7 -25 -24 -63 -38 -85 -37 -59
-111 -227 -111 -251 0 -12 -8 -32 -19 -45 -37 -47 -121 -251 -141 -341 -20
-91 -48 -185 -74 -248 -15 -36 -35 -88 -46 -116 -10 -28 -25 -66 -35 -84 -13
-26 -15 -46 -10 -102 6 -53 3 -79 -8 -106 -8 -21 -25 -71 -37 -112 -12 -41
-29 -91 -37 -112 -13 -31 -13 -44 -2 -88 13 -51 12 -54 -14 -102 -21 -36 -32
-81 -47 -176 -11 -70 -24 -143 -30 -162 -5 -19 -10 -47 -10 -62 0 -34 3 -34
-66 -3 -31 14 -60 25 -65 25 -5 0 -48 23 -95 51 -143 85 -297 244 -376 389
-50 92 -114 310 -129 440 -5 41 -13 98 -18 125 -41 207 -38 495 9 780 7 39 18
115 26 170 12 90 24 161 39 221 2 11 16 26 30 32 36 17 117 95 151 145 15 23
47 62 70 87 80 85 143 179 178 267 20 48 36 96 36 106 0 10 10 37 22 60 19 36
22 58 22 159 0 115 -1 118 -31 160 -61 86 -163 118 -262 83 -55 -19 -54 -19
-48 5 9 34 -11 167 -33 218 -37 85 -114 138 -182 125 -31 -6 -101 -38 -141
-66 -16 -10 -21 -8 -39 16 -28 38 -98 77 -139 77 -61 0 -165 -85 -190 -154
-15 -42 -14 -42 -64 -16 -101 52 -219 -9 -279 -144 -93 -207 -97 -441 -11
-701 33 -101 150 -301 233 -400 31 -37 33 -44 28 -90 -3 -27 -10 -106 -16
-175 -6 -69 -15 -152 -21 -185 -52 -315 -38 -798 33 -1095 6 -25 14 -65 18
-90 4 -25 13 -58 19 -75 7 -16 21 -61 31 -100 25 -93 84 -246 115 -295 14 -22
25 -43 25 -46 0 -14 90 -161 117 -191 15 -17 42 -51 59 -75 33 -47 173 -172
252 -224 26 -18 64 -46 84 -64 21 -18 62 -42 91 -54 29 -11 64 -32 77 -45 27
-25 136 -81 159 -81 7 0 37 -13 65 -30 29 -16 71 -32 95 -36 23 -4 45 -13 48
-21 3 -8 0 -74 -6 -146 -14 -147 -31 -400 -35 -492 -1 -33 -8 -98 -15 -145
-13 -79 -12 -89 4 -120 14 -27 19 -61 20 -150 1 -73 8 -132 17 -160 9 -25 19
-68 23 -96 l7 -51 -59 -6 c-161 -16 -233 -26 -244 -32 -6 -4 -41 -15 -78 -25
-181 -49 -365 -136 -431 -205 -50 -52 -128 -101 -175 -110 -55 -9 -170 -73
-263 -145 -150 -117 -172 -136 -216 -188 -77 -90 -77 -90 -205 -317 l-44 -78
-26 29 c-34 38 -149 127 -191 149 -18 9 -55 23 -81 31 -27 8 -64 23 -82 34
-55 32 -147 62 -172 56 -12 -3 -42 -21 -64 -40 -61 -51 -70 -52 -147 -5 -38
22 -76 45 -84 50 -8 5 -40 20 -70 35 -30 14 -66 32 -80 39 -14 7 -85 29 -158
49 -131 36 -135 37 -291 34 l-158 -3 -5 100 c-5 93 3 241 18 327 4 23 0 55
-11 88 -12 36 -15 65 -10 97 3 24 1 94 -6 154 -10 87 -10 123 0 172 10 51 9
77 -3 152 -14 80 -21 213 -32 625 -2 63 -6 158 -9 210 -3 52 -1 219 4 370 6
151 13 383 17 515 4 176 10 247 20 267 18 34 18 78 1 103 -11 16 -11 63 -4
240 10 241 11 260 1 419 -4 82 -2 125 10 175 14 61 20 177 31 686 1 55 6 186
10 290 9 200 9 246 7 520 -3 318 6 720 17 767 8 35 7 71 -4 150 -19 135 -19
256 1 359 12 64 15 119 11 229 -6 167 6 431 28 604 9 66 13 132 10 147 -3 15
1 67 9 115 9 49 16 113 16 142 0 29 9 78 20 109 14 39 20 83 20 138 0 44 5
107 10 140 5 33 21 130 34 215 43 267 57 379 75 585 4 50 15 104 23 120 24 46
43 300 30 405 -6 47 -8 117 -5 156 5 59 2 77 -16 113 -14 26 -23 66 -25 104
-6 110 -36 270 -65 342 -16 39 -33 96 -39 129 -7 32 -20 77 -31 100 -10 22
-22 52 -26 66 -9 32 -102 210 -121 231 -19 21 -18 79 2 107 22 32 54 130 54
168 0 46 -8 63 -42 80 -46 24 -84 -4 -128 -93 -19 -40 -38 -75 -42 -79 -4 -3
-21 8 -39 25 -17 18 -49 41 -71 52 -36 19 -40 23 -35 52 14 91 58 183 109 233
35 33 68 108 68 151 0 26 -30 72 -51 78 -56 18 -109 -50 -224 -288 -41 -85
-61 -117 -71 -113 -8 3 -40 13 -72 22 -31 9 -61 20 -66 25 -11 10 6 91 40 198
13 40 24 81 24 90 0 10 18 54 40 100 47 97 51 141 15 176 -13 14 -33 25 -43
25 -28 0 -68 -35 -81 -72 -7 -18 -16 -40 -20 -48 -46 -90 -83 -195 -77 -220 3
-20 -3 -48 -20 -86 -14 -31 -28 -72 -32 -91 l-7 -35 -103 -4 c-99 -3 -103 -2
-131 24 -22 21 -27 32 -21 47 5 11 9 38 9 60 1 22 10 53 21 70 14 21 20 47 20
84 0 29 7 84 17 122 19 78 11 111 -31 130 -39 18 -73 3 -96 -41 -38 -75 -50
-117 -86 -320 -12 -66 -27 -114 -51 -157 -31 -57 -37 -62 -81 -72 -26 -6 -69
-12 -97 -14 l-49 -2 -8 40 c-4 22 -2 63 4 91 9 43 8 60 -7 104 -37 113 -95
124 -147 30 -17 -31 -28 -65 -28 -89 0 -50 -41 -204 -68 -257 -17 -34 -33 -46
-109 -83 -48 -24 -101 -53 -118 -66 -16 -12 -55 -35 -85 -50 -30 -15 -84 -47
-120 -70 -78 -51 -111 -70 -300 -171 -158 -84 -267 -142 -290 -155 -8 -5 -40
-20 -70 -34 -30 -14 -71 -34 -90 -45 -19 -10 -84 -42 -145 -70 -60 -28 -121
-57 -135 -65 -14 -8 -79 -41 -145 -75 -224 -113 -421 -220 -670 -364 -44 -25
-91 -46 -105 -46 -38 -1 -100 -32 -202 -104 -168 -119 -192 -135 -273 -186
-44 -28 -127 -88 -185 -133 -58 -46 -125 -95 -150 -110 -25 -15 -81 -56 -125
-92 -44 -36 -111 -89 -150 -119 -38 -29 -115 -100 -170 -157 -186 -192 -217
-242 -190 -306 34 -80 100 -117 199 -112 83 5 260 -10 321 -26 28 -8 106 -19
175 -25 69 -6 168 -15 220 -20 52 -5 124 -13 160 -19 36 -5 121 -12 190 -16
69 -3 181 -12 250 -20 69 -8 149 -15 177 -15 29 0 71 -7 94 -17 35 -14 70 -15
243 -11 110 3 284 3 384 -1 181 -6 184 -6 203 -31 36 -47 41 -51 55 -46 10 4
11 0 4 -20 -6 -14 -7 -64 -4 -112 l6 -87 -36 -17 c-27 -13 -37 -26 -45 -55 -6
-21 -19 -55 -30 -75 -17 -34 -20 -36 -32 -21 -8 9 -33 25 -56 35 -56 25 -109
11 -168 -43 -50 -46 -109 -161 -120 -234 -7 -49 -7 -49 -20 -24 -20 36 -82 62
-142 58 l-50 -4 21 63 21 64 -21 36 c-12 20 -37 47 -55 60 -41 29 -68 26 -194
-18 -100 -34 -87 -38 -135 41 -32 52 -65 69 -137 69 -64 0 -120 -22 -213 -84
-257 -169 -370 -296 -492 -554 -32 -68 -58 -129 -58 -136 0 -8 -10 -35 -21
-62 -17 -38 -22 -67 -21 -137 l1 -89 -52 -61 c-93 -108 -169 -191 -226 -248
-89 -88 -184 -197 -199 -227 -8 -15 -28 -41 -44 -59 -29 -30 -62 -73 -148
-195 -22 -31 -81 -126 -131 -210 -50 -83 -99 -164 -109 -178 -86 -126 -189
-342 -266 -557 -18 -51 -35 -97 -38 -102 -4 -5 -21 -67 -40 -138 -19 -70 -39
-141 -44 -158 -24 -69 -55 -259 -64 -380 -10 -145 -4 -371 11 -425 6 -19 19
-73 30 -120 31 -134 45 -178 95 -293 62 -144 109 -234 148 -287 18 -23 42 -55
53 -70 63 -84 257 -243 376 -308 30 -16 83 -45 119 -65 121 -67 369 -157 500
-182 134 -26 171 -35 181 -41 6 -3 77 -16 157 -28 225 -32 632 -25 784 15 27
7 51 10 54 7 3 -4 1 -23 -5 -45 -6 -21 -16 -108 -22 -193 -6 -89 -17 -166 -25
-181 -17 -35 -34 -171 -34 -289 -1 -63 -5 -103 -15 -120 -8 -14 -14 -41 -15
-60 0 -19 -7 -57 -15 -84 -8 -27 -15 -75 -15 -107 0 -32 -7 -76 -15 -96 -9
-23 -19 -104 -25 -208 -16 -258 -28 -396 -39 -440 -14 -57 -25 -192 -26 -325
-1 -84 -6 -125 -18 -152 -13 -29 -17 -67 -17 -172 0 -74 -4 -137 -9 -140 -5
-4 -31 -9 -58 -12 -26 -3 -64 -11 -83 -19 -19 -7 -66 -23 -105 -35 -98 -31
-196 -79 -293 -143 -83 -55 -211 -169 -248 -220 l-20 -28 -37 53 c-60 87 -278
278 -372 325 -22 11 -89 46 -149 77 -71 36 -121 56 -144 56 -19 0 -55 6 -81
14 -160 50 -233 61 -416 61 -227 0 -345 -23 -490 -97 -22 -11 -62 -32 -90 -45
-27 -14 -60 -35 -73 -46 -19 -18 -57 -36 -114 -54 -18 -5 -105 17 -170 44 -31
13 -47 14 -94 4 -32 -6 -82 -11 -112 -11 -173 0 -477 -225 -574 -424 -12 -25
-26 -46 -30 -46 -5 0 -37 24 -72 54 -78 66 -168 127 -263 177 -40 21 -83 45
-95 52 -13 8 -44 22 -70 32 -26 10 -52 23 -58 30 -14 17 -42 203 -35 235 3 14
1 40 -4 59 -9 30 -7 37 28 80 110 133 169 304 178 519 6 135 -6 224 -42 325
-14 38 -13 40 30 118 25 44 59 98 76 120 31 39 116 205 143 277 8 20 23 60 34
87 34 84 76 266 93 405 14 114 5 374 -17 505 -42 251 -103 510 -155 660 -6 17
-16 44 -21 60 -6 17 -19 50 -29 75 -10 25 -24 67 -29 94 -6 27 -15 58 -21 68
-14 27 -70 184 -115 323 -49 152 -74 224 -94 265 -10 19 -23 60 -30 90 -7 30
-18 66 -25 80 -45 86 -85 186 -85 209 0 15 -16 60 -35 101 -20 40 -44 103 -54
139 -10 36 -28 83 -41 103 -12 21 -27 59 -34 85 -7 27 -22 71 -34 98 -11 28
-27 70 -35 95 -7 25 -55 168 -105 318 -51 150 -92 280 -92 288 0 9 -13 46 -30
84 -16 38 -30 78 -30 90 0 11 -14 53 -30 93 -17 39 -34 92 -37 117 -3 25 -19
77 -35 115 -16 39 -36 95 -44 125 -8 30 -21 71 -28 90 -21 52 -46 137 -46 154
0 9 -9 35 -19 58 -11 24 -27 79 -36 123 -21 95 -81 288 -159 510 -13 39 -54
127 -90 198 -38 73 -60 127 -53 128 169 11 313 34 387 62 131 48 290 146 361
223 160 173 163 177 143 216 -16 30 -50 44 -85 33 -30 -10 -116 -91 -145 -136
-50 -80 -312 -229 -403 -229 -25 0 -82 -7 -126 -14 -49 -9 -105 -12 -145 -8
l-65 7 -28 50 c-20 37 -26 58 -22 83 6 30 1 38 -43 80 -45 43 -91 102 -80 102
3 0 39 -16 80 -35 191 -88 249 -107 344 -112 l92 -6 118 52 c157 68 210 101
318 199 50 45 112 94 138 108 63 36 75 66 53 135 -39 118 -114 131 -169 29
-28 -51 -97 -116 -148 -138 -99 -43 -266 -56 -370 -28 -135 36 -261 119 -323
211 -63 96 -205 210 -340 275 -88 43 -92 44 -195 44 -71 0 -122 -5 -159 -17
-47 -15 -52 -15 -40 -1 19 23 134 79 203 98 57 17 62 17 145 -4 81 -21 157
-52 203 -84 32 -22 158 -137 197 -179 42 -45 154 -117 228 -146 85 -33 218
-47 303 -32 156 28 304 134 363 259 29 62 29 65 14 98 -21 42 -69 69 -98 54
-22 -12 -59 -67 -59 -88 0 -7 -15 -37 -34 -66 -29 -45 -45 -59 -110 -91 l-77
-38 -103 5 c-97 5 -109 8 -184 47 -53 28 -112 71 -175 129 -52 48 -116 106
-144 128 -57 49 -202 124 -237 124 -13 0 -41 7 -61 16 -143 59 -461 -75 -604
-256 -46 -58 -41 -62 -121 80 -96 170 -180 259 -327 348 -147 88 -352 126
-479 87 -27 -8 -65 -15 -84 -15 -19 0 -51 -5 -70 -10 -19 -6 -66 -17 -105 -24
-125 -25 -233 -63 -293 -105 -31 -22 -75 -47 -97 -56 -29 -11 -68 -46 -135
-121 -109 -122 -119 -137 -120 -182 -1 -102 95 -121 140 -28 31 64 86 123 136
145 40 18 94 64 94 81 0 10 199 102 240 111 19 4 49 12 65 17 103 35 248 56
380 56 90 0 107 -4 176 -33 77 -33 199 -126 246 -188 l25 -32 -72 36 c-40 19
-84 39 -99 43 -14 5 -51 18 -81 30 -78 31 -113 38 -211 46 -139 11 -272 -10
-381 -58 -220 -97 -365 -215 -491 -396 -82 -117 -87 -126 -121 -204 -30 -70
-24 -159 13 -189 13 -11 17 -20 11 -24 -6 -3 -20 -25 -31 -47 -24 -48 -20 -74
22 -137 68 -103 144 -108 200 -14 32 54 120 143 223 226 69 56 98 72 135 78
50 8 161 2 201 -11 14 -4 32 -10 41 -13 13 -4 4 -19 -42 -69 -32 -34 -73 -87
-91 -116 -18 -29 -66 -104 -106 -165 -78 -120 -232 -423 -232 -456 0 -21 -10
-50 -74 -204 -20 -48 -36 -98 -36 -110 0 -12 -11 -46 -25 -75 -14 -30 -25 -62
-25 -71 0 -9 -16 -55 -36 -101 -49 -115 -63 -152 -64 -170 0 -8 -14 -49 -31
-90 -17 -41 -41 -109 -54 -150 -13 -41 -34 -106 -48 -145 -39 -113 -84 -255
-102 -325 -9 -35 -32 -104 -51 -152 -19 -48 -42 -114 -50 -145 -8 -32 -23 -76
-33 -98 -20 -42 -51 -119 -69 -170 -13 -38 -52 -135 -63 -158 -5 -9 -16 -39
-25 -65 -9 -26 -24 -65 -34 -87 -10 -22 -26 -60 -35 -85 -10 -25 -36 -85 -58
-135 -22 -49 -51 -115 -64 -145 -13 -30 -48 -104 -78 -165 -30 -60 -70 -148
-91 -195 -32 -72 -83 -184 -174 -375 -10 -22 -28 -60 -39 -85 -10 -25 -40 -90
-65 -146 -25 -56 -46 -107 -46 -115 0 -8 -12 -34 -26 -58 -13 -25 -43 -92 -65
-150 -37 -97 -68 -170 -120 -289 -11 -23 -19 -49 -19 -56 0 -7 -11 -38 -24
-67 -14 -30 -28 -76 -32 -104 -3 -27 -12 -61 -19 -75 -7 -14 -16 -52 -20 -85
-4 -33 -16 -91 -26 -130 -10 -38 -19 -100 -19 -137 0 -37 -5 -79 -10 -94 -23
-61 -23 -204 0 -324 12 -63 26 -151 30 -195 8 -75 13 -98 46 -185 7 -19 18
-55 24 -80 11 -44 55 -149 128 -300 42 -88 159 -267 213 -327 l38 -42 -14 -42
c-8 -23 -15 -57 -15 -75 0 -18 -6 -53 -14 -76 -47 -144 -39 -342 22 -518 43
-124 44 -161 9 -240 -8 -19 -18 -70 -22 -113 -4 -42 -12 -80 -19 -84 -6 -4
-76 -11 -156 -14 -118 -6 -166 -13 -255 -38 -60 -17 -122 -31 -137 -31 -55 0
-334 -150 -380 -204 l-26 -31 -53 60 c-141 159 -241 252 -332 307 -52 31 -107
60 -123 64 -46 12 -126 49 -176 83 -54 36 -179 81 -227 81 -42 0 -149 28 -176
47 -11 7 -30 13 -42 13 -13 0 -49 9 -80 20 -42 15 -83 20 -153 20 -66 0 -117
6 -161 19 -102 30 -239 42 -424 37 -329 -9 -413 -21 -621 -88 -33 -10 -85 -25
-115 -33 -30 -7 -80 -20 -111 -28 -32 -8 -68 -21 -80 -29 -13 -8 -49 -24 -80
-36 -60 -22 -367 -200 -405 -234 l-22 -20 -6 183 c-9 267 -9 436 0 874 4 215
11 622 16 905 5 283 14 551 20 595 28 199 32 270 29 515 -2 121 2 189 15 254
10 54 14 106 10 135 -4 31 -1 60 9 90 9 24 16 66 16 93 0 40 10 68 59 161 32
62 62 122 65 135 4 12 28 59 53 105 25 45 76 141 113 212 87 168 111 212 143
259 15 21 27 45 27 52 0 8 14 33 30 56 17 22 30 48 30 57 0 9 24 61 54 116 30
55 68 128 85 163 16 34 38 75 49 90 10 15 45 77 76 137 32 61 87 153 122 206
35 53 64 99 64 104 0 19 258 536 332 665 33 58 78 143 101 190 22 47 49 97 58
111 10 14 123 234 252 490 129 255 248 488 265 516 17 29 49 88 70 130 22 43
54 107 73 143 19 36 49 99 68 140 18 41 64 138 101 215 37 77 89 187 115 245
26 58 52 114 58 125 26 46 247 497 247 502 0 4 36 81 79 172 44 91 92 198 106
236 15 39 37 88 50 110 12 22 25 54 29 70 4 17 39 102 78 190 38 88 79 184 90
215 36 100 70 185 89 222 10 20 26 56 35 80 61 164 77 208 86 243 5 22 25 81
43 130 62 172 125 366 164 500 21 75 51 136 71 146 41 20 202 118 250 153 78
57 189 170 239 244 46 68 151 278 151 301 0 8 9 44 21 80 11 36 26 86 34 111
59 201 37 420 -51 489 -35 28 -100 44 -145 37 l-36 -6 -7 63 c-8 76 -49 163
-88 183 -49 26 -118 18 -199 -23 -45 -22 -74 -32 -77 -25 -9 28 -51 79 -81 99
-73 49 -183 16 -270 -83 -36 -41 -131 -214 -131 -240 0 -5 -4 -15 -9 -23 -8
-12 -16 -8 -47 18 -79 70 -158 79 -253 32 -69 -36 -114 -84 -152 -166 -52
-113 -74 -333 -45 -460 7 -33 19 -94 25 -135 7 -41 20 -91 28 -110 8 -19 28
-75 43 -125 39 -126 64 -189 89 -224 26 -37 27 -79 1 -139 -11 -26 -29 -81
-40 -122 -11 -41 -37 -127 -58 -190 -22 -63 -69 -207 -106 -319 -37 -113 -74
-214 -82 -225 -8 -11 -14 -29 -14 -40 0 -11 -15 -54 -34 -96 -18 -41 -39 -91
-46 -110 -56 -158 -117 -315 -151 -388 -16 -34 -29 -68 -29 -75 0 -7 -11 -32
-24 -57 -13 -25 -33 -72 -44 -105 -17 -53 -85 -208 -197 -455 -72 -158 -94
-208 -135 -305 -44 -104 -94 -214 -160 -350 -21 -44 -54 -116 -73 -160 -98
-222 -133 -298 -177 -390 -27 -55 -75 -156 -106 -225 -31 -69 -74 -162 -95
-208 -22 -45 -39 -85 -39 -88 0 -3 -29 -65 -64 -137 -35 -73 -83 -176 -106
-231 -22 -54 -68 -154 -101 -222 -32 -68 -59 -126 -59 -129 0 -3 -45 -97 -99
-208 -55 -111 -107 -222 -117 -247 -10 -25 -30 -65 -45 -90 -14 -25 -35 -67
-45 -95 -10 -27 -49 -107 -86 -177 -37 -71 -70 -139 -74 -152 -3 -13 -46 -104
-95 -202 -49 -98 -87 -170 -83 -159 48 138 64 192 64 217 0 16 11 57 24 91 13
34 29 85 35 112 6 28 21 84 32 125 21 76 48 196 70 305 6 33 22 107 36 165 13
58 31 137 39 175 9 39 20 88 26 110 5 22 14 63 20 90 5 28 19 75 30 105 19 53
25 75 47 190 6 30 17 73 25 95 8 22 15 54 16 70 0 17 9 63 20 103 11 39 20 87
20 106 0 18 6 51 14 72 7 22 19 73 26 114 15 93 86 401 105 455 7 22 16 72 19
111 3 39 13 90 21 114 8 23 15 68 15 99 1 31 7 74 15 96 8 22 17 60 20 85 7
50 32 169 46 216 5 17 9 46 9 65 0 44 18 175 36 261 8 37 14 87 14 112 0 25 4
56 10 70 14 37 25 135 86 731 8 77 18 193 24 258 5 65 13 123 16 129 12 20 35
288 38 448 2 85 8 286 14 445 5 160 8 405 6 545 -3 140 -5 322 -5 403 0 99 -5
164 -15 195 -7 26 -14 81 -14 123 0 50 -7 96 -20 134 -11 32 -20 79 -20 103 0
25 -7 73 -16 106 -53 204 -123 433 -152 500 -12 27 -22 57 -22 67 0 19 -141
301 -164 329 -7 8 -29 44 -49 80 -46 84 -234 276 -345 354 -117 82 -277 151
-370 160 -40 4 -87 13 -105 20 -53 22 -137 26 -182 9z m190 -158 c329 -65 495
-187 722 -529 40 -60 73 -116 73 -123 0 -7 13 -37 29 -66 16 -28 46 -92 66
-142 20 -49 47 -115 60 -145 45 -110 100 -318 115 -435 6 -49 20 -124 31 -165
31 -125 61 -775 48 -1080 -5 -113 -6 -246 -2 -296 3 -57 2 -103 -6 -125 -6
-21 -12 -115 -12 -234 -1 -110 -6 -218 -10 -240 -11 -46 -31 -286 -34 -395 -2
-41 -8 -109 -14 -150 -13 -86 -56 -435 -76 -620 -28 -249 -36 -305 -46 -329
-5 -13 -12 -54 -15 -90 -3 -36 -12 -83 -20 -104 -8 -20 -14 -65 -14 -100 0
-34 -5 -80 -11 -102 -5 -22 -16 -85 -24 -140 -20 -141 -32 -201 -43 -222 -5
-10 -13 -47 -17 -83 -4 -36 -13 -87 -21 -114 -8 -27 -14 -68 -14 -92 0 -23 -7
-61 -15 -84 -8 -23 -15 -55 -15 -71 0 -16 -7 -46 -15 -66 -8 -21 -19 -67 -24
-103 -6 -36 -15 -87 -21 -115 -7 -27 -27 -113 -45 -190 -18 -77 -40 -176 -49
-220 -10 -44 -22 -100 -28 -125 -6 -25 -14 -66 -19 -92 -4 -26 -12 -56 -18
-67 -6 -11 -11 -33 -11 -50 0 -17 -6 -48 -14 -68 -8 -21 -17 -58 -21 -83 -3
-25 -12 -65 -20 -90 -18 -57 -44 -169 -56 -239 -6 -29 -18 -79 -28 -110 -10
-31 -22 -82 -26 -114 -4 -32 -13 -74 -21 -92 -8 -19 -14 -49 -14 -68 0 -18
-14 -75 -30 -126 -17 -52 -33 -121 -37 -155 -3 -33 -18 -91 -34 -128 -16 -36
-29 -75 -29 -85 -1 -10 -7 -29 -15 -43 -8 -14 -14 -35 -15 -48 0 -12 -16 -55
-35 -95 -19 -39 -35 -77 -35 -83 0 -5 -19 -57 -41 -115 -23 -57 -47 -124 -54
-149 -25 -84 -86 -254 -111 -305 -13 -29 -24 -58 -24 -64 0 -7 -25 -50 -54
-96 -54 -81 -106 -135 -130 -135 -7 0 -32 -13 -57 -29 -24 -16 -60 -32 -79
-36 -19 -4 -59 -20 -90 -35 -60 -31 -135 -49 -250 -60 -41 -4 -88 -12 -103
-19 -35 -14 -91 -14 -137 -1 -19 6 -105 11 -190 11 -101 0 -168 5 -195 14 -22
7 -62 16 -90 20 -27 4 -63 12 -80 20 -84 37 -107 45 -123 45 -33 0 -181 58
-244 95 -67 41 -138 102 -138 120 0 6 -13 29 -30 51 -16 21 -30 50 -30 64 0
14 -9 45 -20 69 -11 24 -20 55 -20 69 0 15 -6 44 -14 67 -18 51 -36 171 -36
236 0 27 -7 65 -15 85 -9 21 -19 104 -26 212 -6 97 -17 195 -24 217 -9 28 -12
87 -9 200 3 88 7 318 10 510 3 193 7 377 10 410 2 33 6 143 9 245 2 102 7 241
10 310 4 69 8 175 10 235 3 61 9 137 14 170 6 33 15 156 21 273 7 117 16 227
21 245 5 17 14 121 19 230 5 108 11 201 15 206 3 5 8 70 11 143 3 73 11 176
19 228 7 52 16 129 20 170 3 41 10 98 16 125 5 28 13 111 19 186 5 74 14 148
21 165 6 16 15 74 20 129 13 166 28 287 44 350 9 33 19 89 24 125 18 135 55
349 80 460 6 25 14 74 19 110 11 78 37 211 59 300 8 36 19 88 23 115 4 28 15
77 24 110 9 32 16 81 16 108 0 26 5 57 11 68 5 11 14 43 19 72 11 61 44 213
59 277 25 101 31 132 31 168 1 20 8 55 16 77 9 22 20 63 25 90 5 28 18 79 28
115 11 36 26 97 34 135 13 62 59 206 119 375 11 30 35 87 53 125 18 39 36 83
40 99 10 45 72 201 95 238 11 18 20 44 20 58 0 26 142 242 237 362 181 227
426 387 663 436 41 8 104 23 140 33 36 10 79 16 95 13 17 -3 62 -12 100 -19z
m-3788 -607 c35 -38 90 -224 97 -328 6 -71 14 -106 37 -151 43 -86 128 -55
170 62 24 64 77 142 110 159 52 28 95 -28 115 -150 12 -80 12 -94 -1 -126 -8
-20 -15 -61 -15 -91 0 -104 -91 -328 -171 -421 -16 -18 -36 -47 -45 -65 -9
-17 -32 -50 -49 -72 -18 -22 -45 -64 -59 -93 -17 -34 -39 -61 -62 -74 -60 -35
-74 -78 -64 -191 5 -53 12 -248 16 -433 3 -186 10 -349 15 -362 5 -13 9 -74
10 -135 0 -62 5 -139 9 -172 5 -33 14 -130 19 -216 5 -85 16 -184 24 -220 9
-35 18 -131 22 -214 3 -82 15 -195 26 -250 10 -55 23 -170 28 -256 5 -86 14
-166 21 -179 7 -12 16 -75 20 -139 4 -64 13 -129 19 -146 7 -16 14 -74 17
-130 3 -55 10 -113 16 -130 6 -16 14 -59 18 -95 12 -97 30 -191 40 -211 6 -10
10 -37 10 -60 0 -24 6 -70 14 -103 27 -119 36 -168 36 -203 0 -19 7 -65 16
-101 31 -133 37 -158 50 -222 26 -130 36 -176 45 -210 32 -127 42 -169 49
-200 4 -19 13 -55 19 -80 6 -25 22 -92 36 -150 28 -117 41 -174 57 -240 6 -25
14 -81 18 -125 4 -53 14 -95 29 -124 13 -24 27 -76 33 -114 5 -39 23 -110 39
-158 16 -48 29 -102 29 -120 0 -38 40 -202 64 -264 8 -22 15 -55 16 -72 0 -18
11 -63 25 -100 14 -37 28 -90 30 -118 5 -46 23 -116 76 -281 10 -33 19 -75 19
-93 0 -17 8 -48 19 -69 10 -20 24 -64 30 -97 7 -33 18 -78 26 -100 7 -22 23
-87 36 -145 12 -58 31 -122 41 -142 10 -21 18 -52 18 -70 1 -18 7 -44 15 -58
8 -14 14 -40 15 -57 0 -18 6 -50 14 -70 20 -54 43 -141 51 -188 3 -22 16 -70
27 -107 19 -58 20 -72 9 -105 -7 -21 -14 -85 -16 -143 -2 -58 -6 -117 -8 -132
-3 -16 -6 -43 -7 -60 -2 -31 -3 -30 -16 17 -25 86 -42 138 -65 195 -12 30 -24
78 -28 106 -4 28 -14 63 -24 77 -9 15 -17 36 -17 47 0 11 -13 50 -30 87 -16
36 -30 75 -30 87 0 12 -9 49 -21 81 -12 33 -30 92 -40 130 -49 183 -89 316
-99 334 -6 11 -15 44 -20 73 -6 29 -19 82 -30 118 -23 77 -57 210 -75 300 -14
65 -34 133 -60 200 -8 19 -17 55 -21 79 -3 25 -19 82 -35 128 -16 46 -29 96
-29 111 0 16 -7 37 -15 48 -8 10 -14 30 -15 44 0 40 -30 168 -60 260 -16 47
-33 110 -39 140 -11 55 -29 134 -50 220 -6 25 -18 79 -26 120 -30 139 -46 205
-66 258 -10 29 -19 66 -19 81 0 16 -11 53 -24 82 -15 33 -27 84 -31 133 -4 43
-13 93 -21 112 -8 18 -14 51 -14 73 0 22 -9 63 -20 91 -11 28 -20 67 -20 86 0
19 -6 47 -14 62 -7 15 -16 52 -20 82 -7 51 -15 87 -51 215 -7 28 -21 93 -30
145 -9 52 -28 131 -42 175 -36 117 -55 206 -89 400 -9 55 -23 122 -30 149 -8
27 -14 75 -14 105 0 31 -5 74 -11 96 -22 82 -41 172 -54 254 -8 46 -23 121
-35 167 -11 45 -20 102 -20 126 0 24 -7 81 -15 128 -8 47 -15 107 -15 134 0
27 -6 72 -14 100 -8 28 -20 107 -25 176 -6 69 -18 147 -26 174 -9 29 -15 88
-15 141 0 53 -6 113 -15 141 -8 27 -15 85 -15 129 -1 44 -7 98 -15 120 -8 22
-15 76 -16 120 0 44 -4 118 -9 165 -5 47 -16 202 -25 344 -9 142 -20 268 -26
278 -6 10 -32 32 -58 48 -55 34 -127 114 -194 217 -25 39 -63 84 -82 99 -20
15 -48 48 -62 73 -15 25 -36 60 -48 76 -65 92 -100 247 -98 435 1 179 40 260
123 260 43 0 81 -35 100 -93 12 -40 78 -117 99 -117 7 0 24 12 38 26 24 24 25
30 19 97 -9 108 6 225 35 269 33 51 63 64 89 38 24 -24 60 -94 60 -117 0 -66
48 -143 90 -143 37 0 70 44 70 94 0 52 52 195 77 214 26 18 57 15 80 -10z
m7281 -830 c17 -17 15 -128 -2 -170 -13 -30 -12 -38 6 -80 38 -89 80 -73 161
60 85 142 147 188 178 131 13 -26 3 -157 -16 -203 -14 -34 -35 -118 -35 -141
0 -24 37 -55 65 -55 18 0 51 24 111 81 99 93 126 100 156 39 32 -64 17 -237
-30 -358 -26 -65 -41 -109 -57 -162 -57 -198 -228 -398 -450 -528 -38 -22 -89
-45 -112 -51 -52 -14 -93 -60 -93 -104 0 -39 -39 -167 -68 -222 -11 -23 -23
-59 -27 -80 -3 -22 -19 -74 -35 -115 -16 -41 -32 -93 -35 -115 -4 -22 -23 -83
-43 -135 -19 -52 -50 -136 -68 -187 -18 -50 -44 -116 -58 -146 -14 -30 -26
-62 -26 -71 0 -9 -7 -31 -16 -48 -22 -42 -74 -171 -74 -182 0 -9 -83 -209
-121 -292 -11 -22 -19 -46 -19 -53 0 -8 -18 -46 -39 -85 -22 -39 -65 -134 -96
-211 -31 -77 -69 -160 -85 -185 -15 -25 -31 -56 -35 -70 -4 -14 -18 -43 -30
-65 -13 -22 -41 -85 -64 -140 -23 -55 -50 -116 -61 -135 -10 -19 -46 -89 -80
-155 -33 -66 -67 -131 -75 -145 -27 -50 -75 -156 -90 -199 -8 -24 -46 -101
-83 -170 -38 -69 -92 -182 -121 -251 -74 -177 -77 -184 -196 -374 -20 -32 -43
-74 -50 -95 -7 -20 -31 -73 -54 -117 -23 -45 -41 -87 -41 -93 0 -7 -11 -27
-24 -44 -12 -18 -68 -122 -123 -232 -119 -238 -232 -455 -245 -472 -5 -6 -26
-44 -47 -85 -117 -228 -208 -401 -241 -458 -58 -100 -140 -268 -141 -287 0
-10 -32 -67 -69 -128 -38 -60 -94 -159 -124 -220 -30 -60 -80 -155 -111 -210
-175 -308 -207 -367 -236 -435 -17 -41 -39 -86 -49 -100 -10 -14 -28 -45 -40
-70 -12 -25 -39 -70 -59 -100 -21 -30 -64 -107 -97 -170 l-59 -114 -6 149 c-4
114 -2 160 8 190 8 22 20 63 27 90 7 30 41 93 82 155 38 58 94 154 125 215 31
60 68 133 82 160 43 82 227 465 227 472 0 7 125 268 141 293 20 34 119 237
119 246 0 5 22 54 50 109 163 329 201 408 221 461 12 32 31 72 41 89 10 16 18
37 18 45 0 8 29 73 64 145 35 71 71 150 81 175 9 25 26 61 37 80 24 44 35 69
89 198 23 56 59 130 79 162 21 33 45 79 55 103 10 23 30 69 45 102 15 33 31
71 35 85 9 28 106 244 165 365 45 93 147 324 165 375 7 20 24 53 39 74 14 21
26 45 26 52 0 8 15 46 34 86 31 65 67 152 114 273 9 22 52 119 97 215 139 296
145 310 145 321 0 6 18 45 40 86 22 42 40 83 40 92 0 21 34 110 65 172 14 26
25 55 25 63 0 8 22 63 50 121 27 58 57 129 66 158 16 52 30 91 64 177 31 77
67 182 90 260 12 41 31 98 42 125 12 28 29 79 38 115 10 36 23 81 30 100 6 19
16 49 22 65 5 17 27 81 49 143 21 62 39 122 39 133 0 11 9 37 20 59 29 56 26
72 -25 131 -25 30 -52 74 -59 99 -7 25 -25 73 -40 107 -14 34 -26 74 -26 88 0
14 -7 39 -15 55 -8 16 -19 69 -25 117 -5 48 -16 110 -25 137 -21 68 -19 161 5
231 11 32 20 69 20 82 0 24 67 105 103 125 50 27 117 -72 117 -172 0 -77 15
-115 51 -130 61 -26 108 22 125 125 3 22 19 66 35 99 16 32 31 75 35 95 11 61
70 177 114 225 43 46 75 57 98 34z m13257 -1512 c196 -15 275 -32 347 -76 18
-11 42 -20 53 -20 30 0 156 -91 188 -136 22 -31 27 -47 23 -78 -8 -72 21 -102
95 -94 29 3 35 -1 56 -37 13 -22 29 -60 37 -85 8 -25 33 -97 54 -160 22 -63
48 -149 57 -190 10 -41 24 -93 32 -115 8 -22 17 -89 20 -150 3 -62 12 -122 20
-137 18 -37 21 -473 3 -568 -6 -35 -15 -121 -20 -190 -5 -69 -16 -174 -24
-235 -9 -60 -16 -127 -16 -148 0 -21 -5 -48 -12 -60 -6 -12 -15 -60 -19 -107
-17 -177 -29 -271 -37 -288 -5 -9 -12 -66 -16 -127 -4 -60 -12 -139 -17 -175
-13 -78 -27 -197 -40 -340 -5 -58 -14 -134 -19 -170 -15 -96 -32 -336 -35
-490 -2 -74 -4 -144 -5 -155 0 -11 -1 -240 0 -510 1 -269 -4 -575 -10 -680 -6
-104 -8 -219 -5 -255 12 -122 14 -295 4 -380 -18 -150 -33 -393 -29 -475 7
-168 -4 -543 -20 -625 -5 -30 -12 -100 -13 -154 -4 -98 -4 -99 -33 -115 -17
-9 -49 -37 -72 -62 -23 -25 -67 -58 -99 -73 -32 -16 -72 -39 -90 -52 -17 -13
-38 -24 -45 -24 -7 -1 -38 -14 -68 -30 -30 -17 -67 -30 -83 -30 -15 0 -53 -9
-84 -20 -65 -23 -161 -26 -244 -9 -30 7 -68 11 -85 10 -50 -2 -177 44 -258 94
-41 25 -85 49 -98 54 -37 15 -172 136 -226 204 -46 57 -95 139 -129 212 -8 17
-21 44 -30 60 -61 114 -132 293 -144 365 -4 25 -19 79 -32 120 -27 82 -41 134
-62 225 -7 33 -19 74 -25 90 -6 16 -18 66 -26 110 -9 44 -22 105 -30 135 -8
30 -14 79 -14 110 -1 30 -7 66 -15 80 -8 15 -15 54 -15 95 0 39 -7 106 -15
150 -8 44 -15 109 -15 145 -1 36 -8 83 -16 105 -10 27 -18 111 -24 250 -6 116
-15 233 -21 260 -6 28 -12 115 -13 195 l-1 145 39 60 c21 33 51 74 67 90 30
32 159 291 159 319 0 10 5 26 10 36 6 11 15 43 20 72 6 29 20 72 32 96 33 69
38 301 8 369 -49 110 -143 157 -237 118 -19 -8 -37 -15 -39 -15 -2 0 -4 33 -4
73 0 95 -28 193 -72 253 -35 48 -36 52 -43 169 -13 211 -68 280 -249 311 -76
13 -354 37 -421 37 -16 0 -87 3 -157 8 -86 6 -162 5 -233 -3 -104 -11 -184 -7
-415 22 -41 5 -187 14 -325 20 -137 7 -266 16 -285 21 -19 5 -107 14 -195 20
-88 5 -209 16 -270 24 -60 8 -129 15 -152 15 -109 0 21 46 159 57 86 6 89 5
113 -21 35 -38 67 -33 189 29 59 30 116 55 127 55 28 0 71 25 89 51 8 12 27
36 41 53 52 62 58 95 18 116 -35 19 -60 10 -111 -41 -41 -41 -55 -49 -74 -45
-29 8 -56 -5 -106 -50 -75 -67 -153 -62 -193 13 -14 26 -32 42 -58 52 -43 16
-67 8 -162 -53 -103 -66 -323 -138 -309 -101 10 25 223 223 308 285 49 36 115
85 147 110 398 308 530 396 794 531 55 28 116 64 135 79 19 15 80 50 135 78
55 28 156 83 225 122 69 38 222 118 340 177 118 58 254 128 302 154 48 27 138
71 200 99 206 92 609 311 773 420 127 85 251 140 312 140 48 0 58 4 86 32 20
20 61 42 112 60 125 45 136 48 205 58 91 13 161 27 190 39 32 13 16 13 235 -3z
m14083 -1948 c21 -21 14 -63 -13 -78 -36 -19 -75 0 -75 38 0 35 16 52 50 52
14 0 31 -5 38 -12z m-24586 -289 c108 -17 321 -109 359 -156 9 -10 -2 -6 -26
9 -65 41 -131 66 -239 93 -127 31 -184 31 -305 0 -255 -68 -417 -181 -610
-428 -29 -37 -55 -66 -57 -64 -7 7 16 60 35 82 10 11 35 49 56 85 74 125 240
268 357 309 29 11 74 28 99 40 39 17 136 34 236 40 13 0 55 -4 95 -10z m24678
-60 c47 -22 105 -51 130 -64 25 -13 88 -40 140 -60 52 -20 132 -55 178 -76 46
-21 85 -39 88 -39 2 0 32 -13 67 -30 34 -16 123 -55 197 -86 74 -31 177 -76
227 -100 51 -24 100 -44 110 -44 10 0 38 -12 63 -26 25 -14 97 -48 160 -76 63
-27 151 -67 195 -89 45 -21 87 -39 94 -39 7 0 39 -13 70 -29 128 -67 378 -189
401 -196 22 -6 361 -173 484 -239 27 -14 56 -26 65 -26 9 0 48 -18 86 -41 38
-22 110 -59 158 -82 103 -47 104 -44 -49 -95 -49 -17 -115 -41 -145 -55 -56
-25 -103 -43 -154 -57 -43 -12 -182 -59 -235 -80 -25 -9 -92 -32 -150 -49 -58
-18 -121 -39 -140 -46 -98 -35 -161 -61 -217 -87 -35 -16 -92 -38 -128 -48
-37 -10 -103 -32 -148 -48 -124 -45 -180 -62 -198 -62 -9 0 -47 -15 -85 -34
-38 -18 -78 -36 -89 -39 -20 -6 -50 -17 -155 -57 -30 -12 -93 -32 -140 -45
-47 -13 -119 -38 -160 -55 -41 -17 -88 -35 -105 -40 -60 -17 -123 -39 -141
-48 -11 -6 -70 -27 -133 -47 -63 -20 -141 -49 -175 -65 -125 -58 -170 -75
-378 -146 -15 -5 -17 0 -13 42 2 27 7 139 10 249 2 110 9 225 14 255 6 30 12
145 15 255 3 110 7 225 11 255 3 30 10 156 15 280 16 383 40 823 47 870 4 25
7 72 8 105 1 178 6 275 12 275 4 0 46 -18 93 -41z m-24565 -127 l60 -20 -85
-1 c-47 -1 -120 -8 -163 -16 -43 -8 -80 -15 -82 -15 -2 0 -21 -15 -44 -34 -38
-32 -130 -73 -213 -94 -35 -10 -149 -89 -165 -115 -11 -17 -203 -181 -203
-172 0 15 45 94 81 143 33 43 45 52 70 52 36 0 89 47 89 79 0 12 4 21 9 21 6
0 27 16 48 36 58 54 117 85 238 127 104 35 115 37 205 33 56 -3 120 -13 155
-24z m1149 -58 c33 -9 68 -22 76 -29 8 -7 33 -22 55 -33 36 -18 154 -131 251
-241 129 -146 289 -210 584 -234 35 -3 35 -3 -33 -36 -66 -32 -72 -33 -160
-29 -228 13 -440 143 -577 354 -22 34 -69 89 -104 121 -63 59 -87 72 -216 111
-48 14 -52 17 -30 23 42 12 89 10 154 -7z m-1057 -104 c-37 -10 -76 -24 -85
-32 -16 -13 -87 -48 -98 -48 -3 0 -3 4 0 9 17 27 -36 69 -91 73 -37 3 149 14
257 15 l85 2 -68 -19z m-295 -102 c43 -2 78 -5 78 -8 0 -2 -14 -19 -32 -37
-35 -37 -58 -40 -111 -18 -20 8 -47 15 -59 15 -34 0 -101 20 -93 28 12 12 89
30 115 26 14 -2 60 -5 102 -6z m543 -62 c-49 -40 -129 -75 -188 -82 -47 -6
-63 -3 -105 18 l-50 25 34 17 c19 9 45 16 57 16 12 0 42 7 67 14 25 8 83 15
130 15 l85 1 -30 -24z m265 2 c18 -20 99 -149 122 -193 49 -94 186 -254 260
-302 27 -18 68 -48 91 -66 91 -72 363 -207 418 -207 39 0 55 -19 93 -107 53
-125 77 -173 88 -173 8 0 35 -56 58 -120 35 -103 50 -149 60 -190 27 -114 63
-236 76 -261 8 -16 14 -38 14 -51 0 -21 11 -55 71 -218 12 -30 24 -75 29 -100
4 -25 13 -61 20 -80 31 -84 43 -117 56 -148 8 -18 14 -42 14 -53 0 -11 6 -32
14 -47 8 -15 17 -50 21 -77 5 -28 21 -82 36 -122 16 -39 29 -76 29 -83 0 -6
13 -41 28 -78 16 -37 32 -87 36 -112 4 -25 13 -54 20 -65 7 -11 15 -33 18 -50
6 -33 15 -61 58 -175 16 -41 33 -91 39 -110 18 -63 78 -234 96 -275 10 -22 26
-67 36 -100 10 -33 31 -96 47 -140 17 -44 44 -120 62 -170 17 -49 44 -117 60
-150 45 -95 90 -215 90 -237 0 -11 9 -37 20 -57 20 -36 38 -86 87 -236 26 -83
30 -94 107 -284 25 -62 46 -118 46 -125 0 -6 9 -42 21 -81 30 -99 77 -252 94
-305 8 -25 19 -65 25 -90 9 -42 22 -99 49 -210 20 -85 41 -215 41 -256 0 -23
7 -61 15 -84 20 -56 20 -269 1 -325 -8 -22 -17 -80 -21 -128 -10 -130 -89
-375 -158 -491 -70 -118 -142 -218 -171 -239 -17 -11 -33 -25 -35 -31 -9 -23
-221 -230 -266 -260 -153 -102 -322 -196 -352 -196 -40 1 -128 86 -208 201
-47 68 -115 195 -115 214 0 7 -13 36 -29 66 -15 30 -32 65 -36 79 -13 46 -76
203 -101 251 -13 27 -24 53 -24 60 0 10 42 104 76 170 26 50 74 184 74 205 0
12 8 41 19 65 27 63 36 331 15 415 -33 125 -86 185 -188 213 -32 8 -45 7 -77
-9 -46 -24 -49 -24 -49 -4 0 34 -81 215 -116 259 -14 16 -40 50 -57 75 -38 51
-98 90 -143 90 -37 0 -108 -50 -130 -91 -18 -35 -19 -35 -69 -4 -83 51 -177
21 -217 -70 -23 -53 -23 -53 -50 -39 -40 20 -70 17 -113 -12 -51 -34 -71 -60
-90 -116 -9 -27 -18 -48 -20 -48 -2 0 -19 21 -37 46 -39 55 -73 74 -128 74
-34 0 -40 3 -40 21 0 33 -37 92 -74 117 -61 42 -141 25 -219 -47 -24 -23 -47
-41 -51 -41 -3 0 -26 16 -51 35 -58 44 -105 53 -154 30 -95 -45 -179 -135
-197 -210 -4 -16 -21 -61 -38 -98 -34 -75 -31 -74 -112 -43 -89 33 -175 -23
-237 -152 l-42 -87 -4 -158 c-2 -125 0 -167 12 -200 9 -23 19 -60 23 -82 3
-22 12 -49 19 -60 6 -11 15 -33 19 -50 3 -16 21 -74 38 -127 l31 -97 -23 -63
c-13 -35 -33 -76 -44 -92 -12 -17 -34 -54 -51 -82 -95 -168 -192 -320 -224
-352 -20 -20 -49 -56 -65 -79 -54 -81 -186 -196 -269 -237 l-78 -39 -87 41
c-48 22 -103 47 -122 55 -20 8 -53 31 -75 51 -21 20 -69 52 -106 70 -83 41
-169 115 -215 184 -21 31 -50 60 -73 71 -85 44 -267 333 -321 510 -51 165 -72
251 -80 316 -5 39 -13 83 -19 98 -6 16 -11 47 -11 70 0 22 -5 66 -12 98 -15
72 3 360 27 434 9 28 20 75 25 105 16 109 51 284 59 295 5 5 20 42 34 80 14
39 39 106 55 151 16 44 43 100 60 123 17 23 34 60 37 83 4 23 21 74 37 112 16
39 38 92 49 118 10 26 40 89 66 140 64 124 113 233 113 250 0 7 27 62 60 121
33 60 60 112 60 117 0 5 27 66 61 137 53 112 89 190 184 398 12 28 37 80 54
118 17 37 31 71 31 76 0 6 23 57 50 115 28 58 50 108 50 112 0 4 12 37 26 73
15 36 32 89 39 116 15 58 27 94 66 190 16 39 36 93 44 120 9 28 25 73 35 100
10 28 37 111 60 185 22 74 52 169 65 210 13 41 26 89 30 105 4 17 30 95 59
175 29 80 58 163 64 185 23 81 102 311 116 335 7 14 21 50 31 80 14 48 90 236
130 325 8 17 31 68 52 115 20 47 52 110 71 140 18 30 67 113 109 184 54 93 98
152 155 212 96 100 123 109 214 71 39 -16 89 -27 147 -31 87 -6 87 -6 165 33
46 23 114 72 170 120 91 80 120 93 142 69z m570 -135 c66 -62 121 -135 135
-181 14 -47 -116 63 -226 192 l-106 123 65 -36 c36 -20 95 -64 132 -98z m7434
79 c5 -3 -3 -11 -18 -19 -14 -8 -32 -10 -39 -6 -20 12 -121 21 -139 12 -13 -7
-15 -5 -11 12 6 20 10 20 102 14 53 -4 100 -10 105 -13z m-7760 -16 c57 -43
111 -100 169 -178 83 -112 288 -258 363 -258 11 0 28 -8 36 -17 21 -25 51 -84
44 -90 -9 -9 -180 72 -256 122 -141 92 -186 133 -266 239 -138 184 -167 241
-90 182z m7858 -140 c3 -37 9 -74 12 -82 7 -18 -17 -18 -54 1 -35 18 -55 11
-76 -24 -8 -14 -12 -17 -8 -6 4 11 11 41 17 67 6 32 16 49 28 53 11 4 26 20
35 36 23 45 38 30 46 -45z m-220 -292 c10 -17 23 -69 29 -115 5 -46 15 -97 21
-112 23 -59 91 -73 122 -24 8 12 21 60 31 106 17 87 42 147 69 170 21 18 43 0
67 -54 22 -48 26 -249 8 -381 -10 -69 -9 -84 5 -112 20 -39 57 -50 91 -28 24
16 65 83 65 107 0 18 73 109 87 109 7 0 23 -15 34 -32 19 -30 20 -44 16 -163
-4 -101 -10 -140 -25 -175 -11 -25 -23 -65 -27 -90 -4 -25 -16 -62 -26 -82
-11 -21 -19 -43 -19 -50 0 -25 -72 -152 -111 -197 -23 -25 -50 -64 -61 -85
-11 -22 -36 -64 -56 -94 l-36 -53 3 -128 c1 -70 7 -145 13 -167 5 -21 14 -93
18 -159 5 -66 13 -172 19 -235 7 -63 16 -169 20 -235 5 -66 14 -133 20 -148 6
-16 11 -50 11 -78 0 -27 4 -68 10 -91 22 -102 50 -258 56 -323 3 -38 17 -102
30 -142 13 -39 24 -85 24 -101 0 -16 7 -51 16 -78 8 -27 19 -74 24 -104 4 -30
20 -89 34 -130 14 -41 26 -87 26 -103 0 -15 8 -49 19 -75 10 -26 31 -78 46
-117 14 -38 45 -108 67 -155 23 -47 65 -134 94 -195 29 -60 65 -123 81 -140
15 -16 41 -45 56 -65 104 -130 151 -167 340 -259 113 -56 212 -97 262 -110
111 -28 241 -44 300 -38 184 19 595 190 669 278 15 17 26 27 27 22 10 -108
-14 -434 -33 -446 -134 -80 -159 -92 -248 -119 -19 -5 -59 -23 -89 -39 -30
-16 -70 -29 -90 -29 -20 -1 -54 -8 -76 -16 -24 -9 -111 -19 -218 -26 -155 -10
-187 -9 -260 5 -45 10 -120 23 -167 31 -92 16 -226 65 -275 101 -16 12 -50 32
-75 43 -94 42 -306 243 -412 391 -50 70 -181 302 -193 342 -4 13 -18 44 -31
68 -13 24 -24 49 -24 56 0 7 -13 42 -28 77 -16 34 -37 95 -47 133 -10 39 -31
109 -46 156 -15 47 -32 110 -38 140 -5 30 -19 90 -31 134 -12 44 -26 107 -31
140 -6 33 -14 83 -20 110 -5 28 -19 100 -30 160 -11 61 -25 124 -31 140 -6 17
-16 86 -23 155 -8 69 -18 152 -24 185 -25 139 -31 189 -37 321 -4 77 -11 147
-16 156 -5 10 -11 64 -13 120 -3 57 -10 150 -16 207 -5 57 -7 116 -4 130 6 29
-27 172 -47 200 -7 10 -36 39 -65 65 -28 25 -65 69 -83 96 -52 82 -150 331
-150 383 0 15 -6 40 -14 55 -54 104 -63 468 -16 641 13 48 61 108 79 97 20
-13 48 -79 56 -131 25 -180 184 -154 185 31 0 116 37 210 79 202 8 -2 23 -17
33 -34z m-1295 -69 c-2 -23 -19 -62 -41 -94 -41 -61 -44 -83 -16 -111 38 -38
73 -27 155 49 70 66 125 95 232 126 30 8 41 -31 19 -72 -15 -29 -95 -113 -108
-113 -3 0 -14 -20 -23 -45 -34 -88 8 -134 86 -95 24 12 58 33 76 46 33 25 122
48 148 38 40 -16 -8 -111 -73 -147 -93 -51 -129 -58 -307 -66 -93 -4 -179 -12
-190 -18 -11 -6 -45 -14 -76 -17 -31 -4 -89 -18 -130 -32 -40 -13 -102 -31
-138 -40 -76 -17 -136 -48 -163 -84 -17 -24 -18 -29 -3 -69 8 -24 15 -55 15
-69 0 -14 16 -58 36 -99 48 -100 141 -193 254 -253 l85 -45 -60 -5 c-44 -4
-74 -14 -111 -38 -28 -18 -61 -32 -73 -32 -44 0 -100 -41 -189 -137 -115 -126
-169 -190 -238 -285 -30 -43 -65 -86 -77 -95 -12 -10 -42 -45 -66 -78 -25 -33
-57 -74 -72 -92 -15 -18 -46 -63 -69 -100 -22 -37 -61 -100 -85 -140 -24 -40
-54 -96 -66 -125 -13 -29 -35 -68 -51 -86 -15 -18 -31 -45 -34 -60 -4 -15 -21
-56 -37 -92 -59 -131 -88 -206 -97 -250 -8 -42 -27 -105 -51 -175 -6 -16 -17
-59 -25 -95 -8 -36 -21 -94 -30 -130 -20 -83 -29 -303 -15 -400 22 -157 108
-405 172 -499 54 -79 220 -236 292 -275 109 -60 281 -146 294 -146 7 0 38 -11
69 -25 31 -14 96 -34 143 -45 47 -12 104 -28 126 -36 32 -13 95 -16 325 -17
254 -2 288 0 317 16 19 10 53 17 86 17 47 0 107 13 157 34 14 6 15 -4 8 -71
-5 -43 -10 -104 -13 -135 -2 -31 -9 -76 -15 -100 -5 -24 -10 -58 -10 -75 0
-37 -3 -38 -116 -47 -39 -3 -88 -13 -107 -21 -22 -9 -68 -15 -117 -15 -44 0
-123 -5 -175 -11 -73 -8 -100 -7 -117 2 -13 7 -75 15 -143 17 -66 2 -127 8
-136 13 -8 4 -58 15 -110 24 -53 9 -122 29 -158 46 -35 16 -77 29 -95 29 -65
1 -181 42 -346 124 -172 86 -197 102 -319 211 -119 106 -176 173 -218 258 -14
29 -34 63 -43 77 -19 27 -54 106 -94 210 -14 36 -29 101 -35 145 -5 44 -19
107 -31 140 -20 57 -21 72 -15 305 5 195 10 263 27 335 33 147 49 208 60 240
6 17 30 89 54 160 40 116 75 209 122 315 8 19 21 54 28 78 7 24 46 97 86 163
40 66 87 144 103 174 17 30 42 67 56 82 14 16 43 59 63 97 21 38 57 95 80 125
23 31 53 74 66 96 13 22 41 58 63 79 21 22 45 52 52 66 8 15 25 35 40 44 14 9
37 35 51 58 26 40 102 125 219 242 34 34 88 90 120 124 l60 64 6 87 c3 49 13
108 21 132 9 24 25 76 37 114 21 65 37 99 118 252 81 152 439 444 491 400 10
-7 13 -24 9 -52z m9639 -216 c34 -68 68 -150 119 -285 13 -34 28 -71 34 -81 5
-11 21 -51 34 -89 14 -38 36 -98 50 -134 13 -36 33 -87 43 -115 33 -94 105
-139 160 -101 42 29 203 114 231 120 31 8 127 45 218 83 33 14 103 34 154 45
52 10 120 28 150 39 64 23 196 41 321 43 68 1 92 5 115 21 45 30 219 25 530
-14 39 -5 102 -13 140 -16 39 -4 103 -16 144 -26 41 -11 93 -19 115 -19 23 0
59 -9 81 -19 22 -10 60 -21 85 -25 54 -8 209 -60 264 -88 21 -11 82 -34 135
-52 101 -35 252 -114 311 -164 43 -36 92 -62 119 -62 44 0 142 123 215 270 15
30 38 69 50 85 13 17 48 73 79 125 30 53 73 116 94 140 22 25 51 66 66 92 15
26 32 50 38 53 15 10 2 -182 -18 -275 l-17 -75 -22 22 c-36 36 -61 29 -120
-34 -66 -71 -119 -169 -138 -254 -18 -80 -14 -214 7 -254 8 -17 99 -109 202
-205 249 -234 399 -404 542 -612 21 -31 64 -89 95 -130 31 -41 73 -106 94
-144 21 -38 49 -84 63 -103 83 -111 125 -194 111 -220 -7 -14 -4 -27 15 -52
77 -109 103 -153 146 -252 27 -60 56 -121 65 -135 12 -18 15 -37 10 -70 -7
-50 13 -103 59 -156 14 -17 28 -41 31 -55 5 -27 17 -59 52 -146 11 -27 28 -79
38 -115 9 -36 25 -81 35 -100 10 -19 20 -51 23 -70 3 -19 16 -74 29 -121 17
-63 20 -92 13 -108 -8 -18 -1 -37 32 -99 29 -55 50 -116 73 -212 47 -200 47
-193 6 -208 -59 -21 -57 -50 11 -126 51 -57 82 -135 82 -206 0 -35 8 -81 21
-114 15 -42 18 -60 10 -75 -15 -27 -14 -58 4 -106 8 -22 14 -69 15 -104 0 -36
4 -78 9 -95 11 -37 41 -303 41 -364 0 -29 -7 -53 -20 -69 -27 -34 -25 -69 4
-96 22 -21 24 -33 32 -182 5 -88 9 -198 11 -245 1 -47 5 -126 8 -176 6 -73 4
-97 -9 -122 -9 -17 -16 -55 -16 -86 0 -38 -6 -66 -20 -88 -25 -41 -25 -60 0
-131 23 -65 26 -156 6 -195 -7 -15 -16 -78 -20 -141 -6 -101 -10 -118 -32
-144 -34 -40 -39 -71 -20 -120 28 -75 22 -108 -29 -154 -50 -45 -49 -42 -35
-176 8 -78 7 -91 -10 -120 -10 -18 -22 -53 -25 -79 -7 -47 -8 -48 -44 -50 -20
-1 -47 -1 -61 0 -13 1 -50 -5 -81 -13 -31 -8 -85 -15 -120 -15 -68 0 -100 -8
-199 -51 -36 -15 -87 -36 -115 -47 -27 -10 -86 -42 -129 -70 -44 -29 -82 -52
-85 -53 -18 -3 -292 -9 -386 -8 -181 1 -276 -36 -445 -173 -41 -33 -52 -34
-94 -8 -21 13 -59 21 -112 26 -87 6 -71 12 -215 -83 -19 -13 -57 -48 -83 -78
-26 -30 -51 -55 -56 -55 -4 0 -19 19 -33 43 -14 23 -35 51 -47 62 -12 11 -31
37 -41 57 -19 38 -29 46 -150 125 -35 23 -82 55 -104 71 -38 28 -163 92 -179
92 -4 0 -35 11 -69 24 -40 16 -99 28 -167 35 -97 9 -200 29 -243 46 -41 17
-95 -30 -88 -77 3 -26 -49 -24 -80 2 -57 49 -104 81 -123 84 -12 2 -48 9 -82
15 -33 6 -91 11 -130 11 -66 0 -250 -29 -287 -45 -16 -7 -17 -2 -11 73 8 93
-4 133 -42 151 -56 25 -88 -22 -86 -126 l2 -73 -128 0 c-128 0 -185 -11 -284
-54 -21 -9 -51 -16 -69 -16 -17 0 -43 -7 -57 -15 -15 -8 -61 -30 -102 -49 -41
-19 -99 -51 -127 -71 -29 -19 -76 -51 -105 -70 -29 -19 -91 -73 -139 -120
l-87 -85 -13 37 c-32 97 -92 199 -153 258 -75 74 -188 142 -256 155 -27 5 -64
17 -81 26 l-31 16 20 21 c28 30 42 70 42 120 1 23 7 53 15 67 8 14 14 48 15
76 0 28 5 65 11 82 19 55 -29 114 -80 97 -31 -9 -59 -91 -62 -175 -2 -59 -8
-88 -32 -137 -26 -54 -28 -66 -18 -94 6 -18 11 -32 11 -33 0 -1 -53 -2 -118
-3 -93 -1 -130 -6 -171 -22 -28 -12 -61 -21 -73 -21 -12 0 -50 -16 -84 -35
-35 -19 -65 -31 -68 -27 -19 31 -126 251 -126 259 0 5 -13 30 -30 54 -35 52
-36 56 -10 64 56 18 56 102 0 125 -30 12 -83 -6 -93 -32 -4 -12 -63 40 -215
191 -30 29 -69 57 -86 62 -17 5 -53 26 -81 47 -45 35 -50 42 -47 73 2 19 17
58 33 88 23 39 31 70 34 118 3 35 7 68 10 73 8 14 -12 48 -36 61 -40 21 -159
-72 -159 -124 0 -9 11 -28 24 -44 17 -20 21 -34 15 -48 -4 -11 -8 -39 -8 -62
-1 -23 -5 -44 -9 -47 -5 -3 -35 6 -68 19 -89 36 -247 75 -333 83 l-76 7 -7 35
c-4 19 -14 69 -22 110 -22 103 -22 103 35 192 28 44 57 95 65 114 14 33 13 36
-11 60 l-25 25 -42 -22 c-40 -20 -42 -20 -55 -3 -20 27 -26 77 -14 120 6 22
11 55 11 74 0 19 12 58 25 85 30 61 31 71 4 115 -20 32 -21 44 -15 170 9 220
14 268 31 300 11 22 14 41 9 63 -12 49 -4 228 12 259 8 15 14 51 14 81 0 33 8
73 21 101 19 45 20 49 4 102 -15 53 -15 59 6 137 12 45 27 116 34 157 18 106
38 176 71 243 28 57 28 59 11 88 -21 37 -22 71 -3 107 7 15 17 52 21 82 4 30
21 82 38 115 24 48 31 73 32 125 0 38 8 80 18 102 9 21 17 41 17 46 0 4 11 23
25 42 18 24 25 47 25 79 0 27 17 96 40 165 22 66 40 125 40 131 0 7 14 37 30
68 17 31 30 62 30 68 0 6 14 39 31 73 17 33 37 84 45 113 13 51 40 109 107
233 19 36 38 81 42 100 7 34 68 154 111 218 12 17 45 78 73 135 27 56 80 140
116 187 36 47 77 103 92 125 14 22 44 60 67 85 93 101 321 401 354 465 26 52
206 225 435 419 56 48 72 57 95 52 40 -8 73 15 101 72 14 28 49 83 76 124 l50
73 3 189 c3 204 -9 345 -33 382 -8 13 -30 31 -47 40 -30 15 -34 15 -66 -2 -18
-10 -40 -29 -48 -43 -13 -23 -14 -8 -10 159 3 164 9 220 22 220 2 0 20 -32 40
-71z m11012 -142 c4 -48 -13 -79 -41 -75 -32 4 -36 65 -7 96 29 30 44 24 48
-21z m-19978 -67 c0 -22 -3 -40 -8 -40 -4 0 -6 18 -4 40 2 22 6 40 8 40 2 0 4
-18 4 -40z m-426 -202 c3 -7 7 -25 10 -40 12 -56 79 -66 181 -29 205 75 252
84 259 49 22 -106 44 -183 68 -236 15 -35 28 -69 28 -75 0 -47 128 -302 184
-366 36 -42 38 -46 18 -49 -22 -3 -124 11 -202 27 -25 6 -64 10 -88 11 -23 0
-53 6 -65 14 -12 8 -47 19 -77 25 -30 7 -75 19 -100 27 -25 9 -72 21 -105 28
-33 7 -73 20 -90 29 -76 41 -124 60 -175 66 -53 7 -158 44 -230 82 -49 25
-103 76 -139 129 l-31 45 108 52 c59 29 117 52 130 53 12 0 39 7 60 16 20 9
72 17 114 19 120 4 170 33 128 75 -33 33 -180 22 -180 -12 0 -5 -4 -7 -9 -4
-9 6 -109 -7 -181 -23 -168 -38 -275 -52 -237 -30 9 5 45 15 80 21 34 5 89 19
121 29 33 10 73 19 90 19 27 0 106 16 246 49 53 13 80 12 84 -1z m13397 -398
c-12 -44 -21 -92 -21 -107 0 -23 -18 -89 -28 -103 -2 -2 -7 2 -12 10 -15 23
-11 68 10 145 11 39 20 81 20 93 0 13 10 36 23 51 31 39 34 12 8 -89z m-13326
-357 c61 -22 133 -43 160 -47 28 -5 57 -12 66 -16 9 -5 65 -14 125 -20 98 -10
112 -14 137 -38 27 -27 27 -29 12 -65 -8 -20 -15 -65 -15 -99 0 -41 -7 -78
-20 -106 -16 -35 -18 -56 -13 -122 5 -66 2 -89 -15 -137 -12 -32 -26 -92 -32
-133 -6 -41 -15 -97 -21 -125 -5 -27 -12 -84 -15 -125 -2 -41 -11 -97 -19
-125 -8 -27 -19 -98 -24 -156 -5 -60 -16 -119 -25 -137 -10 -20 -16 -57 -16
-106 0 -41 -5 -87 -10 -101 -25 -65 -43 -167 -45 -250 -1 -49 -9 -130 -19
-180 -9 -49 -21 -130 -27 -180 -13 -119 -27 -233 -39 -325 -21 -153 -29 -227
-30 -290 -1 -74 -30 -169 -57 -187 -10 -7 -48 -17 -85 -23 -37 -5 -78 -14 -91
-19 -13 -5 -87 -17 -163 -27 -215 -27 -498 -3 -679 58 -200 67 -264 97 -412
195 -101 66 -235 198 -268 263 -14 27 -29 51 -34 54 -8 5 -56 143 -81 236 -32
116 -36 359 -9 448 6 18 17 67 24 110 16 89 40 172 85 292 17 47 42 114 54
150 13 36 38 97 57 135 77 163 96 201 110 225 9 14 37 63 64 110 45 79 77 124
182 253 23 29 65 86 94 127 72 101 157 205 262 318 48 51 87 97 87 102 0 5 15
12 33 15 17 4 61 20 96 36 36 16 82 29 105 29 22 1 70 7 106 15 38 8 112 12
180 11 107 -2 123 -5 225 -43z m776 -318 c4 -110 12 -240 18 -290 6 -49 16
-133 22 -185 6 -52 15 -122 20 -156 5 -33 9 -81 9 -105 0 -24 7 -62 15 -84 8
-22 14 -69 15 -103 0 -35 8 -98 19 -140 10 -43 26 -124 35 -182 10 -58 24
-125 32 -150 8 -25 14 -58 14 -74 0 -29 82 -388 101 -441 6 -16 14 -48 18 -70
12 -62 40 -149 88 -275 71 -183 92 -233 114 -270 11 -19 33 -62 48 -95 61
-127 240 -369 346 -467 85 -78 144 -127 180 -148 22 -14 65 -43 96 -66 31 -22
83 -51 115 -64 33 -13 73 -32 89 -42 17 -10 43 -18 58 -18 15 0 44 -7 64 -15
19 -8 52 -15 72 -15 20 0 63 -7 94 -15 81 -21 440 -21 477 0 14 8 43 14 65 15
54 0 247 59 355 108 25 11 72 31 105 44 l60 24 -2 -175 c-2 -97 -7 -231 -13
-298 -8 -90 -8 -133 1 -168 8 -30 9 -68 4 -108 -5 -34 -9 -96 -9 -137 -1 -125
15 -840 25 -1070 11 -277 13 -633 4 -688 -5 -26 -3 -58 4 -80 8 -26 10 -71 4
-152 l-8 -115 -55 -7 c-62 -8 -158 -29 -240 -52 -96 -28 -95 -29 -98 71 -8
195 -106 309 -147 171 -20 -69 -19 -90 6 -122 25 -32 79 -141 79 -159 0 -20
-38 -51 -100 -82 -30 -15 -75 -46 -100 -68 -25 -21 -55 -44 -67 -50 -12 -5
-52 -47 -89 -93 -37 -46 -71 -84 -74 -84 -4 0 -19 15 -34 33 -59 71 -117 125
-148 138 -18 7 -74 41 -124 75 -50 33 -104 64 -119 68 -16 4 -42 18 -58 32
-16 13 -41 27 -55 31 -15 3 -36 12 -47 18 -32 20 -140 51 -290 85 -77 17 -153
36 -168 42 -61 23 -185 16 -337 -19 -80 -19 -157 -39 -171 -44 -34 -13 -113
22 -261 115 -59 36 -113 66 -121 66 -8 0 -45 -14 -82 -30 -37 -17 -72 -30 -79
-30 -7 0 -36 -12 -66 -27 -61 -30 -68 -29 -245 32 -44 15 -93 32 -110 37 -48
16 -193 37 -216 31 -20 -6 -21 -3 -16 68 2 41 10 97 16 124 11 43 12 101 9
345 -1 47 16 256 32 400 6 47 16 171 23 275 10 136 18 199 30 222 11 20 17 56
17 97 0 36 5 77 11 93 6 15 15 57 19 93 5 36 13 101 19 145 6 44 9 100 6 126
-4 27 0 72 10 115 17 72 40 191 55 284 4 30 9 87 9 126 1 39 8 91 17 115 11
31 14 62 10 104 -5 44 -1 81 14 135 14 54 20 108 20 192 0 64 5 129 11 145 7
15 16 75 20 133 12 163 27 304 38 367 6 32 15 105 21 163 7 58 16 124 21 147
5 23 9 74 9 113 0 40 9 115 19 168 10 54 22 150 25 215 3 64 12 139 20 165 8
26 22 103 31 172 9 69 23 147 31 174 8 27 14 73 14 102 0 28 8 78 18 110 10
33 27 131 36 219 16 142 29 206 81 390 8 29 12 68 8 92 -3 26 0 57 10 85 9 23
18 70 22 103 10 105 28 158 56 166 65 19 63 24 70 -196z m16059 -42 c0 -87
-30 -516 -36 -522 -4 -3 -3 57 1 134 9 144 12 236 14 363 1 40 5 72 11 72 6 0
10 -21 10 -47z m-10756 10 c8 -16 16 -60 19 -100 7 -87 17 -107 58 -122 28
-10 34 -8 59 18 16 16 32 41 35 57 19 86 76 164 120 164 58 0 82 -152 54 -341
-14 -89 -8 -123 26 -145 39 -25 71 -11 109 49 36 56 111 127 134 127 8 0 29
-15 48 -34 49 -49 47 -90 -8 -316 -20 -81 -97 -207 -163 -270 -21 -19 -56 -64
-80 -100 -56 -86 -88 -116 -131 -125 -81 -15 -114 -58 -114 -148 0 -24 -5 -68
-10 -98 -6 -30 -15 -95 -20 -145 -6 -49 -14 -114 -19 -144 -28 -175 -33 -243
-31 -508 1 -155 6 -297 11 -315 6 -17 14 -61 19 -97 5 -36 20 -100 35 -143 14
-43 25 -90 25 -106 0 -26 36 -144 57 -187 76 -156 94 -182 178 -275 49 -54
108 -111 130 -125 22 -15 51 -37 65 -49 27 -23 233 -145 247 -145 4 0 38 -12
76 -26 60 -23 68 -29 63 -48 -3 -12 -9 -44 -15 -71 -27 -143 -33 -197 -27
-234 8 -50 3 -51 -76 -11 -32 17 -66 30 -76 30 -9 0 -48 18 -87 40 -38 21 -96
52 -128 69 -32 16 -66 36 -75 44 -9 9 -43 33 -74 54 -77 51 -258 221 -311 291
-24 31 -61 89 -84 127 -44 75 -153 341 -153 375 0 11 -6 37 -14 57 -15 39 -33
128 -46 223 -4 30 -12 67 -17 81 -19 44 -36 317 -34 544 2 120 5 223 8 228 6
10 18 119 32 307 6 69 16 171 22 227 15 120 8 146 -46 169 -56 23 -141 148
-197 289 -86 217 -109 356 -78 466 6 19 10 56 10 84 0 34 9 69 29 112 62 131
117 115 170 -50 14 -42 42 -61 77 -53 31 8 48 44 64 131 7 39 17 86 21 106 20
82 84 117 113 62z m10943 -693 c34 -20 83 -89 83 -114 0 -9 20 -38 45 -66 25
-28 45 -56 45 -63 0 -6 16 -37 35 -69 73 -117 94 -334 43 -439 -15 -30 -31
-72 -37 -94 -15 -58 -66 -130 -120 -170 -25 -19 -50 -38 -56 -43 -39 -31 -64
-42 -95 -42 -42 0 -134 -41 -148 -66 -9 -15 -11 -14 -26 13 -18 36 -59 53
-127 53 -27 0 -68 4 -91 10 -24 5 -54 12 -68 15 -17 4 -32 19 -46 49 l-22 43
27 16 c15 9 53 25 84 37 69 26 96 58 78 96 -14 32 -67 54 -127 54 -60 0 -119
33 -134 73 -13 38 -13 37 5 37 20 0 188 80 197 94 22 33 -3 59 -76 80 -67 20
-89 20 -126 1 -35 -18 -74 -87 -65 -116 13 -41 -6 -16 -31 38 -33 76 -37 167
-9 205 38 50 64 58 185 58 118 0 159 11 180 50 6 12 8 29 5 40 -9 27 -53 60
-81 60 -29 0 -46 30 -42 73 3 28 10 36 68 65 57 28 71 31 113 26 47 -7 49 -9
77 -65 30 -59 53 -75 94 -65 27 7 47 45 39 75 -16 60 59 91 124 51z m-33058
-1118 c73 -57 268 -153 351 -172 19 -5 55 -15 80 -23 25 -8 68 -21 95 -29 l50
-15 -60 -7 c-33 -3 -100 -11 -150 -16 -131 -15 -202 -14 -228 3 -12 8 -64 56
-115 106 -76 75 -93 96 -88 114 3 12 6 32 6 45 0 29 15 28 59 -6z m32861 -114
c0 -4 19 -12 41 -18 l42 -11 -7 -57 c-17 -159 -29 -243 -41 -307 -8 -38 -21
-106 -29 -149 -9 -44 -25 -97 -36 -118 -11 -21 -20 -56 -20 -78 0 -21 -4 -42
-10 -45 -5 -3 -17 -32 -26 -63 -9 -31 -25 -73 -35 -92 -10 -19 -34 -69 -54
-110 -50 -104 -93 -181 -115 -205 -10 -11 -33 -45 -51 -75 -18 -30 -55 -80
-82 -110 -27 -30 -58 -71 -70 -90 -46 -78 -291 -255 -478 -345 -41 -20 -91
-45 -112 -56 -22 -11 -64 -25 -95 -30 -31 -6 -78 -22 -106 -36 -27 -14 -74
-31 -104 -39 -31 -8 -75 -23 -98 -33 -23 -10 -69 -22 -103 -26 l-61 -7 0 71
c0 39 -7 119 -16 178 -18 122 -14 133 55 133 90 0 409 93 542 159 98 48 285
188 379 282 76 77 179 211 218 284 77 142 164 366 185 470 5 28 16 69 24 93
l15 42 28 -30 c55 -59 116 -34 162 68 31 69 39 142 23 234 -4 26 -4 73 0 105
6 52 8 56 21 38 8 -10 14 -22 14 -27z m-30942 -115 c-28 -34 -134 -93 -167
-93 -19 0 -54 -12 -79 -26 l-44 -26 -177 17 c-181 18 -271 38 -221 48 51 10
177 30 240 37 65 8 162 45 350 132 l95 44 7 -60 c5 -39 3 -65 -4 -73z m30762
-66 c12 -24 12 -30 -1 -38 -26 -17 -29 -9 -28 84 2 83 3 86 9 37 3 -30 13 -68
20 -83z m-31763 -83 c62 -9 158 -32 224 -55 63 -21 131 -39 150 -39 65 -1 6
-19 -82 -25 -46 -4 -107 -13 -136 -21 -28 -8 -84 -14 -125 -14 -91 0 -346 42
-424 70 -33 11 -81 28 -107 36 -27 8 -47 17 -45 19 10 10 236 34 405 43 18 1
81 -5 140 -14z m-844 -64 c44 0 69 -8 138 -44 46 -24 136 -61 199 -81 63 -21
142 -49 175 -61 122 -47 420 -56 588 -19 40 9 101 22 137 30 36 8 85 17 110
20 63 9 206 52 265 80 28 13 75 31 105 40 30 9 65 21 78 26 46 18 52 13 52
-46 0 -53 -2 -58 -44 -98 -77 -75 -199 -157 -232 -155 -16 1 -83 -7 -149 -17
-66 -9 -140 -19 -165 -20 -25 -2 -72 -8 -105 -14 -161 -30 -388 -23 -499 15
-21 8 -49 14 -62 14 -12 0 -40 10 -60 22 -24 14 -51 21 -76 19 -56 -3 -226 27
-273 49 -23 11 -77 22 -125 25 -70 6 -96 13 -150 42 -118 64 -134 90 -109 188
l11 43 68 -29 c48 -20 86 -29 123 -29z m-102 -437 c56 -61 174 -161 228 -193
23 -14 58 -35 78 -48 20 -13 63 -34 97 -47 34 -13 101 -39 149 -59 49 -20 123
-43 166 -50 43 -8 92 -21 110 -31 37 -18 117 -15 226 10 33 7 85 19 115 26 63
14 216 76 275 111 22 13 62 37 89 53 28 17 80 58 118 93 37 34 71 62 76 62 4
0 26 16 48 36 21 21 67 57 102 81 l62 44 0 -33 c1 -95 -24 -378 -35 -408 -9
-27 -10 -77 -4 -210 5 -113 4 -207 -3 -265 -13 -118 -18 -187 -22 -375 -2 -85
-9 -216 -15 -290 -10 -122 -21 -558 -22 -865 0 -66 -1 -235 -2 -375 -2 -309
-1 -476 8 -768 l7 -223 -54 -52 c-29 -29 -71 -79 -93 -111 -22 -33 -45 -61
-51 -63 -6 -2 -20 18 -31 44 -11 26 -37 68 -57 92 -20 24 -42 53 -48 65 -6 12
-53 66 -105 121 -89 95 -123 124 -238 199 -27 18 -73 49 -102 68 -29 20 -76
44 -105 53 -29 10 -84 32 -123 51 -224 107 -334 149 -455 172 -73 14 -251 32
-321 32 -31 0 -76 7 -100 16 -24 8 -91 18 -148 21 l-103 6 4 126 c4 95 1 135
-10 163 -10 28 -12 61 -8 130 11 160 25 424 35 668 5 129 14 285 21 345 6 61
11 135 10 165 -3 75 -3 64 9 255 6 94 13 277 16 408 2 132 8 253 14 270 5 18
12 84 15 147 9 191 26 434 31 448 6 16 77 -40 146 -115z m231 63 c26 -8 57
-20 70 -27 13 -7 67 -16 121 -20 54 -4 121 -16 150 -27 29 -11 82 -26 117 -32
36 -7 87 -19 114 -27 68 -22 504 -13 581 11 28 9 74 16 104 16 l54 0 -22 -24
c-20 -21 -169 -110 -268 -160 -42 -21 -172 -46 -288 -56 -75 -6 -97 -4 -131
10 -22 10 -76 21 -118 25 -61 5 -88 13 -124 36 -25 16 -53 29 -62 29 -28 0
-194 86 -271 140 -69 49 -118 95 -119 113 0 11 41 8 92 -7z m9671 -543 c8 -10
19 -30 22 -45 6 -24 4 -28 -13 -28 -11 0 -41 -9 -66 -20 l-45 -19 6 47 c8 65
19 82 52 82 15 0 35 -8 44 -17z m-291 -70 c9 -10 34 -52 57 -93 45 -81 90
-130 120 -130 10 0 56 35 100 79 81 78 82 78 96 57 8 -12 19 -44 24 -72 45
-231 82 -295 151 -259 16 8 31 23 35 34 11 35 46 71 69 71 32 0 67 -42 77 -92
11 -58 10 -313 -1 -363 -38 -169 -92 -305 -145 -371 -69 -84 -67 -114 14 -238
28 -44 54 -91 57 -105 6 -31 30 -93 82 -221 60 -147 72 -167 202 -355 91 -130
268 -276 385 -317 56 -19 142 -23 196 -8 71 20 229 202 229 264 0 25 -27 73
-45 79 -25 10 -18 24 57 103 59 62 73 72 81 59 29 -53 49 -350 29 -435 -18
-75 -68 -155 -149 -240 -98 -104 -157 -138 -272 -159 -152 -27 -191 -23 -329
40 -34 16 -66 29 -70 29 -5 0 -17 9 -27 20 -10 11 -41 33 -69 49 -68 39 -303
286 -339 357 -9 17 -32 50 -51 73 -20 24 -36 49 -36 56 0 7 -16 36 -35 65 -19
29 -35 57 -35 64 0 6 -13 34 -29 63 -16 28 -32 64 -35 80 -4 15 -21 49 -37 76
-16 26 -29 59 -29 73 0 14 -7 39 -16 56 -39 75 -74 176 -74 213 0 70 -54 118
-145 128 -60 7 -142 50 -180 95 -15 18 -46 43 -69 55 -53 28 -136 117 -136
146 0 12 16 43 35 68 40 52 50 82 41 118 -8 31 -59 59 -96 51 -31 -6 -40 6
-40 50 0 34 15 60 61 104 35 33 39 42 39 86 0 33 -11 75 -31 124 -50 117 -40
245 18 238 22 -3 29 -11 44 -58 29 -89 93 -126 139 -80 19 19 20 28 14 134 -7
120 1 156 35 156 10 0 25 -8 33 -17z m-808 -19 c9 -3 21 -24 26 -45 10 -34 7
-47 -20 -111 -36 -88 -37 -112 -5 -143 37 -38 68 -29 105 29 11 19 43 50 69
70 45 32 50 33 64 18 37 -43 27 -86 -50 -224 -51 -90 -49 -99 31 -178 38 -37
46 -50 46 -81 0 -57 -6 -65 -48 -61 -46 4 -99 -27 -108 -63 -12 -49 3 -73 71
-112 36 -20 65 -42 65 -49 0 -28 -46 -74 -128 -130 -30 -20 -81 -61 -115 -91
-67 -59 -151 -113 -179 -113 -10 0 -41 -11 -70 -24 -29 -14 -65 -27 -79 -30
-56 -12 -107 -76 -124 -156 -4 -19 -23 -60 -41 -90 -19 -31 -34 -61 -34 -69 0
-7 -8 -25 -19 -39 -10 -15 -32 -55 -50 -89 -17 -34 -44 -83 -61 -109 -16 -27
-30 -54 -30 -61 0 -17 -104 -175 -203 -308 -56 -76 -248 -281 -292 -311 -63
-45 -184 -112 -221 -124 -22 -7 -53 -20 -69 -29 -17 -10 -64 -26 -105 -36 -41
-10 -88 -24 -103 -32 -62 -31 -284 2 -358 52 -19 14 -40 25 -45 25 -6 0 -42
27 -80 60 -38 33 -72 60 -76 60 -11 0 -74 129 -87 177 -18 67 -22 227 -6 281
7 26 17 70 21 97 10 76 15 80 54 44 19 -17 79 -60 132 -95 l97 -65 -2 -68 c-2
-57 2 -75 19 -98 56 -75 125 -90 265 -54 41 10 98 22 128 25 70 9 70 9 228
137 136 110 233 206 282 278 136 202 188 285 238 386 58 116 106 200 129 228
29 35 32 94 6 128 -10 13 -26 49 -35 79 -9 30 -30 96 -47 147 -36 113 -60 257
-60 363 0 67 4 90 26 133 30 59 61 97 81 97 14 0 53 -70 53 -95 0 -48 91 -74
129 -36 16 16 61 141 61 169 0 19 91 206 123 254 18 27 37 48 44 48 7 0 23
-15 37 -33 21 -27 26 -45 26 -90 0 -64 22 -97 65 -97 33 0 55 26 111 132 26
49 59 98 72 109 28 22 25 21 46 13z m380 -387 c16 -11 17 -22 11 -65 -8 -60
-14 -67 -43 -46 -24 17 -28 45 -11 93 12 35 17 37 43 18z m58 -699 c31 -40 60
-83 67 -95 6 -11 28 -31 48 -44 21 -12 52 -34 68 -50 39 -36 199 -119 229
-119 30 0 38 -11 65 -90 13 -36 34 -85 46 -110 13 -25 26 -58 30 -75 8 -35
103 -256 116 -270 5 -5 9 -16 9 -24 0 -20 140 -252 202 -335 28 -37 48 -70 44
-73 -3 -3 -34 -12 -68 -19 -83 -17 -166 -39 -201 -53 -16 -6 -50 -11 -76 -11
-26 0 -77 -9 -112 -19 -44 -13 -124 -23 -261 -30 -108 -7 -219 -18 -245 -26
-80 -24 -702 -6 -863 24 -30 6 -84 15 -120 20 -36 6 -77 14 -90 19 -14 5 -60
13 -103 17 l-77 7 37 43 c59 66 146 192 198 285 27 47 56 97 65 111 10 14 34
58 53 97 20 40 52 96 71 125 20 30 36 58 36 63 0 7 42 97 100 214 10 21 75 56
150 81 86 29 158 71 284 169 104 80 181 156 213 211 10 16 20 29 24 29 3 0 31
-33 61 -72z m1908 -1043 c0 -49 -24 -91 -55 -99 -32 -8 -145 3 -145 14 0 11
171 116 193 119 4 1 7 -15 7 -34z m-848 -407 c41 -48 215 -181 328 -251 l45
-28 -70 6 c-38 3 -101 8 -139 12 -91 8 -415 -14 -491 -34 -36 -9 -115 -17
-200 -18 -96 -2 -154 -8 -184 -19 -24 -9 -63 -16 -88 -16 -27 0 -63 -10 -93
-25 -42 -21 -70 -27 -163 -32 -61 -3 -127 -12 -146 -19 -18 -8 -52 -14 -75
-14 -23 0 -59 -9 -81 -20 -22 -11 -51 -20 -65 -20 -14 0 -58 -14 -99 -30 -40
-17 -80 -30 -89 -30 -16 0 -116 -45 -233 -106 -37 -19 -73 -34 -81 -34 -8 0
-64 -35 -124 -77 -60 -43 -128 -90 -149 -105 -73 -50 -155 -124 -198 -180 -24
-31 -51 -64 -61 -73 -9 -9 -26 -35 -37 -57 l-20 -39 -89 135 c-59 89 -102 144
-127 161 -21 14 -54 37 -73 50 -19 14 -55 37 -79 52 -24 16 -60 41 -78 57 -32
27 -264 146 -285 146 -5 0 -62 22 -126 49 -108 46 -327 101 -400 101 -19 0
-22 5 -22 40 0 38 20 180 27 189 2 3 18 -9 36 -27 36 -35 169 -100 271 -131
118 -36 300 -21 461 40 28 10 82 30 120 44 145 53 241 111 373 223 l52 45 98
-13 c53 -6 117 -18 141 -26 25 -8 66 -14 92 -14 25 0 65 -7 89 -15 121 -43
1158 -40 1340 3 25 6 88 18 140 27 52 9 113 21 135 27 22 5 65 16 95 23 78 17
170 45 205 60 52 23 68 18 117 -37z m985 -310 c5 -51 9 -94 7 -96 -1 -2 -17 3
-35 11 -19 7 -66 22 -105 31 -40 10 -89 23 -109 30 l-37 13 38 7 c22 4 80 26
129 50 50 25 93 45 96 45 3 1 11 -41 16 -91z M12380 23560 c-22 -22 -18 -45
11 -61 14 -7 23 -5 39 11 24 24 25 34 4 54 -20 21 -30 20 -54 -4z M10862
22714 c-70 -49 -67 -173 6 -203 43 -18 76 1 100 58 33 75 32 102 -3 136 -28
29 -70 32 -103 9z M11598 22669 c-39 -18 -55 -33 -92 -93 -47 -75 -92 -191
-106 -268 -5 -25 -16 -60 -24 -77 -9 -16 -16 -42 -16 -56 0 -23 -60 -185 -110
-300 -49 -111 -80 -190 -115 -290 -75 -221 -85 -248 -96 -261 -5 -7 -18 -34
-28 -61 -43 -115 -136 -333 -171 -404 -22 -42 -72 -150 -113 -240 -41 -91
-107 -229 -148 -309 -268 -533 -341 -701 -356 -829 -14 -125 94 -222 196 -176
38 17 61 48 61 83 0 9 9 28 19 41 l18 24 6 -31 c12 -60 63 -64 118 -10 25 25
29 36 23 57 -18 65 0 199 35 270 35 69 -21 131 -87 97 -48 -25 -134 -148 -153
-221 -14 -52 -25 -74 -54 -109 l-23 -29 5 49 c3 27 15 74 28 104 13 30 28 73
34 95 6 22 66 150 134 285 68 135 127 257 131 272 6 26 57 135 104 223 56 104
182 367 182 379 0 8 23 62 50 120 28 58 50 113 50 121 0 9 18 52 39 98 21 45
45 100 51 122 7 22 26 69 42 103 15 35 28 70 28 78 0 7 9 28 20 46 11 18 20
43 20 55 0 13 13 51 29 85 52 111 109 252 121 298 27 104 75 246 87 261 7 9
26 57 42 108 42 133 89 195 118 155 19 -26 6 -205 -29 -404 -16 -91 -33 -202
-38 -247 -5 -46 -13 -91 -18 -100 -5 -10 -13 -56 -17 -103 -4 -46 -13 -97 -21
-112 -8 -15 -14 -42 -14 -61 0 -19 -7 -54 -15 -77 -8 -23 -15 -54 -15 -69 0
-14 -6 -46 -14 -71 -24 -75 -37 -132 -46 -197 -5 -35 -13 -71 -18 -80 -6 -10
-13 -38 -16 -63 -15 -94 -48 -238 -76 -330 -16 -52 -38 -131 -49 -175 -11 -44
-24 -93 -30 -110 -13 -39 -39 -135 -56 -205 -25 -105 -86 -316 -147 -510 -16
-52 -41 -107 -54 -123 -13 -16 -24 -38 -24 -50 0 -29 -36 -87 -54 -87 -21 0
-47 76 -47 142 0 33 2 62 5 66 3 3 6 -9 6 -26 0 -37 32 -75 55 -66 24 9 35 38
35 88 0 25 5 68 11 96 19 87 -3 118 -94 135 -57 11 -92 -9 -122 -68 -14 -28
-25 -57 -25 -65 0 -8 -16 -45 -35 -83 -39 -77 -38 -89 9 -112 27 -12 34 -22
38 -54 8 -54 77 -210 109 -244 30 -32 63 -37 96 -14 49 34 132 171 177 291 24
65 49 130 54 144 6 14 27 90 48 170 20 80 52 191 70 248 19 57 34 111 34 121
0 9 12 46 26 82 14 35 29 87 34 114 4 28 12 64 18 80 6 17 15 53 21 80 11 55
27 122 64 265 14 52 28 115 32 140 3 25 11 59 16 75 5 17 13 57 18 90 5 33 20
107 34 165 14 58 30 128 37 155 6 28 18 79 26 115 8 36 20 90 25 120 6 30 19
96 29 145 19 92 56 310 71 422 4 35 13 71 18 82 6 10 12 38 15 62 3 24 8 72
12 106 9 79 0 121 -35 173 -58 86 -139 110 -233 69z M12325 22537 c-45 -45
-61 -106 -40 -147 18 -35 69 -70 101 -70 30 0 71 35 95 81 19 39 19 40 1 83
-20 43 -72 86 -107 86 -9 0 -32 -15 -50 -33z M10628 18249 c-58 -6 -121 -38
-132 -65 -9 -23 10 -52 46 -70 27 -14 50 -15 182 -6 87 6 227 6 331 2 186 -8
209 -5 220 30 11 35 -3 54 -62 83 -58 27 -59 28 -293 30 -129 1 -260 -1 -292
-4z M29076 21428 c-14 -13 -32 -39 -40 -59 -14 -35 -14 -39 11 -89 41 -83 100
-92 148 -23 30 46 32 86 4 133 -39 65 -78 77 -123 38z M28249 21419 c-94 -41
-108 -177 -24 -229 38 -24 66 -25 104 -5 98 50 118 186 33 229 -49 25 -66 25
-113 5z M25501 20383 c-15 -16 -33 -37 -41 -49 -8 -11 -35 -31 -58 -45 -73
-40 -91 -103 -36 -127 34 -16 96 16 132 68 15 22 35 42 44 45 10 4 24 13 32
21 13 12 15 12 21 -5 12 -39 78 -39 90 0 15 46 -24 81 -64 59 -17 -8 -19 -8
-15 4 7 19 -30 56 -57 56 -11 0 -33 -12 -48 -27z M29233 18338 c-48 -23 -80
-177 -49 -235 18 -36 47 -49 74 -34 17 9 49 91 66 170 6 31 -17 86 -42 100
-24 13 -21 13 -49 -1z M28855 18116 c-13 -13 -27 -37 -30 -53 -3 -15 -12 -53
-20 -84 -12 -47 -12 -64 -1 -105 17 -66 32 -91 56 -99 61 -19 92 39 98 186 5
118 -2 140 -48 164 -29 15 -31 14 -55 -9z M29176 17847 c-19 -19 -24 -38 -30
-108 -15 -194 -9 -236 35 -259 61 -33 84 27 96 241 5 99 4 108 -16 128 -27 27
-56 27 -85 -2z M28038 17629 c-28 -16 -39 -45 -55 -143 -25 -156 -26 -191 -9
-225 18 -35 47 -54 70 -45 8 3 28 25 44 49 27 41 29 53 36 174 5 106 4 136 -8
160 -21 39 -46 49 -78 30z M28808 16989 c-10 -5 -23 -19 -29 -30 -15 -30 -39
-125 -39 -160 0 -55 61 -93 115 -73 62 24 60 229 -3 263 -24 13 -23 13 -44 0z
M29115 16666 c-31 -31 -42 -77 -50 -217 -8 -144 1 -235 26 -260 27 -27 43 -16
80 58 l34 66 -2 152 c-1 116 -5 159 -17 182 -21 42 -42 48 -71 19z M28080
16140 c-11 -11 -20 -31 -20 -45 0 -25 31 -65 50 -65 19 0 50 40 50 65 0 25
-31 65 -50 65 -5 0 -19 -9 -30 -20z M28531 15621 c-40 -40 -53 -72 -66 -168
-22 -151 -20 -199 10 -228 61 -62 125 3 125 129 0 36 7 98 15 138 17 78 14
107 -11 132 -21 22 -50 20 -73 -3z M18814 18316 c-33 -15 -80 -72 -112 -139
-55 -114 -92 -212 -92 -247 0 -20 -9 -58 -20 -83 -11 -25 -25 -72 -31 -104 -5
-32 -18 -74 -28 -93 -10 -19 -24 -51 -30 -70 -6 -19 -47 -107 -92 -195 -189
-373 -211 -418 -230 -472 -28 -82 -25 -139 10 -194 58 -92 136 -112 223 -59
65 40 104 48 112 24 9 -29 64 -83 92 -90 37 -9 72 10 156 90 67 63 82 83 114
157 48 112 107 279 141 399 8 30 21 75 29 100 33 111 47 225 45 380 -1 85 -6
171 -10 190 -5 19 -12 82 -15 139 -9 151 -45 222 -131 262 -47 22 -88 23 -131
5z m76 -119 c0 -1 9 -27 21 -57 24 -64 35 -141 51 -369 10 -145 10 -170 -5
-226 -9 -35 -17 -81 -17 -102 0 -21 -4 -52 -9 -68 -5 -17 -23 -75 -39 -130
-17 -55 -42 -122 -56 -149 -14 -27 -26 -62 -26 -78 0 -32 -33 -104 -76 -169
-17 -24 -35 -53 -40 -64 -15 -27 -50 -35 -39 -9 13 30 28 181 21 208 -9 38
-39 50 -75 31 -16 -8 -33 -25 -37 -37 -7 -24 -91 -135 -119 -158 -28 -23 -5
21 33 64 66 74 72 138 13 153 -39 10 -72 -16 -130 -102 -29 -44 -51 -71 -48
-60 4 11 9 34 13 50 8 35 159 342 197 401 13 21 33 62 43 89 10 28 28 66 39
85 39 62 98 214 102 260 2 25 12 61 23 80 10 19 39 98 65 175 46 140 67 185
85 185 6 0 10 -1 10 -3z M18047 18289 c-25 -13 -45 -34 -58 -63 l-21 -42 26
-51 c21 -42 33 -54 69 -68 43 -16 46 -16 85 4 99 50 94 173 -9 226 -36 19 -46
18 -92 -6z M19544 18286 c-52 -23 -74 -60 -74 -127 0 -65 12 -84 70 -114 26
-14 37 -14 61 -5 36 15 106 91 115 124 9 35 -30 99 -72 120 -41 19 -59 20
-100 2z M18725 16090 c-16 -5 -60 -7 -96 -4 -50 5 -73 3 -97 -10 -37 -19 -66
-68 -57 -97 14 -42 54 -47 290 -39 121 5 228 11 238 15 28 11 47 55 35 81 -14
30 -47 41 -138 48 -41 3 -91 7 -110 10 -19 3 -48 1 -65 -4z M18844 15078 c-35
-17 -57 -74 -44 -114 31 -94 134 -99 178 -8 21 41 21 47 7 74 -26 50 -91 73
-141 48z M36983 17739 c-32 -20 -34 -20 -77 -4 -36 14 -51 15 -78 6 -63 -21
-135 -117 -173 -231 -10 -30 -29 -78 -42 -107 -13 -28 -23 -55 -23 -58 0 -3
-12 -32 -26 -63 -14 -31 -32 -70 -39 -87 -7 -16 -27 -60 -44 -98 -17 -37 -31
-71 -31 -76 0 -5 -16 -32 -35 -61 -19 -29 -35 -59 -35 -69 -1 -18 -46 -104
-135 -256 -132 -226 -184 -382 -156 -468 16 -46 73 -97 109 -97 49 0 128 60
168 126 9 15 14 7 32 -53 25 -81 55 -113 107 -113 35 0 103 40 149 89 l29 30
29 -40 c111 -153 249 -73 343 199 20 59 41 127 45 152 9 46 27 105 60 195 25
71 51 179 61 255 4 36 15 85 24 110 15 39 17 72 11 255 -10 331 -24 379 -130
452 -56 39 -96 42 -143 12z m-2 -108 c78 -35 87 -51 118 -211 20 -104 23 -186
12 -296 -22 -204 -39 -299 -66 -374 -15 -41 -33 -97 -40 -125 -8 -27 -21 -68
-29 -90 -8 -22 -15 -52 -16 -68 0 -51 -63 -226 -94 -264 l-30 -36 -18 23 c-22
27 -24 113 -3 150 21 36 19 86 -5 110 -11 11 -24 20 -30 20 -43 0 -106 -78
-141 -173 -22 -61 -65 -109 -94 -105 -22 3 -23 20 -10 135 10 86 -4 117 -62
139 -60 23 -84 10 -140 -76 -23 -36 -55 -83 -70 -105 -28 -40 -28 -40 -31 -13
-4 30 66 200 109 263 61 93 185 333 211 410 11 33 33 78 49 99 16 22 29 43 29
48 0 4 25 59 55 122 30 62 55 119 55 126 0 6 24 62 53 123 41 86 64 121 97
150 24 20 44 37 46 37 1 0 21 -9 45 -19z M38019 17501 c-27 -16 -50 -40 -56
-57 -5 -16 -16 -45 -23 -64 -6 -19 -14 -45 -17 -57 -8 -34 38 -105 86 -131
l42 -24 44 27 c59 34 80 67 77 123 -1 40 0 44 19 39 24 -6 59 24 59 51 0 28
-37 81 -72 102 -48 29 -105 26 -159 -9z M35817 17469 c-86 -57 -105 -106 -73
-184 18 -41 89 -81 128 -72 42 11 109 67 124 103 14 34 14 38 -14 87 -27 49
-80 97 -107 97 -6 0 -33 -14 -58 -31z M38390 16439 c-47 -16 -99 -33 -115 -38
-72 -19 -99 -56 -76 -100 19 -35 60 -37 255 -14 75 9 106 33 106 80 0 46 -44
105 -77 102 -4 0 -46 -13 -93 -30z M39838 16199 c-39 -22 -40 -45 -8 -121 18
-40 45 -108 61 -151 36 -92 58 -109 94 -73 27 27 30 50 14 111 -6 22 -12 57
-14 77 -4 50 -49 124 -88 149 -37 22 -36 22 -59 8z M39506 16134 c-31 -31 -30
-61 5 -130 83 -162 171 -76 93 90 -24 50 -70 69 -98 40z M39610 15700 c-11
-11 -20 -26 -20 -32 0 -22 31 -102 45 -118 7 -8 15 -28 18 -45 40 -214 167
-376 206 -263 27 77 6 132 -89 238 -22 25 -43 53 -46 63 -3 9 -10 17 -15 17
-6 0 -7 5 -4 10 12 19 -7 112 -26 131 -24 24 -44 24 -69 -1z M40065 15655
c-63 -62 1 -211 81 -191 47 12 69 98 39 156 -31 61 -81 75 -120 35z M38653
15524 c-16 -7 -46 -101 -39 -121 4 -8 1 -30 -5 -48 -15 -40 -5 -81 21 -95 46
-25 90 24 90 99 0 22 5 52 11 67 23 63 -23 120 -78 98z M33948 15501 c-23 -18
-101 -141 -129 -203 -23 -53 31 -149 76 -132 24 10 93 136 109 201 23 93 23
114 0 137 -20 20 -26 20 -56 -3z M36775 15320 c-203 -3 -378 -9 -388 -14 -25
-12 -49 -63 -42 -87 13 -38 32 -40 501 -39 487 0 509 2 534 50 30 57 -55 104
-177 98 -32 -2 -224 -5 -428 -8z M39500 15300 c-44 -44 -17 -155 47 -197 36
-24 63 12 63 82 0 104 -59 166 -110 115z M34339 15213 c-84 -71 -110 -273 -35
-273 28 0 64 42 104 120 44 86 49 108 31 143 -24 45 -54 48 -100 10z M39830
15190 c-22 -22 -18 -45 10 -60 14 -7 23 -6 34 6 20 20 20 38 0 58 -20 20 -20
20 -44 -4z M33588 15016 c-14 -6 -44 -32 -66 -58 -33 -39 -41 -56 -47 -106 -8
-67 7 -137 31 -146 18 -7 42 4 65 31 25 28 89 183 89 215 0 58 -28 83 -72 64z
M39890 14960 c-11 -11 -20 -29 -20 -39 0 -26 28 -149 42 -184 22 -57 76 -59
99 -5 17 41 13 162 -7 200 -26 50 -79 63 -114 28z M34763 14870 c-28 -17 -53
-63 -53 -96 0 -19 36 -54 56 -54 28 0 74 56 74 90 0 65 -31 89 -77 60z M38834
14822 c-26 -17 -34 -51 -24 -98 14 -63 25 -81 62 -100 67 -35 102 18 73 107
-26 78 -73 117 -111 91z M33912 14743 c-7 -3 -20 -19 -29 -36 -8 -18 -28 -48
-44 -68 -44 -55 -70 -135 -80 -239 -23 -236 -24 -216 5 -245 24 -24 27 -25 55
-11 43 23 69 61 76 114 4 26 12 62 18 80 10 28 9 39 -6 64 -9 16 -17 46 -17
66 0 37 7 52 62 143 37 61 45 101 23 122 -16 17 -38 20 -63 10z M35572 14663
c-7 -3 -19 -18 -27 -34 -14 -26 -14 -32 0 -58 8 -16 19 -31 25 -33 7 -2 7 -21
-1 -60 -13 -66 -1 -113 33 -123 32 -11 63 19 92 90 33 77 27 111 -22 121 -25
5 -27 9 -24 38 6 49 -30 78 -76 59z M34410 14604 c-69 -62 -90 -114 -107 -270
-8 -72 38 -130 84 -106 17 10 93 173 93 200 0 7 11 35 25 62 30 60 32 103 5
130 -29 29 -55 25 -100 -16z M34938 14568 c-40 -32 -39 -90 2 -103 42 -13 80
38 59 78 -20 37 -37 44 -61 25z M38275 14525 c-31 -30 -32 -59 -2 -102 41 -61
104 -68 127 -14 10 25 8 35 -14 79 -35 69 -69 80 -111 37z M40454 14532 c-40
-26 -42 -118 -4 -226 11 -30 20 -72 20 -91 0 -42 32 -110 59 -124 52 -28 89
85 61 189 -30 111 -39 149 -45 183 -10 59 -55 93 -91 69z M37906 14474 c-24
-24 -22 -202 4 -286 44 -142 153 -119 122 26 -6 28 -14 93 -18 145 -5 72 -11
98 -25 112 -23 23 -62 24 -83 3z M36162 14365 c-19 -16 -38 -47 -50 -84 -20
-58 -20 -60 -2 -89 24 -39 50 -53 73 -41 26 15 54 78 62 141 6 49 4 59 -14 77
-27 27 -33 26 -69 -4z M39097 14378 c-20 -16 -37 -60 -37 -95 0 -15 -5 -41
-11 -58 -15 -40 -8 -69 30 -125 57 -86 107 -83 148 8 28 65 29 88 2 127 -11
17 -31 53 -44 82 -13 28 -32 56 -43 62 -26 14 -25 14 -45 -1z M39782 14363
c-35 -14 -33 -42 8 -128 78 -158 175 -202 226 -104 22 44 11 75 -35 98 -35 18
-50 33 -118 114 -21 25 -50 33 -81 20z M37549 14309 c-18 -18 -21 -29 -16 -70
11 -90 49 -133 92 -105 35 23 48 66 35 115 -20 76 -69 102 -111 60z M33409
14237 c-56 -29 -109 -105 -109 -157 0 -21 -7 -54 -15 -75 -18 -42 -13 -70 16
-86 30 -15 51 -3 78 43 13 24 36 59 51 78 15 19 40 61 55 92 24 48 27 61 17
82 -19 42 -43 48 -93 23z M35350 14129 c-34 -36 -44 -62 -36 -94 14 -55 81
-37 114 31 26 53 27 58 6 78 -24 24 -53 19 -84 -15z M38619 14065 c-33 -18
-52 -63 -43 -101 32 -135 127 -162 170 -48 17 45 17 48 -2 83 -16 31 -75 82
-93 81 -3 -1 -18 -7 -32 -15z M36876 14017 c-17 -17 -24 -39 -29 -87 -11 -108
16 -163 71 -146 26 9 60 90 65 155 4 47 1 58 -19 78 -29 29 -59 29 -88 0z
M39620 13990 c-41 -41 -17 -160 33 -160 33 1 57 45 57 106 0 36 -28 74 -55 74
-8 0 -24 -9 -35 -20z M34904 13958 c-35 -19 -105 -92 -125 -131 -11 -21 -24
-63 -30 -94 -17 -91 15 -139 76 -111 29 13 47 44 90 153 16 39 36 83 46 99 16
26 16 32 4 56 -17 33 -35 41 -61 28z M39909 13881 c-49 -49 -37 -107 31 -141
62 -32 120 -19 120 26 0 25 -49 112 -72 128 -32 22 -45 20 -79 -13z M34410
13851 c-85 -33 -130 -69 -155 -123 -21 -46 -22 -54 -10 -78 14 -28 34 -40 61
-40 20 0 204 186 204 205 0 16 -35 55 -47 55 -5 -1 -28 -9 -53 -19z M33783
13790 c-63 -38 -126 -167 -103 -209 12 -23 3 -52 -78 -246 -25 -62 -40 -181
-28 -229 10 -40 49 -61 85 -46 35 14 48 46 62 150 5 41 20 97 33 125 42 86 69
182 57 204 -6 11 -11 26 -11 33 0 21 41 82 48 72 11 -16 55 -44 69 -44 21 0
43 31 43 61 0 41 -34 73 -71 65 -24 -5 -29 -2 -29 15 0 54 -34 76 -77 49z
M35324 13773 c-27 -31 -83 -125 -95 -162 -7 -20 -21 -48 -32 -62 -10 -15 -25
-60 -31 -100 -13 -71 -12 -74 10 -96 13 -13 30 -23 39 -23 21 0 60 43 75 83 7
17 21 50 31 73 11 22 19 46 19 52 0 7 11 29 24 50 14 20 28 51 32 67 4 17 14
40 21 52 33 51 -52 111 -93 66z M38986 13745 c-12 -12 -12 -20 1 -57 16 -48
36 -68 68 -68 12 0 36 -11 55 -25 38 -28 57 -31 95 -13 41 19 59 61 41 96 -25
49 -83 64 -137 36 -28 -14 -33 -14 -55 1 -13 8 -24 19 -24 24 0 16 -29 20 -44
6z M40136 13725 c-25 -26 3 -62 38 -49 31 12 19 64 -14 64 -5 0 -15 -7 -24
-15z M36463 13682 c-38 -18 -73 -90 -104 -213 -23 -93 -19 -125 16 -141 60
-27 111 46 146 209 29 135 12 179 -58 145z M40562 13643 c-42 -17 -53 -141
-32 -355 11 -113 30 -158 89 -211 47 -43 54 -44 81 -17 26 26 25 60 -2 113
-27 53 -47 200 -40 301 5 85 -7 126 -46 156 -26 21 -29 22 -50 13z M37002
13583 c-54 -22 -55 -212 -1 -255 28 -23 35 -23 63 5 31 31 45 171 22 216 -20
37 -48 49 -84 34z M35897 13509 c-9 -6 -31 -37 -48 -70 -16 -33 -36 -62 -43
-65 -21 -8 -39 -60 -32 -89 3 -13 20 -32 36 -40 36 -18 61 -9 87 33 10 15 32
46 49 69 18 23 37 58 44 77 22 68 -34 119 -93 85z M37840 13500 c-11 -11 -22
-32 -25 -47 -4 -16 -15 -44 -26 -65 -18 -34 -18 -40 -4 -95 22 -84 64 -114
104 -74 24 24 37 72 46 162 9 82 2 105 -35 124 -36 19 -36 19 -60 -5z M40033
13375 c-12 -8 -33 -48 -48 -90 l-28 -75 28 -55 c29 -60 62 -89 89 -79 54 21
79 212 35 268 -31 39 -52 48 -76 31z M36668 13350 c-27 -16 -110 -177 -103
-200 9 -28 50 -53 73 -46 33 11 94 114 106 178 10 56 -32 93 -76 68z M38395
13305 c-14 -13 -25 -29 -25 -36 0 -6 -13 -27 -30 -46 -17 -18 -30 -45 -30 -59
0 -29 58 -94 84 -94 20 0 56 35 56 55 0 9 9 33 20 55 27 53 26 95 -5 125 -13
14 -29 25 -35 25 -6 0 -22 -11 -35 -25z M33282 13273 c-19 -18 -122 -184 -122
-198 0 -16 70 -113 85 -119 29 -11 53 13 75 71 12 32 30 76 41 99 47 100 -10
207 -79 147z M34377 13220 c-26 -20 -117 -158 -117 -176 0 -5 -13 -21 -30 -36
-16 -14 -30 -31 -30 -36 0 -19 32 -43 49 -36 9 3 37 12 64 19 26 7 62 26 81
42 18 15 42 35 53 44 11 9 28 37 38 63 21 56 9 98 -36 121 -36 19 -41 19 -72
-5z M39079 13179 c-33 -33 -22 -105 26 -175 46 -67 63 -77 103 -63 35 12 52
45 52 103 0 48 -11 65 -78 120 -50 41 -73 45 -103 15z M38630 13130 c-36 -36
-22 -74 51 -139 60 -52 86 -62 120 -46 29 15 51 57 42 80 -3 9 -28 28 -56 42
-28 14 -63 38 -78 54 -32 34 -52 36 -79 9z M34937 12937 c-21 -15 -46 -113
-47 -179 0 -44 17 -78 40 -78 36 0 100 116 100 181 0 70 -48 109 -93 76z
M37863 12903 c-70 -35 -74 -193 -5 -193 28 0 40 13 66 70 31 66 32 94 6 120
-23 23 -25 24 -67 3z M36868 12900 c-43 -26 -43 -136 1 -159 55 -30 95 104 44
154 -17 17 -22 18 -45 5z M34009 12815 c-29 -16 -49 -60 -49 -109 0 -38 -26
-166 -46 -224 -18 -55 -18 -58 6 -82 24 -24 54 -14 65 21 14 42 13 12 0 -51
-19 -86 -18 -135 1 -154 22 -22 29 -20 64 17 43 44 60 80 71 146 5 31 12 70
15 88 8 43 -25 78 -68 69 -19 -4 -27 -2 -22 5 32 52 45 247 18 273 -19 19 -22
19 -55 1z M40530 12780 c-23 -23 -23 -26 -6 -105 16 -75 29 -102 73 -142 51
-49 81 -44 108 20 23 57 19 95 -14 126 -15 14 -35 41 -44 58 -32 61 -81 79
-117 43z M35514 12685 c-39 -42 -96 -158 -88 -180 10 -26 40 -36 68 -23 14 6
26 14 26 18 0 3 16 12 36 19 61 22 93 106 63 164 -26 48 -60 49 -105 2z
M38920 12670 c-11 -11 -20 -24 -20 -30 0 -14 38 -50 53 -50 18 0 32 12 46 37
10 19 8 26 -9 43 -25 25 -45 25 -70 0z M33572 12673 c-7 -3 -31 -39 -53 -81
-22 -43 -47 -89 -56 -103 -21 -34 -3 -83 40 -110 26 -15 34 -16 56 -4 33 16
101 172 101 228 0 56 -41 89 -88 70z M38166 12624 c-32 -32 -33 -96 -1 -127
13 -13 13 -17 -1 -28 -26 -21 -46 -70 -40 -95 8 -32 49 -58 81 -50 49 12 73
108 36 145 -12 12 -16 23 -10 32 17 27 10 98 -11 119 -24 24 -34 25 -54 4z
M40060 12610 c-23 -23 -22 -17 -20 -173 1 -103 -1 -123 -20 -163 -27 -55 -23
-108 15 -199 13 -33 25 -77 25 -97 0 -55 16 -87 67 -135 48 -46 54 -48 83 -33
44 23 45 79 3 104 -25 14 -43 72 -43 138 0 41 -7 78 -20 107 -24 53 -27 142
-5 175 19 28 22 84 10 185 -11 102 -48 138 -95 91z M37520 12520 c-25 -25 -26
-75 -2 -95 9 -9 32 -29 50 -45 39 -36 42 -36 75 -9 38 29 55 91 34 123 -29 44
-123 60 -157 26z M34830 12490 c-25 -25 -25 -45 0 -70 16 -16 25 -18 39 -11
33 18 41 60 15 85 -20 21 -30 20 -54 -4z M35953 12492 c-22 -14 -73 -150 -113
-305 -7 -27 -21 -65 -32 -85 -23 -45 -23 -54 2 -102 25 -48 52 -65 80 -50 11
6 20 12 20 13 0 1 14 40 30 87 17 47 39 130 50 185 11 55 24 116 30 135 16 54
12 79 -15 105 -26 27 -33 29 -52 17z M36319 12475 c-65 -35 -150 -329 -125
-431 13 -48 72 -55 101 -10 17 26 54 159 55 195 0 13 16 58 35 101 42 92 42
103 10 135 -28 28 -39 30 -76 10z M39686 12408 c-42 -42 -51 -98 -44 -262 4
-94 9 -119 31 -162 36 -71 81 -83 92 -25 3 14 11 46 17 71 13 49 13 55 3 235
-8 127 -13 148 -46 165 -17 9 -25 6 -53 -22z M37512 12330 c-22 -14 -45 -46
-77 -110 -58 -118 -59 -147 -4 -176 34 -17 47 -12 107 42 69 62 89 142 52 213
-24 48 -39 54 -78 31z M33297 12299 c-26 -15 -44 -57 -52 -121 -7 -53 -5 -59
19 -83 46 -45 84 -6 97 100 11 87 -17 131 -64 104z M34913 12238 c-28 -14 -73
-101 -73 -142 0 -36 76 -163 102 -171 24 -8 55 11 73 45 19 36 19 68 1 111 -9
21 -12 52 -9 80 8 71 -34 106 -94 77z M37793 12228 c-12 -6 -27 -26 -34 -45
-29 -88 65 -143 106 -63 21 41 19 67 -10 95 -27 28 -30 28 -62 13z M39439
12205 c-43 -23 -53 -68 -28 -126 31 -71 70 -76 108 -15 32 52 37 110 12 135
-24 24 -55 26 -92 6z M40616 12174 c-18 -17 -24 -40 -28 -99 -3 -32 -9 -43
-38 -63 -50 -33 -64 -66 -66 -152 -2 -112 29 -154 102 -136 32 8 63 74 64 133
0 47 19 128 44 187 19 45 20 79 5 109 -21 40 -56 49 -83 21z M35342 12090
c-36 -22 -72 -74 -72 -106 0 -12 9 -33 20 -47 18 -23 20 -35 14 -100 -7 -77 5
-107 42 -107 60 0 80 47 89 206 7 126 6 133 -14 153 -26 26 -37 26 -79 1z
M36903 12002 c-23 -14 -33 -64 -33 -162 0 -129 20 -182 60 -160 33 18 88 186
76 233 -6 24 -68 97 -82 97 -5 0 -14 -4 -21 -8z M38799 11898 c-11 -13 -39
-51 -61 -86 -32 -50 -39 -68 -33 -90 6 -26 23 -144 24 -169 1 -22 40 -53 66
-53 41 0 61 30 69 103 5 49 3 76 -9 103 -22 54 -19 81 13 101 34 22 42 33 42
60 0 52 -73 72 -111 31z M37899 11825 c-42 -23 -55 -67 -33 -106 45 -76 101
-86 131 -24 20 41 11 78 -27 116 -32 33 -35 33 -71 14z M34240 11815 c-29 -15
-90 -125 -90 -161 0 -29 33 -64 60 -64 50 0 114 57 140 124 14 39 -3 82 -41
101 -34 18 -37 18 -69 0z M38234 11781 c-17 -10 -36 -33 -43 -50 -25 -59 64
-204 113 -185 48 18 73 148 39 205 -13 21 -57 50 -77 49 -1 0 -15 -9 -32 -19z
M37228 11759 c-38 -22 -45 -145 -11 -211 42 -85 123 -42 123 64 -1 119 -50
184 -112 147z M36442 11733 c-25 -10 -72 -125 -72 -176 0 -77 38 -129 82 -112
26 10 50 65 64 146 12 70 12 84 -1 108 -18 36 -42 47 -73 34z M39178 11700
c-9 -6 -24 -30 -34 -55 -21 -57 -15 -245 10 -293 28 -54 94 -55 121 -1 14 27
15 36 1 82 -8 29 -17 90 -21 137 -10 119 -32 156 -77 130z M40486 11544 c-30
-30 -6 -143 35 -165 22 -11 53 2 63 27 14 37 6 114 -14 134 -24 24 -63 26 -84
4z M35323 11528 c-25 -12 -53 -74 -53 -121 -1 -17 -8 -50 -16 -72 -40 -109
-25 -237 30 -251 58 -14 96 32 96 118 0 23 5 90 12 148 12 110 8 148 -18 174
-18 18 -21 19 -51 4z M34285 11518 c-43 -24 -46 -68 -11 -145 24 -52 50 -70
84 -59 22 7 52 57 52 86 0 34 -41 100 -72 116 -32 16 -28 16 -53 2z M39891
11504 c-43 -30 -51 -68 -35 -167 14 -88 27 -125 48 -139 21 -14 47 -8 72 17
23 24 24 27 18 127 -7 107 -21 150 -53 168 -25 13 -22 13 -50 -6z M37894
11426 c-61 -27 -66 -111 -12 -224 33 -70 62 -91 97 -73 27 15 35 50 26 114 -4
29 -10 78 -14 111 -10 81 -34 99 -97 72z M35868 11370 c-36 -27 -65 -110 -77
-213 -12 -98 -3 -134 35 -143 49 -12 87 33 99 121 4 28 13 77 21 110 18 78 17
110 -2 129 -21 21 -46 20 -76 -4z M36668 11379 c-21 -12 -42 -83 -34 -115 14
-53 74 -54 107 -1 26 43 24 73 -6 102 -26 27 -40 30 -67 14z M38750 11340
c-16 -16 -19 -30 -16 -73 2 -29 8 -63 15 -74 6 -12 11 -47 11 -78 0 -93 61
-134 117 -79 22 23 25 31 20 73 -3 26 -12 63 -20 82 -9 19 -25 59 -37 89 -31
79 -55 95 -90 60z M37156 11324 c-30 -30 -10 -94 29 -94 20 0 45 28 45 51 0
20 -33 59 -49 59 -5 0 -17 -7 -25 -16z M26508 16445 c-35 -20 -48 -62 -50
-170 -2 -97 13 -144 52 -165 37 -20 80 29 80 90 0 10 14 34 30 55 41 52 44
142 5 180 -28 29 -75 32 -117 10z M27101 13811 c-33 -33 -41 -117 -28 -284 4
-43 12 -87 17 -97 16 -29 46 -43 69 -31 34 19 40 62 34 232 -5 139 -9 165 -25
181 -23 23 -43 23 -67 -1z M28500 13710 c-26 -26 -25 -55 0 -80 16 -16 25 -18
39 -11 33 18 42 69 15 95 -20 21 -30 20 -54 -4z M27450 13606 c-30 -17 -140
-220 -140 -259 0 -55 56 -74 104 -36 29 23 126 208 126 240 0 20 -42 69 -57
69 -4 -1 -19 -7 -33 -14z M29003 13570 c-42 -25 -53 -67 -53 -198 0 -107 13
-153 45 -166 20 -7 51 8 63 32 27 52 49 280 31 314 -23 43 -40 47 -86 18z
M28108 13324 c-39 -21 -45 -37 -65 -171 -17 -117 -17 -122 2 -162 22 -50 46
-66 75 -51 41 22 90 169 90 269 0 85 -5 98 -41 116 -33 18 -27 18 -61 -1z
M28441 12671 c-18 -18 -40 -81 -56 -158 -8 -38 9 -99 30 -107 25 -9 53 27 85
107 36 94 37 120 5 152 -29 30 -39 31 -64 6z M29114 12628 c-43 -20 -69 -134
-65 -281 2 -74 20 -122 49 -132 47 -14 82 34 82 112 0 26 5 77 10 113 12 81 3
157 -21 181 -21 21 -25 22 -55 7z M26241 12476 c-25 -14 -50 -51 -51 -76 0 -8
-9 -45 -21 -81 -23 -70 -21 -106 7 -133 42 -42 83 2 123 131 37 118 37 127 11
153 -23 23 -36 24 -69 6z M28076 12437 c-18 -18 -25 -41 -31 -93 -9 -77 -9
-87 7 -127 40 -102 128 -17 128 123 0 62 -3 74 -25 95 -30 31 -49 31 -79 2z
M27112 12408 c-24 -12 -29 -26 -61 -178 -39 -186 -34 -268 18 -285 36 -11 79
21 92 68 6 23 15 55 20 72 5 16 14 85 20 153 10 129 6 152 -31 172 -23 12 -28
12 -58 -2z M28512 11653 c-40 -16 -67 -137 -37 -167 12 -12 13 -16 2 -23 -48
-30 -73 -115 -47 -162 25 -48 82 -29 106 35 18 49 13 85 -16 114 -19 19 -19
20 1 31 24 13 58 83 59 121 0 42 -31 66 -68 51z M28641 11611 c-17 -17 -19
-30 -14 -93 9 -132 27 -168 73 -153 52 16 62 202 14 249 -21 22 -50 20 -73 -3z"/>
</g>
</g>
</svg>
