<?xml version="1.0" standalone="no"?>
<!DOCTYPE svg PUBLIC "-//W3C//DTD SVG 20010904//EN"
 "http://www.w3.org/TR/2001/REC-SVG-20010904/DTD/svg10.dtd">
<svg data-landmark-id="037" version="1.0" xmlns="http://www.w3.org/2000/svg"
 width="574" height="709" viewBox="285 269 574 709"
 preserveAspectRatio="xMidYMid meet" role="img" aria-labelledby="title desc">
<title id="title">연들이 소파와 냉장고를 운반하는 장면</title>
<desc id="desc">원본 선 굵기를 유지하면서 전체 구성을 65퍼센트로 축소한 검은 잉크 선화</desc>
<metadata>
Created by potrace 1.16, written by Peter Selinger 2001-2019
</metadata>
<g transform="translate(627 627) scale(0.65) translate(-627 -627)">
<g transform="translate(0.000000,1254.000000) scale(0.025000,-0.025000)"
fill="#000000" stroke="none">
<path d="M26882 46029 c-33 -20 -61 -46 -77 -72 -13 -23 -72 -89 -131 -147
-58 -58 -130 -136 -159 -175 -29 -38 -172 -190 -317 -336 -146 -147 -303 -311
-350 -365 -47 -55 -109 -121 -139 -149 -30 -27 -69 -68 -87 -90 -19 -22 -98
-105 -176 -185 -78 -80 -158 -165 -176 -190 -19 -25 -71 -83 -115 -130 -45
-47 -111 -123 -147 -170 -36 -47 -91 -108 -120 -136 -30 -28 -88 -91 -128
-140 -41 -49 -122 -138 -180 -199 -59 -60 -127 -137 -152 -170 -66 -88 -408
-429 -444 -443 -40 -17 -64 -60 -64 -117 0 -46 22 -105 39 -105 18 0 172 -177
207 -238 15 -26 49 -75 75 -109 27 -34 64 -86 83 -115 56 -86 162 -229 211
-285 48 -54 95 -119 95 -131 0 -4 15 -30 33 -57 17 -28 38 -61 45 -75 23 -46
77 -126 128 -191 28 -35 64 -86 80 -114 15 -27 55 -88 89 -134 95 -132 139
-200 182 -281 22 -41 64 -112 94 -157 30 -45 81 -126 114 -179 33 -52 77 -118
99 -146 21 -28 53 -76 71 -107 57 -99 128 -214 208 -336 43 -66 106 -167 141
-225 35 -58 102 -170 150 -250 48 -79 88 -154 89 -165 2 -57 -4 -84 -21 -89
-70 -22 -72 -199 -3 -236 49 -26 127 -3 146 44 l12 29 13 -53 c9 -37 11 -90 6
-179 -4 -69 -9 -162 -11 -206 -2 -44 -9 -120 -14 -170 -6 -49 -11 -121 -11
-158 0 -38 -3 -67 -7 -65 -99 45 -197 110 -309 207 -64 56 -205 157 -245 176
-35 17 -36 17 -97 -14 -38 -19 -67 -41 -75 -59 -17 -33 -38 -155 -41 -238 -2
-33 -6 -66 -10 -72 -7 -12 -26 -255 -31 -392 -1 -36 -5 -96 -9 -135 -7 -67 -6
-72 22 -114 51 -75 82 -84 164 -46 29 14 63 25 74 25 12 0 44 16 70 35 27 19
74 46 104 60 30 14 77 41 105 59 48 32 228 126 241 126 10 0 -2 -208 -14 -260
-6 -25 -16 -124 -22 -220 -5 -96 -15 -206 -21 -245 -14 -98 -25 -205 -39 -385
-7 -85 -14 -157 -17 -160 -2 -2 -12 1 -21 8 -9 7 -37 25 -61 40 -129 80 -270
177 -301 207 -39 37 -108 73 -188 99 -51 17 -53 17 -97 -4 -28 -13 -52 -34
-62 -54 -27 -50 -43 -210 -54 -516 -5 -157 -14 -317 -20 -357 -13 -90 -1 -118
74 -168 58 -39 80 -43 118 -17 175 117 305 200 359 227 19 10 69 40 110 68 41
28 87 59 102 69 15 10 30 18 34 18 4 0 4 -42 0 -92 -4 -51 -8 -149 -11 -218
-2 -69 -9 -152 -14 -185 -20 -115 -40 -442 -40 -661 0 -211 -9 -340 -32 -466
-17 -100 -7 -1033 16 -1388 8 -129 25 -312 30 -320 3 -5 10 -49 15 -97 10 -97
54 -365 69 -428 17 -65 43 -215 51 -295 4 -41 13 -102 18 -135 6 -33 13 -87
17 -120 7 -64 85 -393 115 -485 22 -70 56 -198 126 -474 9 -37 31 -96 49 -130
18 -33 51 -115 73 -181 104 -311 134 -404 147 -455 8 -30 23 -77 35 -103 12
-27 44 -115 71 -195 53 -155 96 -270 109 -287 4 -5 12 -23 18 -40 6 -16 29
-75 52 -130 23 -55 57 -145 75 -201 18 -55 52 -140 75 -189 23 -48 48 -108 55
-134 7 -25 25 -77 39 -116 14 -38 38 -104 52 -145 15 -41 33 -87 40 -102 8
-15 14 -41 14 -58 0 -17 9 -48 20 -70 11 -22 20 -47 20 -56 0 -10 15 -63 34
-118 19 -56 46 -141 61 -191 15 -49 33 -108 40 -130 29 -90 55 -184 71 -255 9
-41 25 -98 35 -125 11 -28 19 -57 19 -65 0 -17 39 -169 95 -375 14 -49 34
-150 61 -295 14 -82 69 -307 85 -355 17 -50 49 -234 59 -340 5 -55 16 -125 25
-155 8 -30 15 -82 15 -115 0 -33 7 -85 15 -115 8 -30 19 -104 25 -165 5 -60
14 -126 19 -145 5 -19 18 -138 28 -265 26 -331 27 -1412 1 -1555 -20 -110 -35
-245 -53 -485 -14 -179 -40 -409 -50 -434 -3 -9 -13 -62 -21 -119 -8 -57 -19
-112 -24 -122 -5 -10 -14 -62 -20 -117 -6 -54 -15 -111 -20 -127 -6 -16 -10
-43 -10 -61 0 -18 -7 -52 -16 -76 -8 -24 -19 -97 -24 -161 -5 -65 -16 -139
-24 -165 -7 -27 -19 -77 -25 -113 -19 -115 -45 -246 -76 -385 -23 -102 -54
-286 -65 -385 -6 -52 -15 -122 -20 -155 -10 -60 -24 -188 -40 -385 -5 -58 -16
-177 -24 -265 -9 -88 -16 -198 -17 -245 -1 -117 -11 -139 -32 -75 -10 27 -17
59 -17 71 0 13 -4 33 -9 46 -5 13 -12 36 -16 51 -13 64 -93 61 -126 -5 -26
-51 -23 -121 10 -213 12 -33 24 -67 27 -76 4 -13 -11 -25 -63 -49 -222 -105
-315 -272 -330 -592 -4 -93 -3 -103 36 -217 22 -66 53 -148 69 -183 16 -35 32
-77 36 -93 4 -17 21 -51 37 -78 39 -64 37 -73 -14 -80 -23 -3 -63 -15 -87 -26
-25 -11 -66 -21 -91 -21 -26 0 -66 -7 -89 -15 -23 -8 -55 -15 -70 -15 -16 0
-52 -9 -82 -19 -29 -10 -91 -31 -138 -46 -47 -14 -104 -36 -127 -48 -162 -85
-190 -104 -276 -185 -242 -229 -310 -351 -412 -746 -20 -77 -39 -144 -42 -150
-6 -9 -25 -120 -53 -301 -5 -33 -14 -152 -20 -265 -6 -113 -15 -227 -20 -255
-5 -27 -12 -108 -15 -180 -4 -71 -11 -150 -16 -175 -11 -60 -37 -506 -45 -800
-3 -129 -8 -238 -10 -242 -8 -13 -14 -177 -19 -533 -3 -192 -10 -435 -16 -540
-14 -254 -15 -365 -23 -1775 -6 -919 -4 -1285 5 -1500 7 -157 12 -316 11 -355
-4 -112 19 -1096 29 -1250 5 -77 11 -250 13 -385 6 -296 21 -668 34 -845 6
-71 13 -245 17 -385 4 -140 12 -266 17 -280 6 -14 17 -86 24 -160 7 -74 18
-160 24 -190 15 -70 87 -288 106 -317 8 -12 14 -34 14 -48 0 -32 41 -114 70
-140 12 -11 37 -43 56 -72 38 -60 67 -81 119 -90 20 -3 64 -24 98 -47 34 -23
98 -56 142 -73 44 -18 117 -47 163 -66 l83 -35 3 -424 c4 -467 0 -439 70 -536
36 -52 71 -72 123 -72 21 0 54 -5 73 -10 19 -6 112 -12 205 -15 94 -3 236 -10
316 -16 105 -8 156 -8 185 0 21 6 54 11 73 11 19 0 48 4 65 9 17 5 50 15 73
21 103 26 146 105 162 295 7 72 16 157 21 190 5 33 9 115 8 182 0 66 3 127 8
135 5 7 11 31 14 53 l5 40 111 -2 c61 -1 124 -8 140 -14 20 -9 124 -13 344
-15 183 -2 351 -8 400 -15 48 -7 211 -14 375 -15 160 -1 396 -8 525 -14 160
-8 371 -10 660 -5 299 5 505 4 693 -5 210 -11 298 -11 410 -1 78 6 270 13 426
15 l283 3 19 -31 c23 -38 24 -77 4 -117 -13 -25 -15 -63 -11 -244 3 -118 10
-223 15 -234 6 -10 14 -44 17 -76 9 -73 68 -156 134 -190 58 -29 189 -38 565
-37 216 0 293 4 337 16 31 8 77 18 103 21 123 19 183 138 190 380 1 39 7 94
13 124 7 29 12 92 12 140 0 47 3 143 7 213 l6 128 36 6 c20 4 62 17 93 30 32
13 65 24 74 24 27 0 201 87 258 129 58 43 130 120 153 164 8 16 34 58 59 95
24 37 49 85 55 107 6 22 17 54 25 70 39 88 54 130 54 156 0 15 9 67 20 114 11
47 20 110 20 139 0 29 7 75 15 102 8 27 15 76 15 109 0 33 7 92 15 130 18 86
34 335 40 600 3 110 9 322 15 470 16 431 32 1929 32 3045 0 256 1 584 1 730 1
146 0 396 -2 555 -2 160 -2 400 -1 535 3 390 -9 996 -21 1048 -6 26 -9 125 -8
222 2 107 -1 183 -8 195 -9 17 -24 549 -23 815 0 41 -5 93 -11 115 -6 22 -17
184 -25 360 -7 176 -18 367 -24 425 -5 58 -14 161 -20 230 -6 69 -15 157 -20
195 -6 39 -13 105 -15 149 -3 43 -8 83 -12 89 -4 6 -12 50 -19 97 -19 132 -34
198 -64 295 -15 50 -33 117 -40 150 -6 33 -18 70 -26 82 -8 12 -14 28 -14 35
0 22 -58 138 -89 177 -15 20 -30 44 -34 53 -3 9 -34 55 -68 101 -95 128 -195
199 -463 334 -107 53 -135 64 -162 59 -19 -4 -49 0 -76 9 -23 9 -61 21 -83 26
-22 5 -57 16 -78 24 -20 8 -52 15 -71 15 -18 0 -62 9 -96 20 -34 11 -86 20
-115 20 -48 0 -134 34 -149 59 -3 4 11 30 30 57 20 27 48 74 63 104 16 30 56
107 89 170 48 89 62 125 62 158 0 24 10 66 21 93 19 43 21 62 17 147 -9 159
-70 293 -187 409 l-63 64 22 50 c11 28 30 65 41 82 23 39 25 80 3 101 -24 24
-54 16 -101 -27 -13 -11 -23 -16 -23 -11 0 21 31 164 50 234 11 41 25 100 30
130 10 64 14 83 69 330 22 102 48 205 57 230 8 25 24 81 34 125 18 75 35 145
59 240 31 121 44 187 51 250 4 39 12 90 18 115 6 25 28 137 48 250 20 113 40
212 45 221 8 16 41 224 54 339 3 30 10 132 15 225 6 94 14 204 20 245 15 117
24 749 11 860 -6 52 -16 169 -21 260 -19 290 -66 621 -120 840 -11 47 -26 117
-31 155 -6 39 -19 129 -30 200 -23 153 -56 421 -69 555 -15 151 -27 242 -38
290 -6 25 -13 92 -17 150 -3 58 -10 150 -15 205 -10 103 -16 237 -26 570 -3
105 -7 240 -9 300 -2 61 0 175 5 255 5 80 14 222 20 315 29 456 40 617 50 695
6 47 15 119 20 160 4 41 18 134 29 205 12 72 26 164 31 205 14 111 29 203 36
220 3 8 9 58 14 110 8 95 15 133 52 310 42 201 51 236 69 272 11 21 19 53 19
73 0 20 9 80 21 133 11 53 30 140 41 192 11 52 32 133 45 180 14 47 33 137 44
200 10 63 28 153 39 200 11 47 25 110 31 140 7 30 27 103 45 162 18 59 36 125
40 145 4 21 12 49 19 63 7 14 15 43 19 65 13 76 56 259 83 355 9 30 22 80 29
110 7 30 20 82 29 115 8 33 22 85 29 115 8 30 19 75 26 100 29 113 40 169 40
215 0 28 7 84 15 125 24 121 46 221 60 275 7 28 17 75 20 105 4 30 13 66 20
80 7 14 23 84 35 155 12 72 28 153 36 181 8 28 14 73 14 100 0 27 11 103 25
169 13 66 25 149 25 185 0 46 6 78 20 105 11 22 20 47 20 57 0 27 7 23 77 -42
35 -33 80 -69 101 -79 20 -11 55 -38 77 -61 22 -23 70 -62 107 -87 37 -24 91
-68 120 -97 29 -29 68 -61 87 -70 31 -17 36 -17 77 -1 49 18 103 75 105 108 1
12 0 36 -1 52 0 17 6 46 14 66 8 20 18 60 22 90 3 30 19 108 34 174 16 66 31
147 35 180 3 33 15 98 26 144 29 120 20 172 -36 229 -23 23 -52 42 -63 42 -26
0 -418 -129 -496 -164 -32 -14 -68 -26 -80 -26 -11 0 -41 -9 -65 -20 -58 -27
-71 -26 -71 8 0 42 41 234 56 264 8 15 14 46 14 68 0 23 5 51 12 63 14 26 40
205 32 218 -3 5 2 35 10 68 8 32 18 83 21 112 4 30 13 74 20 99 8 25 17 72 20
105 4 33 15 94 26 137 10 42 19 86 19 98 l0 22 28 -21 c15 -12 65 -48 112 -81
47 -33 113 -83 147 -112 224 -193 300 -248 341 -248 54 0 122 91 122 165 0 18
4 45 10 59 5 15 14 52 20 84 38 214 50 292 50 329 0 23 5 54 11 70 15 38 30
132 36 226 4 73 3 82 -22 117 -14 20 -43 45 -65 55 -36 16 -41 16 -92 0 -64
-22 -148 -61 -246 -115 -41 -22 -86 -40 -100 -40 -15 0 -46 -11 -69 -24 -23
-13 -59 -29 -80 -36 -21 -7 -58 -23 -82 -36 -24 -13 -46 -24 -49 -24 -10 0 8
184 24 250 8 36 22 108 30 160 33 223 71 355 105 365 11 4 19 11 19 16 0 6 12
1 26 -10 62 -49 163 -30 191 36 22 54 -9 172 -50 186 -22 7 14 57 88 121 39
33 129 119 200 191 72 71 148 146 170 164 22 19 85 78 140 130 55 53 132 122
170 155 81 68 156 136 315 290 63 61 144 135 180 165 36 29 130 115 210 190
162 153 307 286 379 346 27 22 84 74 127 117 44 42 122 112 176 155 95 77 192
162 375 330 145 133 288 253 333 281 14 9 50 39 81 66 106 96 141 120 171 118
16 -1 41 4 57 13 31 16 91 109 91 142 0 33 -43 101 -79 125 -21 14 -47 47 -66
83 -17 33 -62 114 -99 180 -105 185 -276 516 -276 535 0 19 -31 73 -73 130
-22 29 -62 95 -87 145 -26 49 -61 111 -78 136 -18 26 -32 50 -32 54 0 4 -15
32 -33 63 -19 32 -52 98 -74 148 -37 85 -150 287 -192 344 -10 14 -35 54 -55
90 -20 36 -41 72 -46 80 -5 8 -37 74 -72 145 -34 72 -83 162 -109 200 -26 39
-77 126 -114 195 -38 69 -79 143 -93 165 -33 51 -77 134 -113 210 -16 33 -36
71 -43 85 -8 14 -36 63 -62 110 -26 47 -66 117 -89 155 -121 201 -191 337
-200 388 -9 49 -58 105 -112 129 -39 17 -45 17 -80 3 -21 -9 -56 -33 -78 -54
-22 -20 -58 -50 -80 -66 -22 -16 -74 -64 -116 -107 -42 -42 -121 -113 -175
-158 -188 -153 -238 -195 -324 -275 -207 -191 -296 -269 -368 -322 -42 -31
-95 -72 -117 -92 -23 -20 -70 -61 -105 -91 -35 -30 -94 -82 -130 -115 -115
-104 -193 -172 -255 -218 -33 -24 -113 -96 -177 -160 -64 -63 -152 -146 -195
-183 -43 -37 -98 -86 -123 -108 -25 -23 -70 -61 -100 -85 -82 -64 -207 -172
-350 -301 -172 -156 -331 -291 -443 -377 -23 -17 -57 -45 -75 -62 -18 -17 -56
-43 -85 -57 -66 -33 -84 -50 -108 -96 -34 -66 -25 -100 45 -179 47 -54 65 -84
234 -394 193 -356 268 -503 313 -616 22 -57 53 -119 69 -139 34 -43 125 -217
192 -369 27 -62 63 -136 79 -163 16 -27 29 -52 29 -55 0 -3 27 -53 61 -110 34
-58 81 -145 105 -193 24 -49 47 -91 53 -94 5 -4 12 -21 16 -39 7 -33 27 -75
180 -392 48 -99 103 -216 122 -260 20 -44 41 -87 48 -95 6 -8 22 -40 35 -70
12 -30 38 -81 56 -113 19 -32 34 -60 34 -63 0 -2 15 -30 32 -62 18 -31 48 -93
66 -137 102 -243 104 -248 93 -273 -6 -12 -11 -31 -11 -41 0 -10 -12 -28 -26
-42 -31 -29 -74 -110 -74 -139 0 -11 9 -38 20 -60 36 -70 129 -74 170 -8 18
29 18 30 25 8 8 -25 -2 -170 -17 -245 -5 -27 -16 -90 -23 -140 -7 -49 -20
-110 -28 -135 -32 -95 -57 -196 -57 -227 0 -64 -7 -65 -80 -9 -37 29 -82 69
-99 88 -17 20 -60 56 -96 79 -36 24 -65 47 -65 52 0 10 -129 136 -169 163 -40
28 -105 32 -139 8 -41 -28 -82 -94 -82 -131 0 -18 -7 -50 -15 -70 -8 -20 -19
-59 -25 -87 -12 -70 -29 -141 -45 -201 -8 -27 -17 -70 -21 -95 -4 -25 -13 -57
-21 -73 -7 -15 -18 -63 -24 -106 -5 -44 -16 -96 -25 -117 -30 -72 15 -173 94
-208 38 -17 40 -17 80 3 23 12 52 21 65 21 13 0 91 32 173 71 141 67 413 173
422 165 2 -2 -1 -13 -6 -23 -5 -10 -12 -58 -16 -108 -3 -49 -13 -112 -21 -139
-8 -27 -15 -66 -15 -87 0 -21 -9 -77 -19 -126 -11 -48 -24 -115 -30 -148 -6
-33 -22 -121 -36 -195 -15 -74 -30 -171 -35 -215 -4 -44 -15 -105 -24 -135 -9
-30 -16 -61 -16 -70 0 -8 -4 -21 -9 -29 -10 -15 -84 37 -183 126 -26 24 -51
43 -56 43 -5 0 -56 41 -113 90 -114 99 -245 176 -283 166 -62 -15 -136 -108
-136 -170 -1 -23 -7 -52 -15 -66 -8 -14 -14 -44 -15 -68 0 -23 -9 -68 -20 -99
-11 -33 -20 -83 -20 -118 0 -33 -9 -89 -20 -123 -11 -35 -20 -88 -20 -118 0
-30 -7 -88 -15 -129 -15 -72 -15 -76 5 -115 21 -40 64 -75 108 -86 25 -7 151
39 236 86 28 15 64 31 81 35 16 3 79 31 140 60 103 50 204 91 251 102 19 4 20
1 16 -64 -2 -37 -12 -101 -23 -142 -10 -41 -19 -97 -19 -123 0 -27 -6 -61 -14
-76 -8 -16 -17 -61 -21 -102 -3 -41 -12 -97 -20 -125 -7 -27 -18 -77 -24 -110
-5 -33 -15 -87 -21 -120 -31 -166 -40 -227 -40 -262 0 -21 -7 -63 -15 -93 -9
-30 -20 -93 -26 -140 -5 -47 -16 -102 -24 -123 -8 -20 -15 -49 -15 -63 0 -13
-9 -42 -20 -64 -11 -22 -20 -55 -20 -73 0 -19 -6 -50 -14 -68 -7 -19 -17 -63
-20 -99 -4 -35 -14 -79 -21 -96 -7 -18 -16 -59 -20 -91 -4 -32 -19 -101 -35
-153 -26 -87 -37 -130 -75 -290 -7 -30 -23 -95 -35 -145 -12 -49 -26 -115 -31
-145 -9 -50 -21 -101 -59 -255 -7 -27 -18 -79 -25 -115 -7 -36 -17 -76 -23
-90 -10 -22 -48 -159 -83 -300 -6 -25 -18 -61 -25 -80 -8 -19 -19 -60 -25 -90
-6 -30 -20 -98 -31 -150 -41 -202 -48 -238 -63 -335 -15 -99 -43 -255 -71
-389 -8 -38 -14 -84 -14 -103 0 -19 -6 -46 -14 -61 -7 -15 -16 -54 -20 -87 -3
-33 -13 -91 -20 -130 -8 -38 -24 -142 -35 -230 -11 -88 -28 -214 -37 -280 -40
-298 -65 -671 -83 -1235 -5 -140 -7 -258 -5 -261 2 -4 6 -130 8 -280 9 -548
30 -852 81 -1174 8 -49 17 -119 20 -155 7 -85 33 -242 50 -305 15 -56 69 -400
85 -545 6 -52 17 -138 25 -190 8 -52 17 -122 20 -154 4 -32 11 -68 16 -80 4
-12 19 -127 33 -256 22 -213 24 -281 25 -730 1 -473 -4 -628 -28 -750 -15 -80
-63 -445 -67 -515 -2 -33 -9 -85 -15 -115 -6 -30 -15 -78 -19 -107 -5 -28 -11
-56 -14 -61 -3 -5 -10 -38 -16 -73 -24 -151 -40 -227 -59 -276 -11 -29 -28
-85 -37 -125 -8 -40 -22 -95 -30 -123 -25 -91 -56 -229 -64 -285 -7 -56 -51
-237 -120 -500 -69 -260 -88 -344 -95 -411 -10 -96 -39 -142 -92 -150 -26 -3
-54 -16 -77 -37 -20 -18 -47 -32 -59 -32 -29 0 -160 -54 -198 -81 -42 -29
-173 -196 -194 -244 -9 -22 -27 -80 -40 -130 -13 -49 -29 -108 -36 -130 -16
-54 5 -309 28 -351 17 -31 52 -133 62 -184 5 -25 12 -53 16 -62 7 -17 -5 -18
-168 -18 -104 0 -208 6 -258 14 -79 13 -210 19 -429 17 -288 -3 -564 -2 -1305
2 -474 3 -888 1 -980 -5 -261 -15 -673 -26 -782 -21 -114 7 -116 8 -84 71 51
99 107 243 127 330 13 53 29 116 36 139 13 44 6 115 -25 279 -24 125 -148 285
-263 340 -52 25 -59 32 -55 54 2 14 4 57 4 95 1 115 -37 187 -92 176 -12 -2
-13 23 -8 161 3 90 11 179 18 198 6 19 15 85 20 145 10 143 22 236 47 365 12
58 25 141 31 185 6 44 20 130 31 190 11 61 22 131 24 156 3 25 16 105 30 177
14 73 26 147 26 166 0 18 7 53 15 76 8 23 15 60 15 82 0 21 7 55 15 74 14 35
31 120 60 314 8 52 19 112 25 133 6 21 15 79 20 130 4 51 18 146 30 212 38
211 61 393 80 640 6 72 15 164 20 205 16 138 34 434 34 565 0 265 -1 711 -2
740 -1 163 -24 488 -37 529 -8 27 -15 74 -15 105 0 31 -7 106 -16 166 -8 61
-19 160 -23 220 -4 61 -13 120 -19 132 -6 11 -14 47 -17 79 -3 33 -12 84 -20
114 -7 30 -18 87 -24 125 -6 39 -15 95 -21 125 -5 30 -14 82 -20 115 -5 33
-15 89 -21 125 -6 36 -20 94 -30 129 -11 35 -19 79 -19 97 0 18 -7 55 -15 81
-8 26 -24 77 -35 113 -10 36 -27 88 -35 115 -9 28 -20 75 -25 105 -8 56 -44
192 -55 210 -3 5 -12 42 -20 82 -8 40 -24 105 -35 143 -11 39 -36 129 -56 200
-55 201 -71 257 -85 295 -33 96 -39 118 -39 145 0 17 -11 54 -25 83 -14 30
-25 62 -25 71 0 9 -6 25 -13 36 -11 18 -32 69 -64 160 -6 17 -17 46 -24 65 -7
19 -20 58 -30 85 -10 28 -33 91 -52 140 -19 50 -37 99 -40 110 -15 54 -88 250
-97 259 -5 5 -10 16 -10 23 0 13 -62 179 -107 288 -14 33 -33 87 -43 120 -10
33 -28 85 -40 115 -12 30 -28 75 -35 100 -7 25 -25 77 -40 115 -14 39 -30 82
-35 97 -4 15 -15 40 -23 55 -14 25 -34 77 -72 183 -7 19 -22 60 -33 90 -11 30
-36 107 -55 170 -20 63 -43 138 -52 165 -8 28 -34 109 -56 180 -22 72 -60 193
-84 270 -50 159 -65 222 -101 420 -15 77 -30 158 -34 180 -73 356 -90 450
-105 560 -9 72 -23 168 -30 215 -8 47 -19 130 -25 185 -6 55 -17 159 -25 230
-8 72 -20 182 -27 245 -14 140 -26 1006 -17 1180 4 69 12 253 19 410 10 263
27 514 51 750 5 52 14 183 19 290 10 178 33 340 49 340 4 0 11 -4 16 -9 19
-18 187 -121 229 -140 39 -17 182 -108 285 -182 24 -17 63 -38 86 -47 40 -15
44 -14 86 9 53 30 92 83 85 119 -3 14 2 99 11 190 9 91 18 274 20 408 4 234 3
245 -17 278 -29 46 -67 74 -102 74 -35 0 -161 -52 -203 -85 -17 -13 -60 -35
-96 -50 -35 -15 -68 -31 -74 -35 -5 -5 -68 -32 -140 -60 -71 -29 -134 -56
-140 -61 -5 -5 -11 -9 -15 -9 -10 0 -10 176 1 210 20 62 45 431 41 602 -1 54
4 126 12 165 8 37 18 107 22 155 9 114 10 115 70 81 27 -16 83 -46 124 -67 41
-22 86 -48 100 -58 42 -33 233 -154 277 -177 53 -27 75 -27 125 1 49 28 68 63
68 126 0 27 6 67 14 88 8 25 14 84 14 159 0 66 5 149 12 184 9 49 9 79 0 126
-9 47 -9 72 0 105 9 33 9 58 0 107 -15 76 -45 118 -99 134 -34 10 -44 8 -117
-26 -147 -68 -339 -168 -364 -189 -8 -7 -40 -23 -70 -35 -30 -13 -70 -32 -88
-43 -18 -11 -35 -18 -38 -15 -6 6 24 506 31 517 2 4 9 53 14 110 5 56 12 105
15 108 4 3 30 -4 59 -16 65 -27 77 -27 112 0 75 59 87 206 23 275 l-21 22 26
43 c14 24 36 54 49 68 47 51 119 140 246 305 72 94 148 188 169 211 119 128
207 227 254 284 30 36 65 76 79 90 28 29 96 108 185 215 33 40 103 122 157
181 53 60 165 188 249 284 84 96 189 213 233 260 45 47 140 155 212 240 72 85
151 173 175 195 24 21 57 55 72 75 15 19 94 103 175 187 81 83 191 199 245
257 75 80 108 108 135 116 75 20 112 69 112 147 -1 51 -17 77 -76 122 -47 35
-108 109 -167 202 -15 24 -42 63 -60 87 -101 133 -159 218 -212 307 -76 131
-92 154 -324 482 -28 39 -71 106 -97 149 -44 75 -129 194 -174 244 -12 14 -33
48 -47 75 -34 67 -88 149 -138 210 -67 82 -121 157 -151 210 -32 56 -72 116
-150 221 -29 40 -62 91 -74 115 -12 24 -45 70 -72 102 -27 31 -64 81 -82 110
-89 144 -121 190 -251 347 -25 30 -59 80 -77 110 -34 61 -113 166 -167 222
-19 21 -56 75 -81 120 -35 64 -55 88 -85 105 -51 29 -60 29 -123 -8z m-62
-400 c-5 -16 -9 -79 -9 -138 0 -59 -8 -170 -18 -247 -9 -76 -17 -175 -18 -219
0 -44 -6 -114 -13 -155 -7 -41 -16 -131 -21 -200 -6 -69 -14 -165 -20 -215 -6
-49 -15 -188 -22 -309 -6 -120 -16 -232 -22 -250 -5 -17 -13 -103 -17 -191
-17 -344 -30 -541 -40 -570 -5 -16 -9 -62 -9 -100 1 -39 -5 -97 -12 -130 l-14
-60 -140 3 c-77 2 -187 7 -245 12 -118 10 -420 22 -615 25 -71 0 -209 7 -305
13 -96 7 -290 14 -430 17 -193 3 -487 16 -538 25 -5 0 80 99 165 192 40 43 96
106 124 140 59 71 133 151 167 182 13 12 56 59 95 106 40 47 121 139 182 206
60 66 148 163 194 215 46 52 111 123 146 159 34 36 76 84 92 107 17 24 134
150 260 280 127 131 268 281 314 333 46 52 131 138 189 191 58 52 125 120 150
151 25 30 65 73 90 94 48 41 171 170 279 292 36 39 66 72 67 72 1 0 -1 -14 -6
-31z m282 -69 c30 -41 65 -93 78 -115 13 -22 40 -58 61 -80 20 -22 87 -107
148 -190 60 -82 127 -172 148 -199 21 -26 53 -74 71 -105 18 -31 42 -65 51
-76 10 -11 37 -53 61 -94 23 -40 72 -108 109 -150 37 -42 83 -102 104 -133 21
-31 42 -60 47 -63 10 -6 104 -147 209 -315 88 -139 161 -245 376 -545 33 -46
94 -139 135 -207 41 -67 112 -173 157 -235 45 -61 84 -121 88 -133 7 -21 144
-231 171 -261 8 -8 14 -18 14 -20 0 -9 -311 1 -390 11 -41 6 -127 15 -190 20
-63 5 -162 17 -220 26 -58 9 -172 20 -255 24 -82 5 -215 15 -295 24 -80 8
-192 16 -250 16 -58 1 -132 6 -165 10 -33 5 -114 14 -180 19 -66 6 -154 15
-195 21 -41 6 -98 13 -126 16 l-51 7 -6 86 c-4 49 0 160 9 261 9 96 22 245 30
330 7 85 18 243 24 350 5 107 15 231 21 275 25 185 46 407 58 610 5 77 14 156
20 175 6 19 11 73 11 120 1 47 5 119 11 160 5 41 12 129 14 195 2 66 9 136 15
155 5 19 10 50 10 69 0 40 -1 41 72 -59z m8702 -2200 c-8 -30 -14 -73 -14 -96
0 -22 -9 -67 -20 -100 -12 -32 -27 -104 -36 -159 -8 -55 -23 -125 -33 -155
-10 -31 -22 -80 -25 -110 -9 -69 -33 -198 -51 -270 -7 -30 -16 -77 -20 -105
-4 -27 -15 -78 -26 -112 -21 -63 -33 -140 -48 -299 -5 -51 -12 -97 -15 -103
-4 -6 -16 -57 -26 -114 -10 -56 -32 -156 -49 -222 -43 -171 -71 -300 -71 -328
0 -14 -7 -44 -15 -67 -8 -23 -15 -61 -15 -84 0 -23 -9 -76 -20 -117 -11 -41
-20 -88 -20 -105 0 -17 -9 -60 -20 -94 -11 -34 -20 -75 -20 -91 0 -15 -3 -30
-8 -33 -13 -8 -186 14 -225 29 -20 8 -60 15 -87 15 -27 0 -60 4 -75 10 -14 5
-98 14 -186 20 -89 6 -170 15 -182 22 -12 6 -74 17 -137 24 -212 23 -295 35
-346 50 -28 8 -84 14 -125 15 -41 0 -105 4 -144 9 -150 18 -293 41 -365 56
-41 9 -113 18 -160 20 -47 1 -107 10 -135 18 -27 9 -58 16 -67 16 -9 0 -29 5
-44 10 l-27 10 54 55 c30 31 99 95 153 143 101 89 262 232 325 289 20 18 70
60 111 95 41 35 104 90 140 124 81 76 134 122 182 157 20 15 42 32 50 39 7 7
103 94 213 193 110 99 205 185 210 191 22 24 234 203 295 249 78 58 124 97
210 179 67 64 127 113 335 276 66 51 121 97 123 101 2 4 55 53 119 110 64 57
126 112 137 123 12 10 55 44 96 76 41 32 84 67 94 79 11 12 20 20 22 19 1 -2
-4 -28 -12 -58z m292 -55 c15 -27 42 -74 61 -103 19 -28 45 -76 57 -105 27
-60 148 -271 211 -367 23 -36 93 -162 155 -280 62 -118 141 -258 175 -310 34
-52 77 -122 95 -155 18 -33 47 -76 63 -94 16 -19 41 -60 54 -90 14 -30 33 -67
43 -81 10 -14 59 -105 109 -202 50 -97 104 -199 119 -225 16 -27 61 -114 100
-193 39 -80 80 -161 90 -180 11 -19 38 -74 61 -121 23 -47 55 -104 72 -125 18
-21 47 -71 65 -111 18 -39 45 -90 59 -113 14 -23 64 -115 110 -205 l84 -164
-72 6 c-40 3 -85 13 -102 21 -16 9 -57 17 -90 18 -33 1 -78 9 -100 18 -22 8
-53 15 -70 16 -16 0 -52 7 -79 15 -27 8 -61 15 -76 15 -15 0 -56 8 -91 19
-124 36 -164 45 -199 43 -33 -1 -225 34 -241 44 -5 3 -36 9 -71 14 -65 9 -127
22 -213 45 -27 7 -70 16 -95 19 -25 4 -139 27 -255 51 -115 25 -255 49 -310
55 -55 6 -120 17 -145 24 -25 8 -82 24 -128 37 -80 22 -83 24 -76 49 4 14 10
57 15 95 17 154 29 224 54 320 15 55 31 123 35 150 5 28 25 129 45 225 35 172
45 226 66 365 11 69 51 240 109 465 20 77 30 139 30 188 0 76 20 209 46 298
44 155 58 216 64 279 9 90 27 180 45 228 8 20 15 52 15 70 0 17 9 46 20 62 11
17 20 39 20 50 0 18 2 18 20 -5 11 -14 31 -47 46 -75z m-11001 -599 c154 -1
286 -5 293 -10 8 -4 143 -12 300 -17 253 -8 652 -30 827 -45 l61 -6 -2 -106
c-2 -59 -7 -152 -13 -207 -6 -55 -12 -122 -15 -150 -2 -27 -9 -72 -15 -100
-12 -53 -41 -525 -45 -715 -2 -63 -8 -198 -15 -300 -7 -102 -14 -221 -16 -265
-8 -198 -25 -430 -34 -463 -16 -62 -34 -265 -29 -323 3 -30 0 -88 -7 -129 -7
-41 -16 -135 -20 -209 -6 -101 -10 -129 -18 -115 -5 10 -27 38 -48 61 -21 22
-50 64 -64 93 -14 28 -41 72 -59 98 -19 26 -46 72 -61 102 -15 30 -47 80 -71
110 -23 30 -59 87 -79 125 -21 39 -50 86 -65 105 -29 37 -114 164 -164 247
-17 26 -48 73 -71 103 -23 30 -81 123 -130 205 -49 83 -103 166 -119 186 -33
39 -77 108 -224 349 -52 85 -104 169 -116 185 -13 17 -42 64 -66 105 -24 41
-73 113 -110 160 -36 47 -77 103 -90 125 -13 22 -33 52 -44 67 -64 83 -139
192 -242 348 -63 96 -130 191 -149 210 -18 19 -45 58 -59 86 -14 27 -35 59
-46 69 -20 18 -20 20 -3 27 10 5 137 5 283 2 146 -4 391 -7 545 -8z m1980
-106 c94 -6 202 -12 240 -14 39 -2 133 -11 210 -19 77 -9 187 -17 245 -17 60
0 130 -6 163 -15 31 -8 100 -17 154 -20 54 -4 134 -12 178 -20 44 -8 141 -17
216 -20 75 -4 154 -11 175 -17 21 -6 93 -14 160 -18 67 -5 148 -16 182 -24 33
-9 74 -16 92 -16 32 0 31 -2 -69 -99 -55 -54 -120 -123 -143 -153 -24 -30 -73
-85 -110 -124 -130 -135 -318 -344 -318 -352 0 -5 -54 -65 -120 -132 -67 -67
-149 -157 -182 -199 -34 -42 -72 -87 -85 -101 -12 -14 -35 -42 -50 -62 -63
-83 -144 -178 -153 -178 -18 0 -168 -159 -198 -211 -17 -30 -50 -74 -72 -99
-23 -25 -99 -113 -170 -196 -71 -83 -163 -182 -203 -220 -41 -38 -110 -116
-153 -173 -43 -58 -95 -121 -116 -140 -22 -20 -55 -58 -75 -86 -45 -61 -99
-127 -178 -215 -33 -36 -77 -86 -98 -111 l-38 -44 6 212 c3 117 10 225 16 240
6 16 12 102 13 193 2 97 12 241 26 350 13 104 26 282 30 405 9 269 36 676 50
730 5 22 12 92 15 155 3 63 12 183 20 265 8 83 14 173 13 200 0 46 10 159 28
308 l7 57 61 -5 c34 -2 138 -9 231 -15z m5985 -1935 c30 -8 98 -15 150 -15 93
-1 158 -7 330 -30 80 -10 127 -18 340 -54 47 -8 175 -22 285 -31 110 -10 203
-19 207 -21 4 -2 52 -9 108 -14 55 -5 110 -15 123 -21 12 -7 62 -15 112 -19
101 -8 180 -23 275 -51 36 -11 94 -19 130 -19 36 0 70 -4 77 -8 12 -8 2 -126
-18 -207 -5 -22 -16 -80 -23 -130 -8 -49 -18 -101 -24 -115 -5 -14 -13 -52
-17 -85 -4 -33 -13 -71 -20 -85 -7 -14 -20 -80 -29 -148 -9 -67 -20 -144 -26
-170 -6 -26 -15 -67 -20 -92 -17 -76 -42 -221 -49 -291 -4 -36 -12 -72 -16
-79 -5 -8 -17 -70 -26 -139 -10 -70 -24 -157 -33 -196 -38 -184 -69 -357 -76
-430 -4 -44 -15 -107 -23 -140 -33 -130 -50 -213 -58 -270 -4 -33 -15 -85 -23
-115 -9 -30 -16 -76 -16 -102 0 -25 -5 -59 -11 -75 -6 -15 -17 -64 -24 -108
-8 -44 -22 -111 -32 -149 l-19 -69 -63 129 c-35 71 -72 147 -82 170 -9 23 -22
45 -28 48 -6 4 -11 16 -11 26 0 11 -24 68 -54 127 -78 155 -162 334 -171 363
-4 14 -15 39 -25 55 -42 72 -89 165 -115 230 -15 39 -51 106 -80 150 -49 74
-174 320 -190 373 -6 21 -53 115 -120 242 -22 41 -131 260 -342 685 -41 83
-80 157 -87 165 -7 8 -34 62 -61 120 -26 58 -67 138 -91 177 -24 40 -44 75
-44 78 0 3 -36 82 -80 176 -44 94 -80 173 -80 175 0 10 121 2 170 -11z m2460
-340 c41 -7 111 -19 155 -24 117 -15 279 -49 411 -87 28 -7 71 -14 95 -14 41
0 91 -8 279 -46 41 -9 113 -22 160 -30 129 -21 193 -35 213 -45 42 -23 201
-60 397 -94 47 -8 139 -28 205 -45 66 -16 145 -30 175 -30 32 0 72 -8 96 -19
23 -10 60 -22 83 -26 l42 -7 -47 -41 c-26 -23 -68 -56 -94 -74 -26 -17 -61
-49 -78 -70 -27 -35 -150 -148 -307 -284 -102 -88 -228 -202 -269 -244 -22
-22 -58 -52 -80 -66 -48 -31 -203 -164 -267 -229 -114 -116 -336 -325 -361
-340 -59 -36 -189 -152 -348 -310 -91 -91 -181 -176 -200 -190 -19 -13 -65
-52 -102 -85 -36 -33 -121 -109 -188 -170 -67 -60 -178 -164 -247 -229 -68
-66 -134 -126 -146 -135 -12 -8 -54 -44 -93 -80 -40 -36 -95 -86 -124 -111
-48 -40 -53 -42 -47 -20 3 14 8 52 12 85 3 33 12 96 20 140 37 219 55 326 64
390 12 75 33 171 50 220 5 17 14 64 20 105 13 99 38 240 56 315 7 33 21 105
30 160 9 55 25 138 36 185 11 47 19 103 19 125 0 35 23 155 59 310 6 22 15 67
21 100 6 33 20 107 32 165 11 58 24 132 29 165 5 33 16 92 24 130 8 39 21 117
30 175 18 120 50 268 81 378 4 15 12 15 104 -3z m-9738 -1907 c29 -18 73 -48
97 -67 24 -20 65 -49 92 -66 48 -31 167 -126 168 -135 1 -3 -18 -16 -42 -29
-23 -13 -64 -38 -92 -56 -27 -18 -60 -35 -72 -39 -13 -4 -41 -23 -64 -42 -22
-19 -48 -34 -57 -34 -10 0 -46 -16 -82 -35 -35 -19 -68 -35 -73 -35 -6 0 -6
82 -2 206 6 170 11 214 26 248 10 23 19 58 19 79 0 47 13 47 82 5z m1279 -60
c8 -213 6 -340 -7 -396 -8 -35 -14 -74 -14 -88 0 -31 -3 -30 -53 6 -24 17 -65
34 -96 40 -31 6 -70 22 -90 37 -20 15 -68 52 -108 83 -39 30 -82 62 -94 71
-24 17 -17 21 182 130 27 15 61 35 76 45 31 21 184 102 196 103 4 1 8 -14 8
-31z m-1441 -1607 c28 -22 75 -49 106 -61 32 -11 98 -51 148 -89 50 -37 106
-78 125 -91 31 -22 33 -25 16 -34 -10 -6 -52 -33 -93 -59 -41 -27 -87 -53
-101 -59 -14 -5 -48 -24 -76 -42 -27 -19 -86 -51 -130 -72 -44 -22 -82 -40
-85 -41 -3 -2 -6 23 -7 55 -1 31 -5 110 -8 175 -6 94 -4 127 9 166 8 26 18 75
22 107 6 65 11 84 19 84 3 0 28 -18 55 -39z m1344 -224 c-1 -171 -14 -340 -28
-355 -7 -6 -128 59 -201 108 -38 25 -99 63 -135 83 -61 35 -158 113 -149 121
2 2 29 16 59 31 30 15 72 39 94 52 51 33 327 162 346 162 13 1 15 -28 14 -202z
m6890 -366 c3 -5 32 -26 63 -46 32 -21 88 -67 124 -104 36 -36 103 -97 147
-136 81 -70 93 -85 69 -85 -14 0 -133 -49 -247 -100 -36 -17 -108 -45 -160
-64 -52 -18 -104 -37 -114 -41 -18 -8 -19 -5 -12 41 4 27 11 85 16 129 17 144
65 372 85 406 8 12 22 12 29 0z m1352 -263 c-13 -136 -31 -232 -72 -385 -8
-28 -14 -72 -14 -97 0 -55 -6 -57 -43 -11 -15 19 -42 42 -60 51 -18 9 -34 20
-37 23 -3 4 -43 38 -90 75 -47 38 -113 94 -147 126 l-61 58 43 17 c24 9 59 27
78 39 19 13 57 31 84 40 28 9 76 32 108 51 32 19 63 35 69 35 6 0 38 13 71 29
33 16 64 25 69 21 5 -5 6 -37 2 -72z m-1578 -1481 c45 -32 121 -95 167 -139
47 -44 100 -92 119 -107 20 -14 35 -28 36 -31 0 -3 -35 -22 -78 -43 -42 -21
-107 -54 -143 -72 -37 -19 -79 -35 -94 -35 -14 0 -47 -8 -73 -18 -26 -11 -60
-24 -77 -29 -16 -6 -39 -14 -49 -18 -19 -8 -19 -4 -13 137 5 93 12 158 22 181
8 20 15 50 15 67 0 33 35 147 52 167 12 15 8 17 116 -60z m1289 -259 c-2 -62
-9 -123 -15 -135 -7 -12 -12 -53 -12 -92 0 -38 -4 -72 -9 -76 -6 -3 -20 -37
-32 -75 -20 -65 -38 -85 -54 -60 -3 5 -38 29 -78 52 -63 38 -309 256 -330 293
-5 10 4 17 30 26 21 6 79 31 129 56 50 24 115 48 145 53 30 5 88 23 129 39 41
17 81 30 88 31 9 0 12 -26 9 -112z m-7402 -14840 c-55 -176 -49 -206 53 -252
50 -22 65 -25 89 -15 55 21 88 63 118 154 19 53 13 79 -21 101 -39 26 -28 36
16 14 21 -11 50 -20 63 -20 33 0 96 -66 121 -127 30 -74 28 -331 -4 -423 -13
-36 -29 -74 -36 -85 -8 -11 -14 -27 -14 -37 0 -9 -12 -32 -27 -50 -43 -51 -67
-88 -97 -153 -16 -33 -32 -67 -36 -75 -6 -12 -20 -14 -61 -10 -61 5 -144 5
-174 -1 -14 -3 -23 5 -33 26 -8 17 -39 60 -68 97 -30 36 -61 84 -70 105 -9 21
-25 56 -35 78 -35 77 -64 189 -63 250 1 94 15 187 34 225 9 19 20 47 23 61 10
41 116 141 162 152 11 2 31 5 44 6 20 1 22 -2 16 -21z m4995 12 c0 -5 -12 -40
-26 -77 -22 -58 -24 -73 -15 -104 22 -72 118 -132 185 -115 31 8 173 132 182
158 8 25 32 19 56 -13 14 -19 22 -53 28 -127 9 -97 8 -105 -20 -193 -17 -51
-30 -102 -30 -114 0 -39 -99 -197 -169 -270 -37 -38 -78 -86 -91 -105 -13 -19
-25 -36 -26 -38 -1 -2 -17 4 -35 13 -25 13 -46 16 -88 11 -31 -3 -67 -7 -80
-9 -19 -2 -29 8 -54 53 -16 30 -40 67 -52 82 -23 28 -58 129 -75 218 -5 28
-14 59 -20 70 -27 51 6 279 56 386 28 60 122 147 180 166 56 19 94 22 94 8z
m255 -50 c0 -13 -6 -25 -12 -27 -9 -3 -13 6 -13 27 0 21 4 30 13 28 6 -3 12
-15 12 -28z m-3998 -1116 c48 -14 73 -14 206 -4 226 18 2059 25 2107 8 25 -9
125 -13 355 -14 394 -1 742 -12 815 -24 30 -6 147 -14 260 -20 113 -5 221 -14
240 -19 19 -6 71 -15 115 -20 44 -6 130 -20 190 -31 61 -11 137 -25 170 -31
33 -6 89 -19 125 -29 36 -10 77 -21 91 -24 14 -3 43 -17 64 -31 21 -15 63 -36
94 -47 119 -44 261 -137 363 -238 92 -90 101 -103 157 -220 33 -69 63 -143 67
-165 4 -22 20 -76 36 -119 15 -44 28 -92 28 -108 0 -16 8 -45 17 -66 21 -46
41 -163 52 -307 5 -60 14 -130 21 -155 7 -25 9 -65 6 -91 -4 -25 0 -78 8 -120
8 -41 17 -123 20 -184 4 -60 13 -146 21 -190 25 -134 48 -555 34 -610 -7 -29
-9 -70 -4 -108 13 -115 40 -658 52 -1057 5 -135 11 -250 15 -255 3 -6 10 -145
15 -310 7 -252 7 -546 1 -1560 0 -55 0 -327 0 -605 1 -331 -2 -530 -10 -578
-8 -54 -8 -90 1 -142 8 -53 8 -81 0 -116 -8 -32 -9 -79 -3 -153 10 -135 11
-438 0 -751 -13 -397 -22 -1172 -17 -1626 2 -225 -1 -292 -13 -340 -8 -32 -20
-147 -26 -254 -5 -107 -15 -222 -20 -255 -5 -33 -16 -152 -24 -265 -15 -218
-24 -283 -50 -369 -9 -30 -16 -68 -16 -85 0 -49 -52 -188 -128 -341 -8 -16
-48 -64 -89 -105 -42 -41 -84 -85 -96 -98 -11 -12 -28 -22 -37 -22 -9 0 -39
-12 -66 -26 -73 -39 -244 -93 -276 -87 -15 3 -71 -4 -125 -16 -94 -19 -521
-50 -540 -38 -4 3 -42 -1 -83 -8 -128 -22 -295 -28 -365 -14 -56 11 -69 10
-102 -5 -34 -15 -81 -16 -418 -16 -209 1 -450 0 -535 -2 -269 -4 -1818 10
-1830 17 -6 4 -142 8 -303 10 -293 4 -440 10 -464 19 -7 3 -128 6 -269 7 -141
1 -271 6 -288 11 -17 5 -130 14 -251 19 -121 6 -257 12 -302 14 -190 8 -350
50 -419 109 -21 18 -53 40 -70 49 -73 38 -214 255 -214 329 0 15 -9 54 -19 85
-19 55 -28 147 -50 473 -4 58 -10 110 -14 116 -12 20 -47 461 -51 639 -4 184
-24 583 -29 592 -3 5 -9 115 -12 244 -8 306 -12 395 -24 569 -27 370 -44 1335
-40 2240 1 289 2 590 2 670 0 80 -1 177 -3 215 -4 89 8 1102 15 1215 2 47 6
296 7 555 1 298 8 577 19 765 10 162 20 372 23 465 4 94 8 215 11 270 19 393
27 558 31 679 2 76 6 142 9 145 2 4 7 117 10 251 4 165 11 254 20 279 7 20 16
89 19 153 3 64 11 129 17 145 6 15 13 75 15 133 3 58 12 123 19 145 21 59 45
183 46 235 1 52 13 89 50 145 14 22 38 60 52 85 34 60 137 172 201 219 73 54
110 71 153 71 21 0 48 7 59 15 33 23 161 36 434 45 140 4 298 13 350 19 202
24 317 25 387 5z m-1693 -142 c-12 -9 -31 -36 -43 -59 -11 -23 -31 -57 -44
-76 -13 -19 -31 -61 -41 -93 -9 -33 -26 -79 -37 -104 -10 -25 -26 -76 -34
-115 -9 -38 -24 -106 -35 -150 -31 -131 -34 -155 -60 -495 -5 -74 -14 -157
-20 -185 -5 -27 -12 -131 -14 -230 -3 -99 -8 -223 -11 -275 -12 -180 -14 -246
-24 -590 -6 -190 -15 -426 -21 -525 -27 -445 -31 -561 -35 -890 -2 -242 -8
-386 -19 -466 -17 -128 -20 -463 -14 -1629 3 -662 3 -842 0 -1440 -2 -190 3
-412 9 -495 6 -82 13 -379 15 -660 2 -280 9 -562 14 -625 6 -63 12 -187 14
-275 4 -215 22 -615 42 -920 27 -405 36 -610 34 -770 -1 -97 4 -176 14 -225 8
-41 14 -97 14 -124 0 -47 22 -160 44 -221 6 -16 14 -52 18 -80 10 -70 78 -322
97 -359 8 -17 24 -40 35 -52 l19 -21 -53 4 c-84 6 -181 24 -211 40 -15 8 -52
13 -85 12 -48 -2 -74 5 -167 45 -181 78 -226 107 -308 200 -91 102 -172 220
-180 261 -3 17 -12 48 -20 70 -8 22 -27 112 -42 200 -15 88 -29 163 -32 167
-2 5 -9 94 -14 199 -5 105 -14 209 -19 232 -5 23 -10 84 -10 135 0 51 -5 126
-10 165 -6 40 -15 104 -20 142 -10 69 -17 315 -25 820 -2 143 -8 276 -13 295
-10 35 -22 411 -28 860 -2 135 -5 315 -9 400 -3 85 -7 484 -10 885 -2 402 -8
800 -13 885 -6 101 -6 165 1 185 6 18 11 249 13 576 1 300 8 656 14 790 7 134
13 397 14 584 2 253 6 346 15 364 9 17 14 108 16 340 5 394 12 536 31 581 10
25 17 113 24 310 12 304 18 392 48 715 29 303 73 611 103 715 10 36 23 92 30
125 6 33 21 78 34 100 13 22 28 60 35 85 6 25 34 92 63 150 44 90 64 117 137
190 173 172 321 246 622 309 165 35 180 37 152 13z m-45 -12386 c31 -8 120
-17 198 -20 83 -4 160 -13 184 -21 26 -9 79 -15 139 -15 l97 0 7 -82 c4 -50 2
-109 -5 -154 -10 -58 -10 -83 0 -127 11 -44 11 -61 1 -92 -8 -26 -10 -64 -6
-117 7 -89 16 -84 -98 -67 -65 10 -83 9 -128 -6 -69 -22 -237 -13 -305 17 -36
16 -50 18 -75 9 -54 -19 -106 -14 -133 13 -21 21 -24 31 -19 69 4 24 1 83 -5
133 -14 116 -2 434 18 458 17 20 55 20 130 2z m6383 -113 c11 -14 13 -46 11
-158 -2 -77 -3 -160 -3 -185 3 -250 1 -303 -9 -313 -6 -6 -64 -10 -158 -9
-165 1 -605 21 -612 27 -2 3 -5 55 -7 117 -2 62 -5 163 -7 223 -2 64 1 118 7
130 6 11 13 47 16 80 l5 60 95 7 c154 11 401 14 455 4 40 -6 62 -4 110 13 74
25 78 25 97 4z M26031 44393 c-25 -22 -81 -128 -81 -154 0 -62 50 -98 97 -69
40 24 90 168 72 203 -22 41 -54 48 -88 20z M25430 43720 c-36 -36 -52 -69 -46
-94 12 -50 59 -41 91 17 32 59 -3 119 -45 77z M25583 43393 c-80 -86 -101
-153 -52 -168 27 -9 65 17 85 58 9 17 29 44 45 59 34 32 36 51 9 78 -28 28
-37 26 -87 -27z M27367 44518 c-57 -44 -41 -189 27 -233 56 -37 90 16 77 122
-8 65 -23 98 -51 113 -24 13 -33 13 -53 -2z M27902 43703 c-16 -6 -42 -56 -42
-82 0 -58 50 -100 94 -79 37 16 51 58 33 99 -15 35 -62 70 -85 62z M35250
42650 c-25 -25 -26 -64 0 -90 25 -25 46 -17 59 22 15 42 14 54 -5 72 -20 21
-30 20 -54 -4z M34988 42230 c-9 -6 -24 -34 -34 -63 -9 -28 -26 -64 -37 -79
-32 -43 -6 -99 38 -82 8 3 29 29 47 56 18 28 41 63 50 77 23 34 23 56 -2 81
-22 22 -37 24 -62 10z M34378 41554 c-43 -22 -48 -73 -9 -94 22 -11 34 -3 55
37 26 52 2 82 -46 57z M34120 41260 c-9 -5 -33 -34 -54 -64 -37 -54 -38 -57
-22 -80 34 -53 97 -36 141 37 30 53 31 71 5 97 -21 21 -46 25 -70 10z M36214
42105 c-24 -24 -25 -30 -19 -88 8 -70 26 -112 55 -127 55 -30 89 51 73 173 -9
69 -62 89 -109 42z M36480 42060 c-11 -11 -20 -29 -20 -39 0 -20 24 -51 40
-51 17 0 40 32 40 55 0 20 -23 55 -36 55 -2 0 -13 -9 -24 -20z M36753 41258
c-28 -14 -37 -39 -27 -81 4 -17 6 -44 5 -59 -3 -29 29 -68 54 -68 26 0 65 47
65 77 -1 55 -18 117 -36 130 -21 15 -31 15 -61 1z M36365 40734 c-8 -9 -15
-22 -15 -29 0 -38 51 -52 64 -18 15 39 -21 74 -49 47z M25381 42296 c-54 -30
-68 -110 -26 -151 13 -14 31 -25 39 -25 28 0 64 22 75 47 23 51 6 113 -36 132
-28 13 -23 13 -52 -3z M25630 42250 c-31 -31 -25 -66 15 -88 32 -16 75 12 75
51 0 21 -34 57 -55 57 -8 0 -24 -9 -35 -20z M25686 41494 c-25 -25 -13 -124
16 -124 4 0 8 -9 8 -20 0 -29 26 -76 52 -94 28 -20 33 -20 52 0 24 23 19 54
-14 103 -17 24 -30 55 -30 68 0 63 -49 102 -84 67z M26062 40863 c-26 -10 -43
-62 -37 -111 16 -113 45 -153 95 -127 34 18 40 32 40 101 0 99 -43 159 -98
137z M27999 42210 c-27 -16 -85 -196 -74 -231 8 -25 41 -42 66 -34 68 22 106
207 53 260 -18 17 -23 18 -45 5z M27408 41448 c-26 -22 -59 -85 -52 -101 15
-41 73 -27 99 23 19 37 19 55 -1 74 -19 19 -26 20 -46 4z M27328 41299 c-18
-10 -58 -70 -58 -88 0 -19 39 -51 54 -45 28 11 68 92 57 113 -13 24 -33 31
-53 20z M27007 40810 c-34 -27 -73 -140 -57 -169 23 -44 91 -38 115 9 59 114
20 221 -58 160z M34054 40192 c-16 -10 -44 -68 -44 -89 0 -23 25 -60 51 -73
15 -9 24 -6 44 14 56 56 11 189 -51 148z M33930 39322 c-37 -37 -39 -74 -5
-107 28 -29 47 -31 69 -9 37 36 31 104 -11 131 -21 14 -25 13 -53 -15z M34443
38717 c-40 -18 -48 -72 -27 -174 5 -28 39 -47 70 -39 45 12 70 109 43 169 -16
35 -59 57 -86 44z M36706 39765 c-17 -17 -16 -16 -46 -147 -24 -104 -22 -141
11 -159 26 -13 75 4 90 33 5 10 14 58 20 106 5 48 12 99 15 114 10 50 -54 88
-90 53z M36126 39714 c-29 -28 -9 -84 29 -84 20 0 45 28 45 50 0 22 -25 50
-45 50 -7 0 -21 -7 -29 -16z M36437 39379 c-19 -11 -47 -60 -47 -84 0 -20 44
-65 65 -65 29 0 55 38 55 80 0 27 -7 47 -20 60 -23 23 -28 24 -53 9z M35663
38755 c-12 -8 -40 -50 -64 -92 -23 -43 -57 -99 -75 -125 -18 -26 -42 -77 -54
-112 -24 -73 -18 -101 25 -112 40 -10 71 18 89 78 8 29 27 69 42 88 14 19 37
58 51 85 14 28 35 68 49 90 29 49 30 69 4 95 -24 24 -38 25 -67 5z M33076
17474 c-9 -8 -16 -26 -16 -38 0 -13 -7 -29 -16 -36 -32 -27 -34 -46 -14 -145
20 -96 42 -150 67 -159 19 -7 42 3 53 24 15 29 15 302 0 331 -22 42 -48 50
-74 23z M33799 17304 c-40 -20 -53 -62 -40 -124 6 -28 11 -71 11 -95 0 -25 7
-62 15 -82 8 -21 19 -64 24 -95 6 -32 17 -71 26 -87 27 -53 84 -53 105 0 25
59 -8 366 -46 441 -21 41 -62 60 -95 42z M34000 15960 c-23 -23 -25 -62 -6
-192 9 -66 18 -93 35 -112 18 -20 21 -28 12 -44 -23 -42 -4 -144 29 -162 15
-8 24 -6 41 11 18 18 20 28 15 87 -3 37 -6 79 -5 95 3 177 2 194 -19 252 -31
84 -63 104 -102 65z M33527 15077 c-44 -31 -66 -327 -31 -401 28 -58 73 -66
98 -18 19 37 31 306 17 360 -18 65 -48 86 -84 59z M27957 13879 c-11 -6 -38
-8 -65 -4 -112 15 -200 -30 -258 -132 l-39 -68 3 -469 c2 -258 7 -479 11 -490
5 -12 5 -93 1 -181 -5 -88 -9 -338 -9 -555 -1 -217 -3 -595 -4 -840 l-2 -445
27 -52 c41 -76 80 -101 211 -132 65 -15 81 -14 124 9 29 15 48 18 92 14 50 -5
61 -2 101 23 25 16 59 49 75 73 28 41 31 52 40 189 7 89 10 454 8 931 -1 431
1 809 6 840 5 30 5 107 1 170 -4 63 -3 206 2 318 4 111 4 219 0 240 -4 20 -5
84 -1 142 9 129 -16 256 -62 320 -52 71 -208 130 -262 99z m-26 -377 c8 -38
12 -166 12 -392 0 -536 -14 -1844 -20 -1854 -3 -5 -9 -95 -13 -201 -7 -178
-16 -235 -39 -235 -4 0 -19 10 -33 23 l-25 23 -7 410 c-3 225 -3 473 0 550 5
109 3 159 -9 225 -14 71 -15 154 -13 544 2 253 7 485 11 516 4 31 2 95 -4 143
-11 80 -10 89 7 114 10 15 38 66 62 114 23 48 46 85 51 83 4 -3 13 -31 20 -63z
M34237 12145 c-32 -32 -50 -113 -43 -199 11 -157 20 -200 46 -226 25 -25 52
-14 74 29 21 40 32 272 17 329 -19 70 -62 100 -94 67z M34177 10738 c-28 -22
-37 -66 -37 -179 0 -143 26 -198 81 -169 38 21 49 62 49 190 0 115 -1 122 -25
145 -27 28 -43 31 -68 13z M34139 9632 c-28 -24 -38 -94 -33 -250 5 -152 33
-204 90 -167 35 22 48 85 49 225 0 138 -11 180 -51 199 -31 14 -28 14 -55 -7z
M34097 8179 c-41 -24 -48 -62 -50 -252 -1 -229 15 -288 73 -257 21 11 50 79
50 118 0 15 7 49 15 76 18 60 20 234 3 271 -7 15 -24 33 -39 41 -33 16 -29 16
-52 3z M33980 7030 c-18 -18 -20 -33 -20 -155 0 -100 4 -144 15 -164 17 -34
40 -45 66 -31 35 19 51 69 57 176 6 118 -5 157 -49 179 -37 20 -45 19 -69 -5z
M33195 6729 c-41 -33 -55 -71 -55 -149 0 -57 4 -74 20 -90 27 -27 56 -25 85 5
23 22 25 32 25 109 0 125 -24 164 -75 125z M33734 6390 c-62 -45 -81 -108 -38
-124 15 -6 86 14 125 35 41 21 47 70 13 104 -23 23 -56 18 -100 -15z M33104
6178 c-28 -13 -58 -79 -49 -107 3 -12 20 -28 36 -36 28 -15 31 -14 54 9 30 30
41 70 27 101 -15 32 -42 45 -68 33z M26060 15520 c-30 -30 -22 -121 13 -142
28 -17 67 40 67 98 0 24 -31 64 -50 64 -5 0 -19 -9 -30 -20z M25985 12645
c-23 -22 -25 -32 -24 -107 1 -120 12 -188 34 -204 27 -20 43 -17 70 11 24 23
25 30 25 139 0 124 -9 158 -47 175 -32 14 -30 15 -58 -14z M25960 11420 c-18
-18 -20 -33 -20 -154 0 -142 4 -157 50 -171 54 -17 80 40 80 175 0 91 -12 148
-32 162 -23 14 -57 9 -78 -12z M25995 9775 c-46 -45 -27 -175 26 -175 40 0 79
56 79 115 0 39 -35 85 -65 85 -9 0 -27 -11 -40 -25z M26005 7454 c-8 -9 -15
-24 -15 -34 0 -45 52 -60 65 -19 14 44 -21 81 -50 53z M26028 7199 c-36 -21
-51 -164 -23 -219 28 -55 97 -52 121 5 26 63 13 152 -31 199 -26 28 -40 31
-67 15z M17353 45610 c-18 -10 -39 -32 -47 -47 -8 -15 -31 -44 -51 -63 -20
-19 -48 -57 -62 -85 -14 -27 -41 -67 -61 -87 -19 -21 -47 -57 -61 -82 -14 -24
-58 -82 -98 -128 -40 -45 -100 -124 -135 -175 -35 -51 -108 -152 -163 -225
-55 -73 -113 -151 -128 -173 -15 -23 -54 -71 -88 -107 -33 -37 -70 -81 -82
-97 -12 -17 -51 -72 -87 -122 -67 -94 -93 -127 -263 -339 -54 -67 -124 -158
-154 -203 -67 -99 -88 -126 -251 -335 -141 -181 -181 -236 -290 -397 -41 -60
-100 -137 -132 -170 -32 -33 -84 -98 -115 -145 -32 -47 -79 -112 -104 -145
-26 -33 -54 -72 -63 -86 -9 -14 -34 -44 -56 -67 -39 -41 -131 -159 -181 -234
-14 -20 -45 -45 -69 -57 -34 -17 -48 -32 -67 -74 -14 -28 -25 -58 -25 -65 0
-26 40 -88 69 -107 34 -22 162 -158 226 -240 51 -66 167 -195 227 -254 26 -25
64 -72 85 -103 21 -31 83 -110 138 -175 55 -65 129 -154 164 -198 77 -96 73
-91 158 -183 37 -41 74 -83 82 -95 8 -12 39 -49 70 -82 95 -102 144 -164 191
-240 25 -40 64 -95 87 -121 23 -27 55 -67 71 -89 16 -22 37 -47 46 -55 10 -8
43 -48 74 -89 32 -42 95 -118 141 -171 82 -94 148 -181 246 -325 59 -87 117
-163 325 -430 86 -110 169 -222 185 -250 16 -27 39 -63 52 -78 30 -37 29 -41
-12 -117 -44 -82 -49 -164 -12 -217 36 -53 139 -89 186 -63 14 7 23 5 36 -10
16 -17 17 -43 14 -272 -2 -139 -4 -301 -4 -361 0 -65 -4 -107 -10 -107 -6 0
-54 25 -108 55 -53 30 -100 55 -103 55 -3 0 -23 13 -43 28 -20 16 -58 41 -86
57 -27 15 -68 42 -90 60 -22 17 -65 44 -95 59 -30 15 -72 36 -92 47 -37 20
-39 20 -75 2 -21 -10 -51 -37 -67 -61 l-30 -42 -4 -228 c-2 -125 -5 -252 -5
-282 -4 -156 12 -399 28 -429 23 -46 86 -84 127 -78 51 7 132 41 180 75 24 17
70 47 102 67 33 20 82 56 111 80 28 24 71 53 95 63 25 11 69 33 98 51 29 17
58 31 64 31 8 0 9 -71 2 -262 -10 -324 -10 -466 1 -775 8 -238 8 -243 -11
-243 -11 0 -24 4 -29 9 -6 5 -39 21 -75 36 -59 25 -98 47 -248 139 -80 49
-262 146 -286 152 -35 8 -102 -30 -132 -76 l-26 -39 -1 -283 c-1 -604 0 -619
33 -671 40 -63 77 -81 151 -72 32 4 73 14 91 24 37 18 138 95 207 157 25 23
57 47 71 54 24 12 94 62 200 143 27 20 51 37 53 37 5 0 19 -121 19 -160 0 -14
-1 -236 -2 -495 -1 -258 -1 -624 0 -811 1 -188 -1 -388 -5 -445 -3 -57 -8
-156 -10 -219 -23 -621 -31 -758 -54 -935 -17 -130 -44 -437 -42 -475 2 -40
-2 -75 -59 -635 -5 -44 -16 -150 -24 -235 -9 -85 -21 -186 -26 -225 -6 -38
-17 -164 -25 -280 -8 -115 -19 -226 -24 -245 -5 -19 -17 -93 -26 -165 -10 -71
-26 -173 -37 -225 -11 -52 -23 -126 -28 -165 -4 -38 -12 -90 -18 -115 -6 -25
-16 -99 -23 -165 -6 -66 -16 -131 -21 -145 -6 -14 -14 -54 -18 -90 -5 -36 -15
-103 -24 -150 -9 -47 -16 -108 -16 -137 0 -29 -8 -74 -19 -100 -10 -26 -21
-84 -24 -128 -8 -97 -61 -409 -82 -485 -9 -30 -22 -95 -30 -145 -29 -184 -38
-231 -51 -270 -8 -23 -14 -54 -14 -71 0 -17 -9 -66 -20 -110 -11 -43 -23 -103
-27 -134 -3 -30 -12 -72 -20 -94 -7 -21 -13 -55 -13 -75 0 -21 -6 -60 -14 -87
-8 -27 -18 -80 -21 -119 -4 -38 -13 -84 -20 -101 -7 -17 -16 -55 -19 -85 -4
-30 -13 -81 -21 -114 -7 -33 -23 -103 -35 -155 -12 -52 -30 -120 -40 -150 -10
-30 -27 -98 -38 -150 -11 -52 -25 -117 -32 -145 -6 -27 -17 -82 -24 -121 -8
-39 -19 -81 -25 -92 -6 -11 -11 -39 -11 -61 0 -22 -6 -60 -14 -83 -8 -24 -18
-70 -22 -103 -4 -33 -13 -76 -20 -97 -7 -20 -16 -58 -19 -85 -4 -26 -13 -70
-20 -98 -7 -27 -22 -84 -33 -125 -11 -41 -32 -133 -46 -205 -40 -202 -90 -418
-108 -464 -5 -15 -14 -53 -19 -86 -5 -33 -16 -89 -24 -125 -8 -36 -19 -87 -25
-115 -12 -53 -14 -66 -31 -220 -6 -55 -22 -140 -34 -190 -13 -49 -29 -128 -36
-175 -7 -47 -23 -119 -36 -160 -30 -92 -71 -364 -79 -520 -3 -63 -10 -129 -15
-146 -6 -18 -14 -92 -19 -167 -5 -74 -16 -172 -24 -218 -13 -70 -15 -162 -12
-569 2 -267 8 -564 14 -660 22 -367 32 -486 42 -520 5 -19 14 -91 20 -160 10
-130 43 -341 57 -363 4 -6 11 -39 14 -72 4 -33 14 -80 22 -105 8 -25 22 -81
31 -125 8 -44 22 -116 31 -160 8 -44 22 -119 30 -166 8 -48 19 -99 25 -113 5
-15 10 -38 10 -52 0 -24 31 -149 52 -209 6 -16 16 -59 23 -95 7 -36 18 -85 24
-110 22 -92 43 -186 52 -227 4 -24 15 -56 24 -72 8 -17 15 -44 15 -61 0 -17 7
-47 15 -67 8 -20 18 -61 21 -92 3 -31 12 -81 19 -111 8 -30 16 -86 20 -125 3
-38 12 -115 20 -170 8 -55 21 -170 30 -255 9 -85 22 -195 30 -245 25 -157 48
-423 65 -750 6 -99 15 -238 22 -310 18 -185 14 -554 -6 -594 -25 -47 -22 -206
4 -249 40 -66 9 -132 -62 -132 -29 0 -88 -28 -88 -41 0 -3 -29 -25 -64 -48
-77 -50 -110 -89 -165 -199 -74 -147 -80 -172 -88 -357 -5 -115 -3 -137 16
-190 12 -32 21 -71 21 -85 0 -14 8 -38 18 -55 26 -44 85 -205 78 -213 -4 -3
-426 -7 -939 -7 -728 0 -943 -3 -984 -13 -38 -10 -187 -14 -565 -16 -282 -2
-592 -9 -688 -15 -96 -6 -312 -13 -480 -16 -168 -3 -323 -9 -345 -15 -22 -5
-76 -10 -120 -10 -44 0 -127 -5 -185 -10 -58 -6 -202 -15 -320 -20 -322 -15
-592 -36 -620 -47 -14 -6 -59 -10 -100 -9 l-75 1 -3 31 c-2 19 7 50 22 79 15
26 26 58 26 70 0 12 7 42 16 66 32 93 47 202 46 351 -1 108 -5 155 -16 176 -8
15 -18 46 -22 67 -6 37 -75 178 -115 236 -10 14 -52 49 -94 77 -69 47 -94 57
-176 76 -14 3 -43 19 -64 36 -25 20 -49 30 -71 30 -37 0 -43 13 -84 190 -12
52 -30 122 -40 155 -49 157 -56 188 -90 390 -7 39 -18 102 -25 140 -8 39 -18
97 -24 130 -11 63 -22 107 -51 215 -40 144 -80 349 -124 635 -9 55 -20 118
-25 140 -5 22 -15 63 -21 90 -12 52 -41 234 -66 420 -8 61 -21 126 -29 145 -7
19 -16 67 -19 105 -3 39 -13 102 -21 140 -8 39 -15 96 -15 127 0 32 -6 75 -14
95 -8 21 -17 76 -21 123 -3 47 -12 107 -20 135 -8 27 -19 99 -25 159 -6 61
-13 112 -15 116 -7 12 -34 245 -50 430 -8 107 -20 220 -25 250 -5 30 -14 132
-19 225 -6 94 -16 245 -21 336 -6 91 -8 248 -5 350 4 101 8 272 9 379 4 269
26 671 38 693 5 10 18 95 29 190 11 95 24 206 29 247 5 41 14 131 19 200 6 69
15 148 21 175 6 28 15 84 21 125 5 41 16 111 24 155 8 44 19 124 25 178 7 54
18 114 26 132 8 19 14 54 14 77 0 24 7 68 15 98 8 30 15 71 15 90 1 19 8 53
16 75 15 40 26 89 63 280 11 55 26 129 35 165 9 36 16 81 16 101 0 20 6 52 14
70 7 19 23 88 35 154 12 66 29 149 37 185 8 36 14 72 14 81 0 9 14 58 31 110
16 52 36 123 44 159 7 36 20 92 29 125 9 32 16 74 16 92 0 19 7 50 15 70 8 19
15 52 15 73 0 21 9 67 20 102 11 34 20 75 20 89 0 15 9 55 20 89 11 34 20 80
20 102 0 21 6 51 14 66 7 15 16 57 20 94 3 36 11 79 16 95 5 15 17 78 25 138
31 221 41 281 48 292 4 6 14 56 21 110 86 589 105 851 106 1424 0 431 -14 766
-40 933 -5 34 -16 138 -25 231 -8 94 -19 217 -25 275 -12 122 -56 422 -72 495
-6 27 -14 77 -18 110 -4 33 -15 96 -23 140 -8 44 -20 116 -27 160 -21 139 -28
175 -74 404 -26 122 -49 228 -53 234 -7 11 -17 57 -48 217 -8 41 -19 90 -24
109 -6 19 -13 68 -17 110 -4 42 -10 83 -15 92 -4 9 -16 49 -25 90 -30 136 -60
259 -88 364 -7 28 -21 84 -29 125 -9 41 -25 118 -36 170 -11 52 -25 129 -30
170 -15 110 -39 229 -55 275 -8 22 -15 54 -16 70 0 17 -9 57 -20 90 -10 33
-24 89 -29 125 -27 163 -40 241 -50 276 -5 22 -13 66 -17 99 -3 33 -11 69 -17
80 -5 10 -14 53 -18 95 -4 41 -14 107 -22 146 l-14 71 88 -23 c48 -12 109 -26
136 -30 26 -4 67 -15 90 -25 23 -10 71 -23 105 -29 63 -12 199 -49 251 -69 63
-25 130 0 167 61 24 39 25 73 6 170 -8 40 -22 111 -31 158 -9 47 -34 162 -57
255 -36 154 -51 200 -94 302 -16 39 -87 93 -121 93 -50 0 -66 -12 -323 -250
-117 -107 -185 -165 -221 -188 -19 -11 -40 -30 -47 -41 -18 -31 -29 -26 -35
17 -3 20 -14 71 -25 112 -11 41 -25 113 -32 160 -7 47 -17 96 -22 110 -6 14
-16 59 -24 100 -15 86 -48 212 -59 230 -9 14 -30 109 -47 205 -5 33 -16 75
-24 93 -8 18 -14 50 -14 72 0 21 -5 61 -12 89 -6 28 -8 54 -4 58 4 4 37 -3 74
-17 45 -16 96 -25 157 -28 67 -3 102 -10 135 -27 59 -29 164 -65 191 -65 12 0
48 -12 80 -26 53 -24 62 -25 90 -14 91 38 119 97 93 192 -9 35 -20 88 -25 118
-4 30 -15 77 -23 104 -9 27 -16 64 -16 83 0 18 -7 50 -15 69 -8 19 -17 59 -21
87 -4 29 -18 74 -31 100 -13 26 -29 72 -35 101 -5 30 -24 82 -42 117 -37 75
-98 118 -151 105 -19 -5 -94 -72 -219 -198 -105 -105 -218 -213 -251 -241 -33
-27 -65 -59 -72 -71 -11 -21 -12 -21 -18 -1 -4 11 -13 36 -21 55 -7 19 -18 58
-23 85 -18 91 -38 169 -55 218 -9 26 -16 60 -16 76 0 15 -6 50 -14 77 -11 37
-36 182 -36 208 0 2 26 6 58 9 86 7 136 36 157 91 17 43 16 47 -3 106 -12 33
-41 87 -66 119 l-45 60 18 48 c10 26 33 82 50 123 17 41 31 82 31 91 0 8 4 19
10 25 10 10 100 222 100 236 0 4 13 29 28 55 25 42 94 186 177 368 16 33 68
142 116 243 49 100 89 185 89 188 0 4 15 32 34 63 18 31 37 67 41 81 8 29 58
136 126 270 148 289 242 487 253 535 4 17 29 68 55 115 66 117 281 549 281
564 0 6 8 27 19 46 122 226 172 329 185 378 8 32 29 83 47 113 96 159 127 204
161 230 59 48 67 97 28 181 -12 25 -71 58 -104 58 -8 0 -36 19 -62 43 -62 54
-167 137 -264 208 -41 31 -101 79 -131 107 -31 29 -74 66 -95 83 -22 17 -95
84 -164 148 -69 65 -172 156 -230 202 -58 45 -169 139 -246 208 -214 191 -258
228 -394 338 -69 56 -163 135 -209 178 -47 42 -123 106 -170 142 -47 37 -124
102 -170 146 -74 69 -151 135 -254 217 -18 14 -96 79 -173 145 -78 66 -172
145 -210 175 -224 181 -292 234 -339 265 -29 18 -61 46 -71 61 -33 50 -123
132 -168 154 -42 20 -46 20 -82 5 -21 -9 -47 -23 -57 -33 -30 -27 -77 -128
-77 -166 0 -21 -13 -57 -34 -93 -19 -32 -37 -74 -40 -93 -3 -19 -16 -51 -28
-70 -12 -19 -50 -91 -85 -160 -36 -69 -70 -132 -77 -140 -20 -23 -128 -217
-156 -280 -14 -30 -46 -92 -72 -137 -26 -46 -56 -104 -68 -130 -11 -26 -36
-69 -54 -97 -18 -28 -51 -85 -74 -126 -22 -41 -67 -124 -101 -185 -34 -60 -61
-117 -61 -127 0 -9 -15 -43 -34 -75 -19 -33 -38 -72 -42 -88 -4 -16 -22 -55
-41 -86 -18 -32 -33 -61 -33 -66 0 -4 -18 -35 -40 -68 -22 -33 -40 -63 -40
-67 0 -4 -56 -122 -125 -261 -69 -140 -125 -258 -125 -262 0 -19 -239 -501
-282 -569 -21 -32 -47 -83 -58 -113 -11 -31 -34 -81 -50 -112 -16 -31 -64
-126 -106 -211 -46 -94 -91 -171 -114 -195 -49 -52 -60 -75 -60 -126 0 -35 6
-47 38 -79 20 -21 55 -43 76 -49 22 -6 56 -26 75 -45 20 -19 54 -47 77 -62 46
-33 184 -140 229 -179 125 -107 270 -227 343 -282 113 -85 163 -127 226 -189
28 -29 89 -82 136 -118 47 -37 108 -89 135 -115 28 -26 76 -66 107 -87 31 -22
72 -53 90 -69 18 -17 76 -62 128 -102 52 -40 140 -115 195 -169 129 -124 189
-175 246 -208 53 -30 190 -146 269 -227 53 -54 152 -141 254 -224 28 -22 102
-90 165 -151 64 -62 137 -129 163 -150 111 -92 264 -234 277 -257 11 -21 11
-28 -5 -52 -27 -42 -29 -257 -3 -301 37 -61 110 -64 165 -6 70 73 115 19 159
-193 14 -71 30 -136 34 -144 15 -30 33 -160 26 -190 -4 -18 -1 -40 8 -58 16
-30 43 -151 35 -158 -2 -2 -32 7 -66 21 -35 14 -91 30 -125 36 -34 6 -71 17
-82 24 -11 7 -47 20 -79 29 -33 10 -80 28 -104 41 -25 13 -56 24 -69 24 -13 0
-43 10 -66 21 -54 28 -108 29 -143 3 -70 -52 -87 -118 -59 -225 9 -35 25 -107
35 -159 10 -52 27 -121 39 -152 11 -32 21 -70 21 -85 0 -32 25 -170 46 -253 7
-30 16 -72 19 -92 8 -52 45 -92 110 -118 76 -31 92 -23 246 129 70 70 182 179
250 244 l123 117 14 -47 c7 -27 18 -70 23 -98 6 -27 15 -70 21 -95 6 -25 14
-74 18 -110 4 -36 12 -75 18 -87 7 -12 12 -32 12 -45 0 -26 41 -252 67 -368 9
-41 25 -90 35 -108 10 -18 18 -46 18 -62 0 -16 6 -49 14 -72 19 -59 39 -148
34 -153 -2 -2 -31 6 -63 19 -33 13 -94 27 -135 30 -58 5 -101 18 -192 56 -64
28 -125 50 -136 50 -11 0 -39 7 -62 15 -105 37 -182 2 -210 -95 -7 -24 10
-145 39 -280 15 -70 82 -309 127 -455 13 -44 24 -96 24 -116 0 -47 51 -124
102 -153 35 -20 37 -20 73 -3 43 21 127 97 167 152 31 43 346 365 357 365 3 0
14 -28 24 -62 10 -34 26 -78 34 -98 24 -52 63 -250 63 -318 0 -24 6 -67 14
-95 8 -29 26 -119 41 -202 15 -82 33 -170 40 -195 7 -25 16 -77 19 -117 3 -39
11 -84 17 -100 6 -15 17 -50 24 -78 8 -27 23 -84 35 -125 26 -93 58 -234 72
-320 6 -36 17 -82 24 -103 8 -20 14 -56 14 -80 1 -23 7 -60 15 -82 8 -22 17
-60 20 -85 4 -25 12 -63 20 -85 12 -36 40 -145 80 -320 7 -33 16 -86 20 -118
4 -32 13 -75 22 -94 8 -20 19 -71 23 -112 9 -75 34 -227 44 -266 2 -11 10 -56
16 -100 7 -44 25 -125 40 -180 16 -55 31 -131 35 -170 3 -38 12 -97 20 -130 8
-33 17 -94 20 -135 3 -41 12 -115 20 -165 16 -100 28 -190 54 -406 10 -80 22
-152 26 -159 5 -8 12 -100 16 -204 4 -105 13 -256 18 -335 12 -149 21 -460 23
-711 1 -192 -30 -686 -57 -895 -9 -66 -20 -156 -26 -200 -5 -44 -12 -87 -14
-95 -3 -8 -11 -71 -19 -140 -8 -69 -19 -138 -25 -153 -6 -16 -11 -41 -11 -56
0 -15 -7 -53 -15 -86 -9 -32 -20 -93 -26 -134 -15 -118 -72 -429 -94 -516 -53
-208 -73 -299 -86 -395 -6 -41 -17 -97 -25 -125 -7 -27 -18 -77 -24 -110 -34
-194 -41 -229 -51 -246 -5 -10 -16 -51 -24 -91 -22 -113 -36 -178 -50 -238 -8
-30 -23 -98 -35 -150 -11 -52 -29 -131 -40 -175 -10 -44 -28 -134 -40 -200
-11 -66 -26 -138 -31 -160 -6 -22 -15 -71 -21 -110 -5 -38 -15 -92 -23 -120
-8 -27 -17 -76 -20 -109 -3 -32 -10 -67 -16 -79 -6 -11 -15 -72 -20 -136 -5
-64 -11 -138 -13 -166 -3 -27 -14 -102 -25 -165 -11 -63 -25 -149 -31 -190 -6
-41 -17 -91 -24 -110 -7 -19 -17 -87 -20 -150 -4 -63 -14 -144 -21 -180 -8
-36 -17 -150 -19 -255 -3 -104 -10 -233 -15 -285 -6 -52 -15 -218 -21 -369 -6
-151 -13 -278 -16 -283 -3 -4 0 -43 6 -85 6 -43 10 -181 10 -306 0 -126 5
-261 11 -300 6 -40 12 -133 14 -207 2 -74 8 -184 15 -245 31 -298 51 -475 60
-525 6 -30 14 -108 20 -172 5 -65 13 -126 19 -135 5 -10 12 -54 16 -98 6 -74
19 -164 45 -310 6 -33 15 -94 21 -135 6 -41 17 -100 24 -130 8 -30 17 -80 20
-110 3 -30 12 -77 20 -105 7 -27 18 -86 25 -130 10 -78 21 -140 53 -315 9 -47
21 -114 27 -150 18 -100 38 -197 61 -290 11 -47 25 -114 30 -150 6 -36 14 -85
20 -110 23 -103 28 -130 44 -225 9 -55 25 -143 35 -195 19 -93 31 -164 51
-305 6 -38 19 -99 30 -134 10 -35 19 -89 19 -121 0 -58 -1 -59 -42 -87 -50
-33 -88 -100 -88 -154 0 -48 29 -116 69 -161 70 -80 71 -77 -40 -186 -78 -77
-104 -111 -127 -163 -67 -149 -89 -348 -52 -472 26 -85 70 -196 82 -203 4 -3
8 -13 8 -23 0 -10 17 -45 39 -77 62 -94 151 -244 151 -255 0 -5 -7 -9 -15 -9
-9 0 -38 -12 -65 -26 -27 -14 -71 -32 -97 -39 -174 -50 -231 -68 -249 -80 -12
-8 -64 -30 -115 -50 -146 -58 -342 -178 -442 -274 -75 -71 -196 -217 -240
-290 -22 -36 -50 -78 -63 -93 -59 -71 -184 -413 -184 -503 0 -17 -9 -57 -20
-88 -34 -96 -60 -218 -60 -282 0 -33 -4 -76 -10 -95 -5 -19 -11 -99 -14 -177
-2 -78 -8 -147 -12 -154 -3 -6 -6 -165 -5 -353 1 -187 -1 -371 -5 -408 l-7
-68 -103 0 c-61 0 -121 -6 -146 -14 -24 -8 -68 -16 -99 -20 -59 -6 -255 -70
-354 -116 -33 -15 -91 -55 -130 -90 -38 -34 -81 -68 -96 -75 -34 -18 -151
-155 -181 -213 -14 -26 -44 -81 -66 -122 -22 -41 -46 -95 -52 -120 -27 -105
-52 -198 -66 -241 -8 -26 -14 -80 -14 -122 0 -41 -6 -92 -14 -114 -11 -30 -12
-72 -7 -184 4 -79 10 -149 14 -155 3 -6 9 -73 12 -149 4 -76 12 -156 20 -179
7 -23 16 -81 20 -131 4 -49 11 -106 16 -125 6 -19 17 -109 25 -200 22 -253 33
-332 48 -370 8 -20 17 -62 21 -95 4 -33 14 -72 21 -87 8 -15 14 -46 14 -70 0
-24 7 -79 16 -123 8 -44 19 -123 25 -175 5 -52 12 -102 15 -110 3 -8 14 -64
25 -125 30 -179 49 -276 54 -285 3 -5 10 -46 16 -92 5 -46 21 -134 35 -197 14
-62 23 -120 19 -129 -3 -8 1 -40 9 -71 31 -115 46 -188 46 -217 0 -16 11 -51
25 -79 13 -27 25 -58 25 -67 0 -16 40 -117 76 -193 79 -166 239 -308 432 -384
91 -36 275 -71 377 -71 l60 0 0 -157 c0 -347 18 -539 63 -701 32 -112 60 -154
116 -171 35 -10 332 -23 501 -21 61 0 178 9 260 20 83 10 180 19 217 19 106 0
175 39 221 126 17 30 23 65 28 145 3 58 14 161 23 230 9 71 14 145 10 170 -3
25 -6 79 -5 120 0 41 -4 98 -11 127 -18 85 -43 81 399 75 522 -7 1001 -3 1041
10 22 6 92 6 224 -3 134 -8 321 -10 617 -5 845 13 1521 30 1681 41 52 4 343 8
645 11 303 2 604 9 670 14 143 12 1135 32 1385 28 96 -1 236 -2 310 -1 800 8
917 10 945 22 20 9 77 12 170 11 77 -1 268 0 423 3 l284 5 -7 -57 c-13 -118
-13 -295 1 -331 7 -20 17 -118 23 -223 14 -253 33 -299 155 -363 47 -25 54
-26 125 -17 54 7 102 6 166 -2 105 -15 472 -5 518 14 16 6 76 11 135 11 92 0
112 3 147 23 54 30 94 91 99 149 3 26 10 57 17 69 30 57 46 182 42 339 -5 197
-6 267 -3 358 2 68 4 72 25 72 12 0 39 7 58 15 20 8 57 15 81 15 25 0 60 6 78
14 18 8 67 28 108 45 121 48 143 62 228 141 114 107 215 294 234 435 5 39 15
92 23 119 8 27 15 70 15 95 0 25 9 82 20 126 11 44 20 103 20 130 0 28 5 68
10 90 15 61 38 229 71 515 5 47 14 114 19 150 28 193 61 521 81 804 5 77 16
150 23 165 13 24 21 135 31 411 2 52 13 136 24 185 11 50 25 158 31 240 5 83
12 161 14 175 9 53 -13 395 -28 445 -9 28 -16 66 -16 86 0 20 -6 54 -14 75 -7
22 -19 71 -25 109 -23 131 -122 307 -248 442 -133 141 -398 286 -573 314 -30
4 -95 15 -145 24 -132 23 -363 19 -547 -11 -38 -6 -38 -6 -38 29 0 20 -5 58
-10 84 -6 26 -15 131 -20 233 -6 102 -14 221 -20 265 -5 44 -14 133 -20 197
-6 64 -17 132 -25 151 -8 18 -19 76 -24 128 -16 143 -40 288 -56 337 -8 23
-15 50 -15 60 -1 9 -8 35 -16 57 -8 22 -19 60 -24 85 -17 90 -122 354 -181
455 -19 33 -47 87 -63 120 -49 100 -238 286 -381 374 -38 24 -106 68 -150 97
-140 92 -397 179 -680 228 -49 9 -151 27 -226 41 -75 14 -153 25 -175 25 -22
0 -80 11 -129 25 -50 14 -112 25 -140 25 -27 0 -96 5 -152 12 l-103 12 0 59
c0 44 5 63 20 80 39 41 72 109 111 228 34 103 40 136 48 256 9 157 2 198 -54
320 -46 100 -126 178 -244 235 -95 47 -90 38 -69 145 10 53 9 67 -6 107 -24
63 -45 86 -86 95 -59 12 -61 23 -80 576 -6 165 -18 366 -26 448 -8 81 -14 180
-14 220 0 39 -7 137 -16 217 -8 80 -15 165 -16 190 -1 139 -49 535 -79 650
-11 41 -26 122 -35 180 -8 58 -21 125 -29 150 -13 41 -20 77 -47 245 -16 101
-40 218 -53 265 -8 25 -19 79 -25 120 -15 94 -38 187 -55 220 -7 14 -16 48
-20 75 -14 110 -69 349 -96 420 -10 28 -19 63 -19 78 0 15 -7 44 -15 64 -8 19
-15 47 -15 62 0 14 -9 73 -20 131 -31 167 -60 371 -60 420 0 25 -9 89 -20 143
-11 55 -20 124 -20 155 0 32 -9 122 -19 202 -36 285 -34 1347 3 1624 9 61 20
145 25 186 5 41 19 129 30 195 10 66 25 154 31 195 23 153 39 257 50 320 6 36
15 97 19 137 10 82 46 264 66 338 7 28 16 70 20 95 4 25 13 65 20 90 8 25 18
72 24 105 9 61 21 114 46 215 8 30 20 89 28 130 27 137 77 384 92 447 8 34 15
73 15 87 0 15 9 59 19 99 32 118 41 159 52 227 14 94 39 209 55 255 23 67 111
436 153 640 6 28 20 84 32 125 42 149 68 277 93 460 7 52 20 120 29 150 17 60
58 260 83 410 9 52 36 200 60 328 24 128 44 250 44 270 0 20 7 66 15 101 9 36
20 92 25 125 21 141 60 347 80 426 28 111 35 147 49 250 49 353 62 442 71 495
32 197 41 262 50 365 6 63 17 149 25 190 21 109 62 459 75 645 6 88 18 187 25
220 17 71 29 200 50 540 9 138 20 282 25 320 15 115 38 443 39 550 0 55 5 154
11 220 5 66 15 212 20 325 6 113 15 295 21 405 6 110 12 556 14 990 2 435 8
828 13 875 6 47 8 99 5 117 l-5 31 104 -53 c56 -29 120 -58 142 -65 21 -7 57
-25 80 -40 22 -16 66 -39 97 -53 31 -14 81 -40 111 -60 94 -60 147 -79 183
-67 67 22 106 87 98 163 -3 25 0 68 6 94 10 36 10 122 1 378 -12 324 -12 331
-36 368 -28 43 -78 77 -113 77 -13 0 -47 -15 -75 -33 -57 -37 -85 -55 -201
-123 -44 -26 -96 -60 -116 -75 -20 -16 -39 -29 -43 -29 -3 0 -57 -25 -121 -55
-63 -30 -117 -55 -120 -55 -10 0 -5 359 6 387 17 45 12 452 -6 548 -13 62 -14
104 -8 190 4 61 6 127 5 148 -2 20 0 37 4 37 4 0 35 -16 69 -35 35 -19 98 -49
141 -66 44 -17 102 -46 129 -64 28 -18 79 -47 115 -65 36 -18 88 -48 116 -66
28 -19 64 -37 81 -40 77 -15 173 92 155 173 -5 21 -6 101 -3 178 6 136 4 188
-18 498 -11 162 -29 215 -83 243 -62 32 -110 13 -257 -105 -35 -28 -80 -55
-101 -61 -21 -6 -69 -34 -107 -64 -37 -29 -93 -66 -123 -81 -30 -15 -70 -39
-87 -53 l-33 -24 0 333 c0 343 4 386 40 425 21 21 23 21 60 7 36 -14 41 -14
72 3 21 12 43 39 61 74 32 64 31 82 -19 186 l-34 72 43 64 c23 35 58 88 77
118 19 30 55 82 81 115 25 33 61 86 78 119 17 32 48 78 70 101 21 23 44 53 51
66 7 13 34 50 59 84 26 33 60 80 76 105 17 25 60 83 96 130 36 47 79 105 95
130 15 25 58 83 94 130 36 47 96 130 133 185 38 55 107 150 155 211 48 62 112
147 142 190 30 43 114 154 185 246 72 92 151 200 177 240 26 40 81 116 123
168 41 52 89 119 106 149 17 30 52 77 78 105 26 28 67 76 91 106 25 30 48 57
51 60 3 3 13 19 22 35 23 44 212 283 308 389 25 28 52 61 58 74 6 12 19 22 29
22 31 0 81 39 102 79 40 80 14 153 -70 196 -27 14 -53 31 -57 39 -4 8 -34 43
-65 78 -63 70 -94 107 -205 253 -130 171 -260 331 -316 390 -33 35 -142 179
-167 220 -14 22 -61 84 -105 139 -44 54 -94 118 -110 142 -17 23 -54 69 -83
101 -28 33 -62 73 -74 90 -28 38 -213 268 -244 303 -22 25 -54 65 -190 242
-39 51 -90 113 -113 138 -23 25 -90 106 -148 180 -59 74 -132 164 -163 200
-31 36 -89 108 -130 160 -40 52 -119 145 -174 206 -56 60 -126 139 -156 175
-30 35 -78 89 -106 119 -27 30 -80 94 -117 141 -62 78 -113 119 -150 119 -7 0
-26 -9 -44 -20z m217 -445 c24 -27 81 -90 127 -139 47 -48 104 -118 127 -155
24 -36 51 -73 61 -81 10 -8 63 -71 117 -140 55 -69 137 -161 183 -205 45 -44
106 -116 135 -159 30 -43 77 -104 105 -135 28 -31 66 -76 85 -101 19 -25 37
-47 40 -50 3 -3 28 -32 55 -65 90 -108 168 -199 213 -246 24 -26 58 -69 75
-97 18 -28 77 -108 132 -179 55 -70 116 -153 136 -183 19 -30 62 -86 95 -125
34 -38 79 -95 102 -125 23 -30 70 -86 103 -125 34 -38 79 -95 100 -125 116
-163 145 -202 217 -285 43 -49 98 -119 124 -155 25 -36 57 -74 69 -84 l24 -20
-30 -8 c-60 -16 -317 -20 -420 -7 -155 19 -295 22 -470 9 -176 -14 -1453 -15
-1515 -2 l-35 8 -7 99 c-25 377 -27 431 -18 603 5 104 5 348 0 565 -4 210 -4
486 0 612 5 127 5 289 0 360 -5 72 -5 206 -1 299 4 93 4 192 -1 220 -10 55 10
292 23 279 4 -5 26 -30 49 -58z m-275 -407 c-9 -550 -9 -488 6 -873 8 -181 12
-422 9 -535 -3 -113 -2 -259 2 -325 9 -159 10 -702 2 -786 l-7 -67 -36 -6
c-21 -3 -134 -10 -252 -16 -118 -5 -241 -13 -274 -16 -33 -3 -163 -10 -290
-15 -126 -5 -270 -13 -320 -18 -240 -23 -377 -33 -455 -30 -191 6 -547 -18
-588 -40 -17 -9 -36 -9 -76 -2 -35 6 -66 7 -88 1 -40 -12 -38 -12 -38 -1 0 9
175 237 219 286 15 17 53 68 84 115 31 47 99 137 153 200 53 63 117 144 142
180 25 36 62 84 81 107 55 63 126 165 151 214 22 44 108 164 187 262 23 29 83
108 134 177 51 69 113 150 139 180 42 49 105 135 167 224 11 17 72 90 133 161
62 72 120 146 131 165 19 37 34 56 190 241 131 157 179 219 253 329 35 52 87
122 114 154 28 33 68 83 89 112 21 29 39 53 41 54 2 0 0 -195 -3 -432z m-9867
-1618 c119 -90 300 -235 362 -289 41 -36 98 -82 125 -101 78 -54 151 -114 260
-214 55 -51 132 -116 170 -146 39 -30 102 -81 141 -115 91 -77 174 -144 299
-240 55 -43 127 -103 161 -134 120 -111 211 -190 285 -249 42 -33 130 -111
195 -174 134 -128 250 -232 339 -303 95 -76 308 -260 382 -330 15 -14 70 -63
121 -108 l93 -82 -68 -18 c-65 -18 -220 -46 -368 -68 -38 -6 -92 -16 -120 -24
-27 -8 -70 -17 -95 -21 -25 -3 -52 -10 -61 -15 -9 -4 -61 -13 -117 -18 -56 -6
-118 -18 -138 -26 -20 -8 -44 -15 -54 -15 -10 0 -46 -9 -80 -20 -34 -11 -78
-20 -96 -20 -18 0 -48 -6 -66 -14 -18 -8 -71 -19 -118 -24 -129 -16 -228 -32
-304 -49 -38 -8 -105 -21 -150 -29 -45 -7 -110 -19 -146 -25 -36 -6 -90 -17
-120 -24 -30 -8 -86 -19 -125 -26 -38 -6 -83 -15 -99 -20 -16 -5 -32 -9 -37
-9 -18 0 -61 119 -70 195 -5 44 -18 114 -29 155 -10 41 -24 109 -31 150 -6 41
-17 95 -25 120 -7 25 -27 124 -43 221 -16 96 -39 213 -51 260 -12 46 -24 95
-27 109 -2 14 -18 97 -34 185 -39 209 -57 297 -113 550 -13 61 -27 132 -30
159 -3 27 -12 72 -20 100 -8 28 -21 94 -30 146 -9 52 -17 106 -20 120 -2 14
-13 61 -25 104 -13 47 -21 110 -21 155 0 46 -8 104 -20 146 -29 103 -28 110
18 75z m-204 -250 c7 -52 17 -104 23 -116 11 -19 20 -65 44 -224 6 -41 20
-101 30 -133 11 -31 19 -69 19 -85 0 -15 10 -65 21 -112 11 -47 22 -114 24
-150 1 -36 14 -105 27 -155 14 -49 31 -117 37 -150 30 -150 43 -218 62 -320
11 -60 26 -132 34 -160 8 -27 19 -81 25 -120 5 -38 14 -86 19 -105 5 -19 15
-71 21 -115 18 -127 79 -413 100 -465 10 -27 26 -97 35 -157 9 -59 18 -121 21
-138 5 -30 4 -30 -85 -63 -52 -19 -137 -40 -198 -48 -60 -9 -130 -19 -158 -24
-48 -7 -187 -41 -305 -75 -30 -8 -64 -15 -75 -15 -28 0 -148 -28 -218 -51 -31
-10 -67 -19 -80 -19 -12 0 -48 -9 -80 -20 -31 -11 -70 -20 -86 -20 -16 0 -42
-5 -58 -11 -15 -6 -53 -18 -83 -25 -30 -7 -93 -23 -140 -34 -47 -12 -112 -27
-145 -35 -33 -8 -105 -26 -160 -41 -55 -14 -129 -32 -165 -39 -36 -7 -78 -18
-93 -24 -16 -6 -42 -11 -58 -11 -16 0 -47 -9 -69 -20 -22 -11 -53 -20 -70 -20
-41 0 -41 -2 78 235 52 105 120 242 150 305 31 63 66 135 79 160 13 25 46 92
74 150 28 58 57 117 65 132 8 14 14 32 14 40 0 7 13 38 29 68 15 30 42 84 60
120 18 36 37 73 42 83 128 248 174 341 191 382 30 77 155 322 229 446 16 28
43 80 59 115 15 35 44 87 63 116 19 29 61 107 92 173 32 66 84 160 117 209 32
48 58 93 58 98 0 15 58 134 106 219 24 42 44 81 44 88 0 7 20 42 44 79 24 37
67 113 97 168 l54 101 13 -46 c8 -25 19 -89 26 -141z m11721 -912 c50 -6 131
-10 180 -9 50 1 127 -3 172 -9 63 -9 99 -9 152 0 93 15 197 17 246 2 22 -6 93
-12 157 -13 l117 -1 -47 -63 c-26 -36 -87 -118 -137 -183 -49 -65 -103 -138
-120 -162 -38 -58 -164 -220 -185 -240 -28 -26 -74 -92 -123 -175 -26 -44 -74
-111 -108 -150 -34 -38 -108 -133 -165 -210 -57 -77 -122 -164 -144 -194 -22
-30 -40 -61 -40 -71 0 -9 -12 -27 -26 -41 -15 -13 -50 -58 -79 -99 -30 -41
-70 -91 -90 -110 -20 -19 -45 -51 -55 -70 -10 -19 -40 -63 -66 -97 -82 -105
-138 -183 -216 -299 -72 -107 -144 -200 -209 -267 -16 -18 -46 -57 -66 -87
-82 -126 -154 -232 -229 -337 -43 -61 -102 -144 -131 -185 -40 -57 -149 -181
-154 -174 -6 8 -21 410 -19 501 5 230 3 311 -9 435 -8 77 -10 171 -6 245 11
197 4 842 -9 863 -6 11 -12 245 -19 832 0 58 3 158 8 223 l8 117 68 0 c38 0
88 7 113 15 36 12 57 13 122 4 85 -12 576 -4 649 11 59 11 356 10 460 -2z
m-1629 -63 c0 -17 4 -57 7 -90 4 -33 9 -310 13 -615 3 -305 8 -558 11 -563 3
-5 7 -140 9 -301 2 -160 7 -374 11 -476 5 -102 5 -223 2 -270 -3 -47 -3 -215
0 -375 3 -159 4 -341 1 -403 l-5 -113 -53 68 c-28 37 -83 106 -122 153 -116
142 -274 351 -316 418 -41 67 -113 161 -374 484 -86 106 -194 241 -240 299
-214 268 -298 371 -379 457 -47 52 -97 110 -111 131 -74 109 -109 153 -222
283 -25 29 -68 80 -94 113 -27 33 -51 62 -55 65 -13 10 -265 316 -281 342 -10
15 -44 56 -76 90 -32 35 -79 90 -105 124 l-46 61 89 7 c49 4 106 12 127 19 22
8 99 14 183 16 80 1 163 7 185 13 22 6 155 16 295 23 145 7 267 17 284 24 20
8 138 13 365 16 185 3 368 10 406 15 39 6 84 12 100 14 17 2 111 3 210 2 l180
-2 1 -29z m-6915 -1514 c-23 -32 -81 -157 -81 -174 0 -6 -18 -45 -40 -88 -22
-43 -40 -85 -40 -94 0 -27 -138 -317 -183 -384 -16 -24 -38 -64 -47 -90 -19
-49 -121 -276 -171 -378 -17 -35 -41 -75 -53 -90 -25 -30 -90 -155 -126 -243
-12 -30 -56 -125 -98 -210 -133 -275 -182 -380 -182 -393 0 -7 -16 -45 -35
-86 -19 -40 -35 -78 -35 -84 0 -6 -7 -18 -15 -27 -8 -8 -46 -78 -86 -155 -39
-77 -85 -164 -101 -194 -17 -29 -40 -81 -52 -115 -12 -33 -42 -97 -66 -141
-47 -84 -152 -304 -176 -368 -22 -60 -126 -267 -134 -267 -11 0 -30 73 -30
115 0 20 -6 49 -14 63 -21 42 -56 177 -56 220 0 21 -9 63 -20 95 -11 31 -20
71 -20 89 0 18 -5 49 -11 68 -6 19 -17 76 -24 125 -7 50 -18 104 -23 120 -6
17 -15 57 -20 90 -14 87 -47 256 -72 365 -12 52 -30 138 -40 190 -10 52 -27
129 -38 170 -11 41 -32 131 -46 200 -15 69 -38 172 -51 230 -13 58 -31 150
-40 205 -9 55 -23 120 -31 145 -8 25 -21 90 -30 145 -8 55 -18 114 -23 130 -5
17 -16 75 -26 130 -9 55 -22 131 -29 170 -8 38 -12 74 -10 80 6 16 101 47 169
56 33 4 89 12 125 18 36 6 94 15 130 20 36 6 97 17 135 25 39 8 108 22 155 31
47 9 128 29 180 44 99 30 286 68 380 77 30 4 78 12 105 20 28 8 104 20 170 28
124 15 186 27 365 71 58 13 148 29 200 35 117 12 232 29 239 35 2 3 13 5 23 5
19 0 19 -1 -1 -29z m-2576 -488 c4 -16 17 -73 29 -128 28 -120 46 -231 46
-285 0 -42 12 -99 41 -195 10 -33 28 -109 39 -170 12 -60 28 -132 35 -160 27
-95 44 -174 54 -252 6 -43 17 -103 26 -133 8 -30 15 -72 15 -93 0 -21 7 -54
15 -74 8 -19 15 -47 15 -61 0 -14 9 -55 19 -91 25 -85 59 -233 66 -291 6 -46
28 -154 46 -225 6 -22 22 -92 35 -155 14 -63 30 -133 35 -155 6 -22 15 -62 20
-90 16 -83 26 -127 43 -185 9 -30 27 -120 41 -200 13 -80 28 -156 31 -169 10
-33 -174 123 -535 455 -36 33 -79 70 -95 83 -17 12 -76 66 -132 121 -56 54
-138 123 -181 154 -104 75 -107 77 -129 110 -10 16 -64 65 -119 109 -55 43
-107 84 -115 90 -8 7 -58 46 -110 88 -52 41 -122 95 -155 119 -33 24 -100 83
-150 131 -49 48 -106 99 -125 115 -19 16 -75 64 -125 108 -49 43 -113 93 -140
111 -28 17 -64 45 -80 61 -17 17 -73 63 -125 104 -52 41 -144 121 -205 178
-60 57 -133 119 -160 138 -28 18 -77 57 -110 86 -33 29 -82 71 -110 93 -27 22
-52 42 -55 45 -3 3 -20 16 -38 29 l-34 24 64 28 c34 16 70 29 78 29 8 0 42 9
75 19 66 22 168 47 320 81 55 12 114 26 130 32 17 5 53 16 80 23 172 45 207
55 215 60 5 3 42 10 83 15 41 5 90 16 108 23 48 21 172 50 389 92 41 8 109 24
150 35 41 12 109 27 150 35 41 8 116 26 165 40 50 14 133 32 185 41 52 9 106
19 120 24 46 15 59 11 65 -17z m9535 -1560 c0 -21 -17 -50 -24 -43 -2 3 -7 17
-11 33 -6 23 -4 27 14 27 13 0 21 -6 21 -17z m822 -813 c9 -75 13 -498 5 -506
-2 -3 -38 10 -78 29 -41 19 -94 44 -119 56 -75 35 -194 101 -215 121 -11 10
-35 25 -52 34 -18 9 -33 18 -33 20 0 2 22 18 48 35 27 17 59 42 73 57 13 14
62 46 109 71 47 26 105 62 129 82 112 91 123 91 133 1z m-1360 20 c25 -11 55
-28 69 -38 13 -11 51 -33 84 -50 33 -16 69 -39 79 -51 10 -11 40 -33 65 -47
77 -45 141 -87 140 -93 -1 -11 -94 -75 -150 -103 -30 -15 -77 -48 -103 -72
-27 -24 -63 -47 -80 -50 -17 -3 -55 -22 -85 -41 -29 -19 -54 -35 -56 -35 -1 0
-5 27 -9 60 -4 33 -14 79 -22 103 -10 28 -13 56 -8 82 4 22 8 58 9 80 10 158
18 275 20 275 1 0 23 -9 47 -20z m1373 -1707 c3 -27 10 -68 16 -92 11 -46 15
-419 5 -429 -4 -3 -35 8 -69 25 -34 18 -80 39 -101 48 -22 8 -58 30 -80 49
-23 18 -94 59 -158 91 -104 51 -139 75 -109 75 5 0 40 20 77 45 36 25 70 45
73 45 3 0 23 11 43 25 20 13 71 43 114 66 44 23 99 55 124 70 25 16 48 29 52
29 4 0 10 -21 13 -47z m-1126 -135 c19 -17 50 -37 68 -44 18 -8 57 -29 85 -46
l51 -32 -23 -15 c-13 -9 -38 -29 -55 -44 -16 -15 -50 -39 -75 -54 -25 -14 -63
-42 -85 -63 -22 -21 -67 -53 -101 -72 -33 -20 -80 -49 -103 -66 -24 -18 -47
-30 -51 -27 -7 4 -18 97 -25 215 -2 30 -7 81 -11 112 -4 34 -2 76 5 103 6 25
14 77 17 117 l6 73 131 -63 c73 -35 147 -78 166 -94z m-7539 90 c0 -12 11 -49
24 -82 14 -34 39 -124 56 -201 17 -77 39 -159 47 -182 24 -66 15 -76 -50 -54
-30 11 -85 22 -123 26 -37 4 -81 16 -98 26 -17 9 -60 23 -96 29 -36 7 -78 17
-95 24 -16 7 -47 16 -67 20 -21 4 -38 13 -38 20 0 17 309 320 375 367 53 39
65 40 65 7z m-1333 -309 c15 -6 53 -15 83 -21 30 -5 82 -23 115 -40 70 -35
145 -63 230 -86 33 -8 62 -17 64 -18 4 -4 -306 -313 -368 -367 -54 -47 -53
-49 -92 111 -16 63 -35 125 -44 138 -8 13 -15 43 -15 66 0 38 -15 120 -35 201
-6 23 -4 27 13 27 12 0 33 -5 49 -11z m1733 -1366 c13 -27 27 -68 31 -93 18
-110 31 -179 45 -226 8 -28 14 -68 14 -88 0 -21 5 -46 10 -57 19 -34 2 -38
-69 -19 -38 11 -107 26 -153 35 -45 8 -114 26 -153 41 -38 14 -94 33 -122 41
-29 9 -53 20 -53 24 0 5 23 30 52 56 29 26 66 62 83 78 31 31 74 69 185 165
35 30 70 63 79 73 22 24 24 23 51 -30z m-1335 -303 c167 -34 200 -42 234 -59
20 -11 56 -24 81 -31 62 -15 130 -43 130 -53 0 -21 -61 -101 -134 -173 -45
-45 -114 -118 -154 -163 -41 -44 -77 -81 -82 -81 -32 0 -114 267 -135 440 -7
58 -16 114 -21 124 -6 15 -4 18 7 14 8 -3 41 -11 74 -18z m1283 -18188 c7 -20
19 -67 26 -104 l13 -66 -23 16 c-19 14 -23 29 -27 87 -2 39 -8 81 -12 95 -12
38 7 15 23 -28z m6552 -301 c0 -27 -8 -49 -30 -76 -34 -43 -34 -45 -18 -80 29
-63 205 -103 265 -59 61 44 89 144 58 204 l-15 30 26 -10 c48 -19 110 -68 126
-102 60 -125 60 -125 56 -289 -4 -168 -2 -160 -85 -324 -50 -99 -136 -236
-158 -255 -11 -9 -26 -8 -67 6 -46 15 -61 16 -131 4 -100 -16 -110 -10 -186
125 -68 122 -101 213 -101 280 0 28 -4 65 -10 84 -6 23 -6 66 1 130 20 169 83
281 184 326 29 12 56 28 59 34 14 22 26 10 26 -28z m-6105 -141 c22 -10 54
-31 72 -47 40 -35 103 -176 103 -231 0 -22 7 -59 15 -82 18 -50 10 -137 -29
-321 -22 -106 -30 -124 -83 -206 -32 -50 -63 -98 -68 -107 -10 -17 -14 -17
-76 0 -74 19 -104 15 -147 -21 -34 -28 -37 -26 -87 54 -15 25 -58 77 -95 116
-37 39 -71 82 -74 96 -4 13 -21 52 -37 86 -50 105 -64 167 -62 275 3 133 41
226 126 304 32 30 65 54 72 54 26 0 28 -46 4 -88 l-23 -39 30 -46 c21 -34 41
-52 76 -67 95 -41 173 -16 216 70 21 43 21 48 8 100 -10 39 -24 63 -45 81 -17
14 -31 29 -31 32 0 15 97 6 135 -13z m5115 -1005 c77 -7 424 -16 755 -20 193
-2 379 -9 415 -14 36 -6 97 -11 135 -11 39 0 126 -6 195 -14 182 -22 402 -47
505 -57 50 -5 124 -15 165 -23 41 -8 114 -17 161 -20 88 -6 151 -26 374 -120
44 -19 102 -39 128 -45 27 -7 76 -25 111 -41 35 -17 67 -30 72 -30 5 0 25 -13
44 -28 19 -16 55 -40 80 -55 25 -14 104 -84 177 -155 120 -118 137 -138 179
-223 26 -52 62 -116 80 -144 17 -27 41 -80 53 -118 11 -37 25 -75 30 -85 11
-21 81 -279 90 -337 4 -22 13 -50 20 -63 6 -12 16 -61 22 -110 6 -48 17 -106
25 -130 8 -25 14 -83 14 -140 0 -53 6 -135 14 -182 8 -47 17 -132 21 -189 3
-58 13 -120 20 -138 15 -35 19 -147 13 -363 l-3 -105 -30 -14 c-16 -8 -48 -28
-69 -44 -21 -17 -56 -42 -76 -56 -83 -56 -133 -107 -162 -166 -17 -33 -45 -76
-63 -96 -18 -20 -38 -54 -45 -75 -7 -22 -24 -55 -37 -75 -24 -36 -45 -99 -63
-186 -5 -24 -16 -55 -24 -70 -8 -16 -17 -51 -21 -78 -4 -28 -12 -59 -18 -70
-6 -11 -14 -81 -18 -155 -4 -74 -14 -216 -22 -315 -9 -114 -12 -258 -9 -395 5
-243 5 -243 -84 -337 -44 -46 -67 -52 -112 -29 -15 8 -67 17 -117 21 -49 4
-108 13 -130 20 -37 12 -315 31 -415 28 -158 -5 -282 -1 -339 10 -37 7 -123
11 -196 9 -334 -6 -410 -5 -555 7 -87 7 -251 11 -375 9 -319 -4 -580 -1 -832
12 -170 9 -239 9 -296 0 -72 -12 -298 -9 -576 6 -68 4 -142 2 -185 -5 -77 -12
-359 -20 -906 -26 -190 -2 -439 -8 -555 -14 -241 -12 -712 -25 -830 -22 -45 1
-101 -2 -125 -8 -25 -5 -99 -13 -165 -16 -66 -3 -174 -11 -240 -16 -66 -6
-163 -13 -215 -15 -52 -3 -156 -9 -230 -15 -74 -5 -178 -11 -230 -13 -52 -2
-189 -9 -305 -16 -115 -6 -239 -13 -275 -15 -36 -1 -94 -7 -130 -14 -36 -6
-85 -11 -110 -11 -25 0 -65 -6 -90 -14 -25 -7 -90 -16 -145 -20 -98 -7 -166
-20 -275 -54 -67 -20 -170 -22 -193 -3 -11 8 -17 29 -17 55 0 22 -7 95 -15
161 -8 65 -15 166 -15 224 0 58 -4 130 -10 160 -5 31 -16 115 -25 186 -8 72
-20 157 -26 190 -5 33 -14 98 -19 145 -14 121 -36 238 -54 285 -8 22 -15 51
-16 63 0 13 -7 36 -15 50 -15 28 -40 85 -60 137 -26 69 -226 307 -325 386 -62
51 -163 99 -204 99 -22 0 -61 14 -100 35 -75 42 -70 21 -85 315 -10 195 0 583
20 740 6 47 13 128 15 180 6 159 20 262 44 320 12 30 29 73 36 95 8 22 27 72
43 110 16 39 39 97 52 130 12 33 35 80 50 105 14 25 48 83 74 130 124 220 253
337 530 480 105 54 215 98 360 145 51 16 128 33 235 49 47 8 103 20 125 29 95
36 281 64 505 77 91 6 203 17 250 26 165 30 266 42 395 49 72 3 236 15 365 25
382 32 683 48 1035 55 350 8 858 25 1100 38 132 6 299 9 370 6 131 -5 590 5
875 21 134 7 387 5 500 -5z m4705 -3080 c28 -8 80 -19 116 -24 46 -6 100 -25
170 -59 57 -27 120 -57 140 -65 20 -9 54 -37 75 -63 22 -26 60 -69 87 -95 58
-58 141 -227 168 -339 9 -41 27 -113 38 -160 51 -217 54 -236 47 -363 -9 -169
-13 -227 -25 -337 -6 -52 -16 -147 -22 -210 -6 -63 -17 -137 -24 -165 -8 -29
-16 -135 -19 -253 -4 -112 -10 -222 -15 -245 -6 -23 -14 -102 -20 -176 -6 -74
-15 -160 -21 -190 -9 -53 -19 -148 -41 -410 -5 -63 -14 -139 -19 -170 -5 -31
-14 -96 -20 -146 -6 -49 -15 -128 -21 -175 -6 -47 -15 -121 -19 -165 -5 -44
-14 -104 -20 -133 -7 -30 -20 -106 -30 -170 -35 -225 -80 -387 -145 -527 -67
-143 -234 -258 -415 -285 -47 -7 -106 -19 -131 -27 -38 -11 -56 -12 -94 -2
-54 14 -139 7 -209 -17 -43 -15 -58 -15 -131 -4 -55 8 -98 10 -126 4 -24 -5
-111 -8 -194 -6 -146 2 -151 3 -190 30 -44 30 -39 13 -66 222 -6 48 -13 329
-16 645 -7 858 -17 1131 -53 1530 -8 87 -19 512 -22 800 -2 228 14 595 27 630
14 39 25 108 45 295 6 52 19 122 29 155 11 33 23 76 26 95 24 115 174 322 314
430 52 41 71 50 103 50 27 0 58 11 96 33 69 39 126 56 252 73 112 15 304 9
375 -11z m-11843 -231 c19 -10 48 -12 105 -7 92 7 135 -8 299 -104 144 -83
275 -236 300 -348 3 -16 21 -69 40 -116 18 -48 43 -129 55 -180 12 -52 28
-113 35 -137 8 -25 14 -85 14 -145 0 -94 11 -186 43 -342 10 -51 21 -363 17
-475 -4 -81 -2 -138 8 -380 7 -145 10 -511 9 -845 -3 -571 0 -685 22 -865 5
-47 12 -251 15 -455 l5 -370 -52 -52 c-38 -39 -59 -53 -79 -53 -16 0 -45 -8
-66 -17 -64 -30 -341 -21 -585 19 -56 9 -77 9 -126 -5 -48 -14 -69 -14 -117
-5 -93 17 -235 70 -269 99 -16 14 -56 42 -88 63 -114 72 -207 217 -257 401
-10 38 -25 90 -33 115 -9 25 -23 83 -32 130 -9 47 -24 104 -32 128 -21 61 -63
233 -63 260 0 13 -5 33 -11 45 -7 11 -15 50 -20 86 -37 299 -51 391 -63 426
-8 22 -15 50 -16 63 0 22 -46 282 -55 312 -5 18 -24 162 -31 240 -3 30 -15
109 -28 175 -13 66 -27 157 -30 203 -3 45 -10 92 -17 103 -6 12 -17 107 -25
213 -8 105 -19 247 -26 316 -16 158 -17 590 -1 692 6 44 24 104 41 140 16 35
35 81 42 103 7 22 29 67 48 100 113 188 211 293 317 342 166 76 240 103 282
103 24 0 60 7 81 16 73 31 287 36 344 8z m7298 -1920 c786 -2 1214 -6 1270
-14 47 -6 225 -13 395 -16 223 -3 326 -9 368 -19 42 -11 119 -15 265 -15 122
-1 246 -6 302 -14 105 -16 113 -18 184 -52 28 -13 58 -24 68 -24 25 0 69 -24
88 -47 47 -58 100 -134 100 -143 0 -6 14 -39 32 -73 29 -57 32 -73 39 -197 5
-74 13 -184 20 -245 11 -105 19 -707 18 -1375 l-1 -295 -39 -71 c-35 -64 -82
-114 -134 -141 -11 -6 -76 -30 -145 -53 -118 -39 -134 -42 -295 -51 -93 -5
-350 -11 -570 -14 -220 -3 -425 -8 -456 -11 -30 -3 -318 -7 -640 -9 -394 -2
-596 -6 -620 -14 -23 -7 -52 -8 -81 -3 -25 5 -130 5 -234 0 -228 -10 -505 -16
-1224 -23 -310 -3 -571 -10 -605 -16 -90 -16 -683 -20 -1005 -8 -257 11 -290
10 -333 -5 -78 -26 -321 -34 -912 -29 -302 3 -620 4 -705 3 -328 -4 -812 5
-958 18 -122 10 -137 15 -177 58 -5 6 -29 25 -51 42 -33 25 -43 40 -48 73 -4
23 -13 54 -21 69 -9 17 -18 89 -25 196 -6 93 -15 205 -19 249 -4 44 -9 253
-10 465 -1 212 -6 428 -12 480 -8 70 -8 154 1 315 7 121 11 271 10 333 l-2
113 44 57 c24 31 56 75 71 98 61 90 217 174 348 188 37 3 89 13 115 21 27 8
79 15 116 15 37 0 85 6 105 14 26 10 124 18 304 26 147 6 284 16 305 21 22 4
104 9 184 9 95 0 166 6 205 15 41 11 156 18 360 25 165 5 406 17 536 25 130 9
341 18 470 21 128 3 237 8 241 10 4 2 277 7 606 10 330 3 633 10 673 14 41 5
124 6 184 3 61 -3 643 -7 1295 -9z m4073 -3099 c5 -39 9 -200 10 -359 l2 -290
-48 -15 c-43 -13 -54 -13 -119 4 -88 23 -319 25 -421 5 -66 -14 -146 -5 -169
18 -4 4 -10 84 -13 177 -2 94 -8 197 -13 230 -4 33 -8 107 -8 165 l1 105 50
-5 c28 -2 68 -4 90 -3 103 4 420 24 505 31 134 12 124 17 133 -63z m-10797
-111 c51 -17 84 -16 295 7 114 12 117 12 144 -9 32 -25 69 -28 105 -7 14 8 36
14 49 15 21 0 23 -3 16 -36 -4 -23 0 -55 11 -90 13 -42 14 -62 6 -96 -10 -43
-8 -142 6 -373 5 -66 7 -123 5 -127 -7 -14 -84 -8 -116 9 -28 14 -66 16 -287
15 -140 -1 -276 -4 -302 -7 -26 -4 -55 -2 -66 4 -30 16 -46 87 -33 153 6 34 6
69 1 94 -15 61 -13 437 2 452 17 17 109 15 164 -4z M18028 43980 c-24 -14 -41
-75 -33 -117 9 -52 63 -151 85 -158 27 -9 55 9 70 45 25 60 -47 240 -95 240
-5 -1 -18 -5 -27 -10z M18690 43230 c-17 -17 -20 -33 -20 -100 0 -73 3 -83 25
-105 21 -21 28 -23 48 -14 38 17 49 53 41 128 -5 48 -13 70 -30 88 -28 28 -38
29 -64 3z M16652 43797 c-25 -12 -62 -74 -62 -105 0 -11 -9 -41 -21 -67 -23
-53 -19 -90 11 -100 38 -12 55 5 103 103 52 108 56 133 27 162 -23 23 -26 23
-58 7z M16584 43302 c-19 -13 -35 -52 -29 -72 12 -39 64 -36 83 5 13 29 7 52
-19 65 -21 12 -21 12 -35 2z M15980 42610 c-24 -24 -25 -43 -4 -64 21 -21 40
-20 64 4 24 24 25 43 4 64 -21 21 -40 20 -64 -4z M8055 42065 c-33 -32 -31
-55 10 -130 63 -112 96 -134 136 -94 26 26 21 66 -21 156 -20 43 -38 66 -59
77 -38 20 -37 20 -66 -9z M8916 41394 c-22 -22 -21 -30 25 -114 55 -102 73
-116 109 -80 44 44 15 138 -59 187 -40 27 -54 28 -75 7z M6852 41693 c-15 -6
-61 -102 -72 -153 -5 -19 -14 -49 -21 -66 -25 -61 10 -108 63 -84 34 16 88
128 88 183 0 83 -24 132 -58 120z M6245 40675 c-18 -18 -25 -35 -25 -65 0 -90
86 -108 110 -22 14 53 13 69 -10 92 -26 26 -46 25 -75 -5z M6286 40414 c-31
-31 -5 -113 37 -114 16 0 47 42 47 65 0 27 -32 65 -54 65 -8 0 -22 -7 -30 -16z
M18852 41483 c-18 -7 -50 -75 -58 -122 -19 -120 73 -145 123 -33 30 68 30 106
-2 137 -24 25 -37 28 -63 18z M18207 41439 c-31 -18 -49 -66 -38 -102 5 -18
12 -44 15 -60 10 -42 42 -70 66 -57 54 29 50 202 -5 224 -20 7 -16 8 -38 -5z
M18368 40810 c-20 -12 -62 -134 -54 -156 3 -8 -1 -17 -10 -21 -21 -8 -55 -78
-48 -98 24 -61 111 -19 102 49 -2 15 8 32 29 52 33 30 63 89 63 124 0 22 -33
60 -52 60 -7 0 -21 -5 -30 -10z M18016 40315 c-15 -15 -46 -104 -46 -132 0 -8
-9 -31 -20 -53 -43 -83 -15 -209 40 -180 27 14 36 34 55 120 10 41 24 98 32
127 16 56 12 92 -13 117 -19 20 -29 20 -48 1z M16126 41334 c-9 -8 -16 -22
-16 -29 0 -15 27 -45 40 -45 13 0 40 30 40 45 0 15 -27 45 -40 45 -5 0 -16 -7
-24 -16z M15985 41244 c-9 -9 -14 -23 -11 -31 3 -8 6 -16 6 -18 0 -3 9 -9 20
-15 15 -8 24 -6 40 10 24 24 25 34 4 54 -20 20 -38 20 -59 0z M16954 39952
c-67 -45 -26 -200 48 -177 21 7 48 54 48 85 0 58 -60 116 -96 92z M8762 39942
c-28 -28 -30 -214 -2 -242 25 -25 35 -25 61 1 20 20 21 29 15 97 -3 41 -6 88
-6 103 0 27 -22 59 -41 59 -5 0 -17 -8 -27 -18z M9380 39940 c-11 -11 -20 -26
-20 -34 0 -25 31 -137 50 -181 44 -103 133 -44 95 62 -9 27 -20 68 -24 92 -13
71 -62 100 -101 61z M9271 39221 c-11 -11 -26 -39 -32 -63 -7 -24 -21 -56 -31
-73 -31 -52 -19 -205 17 -219 23 -9 42 3 53 32 23 66 32 100 32 125 0 15 9 50
20 79 24 64 25 101 4 122 -21 21 -40 20 -63 -3z M8844 38402 c-17 -11 -34 -48
-34 -75 0 -14 -6 -40 -14 -58 -8 -19 -17 -84 -21 -145 -7 -105 -6 -113 14
-133 33 -33 67 -27 90 16 17 33 37 220 33 316 -3 60 -36 100 -68 79z M6906
38954 c-23 -22 -20 -51 11 -103 30 -53 39 -61 71 -61 12 0 22 -4 22 -9 0 -5 9
-13 20 -16 49 -16 83 26 68 82 -6 24 -25 43 -76 77 -74 50 -92 54 -116 30z
M7726 38154 c-26 -25 -18 -67 15 -85 14 -7 23 -5 39 11 25 25 25 45 0 70 -24
24 -34 25 -54 4z M17480 13580 c-24 -24 -23 -21 -6 -85 17 -66 41 -110 68
-129 31 -22 45 -20 73 8 22 23 23 25 9 67 -7 24 -16 57 -19 73 -7 36 -56 86
-84 86 -12 0 -30 -9 -41 -20z M18544 13265 c-46 -32 -51 -71 -25 -215 12 -64
48 -133 77 -144 22 -8 44 4 49 28 29 126 28 170 -7 266 -27 77 -53 95 -94 65z
M14526 13254 c-19 -19 -19 -19 -17 -114 3 -107 24 -150 65 -134 27 10 35 51
29 140 -5 66 -11 92 -25 106 -22 22 -32 23 -52 2z M9630 13140 c-11 -11 -22
-32 -26 -47 -3 -16 -7 -33 -9 -40 -7 -23 16 -70 39 -81 18 -8 29 -6 54 9 61
39 62 133 2 164 -36 19 -36 19 -60 -5z M8906 13074 c-18 -17 -21 -66 -6 -93
15 -29 38 -33 60 -11 36 36 19 120 -25 120 -7 0 -21 -7 -29 -16z M18862 12123
c-7 -3 -19 -18 -28 -35 -13 -26 -15 -59 -10 -209 3 -99 10 -188 16 -199 21
-39 87 -34 108 8 26 50 21 290 -9 379 -11 34 -53 64 -77 56z M8922 11642 c-7
-5 -26 -43 -42 -86 -41 -105 -43 -214 -5 -251 30 -31 56 -32 90 -2 36 31 48
92 39 211 -8 118 -34 158 -82 128z M15784 10118 c-33 -15 -44 -51 -44 -149 0
-90 14 -142 42 -152 21 -7 55 13 66 38 18 39 26 190 13 223 -15 36 -48 53 -77
40z M17637 10098 c-9 -7 -21 -26 -27 -41 -14 -38 -13 -230 2 -261 21 -48 74
-42 102 12 12 23 23 187 17 254 -3 41 -59 62 -94 36z M10165 9925 c-14 -13
-26 -34 -26 -47 -6 -112 19 -231 52 -248 57 -31 94 30 85 137 -15 163 -53 217
-111 158z M9711 9472 c-22 -21 -29 -40 -34 -89 -8 -73 4 -108 44 -129 39 -20
56 -18 85 11 26 26 27 48 8 172 -10 65 -57 82 -103 35z M18263 9468 c-28 -14
-33 -28 -40 -114 -10 -121 25 -180 89 -153 40 16 58 61 58 144 0 111 -39 156
-107 123z M19989 10778 c-42 -14 -53 -54 -40 -135 16 -95 29 -131 54 -148 31
-21 54 -19 82 10 22 21 25 33 25 100 0 121 -53 197 -121 173z M20562 10523
c-7 -3 -19 -18 -28 -35 -13 -25 -14 -56 -9 -201 6 -154 10 -178 33 -230 38
-88 80 -96 102 -19 16 58 13 385 -4 426 -20 49 -59 73 -94 59z M20240 9950
c-40 -40 -6 -125 40 -100 22 12 40 41 40 64 0 18 -34 56 -50 56 -5 0 -19 -9
-30 -20z M20631 9424 c-47 -33 -91 -301 -61 -373 48 -117 150 73 150 279 0 76
-45 124 -89 94z M20542 8943 c-35 -13 -54 -100 -26 -127 31 -31 62 -15 74 39
12 55 -12 100 -48 88z M20523 8255 c-30 -21 -62 -132 -64 -220 -2 -107 28
-153 78 -119 36 23 54 76 62 180 7 101 1 142 -26 161 -21 16 -24 16 -50 -2z
M20366 7217 c-13 -13 -29 -47 -36 -78 -6 -30 -21 -83 -31 -118 -26 -86 -25
-165 1 -191 39 -39 92 -21 111 37 6 21 22 58 34 83 18 36 22 64 23 143 1 92 0
100 -23 123 -30 30 -50 30 -79 1z M19690 6728 c-11 -12 -25 -40 -31 -63 -6
-22 -20 -61 -30 -87 -36 -90 -16 -168 44 -168 32 0 49 16 86 81 57 103 35 259
-38 259 -6 0 -20 -10 -31 -22z M7447 10145 c-51 -35 -67 -71 -67 -149 0 -151
86 -252 134 -158 21 43 41 264 25 293 -24 46 -40 49 -92 14z M7913 10135 c-59
-41 -56 -226 3 -249 48 -19 70 19 78 138 4 73 3 80 -19 102 -28 28 -34 29 -62
9z M8880 9400 c-15 -15 -20 -33 -20 -79 0 -33 3 -67 6 -75 10 -25 41 -38 63
-27 30 17 40 58 32 146 -1 17 -36 55 -51 55 -5 0 -19 -9 -30 -20z M7475 8915
c-29 -28 -31 -59 -11 -150 22 -103 52 -133 101 -101 33 22 38 46 30 144 -6 70
-11 89 -31 108 -30 31 -59 30 -89 -1z M7533 8315 c-36 -26 -44 -76 -24 -155
17 -67 54 -135 79 -145 21 -8 42 6 59 38 12 25 14 48 8 120 -8 103 -17 130
-52 146 -32 15 -44 14 -70 -4z M7825 7075 c-24 -23 -25 -29 -25 -164 0 -129 2
-146 26 -207 41 -102 99 -121 139 -45 19 39 14 208 -8 266 -9 22 -21 60 -27
84 -11 42 -48 91 -70 91 -6 0 -22 -11 -35 -25z M8927 6579 c-25 -15 -39 -46
-49 -113 -5 -34 -11 -78 -14 -98 -9 -60 45 -128 102 -128 8 0 26 11 40 25 24
24 25 28 19 128 -4 56 -13 118 -22 138 -17 41 -50 62 -76 48z M18333 8536
c-44 -45 -46 -47 -39 -93 3 -25 17 -66 31 -89 41 -69 91 -71 125 -4 29 57 27
125 -7 173 -44 64 -57 65 -110 13z M17465 8546 c-61 -61 -8 -224 65 -201 25 8
34 38 31 105 -3 58 -18 93 -51 110 -17 9 -25 6 -45 -14z M9782 8293 c-7 -3
-27 -32 -45 -65 -18 -32 -42 -78 -54 -101 -49 -90 -3 -205 67 -167 34 18 53
70 58 155 3 44 11 89 18 100 18 26 18 50 -2 69 -16 17 -21 18 -42 9z M18256
7974 c-29 -28 -11 -104 24 -104 18 0 40 33 40 60 0 27 -22 60 -40 60 -5 0 -16
-7 -24 -16z M9752 7253 c-31 -12 -42 -61 -42 -183 0 -150 12 -180 73 -180 44
0 67 31 67 94 0 77 -19 205 -35 237 -11 21 -39 43 -48 38 -1 0 -8 -3 -15 -6z
M18371 7091 c-32 -32 -44 -94 -27 -135 36 -86 136 -43 136 59 0 82 -61 124
-109 76z M18249 6599 c-12 -12 -30 -41 -40 -65 -18 -39 -18 -47 -6 -77 17 -38
61 -77 89 -77 10 0 37 9 58 20 56 28 60 55 21 135 -43 87 -80 106 -122 64z
M9944 6518 c-31 -15 -44 -50 -44 -119 0 -71 10 -93 50 -114 39 -20 66 -19 105
5 46 28 63 72 41 105 -9 14 -21 25 -26 25 -5 0 -21 22 -34 49 -31 60 -50 70
-92 49z M14983 6458 c-12 -6 -28 -27 -36 -47 -13 -33 -13 -39 4 -73 24 -48 55
-68 102 -68 130 0 141 108 17 170 -33 16 -61 30 -62 29 -2 0 -13 -5 -25 -11z
M16465 6415 c-14 -13 -25 -29 -25 -35 0 -23 49 -60 80 -60 83 0 116 71 49 105
-41 22 -77 18 -104 -10z M10672 6409 c-78 -30 -96 -90 -35 -119 47 -21 158
-25 187 -7 51 34 39 87 -27 127 -40 25 -58 24 -125 -1z M12526 6379 c-23 -18
-30 -19 -60 -8 -60 22 -120 -17 -96 -61 15 -28 47 -42 80 -35 21 5 39 0 68
-20 56 -37 104 -43 131 -16 41 41 17 112 -49 146 -37 19 -42 19 -74 -6z
M14015 6393 c-112 -25 -136 -76 -55 -118 34 -18 157 -20 193 -4 29 13 50 54
42 80 -13 39 -101 60 -180 42z M9287 5248 c-43 -33 -37 -120 9 -146 49 -27
107 53 79 109 -23 44 -58 59 -88 37z"/>
</g>
</g>
</svg>
