<?xml version="1.0" standalone="no"?>
<!DOCTYPE svg PUBLIC "-//W3C//DTD SVG 20010904//EN"
 "http://www.w3.org/TR/2001/REC-SVG-20010904/DTD/svg10.dtd">
<svg data-landmark-id="066" version="1.0" xmlns="http://www.w3.org/2000/svg"
 width="736" height="671" viewBox="268 279 736 671"
 preserveAspectRatio="xMidYMid meet" role="img" aria-labelledby="title desc">
<title id="title">주변 낙서를 빨아들이는 연필 소용돌이</title>
<desc id="desc">원본 선 굵기를 유지하면서 전체 구성을 65퍼센트로 축소한 검은 잉크 선화</desc>
<metadata>
Created by potrace 1.16, written by Peter Selinger 2001-2019
</metadata>
<g transform="translate(627 627) scale(0.65) translate(-627 -627)">
<g transform="translate(0.000000,1254.000000) scale(0.025000,-0.025000)"
fill="#000000" stroke="none">
<path d="M10488 45380 c-75 -40 -140 -170 -183 -365 -12 -59 -76 -306 -133
-520 -16 -60 -32 -129 -36 -152 -3 -24 -12 -57 -20 -75 -8 -18 -18 -60 -24
-93 -5 -33 -19 -100 -31 -150 -59 -243 -91 -383 -91 -397 0 -8 -8 -35 -19 -59
-10 -24 -22 -78 -26 -119 -3 -41 -13 -86 -21 -101 -7 -15 -16 -46 -20 -70 -10
-63 -43 -192 -52 -200 -18 -18 -247 -96 -377 -129 -22 -5 -49 -16 -60 -23 -11
-8 -54 -26 -95 -40 -42 -14 -109 -40 -150 -57 -41 -17 -95 -37 -120 -45 -25
-7 -76 -25 -115 -39 -38 -14 -104 -37 -145 -51 -41 -14 -104 -35 -140 -47 -36
-12 -90 -34 -120 -49 -58 -29 -136 -60 -290 -114 -52 -18 -132 -49 -177 -69
-45 -20 -89 -36 -98 -36 -25 0 -201 -97 -243 -134 -39 -34 -71 -97 -72 -139 0
-40 34 -102 72 -129 75 -53 262 -158 398 -223 80 -38 170 -84 201 -101 30 -18
66 -35 80 -39 13 -3 42 -19 64 -36 22 -16 69 -42 105 -59 66 -31 151 -73 275
-140 39 -20 99 -50 135 -66 36 -16 84 -42 108 -57 24 -16 64 -37 90 -47 75
-29 486 -228 489 -237 4 -12 25 -855 24 -943 -1 -41 3 -102 8 -135 6 -33 13
-212 16 -398 2 -186 8 -344 11 -349 4 -6 8 -68 10 -137 6 -267 11 -312 43
-356 79 -111 160 -120 278 -31 91 69 766 746 872 875 29 36 81 95 116 131 97
102 299 316 428 454 125 133 142 143 190 111 21 -13 109 -47 162 -62 11 -3 83
-32 160 -65 77 -33 160 -68 185 -79 51 -21 243 -101 310 -129 25 -10 124 -50
220 -89 96 -38 231 -93 300 -121 69 -29 231 -87 360 -130 129 -43 251 -85 270
-93 19 -8 70 -17 113 -21 73 -6 82 -5 123 19 45 26 84 84 84 124 0 58 -98 358
-130 396 -5 6 -16 33 -24 58 -16 54 -66 161 -203 438 -57 113 -103 209 -103
212 0 3 -27 62 -60 132 -33 70 -60 130 -60 134 0 4 -75 156 -166 337 -92 181
-180 355 -195 386 -36 72 -36 92 -1 137 15 20 44 60 64 90 20 30 62 85 94 122
31 38 88 114 128 168 39 55 112 154 161 221 50 67 117 159 150 205 33 46 83
110 110 143 50 60 113 142 195 257 25 34 81 106 125 159 44 53 87 111 95 129
9 18 28 52 42 77 33 58 40 92 32 147 -8 57 -50 106 -109 129 -65 24 -406 11
-640 -26 -33 -5 -132 -12 -220 -15 -88 -4 -191 -13 -230 -20 -38 -8 -131 -16
-205 -20 -74 -3 -157 -10 -185 -15 -27 -5 -126 -12 -220 -15 -93 -4 -194 -11
-224 -17 -30 -6 -92 -11 -139 -12 l-83 -3 -37 46 c-20 25 -44 54 -54 64 -10
10 -27 37 -39 60 -11 23 -41 74 -66 112 -50 78 -192 315 -250 415 -20 36 -56
92 -80 125 -124 173 -172 243 -188 275 -15 30 -264 411 -332 510 -13 19 -56
81 -94 137 -109 158 -202 205 -301 153z m188 -397 c34 -43 90 -122 125 -175
35 -54 96 -145 134 -203 125 -188 184 -279 232 -358 27 -43 66 -106 88 -140
22 -34 65 -104 95 -155 30 -51 90 -147 133 -215 43 -67 119 -190 168 -274 50
-84 106 -166 126 -184 l36 -31 141 5 c213 9 294 15 371 26 39 6 108 11 155 11
47 1 110 6 140 11 30 5 138 15 240 23 102 8 198 19 213 25 16 6 76 11 135 11
59 0 199 9 312 20 188 18 390 26 390 16 0 -27 -152 -241 -235 -331 -25 -27
-73 -90 -107 -139 -33 -48 -75 -104 -92 -125 -18 -20 -44 -54 -58 -76 -14 -22
-90 -122 -169 -222 -179 -226 -270 -344 -350 -453 -34 -47 -82 -111 -106 -142
-60 -78 -86 -140 -78 -181 4 -18 38 -93 76 -168 38 -75 69 -140 69 -144 0 -6
247 -510 402 -820 51 -102 98 -203 220 -475 69 -154 102 -237 152 -379 l26
-73 -22 5 c-13 3 -45 13 -73 22 -27 9 -142 46 -255 83 -113 36 -232 77 -265
90 -33 13 -87 32 -120 42 -33 10 -96 32 -140 50 -44 18 -102 41 -130 52 -27
11 -63 25 -80 33 -72 33 -148 65 -156 65 -5 0 -64 27 -131 60 -68 33 -128 60
-135 60 -6 0 -24 7 -40 15 -27 14 -83 37 -203 85 -30 12 -73 30 -95 40 -197
92 -275 114 -321 87 -45 -26 -167 -155 -298 -317 -30 -37 -199 -218 -451 -485
-83 -88 -188 -200 -233 -250 -45 -49 -186 -190 -314 -312 l-233 -222 -6 92
c-3 51 -9 99 -13 106 -5 7 -10 74 -12 150 -1 75 -8 186 -14 246 -20 195 -33
482 -37 810 -6 578 -16 808 -34 835 -19 29 -39 39 -419 218 -58 28 -167 80
-242 116 -76 36 -140 66 -142 66 -3 0 -24 13 -48 28 -48 32 -402 212 -416 212
-5 0 -52 24 -105 54 -52 30 -148 82 -213 116 -66 35 -153 81 -194 104 -41 23
-92 50 -112 61 -20 10 -35 22 -32 26 13 21 376 185 474 213 25 8 73 28 107 45
34 17 75 31 92 31 28 0 115 29 301 100 47 18 132 51 190 72 58 22 125 49 150
59 49 20 298 99 312 99 5 0 51 18 103 40 52 22 107 40 122 40 16 0 47 9 68 20
22 11 56 25 75 30 63 17 100 48 125 103 14 28 25 64 25 78 0 14 6 48 14 75 8
27 20 76 26 109 6 33 20 96 30 140 10 44 30 139 45 210 38 191 75 354 91 405
7 25 21 81 29 125 15 79 43 186 71 276 8 26 14 64 14 85 0 22 10 59 21 84 11
25 34 97 51 160 46 179 64 240 87 305 12 33 24 67 27 75 4 12 9 11 22 -7 9
-11 44 -56 78 -100z M10633 44738 c-36 -17 -44 -60 -33 -157 11 -93 46 -255
61 -282 22 -43 98 -29 119 21 32 77 -20 335 -80 400 -31 33 -34 34 -67 18z
M11135 43738 c-46 -26 -47 -74 -2 -148 43 -72 78 -97 111 -82 34 15 41 52 26
120 -9 40 -22 66 -45 89 -35 35 -57 40 -90 21z M10453 43705 c-37 -26 -86
-169 -87 -250 -1 -110 49 -185 102 -156 21 11 26 23 67 146 23 66 26 89 20
139 -7 67 -26 111 -54 126 -25 13 -23 13 -48 -5z M13544 43280 c-11 -4 -45
-24 -75 -43 -30 -19 -87 -51 -126 -71 -83 -41 -163 -112 -163 -144 0 -30 27
-52 63 -52 66 0 347 161 380 218 17 28 17 33 3 60 -21 40 -42 48 -82 32z
M12405 43042 c-129 -32 -176 -68 -153 -118 24 -52 108 -58 211 -13 102 44 121
76 72 124 -27 28 -44 29 -130 7z M10936 42964 c-26 -25 -30 -63 -17 -142 17
-102 62 -199 96 -208 37 -9 72 18 85 66 9 35 7 52 -16 123 -38 118 -55 157
-75 168 -26 14 -56 11 -73 -7z M12374 42631 c-117 -62 -171 -99 -217 -150 -48
-54 -49 -84 -1 -109 26 -14 137 37 268 122 119 77 152 129 110 170 -26 26 -64
18 -160 -33z M12925 42538 c-11 -6 -26 -20 -34 -31 -7 -10 -32 -27 -55 -37
-51 -22 -166 -122 -185 -160 -29 -59 20 -122 79 -101 43 14 105 68 170 145 30
36 62 68 70 71 23 7 52 62 45 84 -3 10 -17 23 -31 29 -30 14 -34 14 -59 0z
M9283 42388 c-77 -37 -6 -118 102 -118 110 0 156 87 64 119 -40 14 -137 13
-166 -1z M8265 42145 c-41 -40 -32 -76 28 -107 34 -17 66 -22 173 -26 181 -7
228 12 210 83 -9 36 -39 48 -161 61 -177 20 -221 18 -250 -11z M9032 42098
c-25 -13 -37 -46 -28 -82 7 -29 109 -76 167 -76 48 0 115 32 124 59 11 35 -12
58 -83 85 -71 27 -141 33 -180 14z M11489 41977 c-19 -12 -49 -29 -67 -36 -33
-14 -62 -55 -62 -88 0 -53 78 -123 137 -123 21 0 47 -12 78 -35 69 -53 128
-79 159 -71 61 15 92 80 59 124 -17 22 -139 82 -168 82 -6 0 -20 7 -32 15
l-22 15 21 35 c25 43 18 77 -17 93 -36 17 -47 15 -86 -11z M10193 41978 c-48
-23 -51 -92 -4 -118 17 -9 114 -24 232 -37 78 -8 139 37 125 94 -5 17 -22 31
-59 49 -45 21 -66 24 -162 23 -60 0 -120 -5 -132 -11z M9303 41749 c-61 -18
-65 -81 -5 -95 15 -3 59 -17 99 -30 90 -30 118 -30 148 1 43 42 29 105 -26
124 -38 13 -171 13 -216 0z M12670 41130 c-11 -11 -20 -27 -20 -35 0 -41 63
-115 110 -130 26 -8 66 16 75 45 13 42 -76 140 -127 140 -10 0 -27 -9 -38 -20z
M12200 41060 c-11 -11 -20 -27 -20 -36 0 -34 55 -106 136 -178 93 -84 119 -92
159 -51 44 43 37 60 -71 169 -115 117 -161 139 -204 96z M11413 41008 c-12 -6
-30 -31 -41 -56 -19 -42 -19 -50 -6 -82 33 -80 105 -95 139 -29 31 59 11 144
-40 167 -14 7 -27 12 -28 11 -1 0 -12 -5 -24 -11z M10622 40807 c-33 -15 -76
-106 -122 -257 -45 -147 -48 -172 -20 -200 16 -16 24 -18 49 -9 42 15 43 18
112 185 78 192 83 207 75 237 -13 52 -46 67 -94 44z M10162 40723 c-37 -15
-92 -202 -92 -312 0 -53 22 -106 50 -121 30 -16 67 11 97 71 30 58 48 288 27
330 -17 35 -47 46 -82 32z M12379 40485 c-36 -20 -51 -57 -38 -95 18 -49 204
-170 261 -170 49 0 76 45 54 89 -20 38 -117 124 -182 162 -58 33 -60 33 -95
14z M10854 40227 c-41 -23 -104 -115 -104 -152 0 -23 37 -55 64 -55 32 0 82
43 106 91 45 87 5 157 -66 116z M13138 40185 c-34 -19 -43 -47 -24 -82 22 -42
209 -221 238 -228 35 -9 82 17 97 54 18 42 2 66 -94 143 -44 36 -86 73 -94 82
-17 20 -64 46 -83 46 -7 -1 -25 -7 -40 -15z M10231 39717 c-30 -14 -75 -104
-147 -295 -22 -59 -22 -66 -9 -93 41 -78 118 -52 150 51 7 25 28 79 46 120 52
125 59 151 43 182 -8 15 -23 32 -33 38 -23 12 -19 12 -50 -3z M37165 44290
c-121 -10 -313 -38 -375 -55 -134 -35 -201 -55 -217 -63 -10 -5 -36 -12 -58
-16 -22 -4 -60 -15 -85 -26 -25 -10 -94 -40 -155 -66 -60 -25 -134 -62 -163
-82 l-53 -35 -117 14 c-64 7 -148 12 -185 11 -37 -1 -97 5 -133 13 -113 26
-687 15 -884 -17 -36 -5 -123 -14 -195 -18 -71 -4 -152 -15 -179 -24 -27 -9
-63 -16 -80 -16 -17 0 -60 -7 -96 -15 -36 -8 -110 -24 -165 -35 -144 -30 -312
-69 -370 -87 -27 -9 -66 -19 -85 -24 -78 -17 -359 -121 -395 -145 -11 -8 -27
-14 -37 -14 -27 0 -357 -172 -464 -242 -120 -79 -307 -260 -379 -367 l-50 -73
1 -82 c1 -44 8 -99 16 -120 12 -34 12 -45 1 -80 -11 -29 -12 -50 -5 -76 34
-124 66 -218 91 -268 15 -31 34 -75 41 -97 20 -60 137 -283 179 -340 20 -27
50 -70 66 -95 104 -157 400 -487 555 -618 36 -30 89 -75 119 -101 120 -102
291 -235 381 -294 181 -121 237 -156 256 -164 10 -4 42 -21 69 -39 28 -17 88
-50 135 -72 47 -22 135 -67 196 -100 116 -62 333 -162 353 -162 35 0 73 -35
102 -93 51 -101 151 -219 354 -417 256 -249 641 -481 995 -599 183 -61 261
-70 320 -36 95 56 101 128 30 345 -10 30 -21 86 -24 124 -5 48 -17 88 -40 135
-18 36 -37 77 -41 90 l-7 24 88 -6 c49 -4 103 -11 120 -16 90 -26 761 -8 959
26 50 8 137 19 195 23 58 5 121 15 140 23 19 8 75 18 124 21 50 4 98 12 108
17 10 5 50 16 90 24 166 32 322 72 413 104 17 6 55 17 85 25 75 19 241 78 323
115 38 17 73 31 79 31 5 0 73 28 149 61 77 34 141 60 143 58 2 -2 15 -26 30
-54 14 -27 48 -86 75 -130 28 -44 63 -105 80 -135 100 -188 427 -558 630 -713
52 -40 110 -86 130 -103 20 -17 63 -46 96 -64 33 -19 80 -48 105 -66 39 -28
201 -109 408 -205 35 -16 89 -36 120 -44 31 -8 75 -20 97 -26 52 -15 100 -6
158 31 87 55 99 157 67 565 -7 85 -19 163 -31 198 -10 31 -19 69 -19 85 0 75
-107 440 -144 494 -9 12 -16 29 -16 36 0 19 -86 190 -143 284 -26 42 -47 80
-47 85 0 10 38 32 152 90 48 24 133 78 190 121 57 42 129 94 161 115 31 21 83
62 115 91 31 29 73 66 92 82 74 62 261 262 327 350 21 29 60 78 86 110 107
132 224 331 233 396 13 95 -87 188 -201 188 -18 0 -51 6 -73 14 -58 21 -377
32 -462 16 -36 -6 -103 -15 -150 -20 -224 -22 -574 -91 -680 -135 -30 -12 -70
-26 -89 -30 -18 -4 -58 -19 -90 -35 -31 -15 -105 -44 -166 -66 -60 -21 -157
-63 -215 -92 -58 -30 -161 -84 -230 -119 -69 -36 -132 -71 -141 -79 -29 -26
-47 -15 -101 62 -29 42 -69 97 -89 122 -19 26 -52 72 -73 102 -21 30 -48 66
-60 80 -12 14 -41 53 -64 85 -24 33 -65 87 -93 120 -28 33 -85 102 -126 153
-245 304 -734 753 -968 888 -27 15 -81 51 -120 79 -38 28 -88 62 -110 75 -64
37 -145 93 -145 99 0 13 178 241 344 439 83 101 115 158 116 207 0 31 -31 90
-59 113 -68 54 -229 94 -511 127 -69 8 -150 19 -181 25 -60 11 -324 11 -454 0z
m565 -218 l35 -10 -30 -1 c-52 -1 -287 -31 -360 -46 -38 -8 -97 -17 -130 -20
-99 -9 -284 -45 -375 -74 -72 -22 -88 -31 -108 -61 -26 -38 -54 -42 -119 -15
-18 8 -66 19 -105 25 -40 6 -90 14 -111 18 l-39 7 84 32 c45 17 99 35 118 39
19 3 56 15 83 25 26 10 80 24 120 30 39 6 95 17 122 24 28 8 100 17 160 21 61
3 128 10 150 15 52 11 460 3 505 -9z m328 -59 c39 -9 72 -20 72 -25 0 -4 -50
-66 -112 -138 -153 -179 -213 -255 -255 -322 -20 -32 -40 -58 -45 -58 -6 0
-44 16 -86 36 -43 21 -99 47 -127 60 -31 13 -44 24 -35 27 34 11 197 47 213
47 68 0 132 64 108 109 -27 50 -62 51 -225 11 -66 -16 -134 -32 -150 -36 -16
-3 -44 -21 -61 -40 -17 -19 -38 -34 -46 -34 -13 0 -51 13 -209 71 -30 11 -91
30 -134 41 -87 23 -84 32 16 43 29 4 78 15 108 25 30 10 100 23 155 28 55 5
158 19 228 31 71 11 190 26 265 31 150 12 173 20 199 75 19 40 24 41 121 18z
m-2789 -292 c35 -67 89 -282 105 -416 39 -327 43 -557 10 -669 -8 -27 -14 -78
-14 -113 0 -38 -8 -86 -20 -120 -11 -32 -20 -72 -20 -90 0 -44 -34 -187 -76
-314 -19 -58 -34 -111 -34 -117 0 -7 -18 -50 -40 -97 -22 -47 -40 -88 -40 -91
0 -16 -97 -224 -125 -269 -18 -27 -41 -68 -52 -90 -66 -132 -365 -486 -454
-538 -25 -15 -56 -38 -70 -53 -13 -14 -37 -32 -54 -40 -16 -8 -44 -23 -61 -34
l-30 -20 -90 46 c-49 25 -96 52 -104 59 -8 7 -31 20 -50 30 -19 10 -98 58
-174 107 -132 85 -196 132 -364 265 -40 32 -91 73 -115 91 -61 49 -229 212
-301 291 -215 240 -192 212 -288 361 -86 134 -90 141 -130 215 -60 109 -130
265 -142 318 -6 27 -3 25 71 -31 114 -87 181 -127 329 -199 149 -73 185 -79
239 -42 57 40 68 82 35 137 -23 38 -72 62 -126 62 -38 0 -160 57 -250 116
-156 104 -334 307 -334 382 0 98 269 312 620 492 74 38 200 90 242 100 23 5
75 22 113 36 39 14 108 37 155 50 47 13 114 33 150 44 312 99 812 162 1407
178 l63 2 19 -39z m541 25 c8 -3 72 -10 142 -15 70 -5 137 -15 149 -21 12 -7
70 -16 129 -21 58 -5 122 -15 141 -23 18 -7 68 -17 109 -21 41 -4 90 -13 109
-21 18 -8 48 -14 65 -14 17 -1 49 -8 71 -16 22 -8 69 -21 105 -29 36 -7 117
-32 180 -55 63 -22 133 -46 155 -52 22 -6 45 -15 51 -20 6 -4 35 -17 65 -27
97 -34 159 -61 197 -85 20 -13 68 -37 107 -52 38 -15 92 -41 120 -57 27 -16
88 -48 135 -72 187 -92 431 -268 752 -541 78 -67 323 -321 449 -465 104 -119
372 -469 409 -532 14 -24 38 -61 54 -81 15 -21 40 -61 55 -89 93 -182 136
-227 217 -227 43 0 68 12 114 55 43 40 205 133 362 209 65 31 121 56 124 56 3
0 56 24 117 54 62 30 126 58 142 62 17 4 41 13 55 20 33 17 173 58 290 84 52
12 112 28 133 36 20 8 51 14 68 14 17 0 57 6 88 14 31 8 101 19 156 25 55 6
125 16 155 21 45 9 494 -4 507 -15 4 -3 -57 -118 -85 -160 -15 -22 -53 -74
-86 -115 -194 -243 -209 -260 -387 -421 -99 -90 -246 -209 -257 -209 -5 0 -46
-25 -92 -56 -85 -56 -213 -125 -260 -139 -54 -16 -139 -66 -164 -95 -43 -51
-37 -96 28 -193 74 -113 138 -235 182 -347 20 -52 45 -112 56 -134 24 -48 53
-137 63 -195 4 -24 16 -62 26 -85 10 -23 19 -59 19 -82 0 -22 9 -74 19 -115
11 -41 19 -97 20 -125 0 -29 5 -64 11 -80 6 -15 10 -51 10 -78 -1 -28 2 -91 6
-140 5 -66 4 -90 -6 -96 -16 -10 -77 4 -153 36 -34 14 -88 37 -120 49 -87 36
-248 130 -403 236 -172 117 -324 253 -457 409 -50 58 -93 107 -97 110 -3 3
-20 25 -37 50 -17 25 -43 59 -57 75 -35 41 -223 368 -247 432 -11 28 -30 66
-42 84 -24 35 -90 79 -120 79 -10 0 -70 -24 -135 -53 -107 -49 -167 -73 -262
-107 -98 -34 -309 -113 -340 -127 -19 -9 -57 -21 -85 -29 -27 -7 -81 -22 -120
-34 -38 -12 -104 -28 -145 -36 -41 -8 -93 -21 -115 -29 -22 -8 -71 -20 -109
-25 -38 -6 -73 -13 -78 -16 -12 -7 -151 -32 -253 -44 -44 -6 -87 -13 -95 -15
-16 -5 -301 -31 -465 -43 -228 -16 -791 5 -1030 38 -236 32 -394 63 -550 104
-27 8 -77 21 -110 29 -33 8 -91 25 -130 37 -38 11 -92 27 -120 35 -112 31
-205 66 -505 185 -172 69 -214 87 -263 112 l-49 24 40 27 c47 31 362 342 362
357 0 6 17 29 38 53 22 23 52 65 67 92 16 28 40 66 55 85 32 42 170 283 170
296 0 5 16 34 36 64 36 53 83 173 146 370 16 52 41 127 55 165 13 39 33 111
43 160 10 50 23 102 29 118 6 15 13 78 17 140 3 62 13 132 21 156 14 38 15 79
10 280 -4 139 -13 269 -22 316 -8 44 -19 112 -25 150 -14 107 -36 202 -65 285
-35 102 -36 101 164 96 86 -2 163 -6 171 -10z m-590 -3737 c141 -39 142 -40
176 -110 30 -61 57 -91 136 -148 18 -14 74 -69 123 -124 50 -54 96 -105 103
-113 39 -41 -79 23 -192 104 -154 110 -300 239 -432 381 l-59 63 40 -17 c22
-10 69 -26 105 -36z m392 -101 c10 -4 41 -13 70 -18 125 -23 129 -25 186 -109
138 -204 238 -272 288 -196 24 36 7 67 -81 156 -41 41 -75 77 -75 81 0 4 15 2
32 -3 18 -5 55 -9 82 -9 53 0 96 -27 96 -59 0 -9 11 -40 25 -69 17 -37 25 -71
25 -108 0 -35 7 -69 20 -94 11 -22 20 -51 20 -65 0 -15 10 -55 22 -90 13 -35
19 -67 15 -71 -7 -7 -158 44 -242 82 -58 27 -120 87 -129 126 -6 27 -370 419
-407 439 -49 26 3 33 53 7z M33988 43314 c-65 -20 -154 -103 -186 -174 -39
-89 -40 -154 -4 -226 42 -84 94 -128 183 -154 80 -24 95 -22 184 20 153 73
232 263 160 386 -36 61 -121 132 -179 149 -60 18 -97 18 -158 -1z m182 -284
c0 -43 -61 -100 -109 -100 -43 0 -64 18 -82 69 -15 42 -5 51 15 14 22 -44 58
-57 101 -36 43 21 63 63 46 101 l-11 27 20 -24 c11 -13 20 -36 20 -51z M36296
43097 c-34 -34 -33 -62 3 -119 24 -38 38 -49 73 -58 24 -7 53 -16 66 -21 32
-12 96 -11 126 2 13 6 32 26 42 44 17 31 17 34 -2 66 -27 48 -128 97 -216 106
-62 5 -68 4 -92 -20z M37218 42765 c-30 -17 -42 -45 -33 -75 4 -12 34 -35 75
-55 79 -40 94 -55 53 -55 -61 0 -116 -57 -94 -98 19 -36 170 -75 222 -58 71
23 100 118 59 194 -39 74 -80 105 -187 141 -73 24 -61 24 -95 6z M36297 42585
c-44 -15 -40 -12 -60 -50 -11 -21 -12 -35 -5 -51 12 -26 82 -58 148 -69 25 -4
57 -14 72 -21 78 -40 172 21 140 91 -13 27 -67 65 -93 65 -9 0 -36 8 -60 19
-64 27 -99 31 -142 16z M38165 42255 c-49 -48 -21 -120 59 -155 l41 -19 -33 0
c-65 -2 -112 -43 -96 -85 8 -21 55 -46 85 -46 13 0 49 -5 80 -12 69 -14 121 4
169 59 69 78 15 160 -154 241 -101 49 -118 51 -151 17z M37250 41849 c-26 -29
-33 -31 -71 -26 -75 10 -128 -39 -100 -92 15 -27 51 -45 124 -60 31 -7 70 -23
86 -36 68 -58 119 -49 164 26 32 54 23 90 -35 142 -94 85 -124 93 -168 46z
M41623 41776 c-23 -8 -67 -17 -99 -21 -31 -4 -100 -18 -153 -32 -53 -14 -123
-32 -156 -40 -33 -8 -81 -23 -107 -34 -25 -10 -86 -28 -135 -39 -48 -11 -112
-30 -141 -40 -29 -11 -61 -20 -71 -20 -31 0 -140 -60 -146 -81 -10 -30 2 -67
26 -79 16 -9 39 -5 113 19 52 17 101 31 111 31 17 0 80 18 305 86 63 19 128
34 143 34 15 0 44 7 65 16 47 20 211 61 283 70 64 8 102 25 123 56 49 70 -42
111 -161 74z M36134 41759 c-54 -27 -47 -80 17 -119 57 -36 51 -50 -19 -49
-93 2 -132 -34 -97 -87 22 -34 65 -50 156 -59 92 -8 129 5 177 60 53 59 57 76
33 123 -24 47 -53 72 -125 107 -62 30 -113 39 -142 24z M38169 41565 c-24 -19
-50 -40 -56 -45 -7 -6 -16 -22 -19 -35 -10 -39 18 -71 78 -90 29 -10 74 -28
100 -41 58 -30 70 -30 120 -2 49 28 71 65 56 93 -22 41 -65 78 -128 110 -100
50 -102 50 -151 10z M41360 41389 c-54 -25 -228 -76 -414 -120 -21 -5 -48 -15
-60 -22 -37 -20 -89 -37 -146 -47 -30 -5 -77 -19 -105 -31 -27 -12 -65 -27
-83 -35 -62 -27 -69 -103 -11 -123 34 -12 91 -2 139 25 44 24 102 44 126 44
13 0 45 7 71 16 26 9 84 24 128 34 68 15 167 45 300 92 17 5 57 15 90 20 144
24 201 104 112 158 -43 27 -70 25 -147 -11z M37003 41178 c-11 -6 -29 -25 -39
-43 -24 -45 -7 -87 44 -108 20 -8 77 -32 126 -53 l88 -38 36 19 c48 26 61 63
39 109 -22 47 -57 68 -128 78 -33 4 -69 14 -82 22 -33 21 -60 26 -84 14z
M41024 41040 c-11 -4 -47 -11 -80 -15 -32 -4 -68 -12 -78 -18 -11 -5 -45 -15
-75 -22 -54 -13 -131 -37 -179 -56 -12 -5 -27 -20 -34 -34 -25 -56 33 -102 96
-75 33 13 67 22 156 40 90 19 249 71 265 87 21 20 19 59 -5 83 -22 22 -33 23
-66 10z M38013 40975 c-45 -19 -68 -68 -52 -107 15 -38 41 -54 104 -66 28 -5
77 -20 111 -32 74 -28 124 -22 166 20 37 38 36 69 -8 122 -61 74 -83 82 -147
52 -32 -15 -37 -15 -82 5 -55 24 -51 24 -92 6z M36113 40844 c-7 -3 -17 -21
-24 -41 l-12 -36 -109 6 c-106 6 -110 6 -134 -18 -58 -58 -17 -103 137 -154
l66 -22 79 26 c126 41 167 94 127 165 -29 49 -96 87 -130 74z M40276 40624
c-20 -19 -20 -27 -1 -65 30 -57 106 -86 139 -53 22 22 20 35 -11 77 -43 55
-96 73 -127 41z M36892 40623 c-26 -10 -44 -63 -32 -93 14 -34 178 -109 257
-117 48 -5 54 -3 82 25 41 40 43 101 6 137 -20 21 -34 25 -87 25 -35 0 -85 7
-112 15 -49 15 -90 18 -114 8z M40425 40476 c-29 -29 -33 -72 -11 -115 16 -29
90 -101 105 -101 5 0 63 -52 128 -116 125 -122 162 -149 193 -139 23 7 35 44
26 79 -6 24 -359 386 -396 406 -17 9 -25 6 -45 -14z M40487 40065 c-31 -31 0
-73 192 -263 102 -101 194 -188 203 -193 43 -23 98 8 98 56 0 29 -76 117 -165
189 -33 28 -87 75 -120 106 -95 90 -181 133 -208 105z M40152 40017 c-30 -14
-38 -52 -20 -91 39 -81 406 -456 598 -611 63 -51 129 -107 145 -125 63 -68
121 -75 151 -19 29 57 -15 114 -166 214 -98 65 -383 337 -585 557 -71 77 -91
90 -123 75z M12615 38873 c-14 -16 -28 -39 -32 -51 -6 -24 14 -99 48 -182 10
-25 32 -82 49 -127 32 -85 183 -389 240 -483 106 -175 287 -423 424 -580 96
-110 426 -443 540 -544 98 -87 217 -182 281 -226 28 -18 70 -50 95 -70 86 -70
343 -232 499 -314 238 -126 540 -278 601 -303 30 -12 98 -39 150 -62 52 -22
149 -58 215 -81 66 -23 179 -64 250 -90 72 -27 148 -52 170 -56 22 -3 56 -14
75 -24 19 -10 53 -20 75 -24 22 -4 96 -25 165 -47 69 -22 154 -49 190 -60 36
-12 103 -36 150 -54 47 -19 99 -37 115 -41 17 -4 66 -24 110 -45 44 -22 86
-39 94 -39 16 0 224 -113 260 -141 53 -42 131 -11 131 51 0 40 -25 63 -159
147 -148 93 -270 146 -511 224 -52 17 -111 37 -130 44 -19 7 -64 23 -100 34
-36 12 -105 35 -155 51 -49 16 -133 43 -185 60 -52 17 -124 42 -160 55 -36 12
-144 49 -240 80 -162 53 -296 106 -445 175 -33 15 -121 56 -195 90 -170 79
-335 168 -518 278 -79 48 -169 103 -201 122 -32 20 -76 49 -97 65 -22 17 -61
45 -89 64 -40 28 -163 128 -185 151 -3 3 -36 32 -75 64 -279 234 -488 445
-670 676 -33 41 -75 93 -95 116 -48 55 -245 347 -280 414 -7 14 -28 49 -47 77
-54 81 -172 380 -218 548 -23 85 -89 112 -140 58z M36045 38386 c-13 -13 -27
-37 -30 -53 -3 -15 -12 -57 -20 -93 -8 -36 -15 -73 -15 -82 0 -16 -35 -137
-67 -228 -26 -75 -159 -343 -185 -375 -14 -17 -39 -57 -57 -90 -39 -75 -88
-144 -154 -217 -29 -31 -74 -86 -102 -123 -57 -76 -297 -312 -395 -388 -36
-28 -76 -62 -90 -74 -14 -13 -45 -36 -70 -50 -25 -15 -97 -63 -160 -108 -63
-46 -135 -93 -160 -105 -25 -12 -57 -31 -71 -41 -15 -10 -101 -57 -191 -103
-90 -46 -173 -88 -183 -95 -29 -16 -169 -78 -250 -111 -305 -122 -624 -261
-665 -290 -14 -9 -50 -30 -80 -45 -156 -77 -370 -247 -370 -293 0 -29 42 -72
70 -72 28 0 95 35 145 74 50 40 147 100 250 156 114 62 292 150 303 150 5 0
38 15 73 34 35 18 82 39 104 46 45 13 190 69 280 107 337 143 928 483 1075
618 25 23 68 57 95 75 103 70 505 493 565 595 13 22 47 69 75 105 179 226 395
768 395 992 0 92 -62 137 -115 84z M24650 36731 c-63 -4 -121 -10 -128 -15 -7
-4 -82 -11 -166 -16 -84 -5 -182 -14 -217 -20 -35 -6 -120 -15 -189 -20 -69
-4 -156 -13 -195 -19 -38 -5 -115 -15 -169 -21 -54 -6 -126 -17 -160 -24 -34
-8 -99 -19 -146 -25 -47 -6 -110 -18 -140 -26 -30 -8 -84 -20 -120 -25 -36 -6
-101 -21 -145 -35 -44 -13 -116 -32 -160 -41 -44 -8 -96 -22 -115 -31 -19 -8
-53 -18 -75 -23 -37 -8 -155 -39 -305 -81 -134 -37 -297 -88 -360 -111 -36
-14 -130 -49 -210 -77 -152 -55 -162 -59 -300 -111 -47 -18 -147 -54 -223 -81
-76 -26 -168 -62 -205 -80 -70 -33 -140 -63 -357 -156 -216 -91 -834 -402
-946 -475 -30 -20 -90 -57 -134 -82 -213 -125 -301 -180 -430 -269 -77 -53
-184 -126 -239 -163 -54 -36 -144 -103 -200 -148 -55 -44 -135 -107 -176 -138
-41 -31 -107 -87 -147 -125 -39 -37 -122 -113 -184 -168 -181 -161 -378 -347
-459 -432 -223 -234 -398 -429 -485 -538 -22 -27 -57 -68 -78 -90 -21 -22 -63
-74 -95 -115 -31 -41 -102 -132 -157 -201 -55 -69 -112 -146 -127 -170 -15
-24 -66 -98 -112 -164 -154 -217 -258 -377 -315 -480 -18 -33 -39 -67 -46 -75
-7 -8 -32 -51 -55 -95 -24 -44 -62 -114 -86 -156 -24 -42 -44 -79 -44 -83 0
-4 -15 -33 -33 -64 -18 -31 -57 -109 -86 -172 -30 -63 -69 -148 -87 -188 -19
-40 -34 -77 -34 -81 0 -9 -66 -156 -95 -211 -7 -14 -25 -56 -39 -95 -15 -38
-33 -81 -40 -95 -8 -14 -26 -56 -40 -95 -15 -38 -45 -115 -66 -170 -21 -55
-42 -113 -45 -130 -4 -16 -22 -68 -40 -115 -40 -103 -60 -163 -84 -256 -11
-39 -31 -97 -44 -130 -14 -32 -28 -81 -32 -109 -4 -27 -14 -66 -22 -85 -21
-50 -50 -148 -58 -195 -3 -22 -12 -62 -20 -90 -7 -27 -22 -86 -33 -130 -33
-132 -73 -286 -93 -360 -10 -38 -19 -84 -19 -101 0 -17 -6 -53 -14 -80 -8 -27
-17 -77 -20 -110 -3 -34 -10 -73 -16 -85 -11 -26 -41 -188 -65 -359 -9 -58
-22 -143 -30 -190 -8 -47 -17 -159 -19 -250 -3 -91 -10 -184 -15 -206 -18 -72
-32 -557 -21 -719 5 -81 8 -151 5 -155 -6 -9 6 -156 31 -395 32 -304 46 -394
69 -448 8 -20 15 -54 15 -76 0 -22 11 -75 24 -118 13 -43 34 -123 45 -177 12
-54 28 -111 35 -125 7 -14 17 -44 20 -66 9 -46 61 -215 151 -480 23 -68 261
-608 296 -670 15 -27 62 -113 104 -190 42 -77 89 -158 104 -180 16 -22 54 -78
85 -125 102 -151 151 -217 252 -341 54 -66 115 -140 134 -164 45 -55 309 -310
378 -364 80 -64 111 -72 142 -41 47 47 14 105 -164 287 -48 50 -95 101 -104
114 -9 13 -37 47 -63 74 -63 67 -125 144 -177 218 -23 34 -62 89 -86 122 -24
33 -62 89 -83 125 -21 36 -56 93 -78 126 -96 146 -208 343 -261 454 -24 52
-62 129 -84 171 -22 42 -40 83 -40 90 0 8 -18 50 -40 94 -22 44 -40 86 -40 93
0 7 -7 27 -16 43 -8 17 -30 78 -49 137 -18 59 -47 145 -63 192 -16 47 -39 119
-52 160 -12 41 -30 102 -40 135 -45 152 -110 419 -110 458 0 18 -7 56 -15 86
-7 29 -17 90 -21 135 -4 44 -11 92 -16 106 -13 34 -35 237 -53 505 -25 365 0
1110 46 1355 6 30 19 111 29 180 41 265 49 310 58 342 6 18 18 78 27 133 10
55 24 125 32 155 37 137 51 199 78 335 17 91 82 351 96 390 6 17 17 57 25 90
7 33 28 110 47 170 20 61 40 128 45 150 5 22 20 65 32 95 12 30 30 82 40 115
10 33 27 83 38 110 26 66 38 99 57 165 9 30 27 78 40 105 12 28 33 77 45 110
12 33 31 78 41 101 11 22 19 46 19 52 0 7 27 66 60 133 33 66 60 128 60 137 0
9 14 42 31 72 17 30 58 116 91 190 81 182 133 284 234 461 24 42 44 80 44 84
0 4 39 66 88 137 48 71 112 169 142 218 110 177 418 604 523 725 19 22 47 58
61 80 15 22 40 54 55 70 14 17 53 62 85 100 130 153 286 325 446 488 155 160
524 507 607 573 34 27 108 87 164 134 248 204 666 510 698 510 4 0 46 27 94
60 47 33 90 60 95 60 5 0 31 17 58 37 68 53 239 155 379 227 66 34 175 93 242
129 67 37 139 74 160 81 38 13 90 37 318 146 201 95 441 199 491 211 26 7 84
28 128 47 153 65 231 95 306 118 41 12 120 39 175 59 55 21 145 50 200 67 55
16 186 58 291 93 105 36 197 65 205 65 8 0 68 15 134 34 111 32 169 47 345 92
64 16 145 32 366 72 61 11 129 25 150 30 21 6 68 14 104 17 36 4 76 12 90 17
32 12 215 36 368 48 68 6 149 15 180 21 31 5 127 14 212 19 85 5 187 15 225
21 149 26 1361 9 1510 -20 28 -6 122 -15 210 -21 88 -6 194 -17 235 -25 41 -7
104 -16 140 -20 36 -3 108 -14 160 -25 126 -25 256 -49 360 -66 47 -7 108 -18
135 -23 28 -6 75 -15 105 -20 96 -16 242 -49 330 -75 47 -13 113 -30 147 -36
34 -6 77 -17 95 -24 18 -7 92 -25 163 -40 72 -15 153 -33 180 -41 28 -8 91
-24 140 -35 97 -21 126 -30 400 -116 348 -109 480 -156 730 -257 204 -82 407
-173 450 -203 19 -13 103 -57 187 -98 84 -42 204 -104 266 -139 96 -53 187
-107 551 -327 32 -19 91 -60 132 -91 41 -31 106 -77 144 -102 39 -25 95 -63
126 -84 75 -52 475 -377 700 -569 78 -67 379 -366 615 -614 104 -108 354 -405
354 -419 0 -5 18 -27 39 -49 61 -62 120 -137 194 -247 38 -55 120 -174 183
-265 63 -91 132 -192 154 -225 21 -33 52 -78 68 -100 15 -22 52 -83 82 -135
29 -52 73 -123 97 -157 46 -66 101 -162 159 -278 19 -38 39 -77 44 -85 16 -25
127 -263 135 -290 4 -14 23 -56 42 -95 19 -38 43 -88 53 -110 10 -22 46 -98
79 -168 34 -71 61 -131 61 -135 0 -3 8 -24 18 -46 11 -23 29 -66 42 -96 12
-30 28 -69 35 -85 7 -17 25 -62 39 -100 15 -39 36 -90 46 -115 11 -25 29 -79
41 -120 12 -41 30 -96 40 -122 11 -26 19 -53 19 -62 0 -8 14 -49 31 -91 16
-42 36 -109 44 -148 8 -40 30 -120 49 -179 20 -59 36 -120 36 -137 0 -17 9
-53 20 -81 11 -28 20 -61 20 -74 0 -14 9 -48 19 -78 18 -52 32 -109 52 -218 6
-30 19 -89 29 -130 10 -41 21 -95 25 -120 9 -71 44 -149 74 -165 32 -16 86 2
95 32 8 27 -11 332 -23 373 -6 19 -11 58 -11 87 0 29 -7 72 -14 95 -8 24 -20
73 -26 110 -5 37 -15 79 -20 93 -6 15 -10 41 -10 59 0 19 -7 53 -16 77 -8 24
-21 76 -29 114 -7 39 -21 93 -30 120 -9 28 -32 102 -52 165 -54 175 -84 263
-98 285 -6 11 -15 37 -19 59 -4 21 -13 52 -21 70 -7 17 -28 69 -45 116 -18 47
-36 90 -40 95 -4 6 -17 44 -29 85 -12 41 -33 98 -46 125 -13 28 -49 115 -80
195 -58 147 -142 342 -170 396 -8 16 -15 33 -15 37 0 4 -20 43 -45 87 -40 71
-85 155 -207 390 -22 41 -47 84 -58 95 -10 11 -30 45 -44 75 -29 61 -85 157
-162 276 -28 43 -70 113 -94 154 -23 41 -53 86 -65 100 -12 14 -39 52 -60 85
-20 33 -50 74 -65 90 -16 17 -58 73 -94 125 -36 52 -81 118 -100 145 -18 28
-62 82 -96 120 -34 39 -69 83 -77 99 -20 38 -206 254 -359 416 -40 41 -93 100
-120 130 -98 113 -301 323 -345 359 -61 48 -188 162 -258 230 -47 45 -95 85
-211 178 -8 6 -44 35 -79 65 -35 29 -73 60 -85 68 -11 7 -108 79 -215 160
-272 204 -456 330 -697 475 -36 22 -82 50 -102 63 -19 13 -78 46 -131 74 -53
28 -101 54 -107 59 -6 5 -71 40 -145 78 -74 38 -177 94 -228 125 -52 31 -100
56 -105 56 -6 0 -49 18 -96 39 -258 119 -354 162 -378 167 -15 4 -44 15 -64
25 -20 11 -70 30 -110 43 -40 14 -104 37 -143 52 -38 15 -92 33 -120 40 -65
17 -135 41 -210 72 -56 24 -193 64 -331 97 -33 8 -80 22 -104 30 -86 30 -286
84 -340 90 -30 4 -66 12 -80 17 -14 5 -63 17 -110 27 -182 38 -508 113 -570
130 -62 18 -139 32 -280 51 -73 11 -153 25 -250 45 -36 7 -105 18 -155 25 -49
6 -126 17 -170 25 -44 8 -138 19 -210 24 -183 14 -374 30 -485 41 -52 5 -153
14 -225 19 -143 11 -893 12 -1075 2z M25269 33295 c-8 -7 -56 -12 -273 -24
-89 -5 -174 -14 -191 -20 -16 -6 -84 -15 -150 -20 -66 -5 -138 -14 -160 -19
-22 -6 -89 -18 -150 -26 -145 -21 -246 -40 -270 -53 -11 -6 -47 -13 -80 -17
-63 -7 -187 -36 -270 -63 -27 -9 -72 -20 -100 -24 -48 -7 -96 -21 -195 -59
-50 -19 -80 -30 -190 -66 -41 -14 -104 -37 -140 -50 -36 -14 -90 -34 -120 -45
-91 -34 -120 -46 -235 -94 -136 -58 -146 -63 -165 -74 -8 -5 -37 -19 -65 -32
-90 -39 -400 -192 -415 -205 -8 -7 -46 -28 -85 -48 -38 -20 -97 -56 -130 -79
-33 -24 -97 -64 -143 -90 -45 -26 -100 -60 -121 -75 -21 -15 -83 -58 -137 -96
-95 -66 -276 -202 -369 -276 -222 -177 -409 -334 -454 -380 -29 -30 -131 -134
-225 -230 -215 -220 -430 -463 -548 -620 -32 -41 -100 -130 -151 -198 -52 -68
-119 -162 -148 -208 -30 -47 -95 -147 -145 -222 -84 -127 -351 -637 -415 -792
-12 -30 -30 -73 -41 -96 -10 -22 -18 -45 -18 -51 0 -7 -18 -49 -40 -94 -22
-46 -40 -91 -40 -100 0 -9 -11 -41 -24 -70 -32 -74 -91 -235 -105 -289 -7 -25
-21 -79 -31 -120 -10 -41 -31 -124 -48 -185 -35 -125 -60 -227 -74 -300 -5
-27 -16 -73 -24 -101 -8 -28 -14 -70 -14 -94 0 -24 -7 -71 -15 -104 -8 -34
-22 -115 -31 -181 -72 -536 -25 -1195 125 -1745 28 -102 99 -321 109 -334 5
-6 19 -39 31 -74 25 -70 150 -325 190 -387 14 -22 34 -58 44 -79 55 -120 340
-458 446 -528 47 -32 92 -22 110 24 12 31 17 22 -136 216 -56 72 -116 154
-134 183 -17 30 -43 72 -59 94 -33 48 -197 374 -235 465 -67 163 -88 219 -100
275 -8 33 -27 94 -44 135 -17 41 -31 84 -31 96 0 11 -7 43 -15 70 -8 27 -20
87 -26 134 -6 46 -18 102 -25 124 -8 21 -14 66 -14 100 0 33 -7 88 -16 121
-15 58 -47 454 -48 585 0 123 16 365 29 425 7 33 18 105 25 160 6 55 17 125
25 155 8 30 23 111 35 180 12 69 30 152 40 185 10 33 20 83 23 110 5 47 55
217 97 330 10 28 21 64 25 81 3 17 20 67 36 110 17 43 36 99 43 124 6 25 16
54 22 65 6 11 17 38 24 60 7 22 28 74 47 115 53 114 58 126 112 250 53 123
168 353 206 410 12 19 57 95 100 169 42 74 102 168 132 210 30 42 92 130 139
196 143 203 363 475 527 650 152 163 420 430 544 543 131 120 514 428 623 501
47 32 105 71 130 88 90 62 286 188 310 200 14 7 32 17 40 22 100 64 590 321
613 321 7 0 41 14 77 31 91 44 190 85 295 123 50 18 132 50 183 70 158 62 563
186 610 186 12 0 39 7 60 16 34 14 178 47 262 60 19 3 56 14 82 25 26 10 68
19 95 19 26 1 68 5 93 11 25 5 77 14 115 20 39 6 111 17 160 26 50 8 149 19
220 23 72 5 172 14 224 20 155 19 647 17 871 -3 107 -10 231 -20 275 -23 44
-3 113 -11 154 -19 40 -8 95 -15 122 -15 28 0 82 -7 122 -15 40 -8 114 -19
165 -24 51 -6 123 -17 160 -25 37 -8 139 -29 227 -46 218 -42 357 -74 520
-121 39 -11 93 -26 120 -34 28 -8 68 -17 90 -20 22 -3 56 -12 75 -19 145 -57
233 -88 285 -101 32 -9 86 -29 120 -45 33 -16 89 -41 125 -56 75 -30 288 -130
310 -144 8 -5 42 -23 75 -38 119 -56 573 -325 675 -399 14 -10 54 -36 90 -59
84 -52 259 -184 380 -288 52 -45 129 -108 170 -141 198 -157 852 -846 919
-969 9 -16 36 -54 60 -84 138 -174 252 -343 393 -582 151 -257 186 -324 296
-565 182 -400 225 -507 287 -705 7 -25 44 -130 80 -235 37 -104 71 -212 76
-240 12 -58 44 -165 65 -213 8 -18 18 -61 23 -95 5 -34 14 -73 19 -87 5 -14
13 -50 17 -80 3 -30 11 -73 17 -95 11 -41 36 -186 68 -385 25 -160 49 -514 56
-845 7 -337 -17 -846 -55 -1145 -5 -47 -15 -125 -21 -175 -15 -134 -46 -303
-86 -481 -8 -33 -14 -72 -14 -87 0 -15 -9 -53 -19 -84 -11 -32 -22 -79 -25
-106 -3 -26 -12 -61 -21 -77 -8 -16 -15 -44 -15 -62 0 -18 -9 -51 -19 -73 -10
-23 -21 -63 -26 -90 -4 -27 -13 -61 -20 -75 -7 -14 -15 -43 -19 -65 -7 -43
-40 -158 -61 -215 -7 -19 -39 -116 -70 -215 -61 -193 -68 -211 -169 -441 -36
-82 -66 -155 -66 -162 0 -16 -78 -187 -116 -252 -17 -30 -42 -80 -55 -110 -13
-30 -35 -73 -50 -95 -14 -22 -46 -80 -71 -130 -66 -133 -191 -350 -293 -505
-49 -76 -92 -144 -136 -220 -40 -66 -125 -187 -179 -255 -22 -27 -79 -99 -125
-160 -85 -109 -207 -260 -345 -425 -40 -47 -131 -146 -203 -220 -73 -74 -162
-166 -198 -205 -72 -76 -350 -342 -440 -421 -31 -27 -85 -74 -120 -105 -35
-31 -104 -86 -154 -124 -49 -38 -92 -71 -95 -75 -3 -3 -45 -35 -95 -70 -168
-119 -223 -160 -236 -176 -19 -23 -144 -114 -204 -150 -27 -16 -124 -79 -215
-140 -91 -61 -208 -134 -260 -163 -199 -110 -638 -333 -680 -346 -14 -4 -38
-15 -55 -25 -16 -10 -59 -29 -95 -43 -36 -14 -79 -33 -95 -41 -17 -9 -35 -16
-42 -16 -6 0 -49 -16 -94 -35 -46 -19 -88 -35 -93 -35 -5 0 -28 -9 -50 -19
-78 -37 -221 -93 -271 -105 -27 -7 -84 -26 -125 -41 -41 -15 -102 -33 -135
-40 -33 -8 -98 -27 -145 -43 -47 -16 -98 -33 -115 -36 -16 -4 -59 -15 -95 -25
-36 -11 -108 -29 -160 -41 -328 -74 -413 -90 -600 -117 -58 -8 -132 -19 -165
-24 -33 -5 -118 -13 -190 -18 -71 -5 -197 -15 -280 -21 -275 -21 -1045 3
-1134 34 -24 9 -76 19 -115 22 -39 3 -116 14 -171 24 -310 59 -324 61 -355 30
-11 -11 -20 -29 -20 -41 0 -27 50 -76 86 -84 16 -4 47 -13 69 -20 22 -8 67
-21 100 -29 33 -8 85 -22 115 -30 30 -8 82 -20 115 -26 57 -12 83 -16 265 -39
41 -5 116 -17 165 -26 67 -12 199 -18 525 -24 239 -5 438 -7 442 -5 3 2 71 9
150 14 186 14 249 21 448 54 276 46 503 91 530 106 10 6 30 10 45 10 14 0 51
8 83 18 31 10 93 28 137 40 184 50 336 93 357 101 13 5 109 37 213 71 105 34
202 68 216 76 15 7 68 27 119 44 51 17 102 37 114 45 11 8 30 15 41 15 11 0
74 25 140 56 66 31 131 59 145 64 79 25 650 310 735 366 39 25 105 67 148 93
43 25 108 64 145 86 37 22 134 85 215 140 81 55 168 114 193 130 25 17 89 64
142 105 54 41 140 107 192 147 472 358 1050 914 1385 1332 51 64 128 159 171
212 44 52 113 141 154 198 41 56 89 121 107 144 57 74 197 288 283 432 46 77
94 156 106 175 59 93 143 240 163 285 13 28 32 66 42 85 24 41 141 284 274
565 16 32 64 152 101 250 12 33 37 98 54 145 18 47 40 103 50 125 10 22 28 74
39 115 12 41 26 89 32 105 37 107 103 330 131 440 6 22 19 67 30 100 10 33 23
84 29 113 5 30 25 101 44 158 19 58 35 119 35 135 0 16 6 45 14 64 8 18 20 78
26 132 6 54 18 127 26 162 8 35 19 112 24 170 5 58 14 129 19 156 5 28 12 93
16 145 3 52 12 131 20 175 16 85 22 261 31 875 4 251 2 425 -5 500 -22 221
-54 475 -67 530 -8 30 -14 72 -14 95 -1 22 -7 72 -15 110 -9 39 -22 105 -30
149 -8 43 -21 99 -29 125 -8 25 -24 84 -36 131 -12 47 -30 114 -40 150 -10 36
-23 83 -28 105 -5 22 -15 56 -22 75 -6 19 -16 49 -22 65 -5 17 -19 53 -30 80
-11 28 -28 77 -38 110 -10 33 -38 112 -61 175 -23 63 -47 135 -54 160 -13 43
-75 187 -129 298 -26 52 -41 90 -76 189 -11 29 -32 81 -48 115 -17 35 -33 74
-37 88 -4 14 -26 59 -48 100 -22 41 -51 98 -65 125 -14 28 -40 74 -58 102 -19
29 -50 85 -69 123 -19 39 -53 96 -76 128 -22 31 -71 104 -110 162 -166 248
-263 389 -311 450 -46 60 -79 98 -243 280 -33 36 -96 108 -140 158 -85 99
-330 334 -490 472 -54 47 -124 108 -154 136 -106 96 -253 213 -364 288 -34 24
-118 81 -187 128 -208 141 -535 329 -805 461 -230 112 -234 114 -300 138 -33
12 -78 30 -100 40 -22 9 -65 27 -95 39 -30 12 -64 27 -75 33 -11 6 -45 18 -75
28 -30 10 -86 29 -125 44 -38 14 -90 32 -115 39 -25 8 -83 28 -130 45 -47 17
-97 31 -113 31 -15 0 -53 9 -84 20 -32 11 -70 20 -85 20 -15 0 -54 9 -85 19
-32 11 -85 23 -118 27 -33 4 -73 12 -90 19 -16 7 -57 16 -89 20 -33 4 -71 11
-84 16 -14 5 -59 14 -101 20 -42 6 -112 19 -156 30 -44 10 -107 19 -140 19
-33 0 -93 7 -135 15 -41 8 -118 19 -170 25 -52 6 -158 17 -235 26 -77 9 -196
18 -265 21 -250 9 -705 14 -711 8z M24700 28830 c-74 -4 -155 -12 -180 -18
-25 -6 -81 -16 -125 -22 -193 -24 -397 -74 -585 -140 -63 -23 -135 -47 -160
-54 -51 -15 -313 -135 -368 -170 -21 -12 -71 -39 -112 -59 -250 -123 -452
-279 -733 -562 -256 -258 -398 -441 -509 -655 -22 -41 -43 -79 -48 -85 -14
-17 -196 -436 -219 -503 -11 -34 -21 -70 -21 -80 -1 -9 -8 -35 -16 -57 -16
-43 -41 -168 -54 -275 -5 -36 -14 -87 -21 -115 -15 -62 -15 -486 0 -554 6 -25
18 -83 26 -128 35 -189 115 -375 256 -598 51 -81 134 -164 188 -188 42 -18 45
-18 82 -1 44 19 84 74 75 101 -4 10 -42 56 -86 102 -43 46 -86 98 -95 117 -8
18 -31 56 -50 85 -96 146 -183 474 -193 724 -7 198 11 361 70 605 58 243 188
563 289 712 22 32 53 86 69 120 17 34 38 71 48 82 10 12 31 41 46 65 44 69
224 289 296 361 163 164 308 280 545 437 88 58 171 113 185 122 14 10 90 45
170 80 80 34 168 73 197 87 57 26 189 73 293 104 36 11 88 27 115 36 28 10 77
23 110 30 33 7 85 20 115 28 30 9 71 16 92 16 20 0 65 7 100 15 142 32 816 36
1063 5 202 -25 253 -33 296 -46 25 -7 73 -17 105 -20 33 -4 68 -13 79 -20 11
-7 40 -16 65 -19 74 -11 327 -87 365 -110 11 -7 54 -23 95 -35 151 -44 428
-169 555 -249 33 -21 96 -59 140 -85 125 -73 346 -244 502 -386 139 -127 328
-347 458 -535 26 -38 65 -92 85 -120 65 -89 155 -247 232 -405 92 -188 118
-255 202 -520 26 -80 46 -151 46 -157 0 -7 9 -41 19 -75 26 -85 61 -274 61
-329 0 -25 5 -71 10 -102 47 -250 29 -960 -29 -1167 -11 -41 -30 -113 -40
-160 -28 -119 -56 -216 -79 -275 -11 -27 -27 -79 -35 -115 -8 -36 -24 -90 -35
-120 -11 -30 -27 -75 -35 -100 -96 -293 -327 -739 -509 -987 -29 -40 -78 -107
-108 -149 -172 -238 -387 -466 -705 -746 -105 -92 -420 -314 -590 -417 -292
-175 -493 -272 -780 -376 -49 -18 -106 -40 -125 -48 -19 -9 -66 -25 -105 -36
-38 -11 -108 -31 -155 -45 -47 -14 -107 -30 -135 -36 -27 -5 -66 -14 -85 -20
-19 -5 -49 -10 -66 -10 -16 0 -64 -9 -105 -19 -115 -30 -283 -45 -539 -47
-203 -2 -246 0 -316 17 -104 24 -160 24 -201 -1 -115 -70 -44 -181 129 -202
46 -6 91 -14 101 -20 48 -25 502 -18 687 11 36 6 101 15 145 21 124 18 375 69
423 86 24 9 66 22 95 29 29 7 72 20 97 29 25 9 70 23 100 32 169 49 359 127
596 245 144 71 284 144 310 161 27 17 85 54 129 83 276 176 342 225 565 409
154 128 476 444 514 505 13 20 67 88 120 151 96 113 297 407 388 565 25 45 85
164 132 265 48 102 105 219 126 261 22 42 40 84 40 93 0 9 18 64 41 123 63
166 168 531 211 733 5 25 18 77 29 115 10 39 19 95 19 125 0 30 7 91 16 135
21 107 25 600 6 765 -8 63 -20 169 -27 235 -8 66 -23 161 -35 210 -11 50 -27
122 -35 160 -15 68 -49 200 -94 360 -55 191 -220 546 -347 747 -27 42 -62 97
-79 123 -16 25 -52 74 -78 108 -27 34 -57 78 -67 97 -50 96 -397 470 -575 620
-162 136 -349 272 -434 314 -48 25 -110 57 -137 73 -71 43 -458 221 -574 266
-144 55 -348 118 -498 152 -35 8 -71 19 -81 25 -10 5 -58 14 -107 20 -49 6
-108 18 -132 26 -23 7 -60 14 -82 14 -21 0 -65 7 -97 16 -67 19 -689 28 -933
14z M44138 28469 c-22 -11 -60 -49 -91 -92 -30 -39 -63 -81 -74 -92 -10 -11
-59 -65 -108 -120 -49 -55 -141 -156 -205 -225 -64 -69 -124 -138 -135 -155
-10 -16 -48 -62 -84 -100 -36 -39 -88 -96 -116 -127 -27 -31 -110 -120 -184
-199 -73 -79 -175 -189 -225 -243 -50 -55 -145 -156 -212 -225 -66 -69 -156
-164 -200 -211 -100 -109 -298 -311 -589 -604 -202 -203 -618 -632 -683 -705
-90 -99 -82 -207 18 -265 30 -18 50 -21 140 -20 108 2 330 27 391 44 72 21 73
20 65 -74 -3 -47 -10 -96 -15 -109 -9 -22 -29 -137 -62 -347 -24 -156 -29
-192 -39 -309 -6 -68 -15 -133 -20 -145 -4 -12 -15 -76 -24 -142 -18 -134 -24
-177 -61 -424 -15 -96 -33 -206 -41 -245 -8 -38 -21 -119 -29 -180 -28 -205
-35 -250 -50 -320 -8 -38 -19 -104 -25 -145 -15 -112 -45 -263 -54 -279 -5 -7
-12 -61 -17 -120 -5 -58 -15 -124 -23 -146 -8 -22 -15 -64 -16 -94 0 -29 -7
-79 -14 -110 -8 -31 -20 -96 -26 -146 -6 -49 -18 -107 -26 -128 -8 -20 -14
-54 -14 -75 0 -20 -9 -69 -20 -107 -11 -38 -20 -84 -20 -100 0 -17 -7 -55 -16
-85 -8 -30 -20 -89 -25 -130 -10 -83 -54 -325 -69 -381 -35 -129 31 -285 128
-304 15 -3 47 -12 72 -20 25 -8 72 -15 106 -15 33 0 83 -6 110 -14 55 -16 199
-34 379 -46 180 -12 322 -29 395 -45 64 -15 176 -32 397 -59 62 -8 117 -17
122 -20 5 -3 44 -11 87 -17 44 -5 105 -17 137 -25 31 -8 97 -21 145 -29 48 -7
125 -21 172 -29 47 -9 132 -24 190 -34 58 -11 150 -28 205 -40 55 -11 141 -28
190 -37 50 -9 136 -30 191 -46 56 -16 112 -29 125 -29 13 0 53 -7 89 -15 113
-25 303 -63 355 -70 28 -4 109 -22 180 -41 72 -18 155 -36 185 -39 30 -4 97
-16 149 -27 92 -20 97 -20 150 -3 86 27 105 40 133 92 27 50 81 295 80 363 0
19 6 62 14 95 7 33 14 91 14 128 0 37 7 96 15 130 25 108 55 275 55 307 0 16
9 70 19 118 10 48 22 114 26 147 4 33 20 123 37 200 16 77 33 165 38 195 5 30
16 91 25 135 9 44 23 125 31 180 24 158 31 195 48 275 31 143 76 380 76 403 0
12 7 47 15 77 8 30 26 109 39 175 54 261 109 543 116 592 5 29 13 67 18 85 6
18 15 63 21 100 6 36 20 94 31 128 11 35 20 77 20 96 0 18 5 45 11 61 6 15 15
57 19 93 6 52 77 381 83 386 1 1 60 -26 130 -61 71 -34 161 -75 200 -90 40
-15 96 -36 126 -48 66 -25 164 -26 211 -2 33 17 90 119 90 161 0 27 -71 228
-99 282 -10 18 -29 59 -86 191 -95 220 -374 705 -537 934 -61 84 -69 102 -65
130 8 49 36 167 53 220 9 27 19 70 24 95 19 112 33 168 50 211 9 25 21 82 25
126 4 44 13 94 20 112 8 18 17 54 20 80 4 26 18 100 32 163 13 63 31 151 39
195 8 44 23 104 34 133 11 29 20 68 20 86 0 31 4 35 55 56 99 40 111 68 196
463 23 109 18 142 -28 198 -43 50 -166 101 -318 131 -27 6 -99 23 -160 38
-220 57 -331 80 -383 80 -99 0 -170 -57 -197 -158 -9 -31 -23 -77 -31 -102 -8
-25 -23 -74 -33 -110 -10 -36 -24 -78 -30 -93 -23 -59 -8 -138 36 -189 14 -16
12 -27 -15 -115 -46 -149 -62 -208 -62 -229 0 -11 -9 -36 -20 -56 -11 -21 -22
-57 -26 -80 -3 -24 -22 -94 -41 -157 -33 -105 -37 -113 -50 -95 -7 10 -22 28
-31 39 -61 71 -261 314 -275 335 -10 14 -56 70 -103 125 -47 55 -112 134 -145
175 -33 41 -95 118 -137 170 -42 52 -99 126 -127 166 -27 39 -79 111 -115 158
-36 48 -92 128 -125 179 -109 169 -153 232 -171 248 -58 51 -133 62 -196 28z
m202 -450 l58 -87 -36 4 c-21 2 -57 5 -82 7 -32 3 -66 17 -112 46 -36 22 -70
41 -77 41 -19 0 -12 16 33 78 65 88 73 91 120 39 21 -23 64 -81 96 -128z
m1895 -39 c39 -10 108 -26 155 -34 124 -22 310 -87 310 -108 0 -23 -28 -135
-46 -181 -8 -20 -14 -50 -14 -66 0 -38 -7 -42 -49 -26 -20 7 -56 16 -79 19
-24 4 -60 15 -80 25 -21 10 -53 22 -72 25 -78 16 -207 48 -245 62 -22 8 -62
16 -89 18 -32 1 -53 8 -59 18 -10 15 14 109 60 237 l16 43 61 -6 c33 -4 93
-16 131 -26z m-2221 -54 c14 -58 114 -131 204 -151 38 -8 38 -24 4 -91 -92
-181 -245 -331 -390 -382 -49 -18 -56 -18 -125 -3 -41 9 -82 22 -91 30 -22 19
-66 104 -66 130 0 27 425 491 450 491 4 0 11 -11 14 -24z m545 -203 c12 -16
41 -53 64 -83 24 -30 63 -82 87 -115 25 -33 79 -101 120 -151 169 -206 172
-211 120 -243 -57 -34 -130 -45 -183 -27 -26 9 -61 16 -78 16 -45 0 -61 12
-129 96 -76 92 -100 170 -100 324 0 121 6 153 36 185 29 32 38 31 63 -2z
m1596 -257 c113 -29 303 -91 314 -101 4 -4 -15 -90 -36 -160 -8 -27 -19 -70
-23 -95 -4 -25 -15 -74 -23 -110 -9 -36 -30 -130 -47 -210 -17 -80 -36 -159
-41 -175 -5 -17 -13 -62 -19 -100 -16 -118 -40 -249 -52 -278 -6 -15 -18 -65
-27 -112 l-16 -85 -100 127 c-55 71 -134 164 -176 208 -87 93 -179 215 -179
239 0 9 8 33 19 54 10 20 24 57 30 82 15 58 44 156 72 245 12 39 28 93 35 120
64 253 107 385 124 385 8 0 74 -16 145 -34z m-1871 -108 c3 -18 27 -74 52
-124 50 -100 156 -227 230 -274 l41 -26 -28 -74 c-39 -101 -73 -164 -122 -224
-65 -81 -161 -160 -209 -173 -68 -18 -191 -34 -218 -27 -102 25 -194 112 -242
229 -30 73 -33 88 -31 173 1 51 8 102 15 115 6 12 14 51 17 87 l6 65 45 6
c100 15 350 174 405 257 23 36 30 34 39 -10z m-854 -131 c18 -26 52 -55 86
-72 64 -35 63 -27 9 -160 -87 -216 -158 -304 -333 -417 -55 -35 -76 -42 -148
-51 -97 -12 -149 4 -185 55 -36 50 -35 88 3 127 18 19 46 51 61 70 90 113 457
502 468 496 4 -3 22 -25 39 -48z m1767 -305 c160 -198 304 -389 309 -410 5
-16 -7 -41 -41 -93 -61 -89 -119 -140 -191 -167 -82 -32 -136 -29 -222 13 -96
46 -134 77 -188 156 -43 62 -46 71 -60 180 -14 105 -14 117 2 158 9 25 16 64
15 88 l-1 43 52 0 c58 0 149 37 203 84 17 14 37 25 45 26 8 0 43 -35 77 -78z
m-1556 -386 c63 -123 146 -210 241 -257 l45 -22 -38 -84 c-39 -83 -47 -96
-122 -206 -43 -63 -142 -159 -189 -183 -124 -64 -248 -72 -344 -21 -93 49
-112 69 -149 154 -31 72 -33 85 -30 168 2 94 20 238 30 255 3 6 17 10 30 10
48 0 125 22 157 45 18 13 65 45 103 71 39 26 74 53 78 61 5 8 35 46 68 85 32
39 59 76 60 82 0 6 7 -14 15 -44 8 -30 28 -81 45 -114z m999 -28 c11 -24 20
-52 20 -63 0 -11 22 -65 49 -120 55 -113 112 -175 200 -219 28 -15 51 -28 51
-30 0 -2 -9 -23 -20 -47 -11 -24 -20 -53 -20 -63 0 -29 -73 -144 -127 -202
-60 -64 -154 -127 -213 -143 -65 -18 -196 0 -261 35 -99 54 -162 145 -173 249
-3 33 -11 81 -18 106 -9 39 -8 53 5 88 10 23 17 57 17 75 0 53 9 66 44 66 76
0 213 88 331 213 50 52 91 95 93 96 2 1 12 -18 22 -41z m-1883 -93 c25 -19 57
-38 70 -41 30 -8 30 -33 0 -104 -58 -139 -138 -251 -282 -395 -93 -93 -142
-116 -271 -123 -106 -6 -145 11 -180 79 -13 27 -24 54 -24 61 0 14 83 104 165
179 28 25 79 77 114 115 35 38 123 129 195 202 l131 132 17 -35 c10 -19 39
-50 65 -70z m2823 -214 c0 -28 48 -131 81 -172 29 -37 200 -159 222 -159 38
-1 38 -16 7 -106 -18 -49 -37 -109 -44 -134 -14 -57 -84 -175 -128 -217 -43
-41 -148 -93 -189 -93 -17 0 -54 7 -83 16 -103 33 -133 51 -167 101 -18 26
-41 55 -51 63 -24 21 -57 127 -69 223 -11 86 -2 278 15 305 3 5 34 12 69 14
78 7 203 67 275 134 53 48 62 52 62 25z m255 -76 c59 -80 62 -86 25 -50 -42
40 -100 120 -100 139 0 12 -2 15 75 -89z m-2942 -174 c9 -72 83 -206 147 -264
62 -57 130 -102 173 -112 34 -9 36 -43 6 -71 -19 -17 -39 -19 -183 -21 -88 -1
-217 -6 -286 -12 -69 -5 -180 -12 -247 -16 l-123 -6 0 55 c0 61 12 80 70 103
144 60 201 96 277 177 43 45 94 110 113 144 19 34 38 62 41 62 4 0 9 -17 12
-39z m1124 -243 c42 -81 122 -159 211 -206 49 -26 62 -38 62 -57 0 -13 -4 -26
-8 -29 -11 -7 -260 21 -347 39 -38 8 -133 17 -210 20 -212 8 -315 17 -315 27
0 21 50 56 90 63 111 19 302 147 395 267 30 38 55 75 56 82 0 6 8 -23 16 -64
8 -42 30 -104 50 -142z m-2062 -22 c47 -49 119 -90 178 -100 42 -8 43 -11 19
-47 -45 -70 -121 -138 -159 -145 -21 -3 -61 -12 -90 -19 -28 -8 -89 -17 -135
-21 -46 -4 -94 -11 -108 -17 -29 -12 -160 -25 -160 -16 0 7 400 409 407 409 3
0 24 -20 48 -44z m4220 -46 c31 -41 63 -91 71 -110 8 -19 30 -51 48 -70 59
-62 196 -277 196 -308 0 -39 -86 -157 -126 -172 -27 -11 -166 13 -194 33 -29
20 -53 56 -82 122 -34 77 -57 270 -40 337 6 24 14 68 17 98 7 61 35 152 46
148 4 -2 32 -37 64 -78z m-1184 -42 c16 -36 29 -77 29 -91 0 -28 79 -154 136
-217 21 -23 55 -50 77 -61 34 -18 38 -23 32 -47 -11 -44 -21 -48 -73 -28 -26
10 -74 26 -107 36 -33 10 -98 31 -145 48 -109 38 -215 68 -264 77 -21 3 -52
13 -70 20 -17 8 -52 17 -78 20 -42 5 -48 9 -48 29 0 37 29 53 101 58 60 3 76
10 163 62 61 37 117 81 153 120 32 34 60 58 62 52 2 -6 16 -41 32 -78z m904
-442 c18 -115 60 -186 159 -268 28 -23 28 -26 15 -61 -14 -41 -31 -46 -76 -22
-111 58 -409 197 -458 215 -84 30 -98 42 -90 78 6 29 8 30 78 34 89 5 173 43
267 121 l65 53 17 -54 c9 -30 20 -73 23 -96z m-2360 105 c22 -6 103 -13 180
-16 77 -3 172 -12 210 -20 131 -26 190 -36 265 -46 41 -5 98 -16 125 -24 28
-8 89 -21 135 -29 93 -16 144 -29 236 -57 33 -11 72 -19 86 -19 42 0 416 -129
593 -204 250 -107 375 -163 420 -189 27 -16 103 -55 170 -87 66 -32 142 -72
169 -90 l48 -31 -7 -45 c-3 -25 -13 -64 -21 -86 -8 -22 -14 -53 -14 -68 0 -15
-11 -67 -25 -114 -14 -48 -29 -120 -34 -159 -5 -40 -16 -101 -24 -137 -35
-138 -50 -209 -67 -305 -35 -197 -82 -421 -101 -480 -10 -33 -19 -78 -19 -100
0 -22 -14 -94 -31 -160 -17 -66 -34 -145 -39 -175 -5 -30 -23 -120 -40 -200
-17 -80 -37 -194 -45 -255 -8 -60 -19 -123 -24 -140 -5 -16 -14 -59 -20 -95
-15 -93 -48 -263 -65 -345 -9 -38 -16 -95 -16 -125 0 -31 -7 -80 -16 -110 -8
-30 -19 -86 -24 -123 -5 -38 -16 -90 -24 -115 -9 -26 -23 -94 -31 -152 -9 -58
-18 -111 -20 -119 -3 -8 -10 -57 -15 -110 -6 -53 -17 -116 -24 -141 -8 -25
-17 -83 -20 -130 -4 -47 -11 -103 -17 -124 -6 -22 -17 -76 -25 -120 -7 -45
-19 -107 -26 -138 l-12 -58 -58 0 c-32 0 -86 9 -120 19 -35 11 -142 34 -238
52 -96 17 -201 40 -234 50 -32 11 -72 19 -87 19 -20 0 -29 5 -29 15 0 30 31
220 45 275 8 30 19 100 26 155 6 55 18 128 25 163 8 35 14 81 14 102 0 21 9
67 20 102 11 34 20 79 20 98 0 20 7 61 14 91 17 65 54 263 67 364 6 39 14 88
20 110 5 22 16 78 24 125 8 47 21 103 29 125 7 22 17 72 21 111 14 145 -58
204 -280 230 -33 3 -76 13 -95 20 -39 15 -125 31 -240 44 -41 5 -100 16 -130
25 -80 24 -145 33 -230 34 -41 1 -106 8 -145 16 -96 20 -121 19 -170 -10 -46
-26 -75 -79 -75 -136 0 -16 -6 -42 -14 -57 -7 -15 -23 -69 -35 -120 -11 -51
-28 -106 -36 -122 -8 -16 -15 -44 -15 -62 0 -18 -9 -52 -20 -76 -11 -24 -24
-78 -29 -120 -6 -43 -15 -91 -21 -107 -6 -16 -15 -65 -21 -110 -5 -44 -20
-114 -33 -155 -42 -134 -92 -356 -106 -470 -10 -83 -28 -173 -46 -230 -8 -25
-14 -64 -14 -87 0 -23 -4 -45 -10 -48 -5 -3 -58 4 -117 15 -59 12 -148 25
-198 29 -49 4 -135 15 -190 24 -178 29 -347 50 -455 58 -58 4 -118 12 -135 19
-16 6 -77 16 -135 21 -58 5 -140 16 -184 24 -43 8 -104 15 -135 15 -58 0 -180
34 -194 54 -4 6 -5 20 -2 31 3 11 9 63 15 115 5 53 16 112 25 132 8 21 15 66
15 103 0 36 7 81 15 100 7 19 17 63 20 98 4 34 13 85 20 112 7 28 16 70 20 95
3 25 15 88 25 140 20 103 36 198 51 300 20 137 51 307 65 350 8 25 19 90 25
145 5 55 17 127 25 160 9 33 19 110 23 170 5 61 13 121 18 135 6 14 14 65 18
115 4 49 12 101 17 115 5 14 16 79 23 145 7 66 18 138 24 160 6 22 11 65 11
95 0 30 5 73 11 95 5 22 16 81 24 130 18 116 35 224 84 525 23 135 41 265 41
290 0 25 7 71 15 103 8 31 19 100 24 154 6 54 17 120 26 147 8 27 15 79 15
115 0 36 4 71 8 78 10 15 182 40 342 49 69 4 136 11 150 17 14 5 104 14 200
18 96 5 202 13 235 18 75 12 476 6 530 -8z m3132 -418 c37 -76 69 -141 71
-145 2 -3 -18 -29 -43 -58 -25 -28 -57 -69 -72 -91 -32 -48 -62 -51 -130 -11
-26 16 -84 47 -128 71 -44 23 -98 57 -119 75 -38 32 -39 35 -27 64 19 46 40
59 106 67 79 9 147 45 209 110 28 29 54 53 58 54 3 1 37 -61 75 -136z m163
-347 c0 -2 11 -29 25 -61 l25 -57 -32 7 c-18 4 -48 15 -66 24 l-32 16 31 38
c26 31 49 47 49 33z m-2881 -2341 c5 -2 54 -11 109 -20 55 -8 113 -20 128 -26
16 -6 67 -14 114 -19 48 -5 105 -17 130 -29 25 -11 61 -21 80 -21 19 0 60 -9
90 -20 l55 -19 -3 -97 c-2 -53 -10 -114 -18 -136 -8 -22 -14 -58 -14 -80 0
-21 -11 -84 -25 -140 -14 -56 -25 -125 -25 -155 0 -29 -7 -70 -15 -90 -8 -20
-24 -97 -36 -172 -11 -75 -27 -161 -34 -191 -8 -30 -17 -77 -20 -105 -3 -27
-12 -72 -20 -100 -8 -27 -19 -81 -24 -120 -6 -38 -17 -101 -25 -140 -9 -38
-22 -110 -31 -159 -9 -49 -18 -93 -21 -97 -2 -4 -22 -2 -43 6 -21 7 -71 18
-112 24 -41 6 -94 18 -119 26 -25 8 -83 19 -130 25 -47 6 -116 17 -155 25
-134 27 -240 47 -327 61 -139 22 -150 30 -128 89 5 14 16 67 24 118 21 133 64
375 75 422 5 22 17 85 25 140 9 55 23 120 32 145 8 25 26 106 39 180 13 74 38
189 55 255 18 66 40 152 50 190 10 39 25 88 34 110 8 22 15 48 16 57 0 32 23
67 44 70 29 5 215 0 225 -7z M43495 24654 c-22 -9 -65 -20 -95 -24 -78 -11
-244 -92 -325 -158 -170 -138 -246 -238 -312 -412 -57 -150 -61 -164 -67 -300
-6 -120 -4 -142 14 -199 11 -35 20 -69 20 -76 0 -26 61 -144 103 -200 125
-165 229 -238 479 -335 68 -26 232 -42 298 -30 25 5 63 9 85 10 71 0 247 76
340 145 198 148 285 274 351 509 46 163 47 278 4 450 -42 168 -97 268 -203
370 -138 132 -260 201 -409 231 -46 9 -101 21 -123 25 -60 13 -115 11 -160 -6z
m89 -241 c-4 -10 -10 -52 -14 -93 -4 -41 -16 -109 -28 -150 -24 -89 -50 -205
-54 -240 -3 -24 -5 -25 -73 -22 -38 2 -97 10 -131 17 -33 8 -99 19 -145 25
-85 10 -179 36 -179 48 1 24 93 182 135 231 98 116 277 195 449 200 42 1 47
-1 40 -16z m304 -49 c118 -62 145 -84 196 -162 85 -131 111 -203 120 -331 l6
-84 -93 6 c-50 4 -117 14 -147 22 -30 8 -73 15 -96 15 -23 0 -58 7 -77 15 -20
8 -55 15 -77 15 -28 0 -43 5 -47 16 -6 17 39 276 62 354 7 25 16 63 20 85 12
80 17 95 31 95 9 0 54 -21 102 -46z m-803 -600 c50 -3 123 -15 164 -25 41 -11
95 -19 121 -19 64 0 77 -16 62 -78 -6 -26 -16 -81 -22 -122 -5 -41 -17 -104
-25 -140 -8 -36 -20 -96 -26 -133 -7 -38 -17 -71 -24 -74 -17 -6 -80 26 -179
91 -87 57 -178 167 -197 241 -6 22 -17 55 -25 73 -8 20 -14 67 -14 118 l0 86
38 -6 c20 -3 78 -8 127 -12z m760 -129 c22 -7 71 -16 108 -20 38 -4 84 -13
103 -21 18 -8 45 -14 59 -14 50 0 43 -39 -29 -148 -120 -181 -249 -263 -450
-283 -49 -5 -91 -8 -93 -6 -10 11 58 452 77 495 10 22 13 23 98 17 48 -4 105
-12 127 -20z M44300 21319 c-38 -16 -60 -39 -91 -101 -36 -71 -37 -116 -3
-178 34 -62 81 -87 123 -65 65 33 111 114 111 195 0 67 -21 115 -62 140 -37
22 -42 23 -78 9z M25185 25322 c-21 -5 -188 -94 -266 -141 -43 -27 -201 -113
-279 -153 -19 -9 -84 -49 -145 -88 -60 -38 -155 -93 -210 -121 -55 -27 -147
-79 -205 -114 -58 -35 -143 -83 -190 -107 -128 -67 -334 -179 -345 -188 -5 -5
-57 -33 -115 -63 -58 -30 -161 -87 -228 -126 -68 -39 -127 -71 -131 -71 -4 0
-35 -18 -69 -40 -33 -22 -66 -40 -72 -40 -13 0 -267 -132 -325 -169 -22 -14
-85 -47 -140 -74 -55 -28 -145 -76 -200 -107 -186 -106 -349 -193 -590 -313
-132 -65 -247 -125 -255 -132 -8 -7 -55 -34 -104 -60 -49 -26 -96 -51 -105
-55 -9 -5 -85 -43 -170 -85 -85 -42 -185 -96 -222 -121 -37 -24 -70 -44 -73
-44 -7 0 -223 -107 -329 -163 -83 -44 -103 -62 -395 -358 -521 -529 -1008
-1020 -1105 -1114 -50 -49 -121 -121 -157 -160 -36 -38 -177 -180 -315 -316
-291 -287 -256 -252 -491 -494 -493 -508 -1866 -1894 -3484 -3516 -547 -549
-1213 -1219 -1480 -1489 -267 -271 -501 -506 -520 -524 -19 -17 -48 -46 -65
-65 -16 -18 -144 -150 -284 -291 -139 -142 -256 -262 -260 -267 -3 -4 -22 -22
-41 -38 -19 -17 -127 -125 -240 -241 -434 -443 -540 -550 -907 -916 -492 -490
-634 -635 -667 -680 -25 -36 -30 -38 -79 -38 -131 0 -344 -173 -454 -368 -26
-46 -41 -63 -61 -67 -54 -11 -130 -57 -199 -120 -82 -75 -125 -135 -143 -200
-10 -37 -20 -50 -50 -65 -43 -22 -196 -187 -235 -254 -15 -25 -30 -46 -33 -47
-4 -1 -25 -2 -47 -3 -98 -6 -258 -130 -311 -239 -37 -79 -56 -103 -98 -124
-16 -9 -55 -34 -86 -57 -183 -133 -291 -267 -314 -387 -5 -28 -14 -40 -35 -48
-15 -7 -41 -25 -58 -40 -17 -15 -53 -45 -79 -67 -27 -21 -83 -68 -124 -104
-41 -36 -95 -82 -120 -102 -129 -106 -295 -293 -384 -432 -18 -28 -49 -76 -68
-106 -37 -58 -71 -134 -118 -262 -16 -42 -31 -82 -35 -87 -11 -19 -35 -154
-47 -261 -20 -187 -16 -295 21 -528 12 -81 65 -250 101 -327 16 -33 40 -85 54
-115 36 -76 214 -338 293 -430 301 -352 760 -631 1163 -707 360 -67 574 -54
900 54 88 29 307 142 365 187 22 18 65 48 95 68 30 20 105 83 165 141 77 73
120 107 144 112 95 21 143 54 286 198 78 78 168 172 201 210 56 62 64 67 101
67 64 0 128 48 259 195 88 100 123 159 124 208 0 17 10 35 28 49 15 13 78 73
140 134 103 102 117 113 160 119 88 13 144 52 264 183 58 62 98 116 122 166
21 43 45 77 59 83 76 35 387 326 425 398 21 40 42 144 35 172 -4 19 54 81 373
394 475 466 1834 1828 2065 2070 96 100 262 270 369 379 107 108 231 235 275
281 270 282 725 750 942 969 138 140 289 295 335 344 46 50 223 233 393 408
171 175 328 341 351 368 22 28 89 98 150 158 60 59 136 137 169 174 33 37 188
199 345 360 157 161 374 389 483 505 109 116 212 225 230 240 18 16 77 78 132
139 55 60 203 214 329 342 127 128 246 251 265 275 20 23 130 139 246 257 115
118 257 265 315 325 142 148 460 475 646 665 84 85 174 180 201 210 27 30 69
75 95 100 25 25 97 99 159 165 62 66 285 296 495 510 210 215 405 417 434 450
29 33 118 125 198 205 80 79 162 166 182 192 21 26 65 69 97 96 33 28 82 79
109 113 49 63 114 160 114 171 0 4 36 69 80 146 44 77 80 142 80 145 0 3 22
43 48 89 27 46 89 165 137 264 49 98 97 191 107 206 10 15 45 78 77 140 33 62
82 158 111 213 29 55 79 152 111 215 32 63 81 156 108 205 28 50 50 96 51 104
0 8 59 127 132 265 227 432 355 681 607 1181 98 193 205 397 238 455 33 58 70
127 82 154 12 27 37 73 55 101 44 65 131 228 202 375 75 155 180 364 242 482
55 103 65 158 40 213 -18 40 -106 79 -153 67z m-1552 -1142 c-9 -47 22 -116
65 -145 44 -30 71 -31 122 -5 22 11 48 20 60 20 17 0 19 -4 13 -27 -11 -43 -9
-95 5 -129 13 -31 74 -70 93 -59 5 4 9 -10 9 -29 0 -114 77 -171 174 -131 l37
15 -7 -25 c-9 -34 22 -112 47 -120 10 -4 19 -10 19 -15 0 -11 -217 -436 -274
-535 -25 -44 -55 -100 -66 -125 -11 -25 -29 -61 -40 -80 -42 -78 -240 -478
-240 -487 0 -4 -15 -32 -34 -61 -19 -29 -76 -134 -127 -235 -50 -100 -95 -186
-99 -192 -11 -13 -93 -171 -265 -511 -79 -155 -163 -317 -188 -360 -24 -44
-65 -119 -91 -169 -85 -163 -205 -371 -210 -364 -9 12 15 373 28 423 14 52 14
62 0 95 -20 49 -61 90 -111 112 -42 19 -42 19 -130 -6 -48 -14 -149 -45 -223
-70 -174 -56 -272 -80 -295 -72 -16 7 -17 16 -11 90 10 124 22 207 35 257 75
282 85 337 71 389 -14 52 -61 106 -104 121 -34 11 -220 1 -351 -19 -33 -5
-109 -17 -170 -27 -233 -36 -246 -29 -196 98 72 186 67 163 48 203 -16 34 -16
41 -3 88 99 341 93 307 65 358 -40 72 -63 79 -280 79 -226 0 -459 10 -459 21
0 19 227 153 453 267 138 70 277 144 307 163 79 51 175 102 253 133 37 15 94
42 126 61 33 19 62 35 66 35 3 0 72 38 153 83 81 46 253 139 382 207 129 68
240 127 246 132 7 5 108 57 225 117 118 59 238 122 267 140 30 17 69 38 88 46
19 8 58 29 87 48 56 36 184 106 309 170 43 21 80 43 83 48 4 5 15 9 25 9 16 0
18 -5 13 -30z m-3213 -1795 c60 -30 146 -38 395 -37 138 0 256 -2 262 -6 8 -5
7 -18 -3 -47 -7 -22 -18 -65 -24 -95 -6 -30 -20 -81 -31 -113 -10 -31 -19 -78
-19 -104 l0 -46 -272 -272 c-150 -149 -321 -320 -380 -380 -59 -61 -518 -520
-1020 -1021 -502 -501 -970 -969 -1039 -1040 -69 -71 -195 -197 -280 -281 -85
-84 -325 -327 -534 -540 -209 -213 -472 -480 -585 -593 -269 -271 -675 -683
-1150 -1169 -212 -217 -437 -444 -500 -505 -63 -61 -130 -129 -150 -150 -19
-22 -168 -175 -330 -339 -506 -515 -967 -983 -1204 -1222 -125 -126 -343 -349
-484 -494 -142 -145 -399 -407 -572 -582 -287 -289 -674 -680 -1159 -1172
-101 -103 -188 -187 -192 -187 -4 0 -27 -24 -51 -53 -74 -91 -198 -202 -212
-191 -8 5 -44 30 -82 56 -38 26 -87 61 -109 77 -60 44 -202 134 -270 172 -33
18 -87 50 -119 71 -33 21 -65 38 -73 38 -7 0 -13 3 -13 6 0 7 200 220 348 371
238 243 1914 1935 2167 2188 492 492 2443 2455 2934 2951 260 263 835 844
1277 1289 443 446 947 956 1122 1134 174 178 541 549 814 825 274 275 717 723
985 994 519 525 489 499 553 467z m563 -898 c21 -33 56 -43 98 -28 18 6 55 11
83 11 52 0 292 41 381 65 28 8 95 17 151 21 118 8 117 9 97 -86 -8 -36 -18
-87 -23 -115 -4 -27 -13 -63 -19 -78 -6 -16 -11 -43 -11 -60 0 -18 -7 -51 -15
-75 -8 -23 -20 -107 -26 -186 -9 -127 -8 -148 6 -176 l16 -31 -78 -92 c-43
-51 -94 -112 -113 -137 -45 -58 -127 -154 -215 -250 -38 -41 -83 -91 -99 -110
-55 -65 -290 -315 -426 -451 -74 -75 -223 -227 -330 -340 -107 -112 -253 -264
-325 -338 -71 -74 -150 -157 -175 -185 -25 -27 -112 -120 -195 -206 -82 -85
-177 -184 -210 -218 -33 -35 -78 -83 -101 -105 -524 -537 -1048 -1080 -1133
-1172 -40 -44 -99 -105 -130 -137 -68 -68 -175 -180 -296 -308 -50 -52 -229
-238 -399 -412 -170 -174 -312 -322 -316 -327 -3 -6 -155 -163 -336 -348 -182
-186 -357 -367 -389 -403 -32 -36 -123 -130 -200 -210 -78 -80 -215 -221 -306
-315 -90 -93 -258 -264 -372 -380 -114 -115 -333 -338 -485 -494 -289 -296
-2033 -2042 -2761 -2765 l-422 -419 -17 24 c-9 13 -44 60 -77 104 -34 44 -92
123 -130 175 -109 152 -215 271 -437 494 l-209 209 133 136 c73 75 396 403
718 730 322 326 689 699 815 828 127 129 496 503 821 831 325 329 609 617 630
641 21 25 294 302 605 615 311 314 604 611 650 660 46 49 215 220 374 381 160
160 355 358 434 440 463 479 2133 2165 3666 3700 l1070 1071 5 -76 c4 -48 12
-87 23 -103z m1476 -716 c-5 -35 -11 -151 -12 -259 -2 -173 0 -204 18 -255
l19 -58 -199 -202 c-110 -111 -254 -256 -320 -322 -66 -67 -176 -182 -245
-256 -134 -143 -471 -491 -660 -679 -63 -63 -144 -149 -179 -190 -35 -41 -125
-136 -200 -211 -123 -123 -330 -338 -489 -509 -33 -36 -168 -174 -299 -307
-131 -133 -268 -275 -305 -315 -36 -41 -124 -133 -195 -204 -70 -72 -202 -208
-293 -304 -91 -96 -230 -240 -310 -320 -205 -206 -360 -368 -393 -409 -15 -20
-118 -128 -229 -241 -111 -113 -253 -260 -317 -328 -64 -67 -179 -187 -256
-266 -162 -166 -430 -448 -530 -556 -74 -80 -216 -228 -410 -425 -66 -67 -156
-159 -199 -206 -44 -46 -206 -214 -360 -374 -155 -159 -337 -348 -406 -420
-69 -71 -209 -215 -311 -320 -102 -104 -253 -260 -335 -345 -82 -85 -210 -216
-284 -291 -74 -74 -353 -357 -620 -628 -477 -485 -843 -851 -1515 -1514 l-340
-336 -13 57 c-7 31 -23 86 -37 122 -13 36 -35 101 -48 145 -14 44 -62 158
-106 253 -45 95 -81 179 -81 185 0 7 194 204 432 437 237 234 443 438 457 453
14 15 539 542 1166 1170 627 629 1268 1276 1425 1437 157 162 364 374 460 471
204 206 325 330 620 638 118 123 294 303 391 400 194 195 358 364 618 641 96
102 238 248 315 326 78 78 179 181 225 230 116 124 240 253 411 429 80 83 174
182 210 220 35 39 177 187 314 329 138 143 316 327 396 410 80 83 208 217 285
296 77 80 237 246 355 369 118 123 238 246 266 274 28 29 123 128 210 222 239
254 298 316 428 449 212 216 548 585 711 781 158 189 175 205 225 216 61 13
263 76 325 101 28 11 70 24 95 28 25 5 61 15 80 23 19 9 38 12 42 8 4 -3 3
-35 -3 -70z m-12425 -8771 c7 -5 32 -16 55 -25 118 -41 439 -244 626 -395 210
-169 265 -216 369 -313 175 -164 440 -479 522 -622 15 -27 42 -70 59 -95 17
-25 48 -74 69 -110 21 -36 48 -76 61 -90 27 -29 106 -184 128 -250 9 -25 22
-61 30 -80 9 -19 22 -55 30 -80 8 -25 24 -68 35 -97 11 -29 23 -76 27 -105 4
-29 15 -73 25 -98 10 -27 20 -91 24 -159 l7 -115 -133 -127 -132 -128 -23 112
c-12 62 -27 123 -33 136 -6 13 -31 83 -55 155 -53 159 -133 348 -184 436 -142
241 -183 307 -256 405 -45 61 -90 124 -101 140 -90 143 -355 428 -634 682
-174 159 -458 352 -706 480 -90 47 -164 91 -164 98 0 7 55 70 122 140 l122
127 49 -6 c27 -3 55 -10 61 -16z m-458 -442 c94 -33 278 -134 332 -180 18 -15
51 -37 74 -49 22 -11 62 -40 87 -64 25 -23 63 -50 83 -58 21 -9 64 -37 97 -64
33 -26 79 -63 103 -81 175 -132 530 -485 617 -613 16 -24 41 -55 56 -69 15
-14 35 -43 45 -65 10 -22 37 -65 62 -95 37 -46 92 -133 179 -285 9 -16 20 -41
24 -55 4 -14 24 -54 45 -90 20 -36 43 -82 49 -102 7 -20 23 -53 37 -73 13 -20
24 -47 24 -60 0 -14 11 -53 24 -87 42 -107 58 -161 65 -218 4 -30 15 -69 24
-87 10 -18 17 -54 17 -84 0 -29 5 -78 12 -110 15 -75 2 -106 -79 -186 -35 -34
-63 -61 -64 -60 -1 1 -3 31 -5 67 -7 126 -70 390 -108 454 -14 25 -26 51 -26
60 0 35 -54 178 -110 292 -33 67 -67 141 -75 164 -8 23 -25 56 -37 73 -12 17
-34 56 -49 87 -14 30 -39 66 -54 80 -15 14 -41 52 -57 85 -17 33 -56 92 -88
130 -31 39 -83 106 -115 150 -83 114 -389 431 -525 544 -63 53 -128 109 -145
125 -16 15 -48 36 -70 46 -22 10 -51 30 -65 45 -14 15 -50 44 -80 64 -30 21
-76 52 -101 69 -25 17 -77 46 -115 65 -38 18 -80 40 -94 49 -14 9 -38 20 -55
23 -16 4 -60 22 -96 41 -37 19 -77 34 -90 34 -19 0 -14 8 36 53 53 48 80 63
112 66 7 1 51 -13 99 -31z m-157 -349 c166 -80 291 -151 371 -212 36 -27 93
-67 127 -90 264 -178 679 -607 858 -887 26 -41 55 -86 64 -100 45 -66 132
-222 153 -275 14 -33 41 -83 61 -111 21 -28 37 -61 37 -73 0 -20 26 -98 85
-256 46 -125 67 -199 74 -270 4 -38 12 -79 18 -90 6 -11 10 -64 9 -119 l-2
-99 -99 -96 -99 -96 -9 35 c-5 19 -24 85 -42 145 -19 61 -39 132 -45 160 -18
80 -81 228 -221 520 -102 213 -213 382 -428 654 -46 58 -91 117 -100 131 -31
49 -188 209 -286 291 -55 46 -141 122 -191 169 -90 85 -261 217 -358 277 -28
17 -94 57 -146 88 -52 31 -120 72 -150 90 -30 19 -67 37 -82 40 -16 4 -28 12
-28 19 0 6 37 50 83 97 70 72 90 87 137 101 78 22 71 24 209 -43z m-429 -391
c80 -40 172 -92 205 -114 33 -23 75 -49 93 -58 18 -9 63 -43 100 -74 37 -32
84 -68 105 -81 21 -13 45 -34 54 -48 9 -13 38 -37 64 -52 69 -39 437 -404 496
-492 9 -13 37 -47 62 -76 70 -78 118 -144 223 -303 85 -128 208 -352 208 -377
0 -5 16 -36 36 -68 19 -33 44 -82 54 -110 10 -27 37 -99 59 -160 49 -129 87
-246 107 -330 9 -33 22 -85 31 -116 15 -55 14 -114 -4 -190 -5 -23 -29 -59
-64 -97 l-56 -60 -11 103 c-5 56 -17 116 -26 133 -9 17 -16 43 -16 57 0 14 -7
39 -15 54 -17 34 -75 206 -75 224 0 6 -21 62 -46 122 -25 61 -54 131 -64 157
-10 26 -29 66 -44 90 -14 24 -39 71 -56 105 -16 35 -45 86 -64 115 -18 29 -36
65 -39 79 -4 14 -18 41 -31 60 -14 19 -44 66 -68 104 -103 170 -306 421 -480
597 -54 54 -98 102 -98 106 0 5 -28 31 -62 58 -35 27 -86 70 -114 96 -28 26
-68 55 -90 64 -21 9 -55 31 -74 49 -19 18 -60 49 -90 70 -30 21 -66 48 -80 60
-14 12 -59 40 -100 62 -41 21 -97 53 -125 71 -46 29 -157 80 -263 121 l-42 16
57 58 58 58 70 -4 c63 -4 84 -11 215 -79z m-277 -296 c48 -23 108 -55 133 -72
25 -17 80 -49 122 -72 43 -23 120 -73 172 -113 117 -89 478 -431 545 -517 28
-34 85 -103 128 -151 43 -49 103 -125 135 -170 31 -45 67 -95 79 -112 12 -16
36 -55 54 -85 18 -30 51 -82 74 -115 51 -77 201 -378 221 -444 8 -28 28 -80
44 -117 17 -36 30 -74 30 -85 0 -10 9 -41 20 -69 11 -28 20 -62 20 -76 0 -14
9 -42 20 -64 15 -29 20 -59 20 -113 0 -45 6 -89 16 -112 15 -37 15 -39 -18
-104 -27 -54 -102 -160 -128 -181 -3 -3 -36 -37 -72 -76 l-66 -71 -7 81 c-4
44 -18 117 -31 160 -13 44 -24 90 -24 103 0 14 -9 45 -20 71 -11 26 -24 67
-29 92 -17 80 -50 171 -133 370 -28 66 -127 259 -158 305 -14 22 -31 53 -38
68 -7 16 -24 43 -37 61 -14 18 -36 55 -51 82 -123 234 -543 711 -829 940 -213
171 -581 396 -685 419 -17 4 -30 10 -29 13 0 4 37 40 81 80 l80 74 18 -41 c22
-48 62 -71 125 -71 70 0 108 58 92 140 -7 34 -12 35 126 -28z m-528 -392 c92
-20 258 -125 493 -312 26 -21 81 -63 122 -95 95 -72 228 -200 339 -327 47 -54
106 -119 130 -144 23 -25 50 -57 60 -71 17 -29 102 -143 112 -151 3 -3 27 -36
54 -75 27 -38 63 -90 80 -115 48 -70 109 -180 129 -235 10 -27 35 -81 56 -120
21 -38 52 -104 70 -145 17 -41 38 -88 45 -105 7 -16 23 -64 34 -105 12 -41 28
-97 36 -125 22 -80 41 -200 56 -373 l11 -123 -40 -53 c-98 -129 -361 -340
-534 -427 -109 -55 -304 -117 -418 -132 -127 -18 -375 -14 -445 7 -33 10 -85
24 -115 31 -146 33 -423 151 -542 229 -99 66 -283 226 -355 309 -20 23 -62 69
-94 102 -80 85 -183 225 -220 298 -17 34 -37 69 -44 77 -7 8 -15 32 -19 52 -4
21 -18 63 -33 95 -45 103 -60 156 -88 320 l-28 161 17 151 c9 84 22 164 30
179 7 15 16 47 19 72 3 25 15 66 26 90 11 25 21 55 21 66 0 19 88 181 145 269
109 167 373 426 632 622 141 107 171 125 193 118 8 -2 38 -9 65 -15z M23713
23074 c-65 -69 -76 -121 -32 -144 16 -9 26 -4 58 27 36 36 71 90 71 112 0 15
-30 41 -47 41 -9 0 -31 -16 -50 -36z M23087 22138 c-20 -16 -46 -78 -40 -96 3
-7 13 -17 23 -22 55 -29 119 70 74 114 -19 19 -35 20 -57 4z M9805 11875 c-44
-43 -27 -109 35 -135 90 -37 151 89 67 140 -43 27 -73 25 -102 -5z M10262
11623 c-7 -3 -19 -18 -27 -34 -22 -41 0 -81 56 -103 37 -15 44 -15 64 -2 77
51 -5 174 -93 139z M10655 11285 c-25 -24 -32 -59 -17 -82 28 -44 128 -85 158
-65 33 22 34 49 3 96 -50 75 -102 94 -144 51z M11164 10808 c-12 -5 -29 -25
-38 -44 -15 -32 -15 -38 -1 -65 21 -40 76 -66 112 -53 61 21 67 91 13 145 -30
30 -51 35 -86 17z M11608 10135 c-52 -28 -44 -102 13 -126 81 -33 128 85 49
126 -34 18 -28 18 -62 0z M11864 9546 c-36 -16 -44 -32 -44 -91 0 -69 58 -111
119 -85 70 28 63 135 -11 176 -28 16 -26 16 -64 0z M9209 11205 c-40 -21 -54
-64 -36 -107 15 -35 44 -61 104 -92 46 -23 97 -2 119 49 13 32 13 38 -5 74
-42 81 -116 112 -182 76z M9678 10915 c-56 -30 -68 -57 -41 -94 19 -24 79 -71
92 -71 22 0 75 46 87 75 18 43 2 84 -41 103 -35 16 -42 15 -97 -13z M10413
10158 c-71 -34 -37 -148 43 -148 23 0 74 55 74 80 0 27 -52 80 -77 79 -10 0
-28 -5 -40 -11z M10795 9595 c-63 -62 6 -161 90 -129 9 4 24 23 34 43 17 32
17 39 5 63 -28 53 -89 64 -129 23z M11052 9100 c-60 -37 -68 -105 -16 -129 53
-24 124 25 124 84 0 19 -44 65 -62 65 -7 0 -28 -9 -46 -20z M11100 8824 c-57
-24 -98 -102 -72 -140 22 -33 107 -45 157 -22 15 7 35 29 46 50 18 36 18 40 4
69 -9 17 -31 37 -50 45 -41 17 -41 17 -85 -2z M9304 9968 c-30 -14 -45 -49
-32 -74 25 -47 74 -58 108 -24 27 27 25 56 -5 85 -26 27 -38 29 -71 13z M9723
9535 c-63 -44 -61 -169 4 -204 49 -25 120 -3 141 44 24 52 -16 128 -85 164
-28 14 -34 14 -60 -4z M10026 9024 c-9 -8 -16 -24 -16 -34 0 -10 7 -26 16 -34
28 -29 84 -9 84 30 0 8 -9 23 -20 34 -24 24 -43 25 -64 4z M10265 8586 c-51
-51 -42 -111 23 -149 41 -24 77 -16 97 23 51 98 -46 200 -120 126z M10360
8200 c-29 -29 -27 -84 5 -115 39 -40 83 -29 105 25 31 74 -55 145 -110 90z
M7490 8980 c-22 -22 -24 -29 -12 -46 7 -11 45 -34 56 -34 10 0 36 32 36 46 0
16 -35 54 -50 54 -5 0 -19 -9 -30 -20z M7782 7738 c-44 -22 -41 -98 6 -122 23
-12 31 -12 54 0 15 8 29 23 33 33 7 24 -18 77 -44 91 -23 12 -20 12 -49 -2z
M8945 7215 c-14 -13 -25 -29 -25 -35 0 -18 29 -68 42 -73 32 -11 78 36 78 78
0 20 -36 55 -55 55 -9 0 -27 -11 -40 -25z M7355 24825 c-61 -18 -110 -26 -220
-36 -71 -7 -170 -23 -220 -36 -49 -13 -115 -29 -145 -34 -30 -5 -80 -18 -110
-28 -30 -11 -98 -33 -150 -50 -52 -16 -120 -39 -150 -51 -30 -12 -73 -28 -95
-35 -22 -7 -71 -29 -110 -48 -38 -19 -81 -38 -95 -42 -14 -4 -63 -28 -110 -53
-47 -25 -102 -54 -122 -64 -57 -28 -314 -200 -393 -263 -255 -203 -527 -472
-591 -586 -14 -24 -45 -66 -68 -94 -121 -141 -343 -527 -423 -735 -62 -162
-149 -441 -180 -580 -43 -193 -73 -357 -73 -406 0 -16 -7 -47 -15 -69 -27 -76
-14 -616 20 -780 7 -38 17 -94 21 -124 3 -30 14 -78 24 -106 10 -28 21 -71 25
-95 4 -23 14 -59 22 -78 8 -20 19 -56 23 -81 19 -99 61 -234 94 -298 19 -38
48 -102 64 -143 52 -131 239 -470 285 -520 13 -14 40 -50 59 -80 46 -70 155
-194 300 -340 210 -211 269 -259 528 -433 181 -122 393 -238 474 -262 33 -9
96 -32 140 -50 99 -41 262 -95 286 -95 10 0 42 -11 71 -24 32 -15 84 -28 129
-32 41 -4 86 -11 100 -17 64 -25 508 -45 635 -28 44 6 159 17 255 26 96 8 193
21 215 29 22 8 85 23 139 35 55 12 128 34 162 50 34 16 76 32 94 36 18 4 55
17 84 30 28 12 112 48 186 79 267 112 353 162 553 316 40 31 104 80 142 110
97 74 312 292 321 324 10 42 -3 71 -46 101 l-41 28 -112 -19 c-214 -36 -661
-20 -852 31 -27 7 -77 19 -110 25 -101 21 -286 86 -401 142 -125 62 -242 124
-258 137 -6 5 -39 25 -73 44 -169 96 -503 391 -618 547 -86 116 -196 278 -228
335 -125 222 -197 372 -236 495 -11 36 -32 97 -47 135 -40 106 -75 274 -94
445 -6 52 -16 127 -24 165 -30 164 11 804 60 920 8 19 14 51 14 72 0 21 23
103 51 183 27 80 56 165 63 190 23 77 104 247 167 353 148 246 276 414 454
592 102 102 321 286 372 314 12 6 52 34 89 63 59 45 340 194 402 213 27 8 72
71 72 102 0 33 -56 91 -98 102 -21 6 -80 15 -132 20 -52 6 -126 15 -165 20
-63 9 -365 14 -390 6z m293 -192 l113 -6 -48 -29 c-26 -16 -68 -42 -93 -58
-25 -16 -65 -40 -90 -54 -70 -37 -190 -122 -240 -169 -25 -24 -82 -73 -127
-111 -129 -106 -352 -365 -459 -534 -23 -37 -67 -106 -98 -153 -84 -133 -149
-275 -210 -465 -13 -39 -32 -96 -44 -125 -34 -90 -61 -191 -68 -254 -4 -33
-11 -68 -15 -77 -10 -19 -36 -172 -49 -288 -4 -41 -13 -109 -19 -150 -12 -90
-7 -437 8 -535 6 -38 10 -86 9 -105 -1 -19 3 -55 9 -80 6 -25 21 -88 33 -140
39 -165 136 -480 186 -596 19 -45 34 -88 34 -96 0 -19 66 -144 152 -290 306
-514 843 -976 1353 -1163 295 -109 581 -184 650 -171 18 4 63 -1 100 -9 68
-16 401 -23 442 -9 25 9 -54 -62 -166 -149 -98 -75 -213 -148 -341 -216 -41
-22 -91 -49 -110 -60 -49 -27 -174 -85 -240 -111 -192 -74 -701 -185 -942
-204 -217 -18 -781 49 -925 109 -20 8 -45 15 -57 15 -18 0 -77 20 -226 75
-165 62 -561 290 -691 400 -217 181 -282 242 -399 375 -41 46 -83 93 -93 105
-150 164 -393 567 -462 764 -13 36 -32 89 -43 116 -32 80 -70 205 -81 270 -6
33 -16 76 -21 95 -20 66 -53 215 -60 270 -4 30 -14 105 -23 165 -21 139 -36
433 -26 488 4 23 13 87 19 142 17 146 39 274 55 324 8 25 15 61 15 80 0 32 51
202 112 371 11 30 28 82 37 115 32 111 93 249 169 385 42 74 85 153 96 175 10
22 33 58 51 80 17 22 42 58 55 80 38 63 180 238 291 357 153 164 330 316 524
449 188 130 633 359 744 385 31 7 115 33 186 58 147 50 319 96 363 96 16 0 46
7 65 15 20 8 82 18 139 21 57 4 130 13 163 20 70 15 137 16 293 7z M6153
23857 c-61 -62 -68 -93 -28 -132 33 -34 57 -31 105 13 73 65 85 108 45 147
-37 37 -62 32 -122 -28z M5335 23136 c-32 -14 -93 -81 -138 -151 -36 -57 -52
-163 -33 -210 64 -153 190 -167 310 -35 50 55 106 171 106 217 -1 60 -40 144
-79 170 -39 27 -117 31 -166 9z m73 -196 c-4 -52 -9 -66 -35 -92 -38 -38 -63
-33 -63 14 0 49 60 137 94 138 4 0 6 -27 4 -60z M5621 22015 c-27 -23 -57 -84
-81 -166 -13 -43 33 -106 104 -145 42 -23 83 -4 95 45 23 91 24 156 0 210 -21
50 -50 81 -75 81 -7 0 -26 -11 -43 -25z M4935 21372 c-63 -39 -123 -125 -136
-197 -4 -22 -10 -57 -14 -77 -5 -27 -2 -51 13 -90 11 -29 26 -69 33 -88 8 -19
32 -55 54 -79 112 -123 247 -102 326 49 19 37 23 59 22 120 -1 70 -5 83 -56
185 -40 79 -66 119 -94 141 -74 59 -99 65 -148 36z m115 -222 c76 -151 26
-297 -64 -187 -28 35 -31 47 -35 119 -3 72 -1 82 20 104 33 36 46 30 79 -36z
M5833 20635 c-27 -19 -46 -75 -37 -111 3 -16 23 -57 43 -91 54 -93 108 -107
151 -39 27 45 25 68 -10 135 -37 68 -48 82 -80 104 -30 21 -40 21 -67 2z
M5379 19903 c-27 -16 -49 -54 -75 -127 -16 -45 0 -135 37 -208 30 -59 119
-142 173 -163 66 -25 144 -17 199 21 54 38 90 105 82 154 -11 66 -71 173 -126
228 -61 61 -92 79 -164 98 -65 18 -94 17 -126 -3z m185 -195 c62 -71 81 -111
64 -138 -18 -29 -67 -26 -102 6 -52 49 -82 144 -54 172 22 22 46 12 92 -40z
M6242 19103 c-39 -15 -55 -131 -28 -196 15 -38 82 -99 140 -129 31 -16 50 -19
91 -13 28 3 63 1 79 -4 50 -20 107 28 92 77 -10 30 -69 61 -134 70 -71 10
-102 32 -102 74 0 77 -78 146 -138 121z M7191 18860 c-61 -60 -71 -83 -48
-112 43 -53 111 -62 185 -24 97 49 89 118 -20 176 -21 11 -41 20 -47 20 -5 0
-37 -27 -70 -60z M14825 21826 c-31 -13 -80 -47 -240 -162 -49 -35 -103 -72
-118 -82 -16 -9 -64 -40 -107 -69 -43 -29 -118 -75 -167 -103 -48 -29 -133
-79 -188 -111 -118 -71 -591 -307 -685 -342 -36 -13 -92 -36 -125 -50 -254
-109 -661 -253 -815 -288 -47 -10 -116 -28 -155 -40 -122 -36 -283 -71 -495
-109 -69 -12 -151 -28 -183 -36 -32 -8 -81 -14 -109 -14 -28 0 -87 -7 -132
-15 -105 -19 -410 -35 -651 -35 -150 0 -210 4 -285 20 -52 11 -112 20 -133 20
-21 0 -78 11 -127 25 -110 31 -125 31 -155 0 -50 -49 -13 -121 76 -145 267
-72 669 -105 994 -81 185 13 522 48 533 54 4 3 46 10 92 17 78 10 158 26 405
81 81 18 206 52 410 110 209 60 522 164 615 205 30 13 84 34 120 47 100 36
320 139 605 283 298 151 398 209 639 367 60 40 129 86 155 102 76 50 233 170
284 217 61 58 63 104 6 133 -33 18 -27 17 -64 1z M35166 21679 c-22 -13 -94
-164 -125 -264 -24 -74 -35 -99 -126 -290 -71 -148 -96 -202 -130 -285 -15
-36 -49 -105 -75 -155 -26 -49 -51 -101 -55 -114 -9 -31 -192 -351 -215 -376
-10 -11 -30 -43 -44 -72 -36 -72 -285 -440 -466 -688 -19 -27 -57 -73 -83
-104 -27 -31 -76 -91 -108 -135 -72 -94 -135 -170 -210 -251 -31 -33 -79 -90
-108 -127 -28 -38 -72 -87 -98 -110 -26 -24 -85 -83 -132 -131 -83 -85 -291
-293 -416 -415 -33 -32 -105 -95 -160 -139 -56 -44 -115 -97 -133 -117 -41
-47 -208 -190 -473 -403 -269 -217 -405 -319 -639 -479 -429 -292 -499 -337
-635 -409 -49 -26 -109 -60 -132 -76 -23 -16 -45 -29 -49 -29 -4 0 -57 -28
-118 -63 -233 -133 -993 -497 -1036 -497 -7 0 -37 -14 -67 -31 -30 -17 -75
-39 -101 -49 -26 -10 -83 -32 -127 -49 -44 -18 -105 -41 -135 -52 -30 -11 -75
-29 -100 -39 -25 -9 -72 -27 -105 -39 -33 -12 -82 -30 -110 -40 -27 -11 -84
-29 -125 -41 -41 -12 -86 -26 -100 -32 -119 -48 -346 -116 -492 -148 -48 -10
-91 -21 -96 -24 -14 -8 -202 -58 -252 -66 -25 -4 -65 -12 -90 -18 -59 -15
-262 -53 -325 -62 -27 -3 -66 -11 -85 -17 -39 -13 -197 -37 -340 -53 -52 -6
-140 -18 -195 -26 -55 -9 -143 -20 -195 -26 -52 -5 -131 -13 -175 -18 -44 -4
-170 -13 -280 -19 -110 -6 -233 -16 -273 -21 -96 -13 -470 -13 -652 0 -619 45
-749 57 -975 89 -44 6 -127 17 -185 25 -134 17 -367 62 -445 86 -33 10 -78 21
-100 25 -22 3 -69 14 -105 24 -36 10 -85 23 -110 30 -25 6 -76 20 -115 32 -38
11 -99 29 -135 38 -36 10 -94 30 -130 44 -36 14 -84 28 -107 32 -24 4 -45 11
-48 15 -3 5 -22 14 -43 20 -82 26 -401 165 -467 203 -27 16 -67 36 -88 43 -21
7 -106 47 -190 88 -226 111 -273 129 -297 116 -27 -14 -43 -47 -36 -75 9 -35
145 -142 246 -194 25 -13 68 -38 95 -56 28 -18 102 -58 165 -90 63 -32 142
-73 175 -91 33 -18 66 -34 74 -34 8 0 96 -36 195 -79 233 -102 320 -134 531
-200 183 -56 263 -78 315 -86 25 -4 77 -15 115 -25 39 -10 101 -21 140 -25 38
-4 80 -12 95 -17 14 -6 57 -14 96 -18 39 -5 93 -15 120 -23 133 -40 665 -97
1179 -126 350 -21 851 -11 1051 20 33 5 93 9 133 9 40 0 99 6 130 14 31 8 97
17 146 21 50 3 136 15 193 26 57 10 120 19 142 19 21 0 60 4 87 9 26 6 86 15
133 21 92 12 235 40 368 71 45 10 98 19 116 19 19 0 63 9 98 20 34 11 77 20
94 20 17 0 60 8 95 18 35 11 118 33 184 50 66 17 140 36 165 43 76 20 213 60
255 74 22 8 103 35 180 61 77 26 176 60 220 76 44 16 139 50 210 74 72 25 186
71 255 101 69 30 166 70 215 88 50 18 117 48 150 67 34 19 70 37 80 41 63 19
127 47 270 117 88 43 189 90 225 105 78 32 247 121 430 225 74 43 173 97 220
122 47 25 106 59 131 77 26 17 50 31 55 31 4 0 51 29 103 64 53 35 123 80 156
101 126 80 341 225 365 247 14 13 50 40 80 61 175 119 332 235 435 323 33 28
74 60 90 71 17 12 51 41 76 65 24 23 96 86 158 138 63 52 133 113 156 135 24
22 72 65 106 95 63 54 420 386 530 491 31 30 98 101 150 159 52 57 144 157
204 221 171 181 362 411 508 611 68 94 96 132 165 222 20 28 51 71 67 97 17
25 48 74 70 108 22 34 64 98 94 144 29 45 56 89 59 97 3 8 29 49 57 90 29 41
59 89 67 105 36 73 128 244 155 290 38 66 133 267 133 284 0 7 18 47 40 88 22
42 40 81 40 87 0 6 17 54 39 106 21 52 42 111 46 130 4 19 23 68 43 109 26 53
35 86 35 120 -1 25 7 69 17 96 45 124 53 169 36 202 -21 42 -52 53 -90 32z
M35733 20265 c-38 -16 -51 -52 -34 -93 31 -75 693 -391 1001 -478 30 -9 64
-21 74 -26 11 -6 45 -16 75 -24 31 -7 97 -24 146 -38 50 -14 117 -31 150 -36
33 -6 103 -21 155 -35 52 -13 129 -29 170 -35 41 -7 116 -21 165 -32 92 -20
209 -32 460 -48 198 -12 693 -12 735 0 19 6 98 15 175 21 240 17 682 116 955
212 244 86 564 238 601 285 33 43 21 90 -31 117 -28 14 -33 12 -212 -74 -101
-49 -210 -99 -243 -111 -109 -38 -319 -106 -365 -118 -25 -7 -88 -24 -140 -38
-52 -14 -120 -30 -150 -34 -153 -24 -257 -41 -270 -46 -8 -3 -89 -12 -180 -20
-91 -8 -219 -19 -286 -24 -241 -21 -746 6 -1009 55 -44 8 -98 14 -120 15 -64
0 -327 56 -505 106 -63 18 -142 39 -175 47 -64 16 -283 90 -457 156 -104 39
-350 157 -541 261 -104 56 -100 55 -144 35z M28573 14518 c-12 -6 -31 -33 -43
-60 -19 -45 -21 -63 -17 -167 7 -158 22 -300 37 -336 6 -16 16 -72 21 -122 4
-51 15 -105 23 -120 7 -16 21 -66 30 -113 10 -47 28 -116 41 -155 12 -38 26
-90 30 -115 4 -25 12 -54 19 -65 7 -11 25 -56 40 -100 16 -44 62 -150 103
-235 41 -85 99 -205 128 -265 55 -113 177 -294 332 -494 112 -144 386 -422
478 -484 39 -26 114 -79 168 -118 172 -122 411 -257 587 -330 41 -17 93 -39
116 -50 22 -10 47 -19 55 -19 8 0 59 -15 114 -34 113 -39 256 -76 292 -76 59
0 108 61 91 111 -12 34 -71 69 -115 69 -29 0 -123 26 -307 85 -173 56 -420
181 -641 324 -196 126 -469 366 -628 551 -45 52 -93 107 -106 122 -29 33 -164
235 -207 310 -17 29 -49 82 -71 118 -139 225 -236 469 -362 910 -10 36 -27
106 -36 155 -10 50 -24 124 -32 165 -22 111 -36 251 -37 375 -2 134 -1 130
-26 155 -22 22 -43 24 -77 8z M33385 11879 c-301 -15 -431 -27 -474 -43 -24
-9 -69 -16 -100 -16 -31 0 -72 -5 -91 -10 -316 -85 -458 -149 -564 -256 -104
-103 -116 -140 -145 -416 -5 -47 -12 -92 -16 -98 -7 -12 -10 -39 -39 -345 -25
-262 -31 -736 -12 -955 22 -251 32 -339 51 -445 28 -156 35 -189 51 -245 9
-30 24 -86 34 -125 37 -145 47 -177 145 -450 27 -78 99 -210 242 -450 59 -98
212 -281 362 -429 l140 -140 -18 -25 c-10 -14 -39 -68 -65 -119 -60 -121 -63
-183 -14 -281 56 -108 287 -291 433 -341 28 -10 74 -29 103 -44 169 -86 546
-187 852 -230 437 -61 945 -71 1104 -21 27 8 72 15 100 15 28 0 69 9 91 19 22
10 53 21 69 25 67 17 233 104 270 142 51 51 96 147 96 201 0 50 -42 201 -65
237 -21 32 -17 38 58 81 402 233 637 436 881 760 45 59 63 65 121 41 19 -8 56
-18 82 -21 26 -4 69 -13 96 -22 58 -18 321 -13 462 10 197 31 510 155 650 256
22 16 76 54 120 84 88 61 288 242 321 291 125 188 162 251 223 376 81 167 118
259 136 339 7 31 20 88 28 126 10 43 17 124 18 210 1 172 -23 270 -109 443
-51 103 -65 122 -149 202 -108 104 -213 160 -396 210 -96 27 -123 31 -202 27
-49 -2 -108 -9 -130 -15 -22 -6 -78 -20 -125 -31 -95 -22 -186 -52 -218 -72
-12 -7 -24 -10 -27 -7 -4 3 4 58 16 122 l22 116 -51 104 c-48 96 -58 109 -144
185 -99 86 -158 125 -389 256 -141 81 -209 113 -469 216 -69 28 -161 65 -205
84 -81 33 -138 52 -255 81 -36 9 -96 25 -135 36 -38 11 -104 28 -146 37 -41
10 -97 25 -125 34 -27 8 -96 25 -154 37 -58 12 -134 31 -170 41 -159 45 -510
107 -760 133 -80 9 -210 25 -290 35 -80 11 -203 26 -275 32 -151 14 -646 19
-850 8z m680 -210 c173 -6 318 -16 360 -25 39 -8 124 -19 190 -25 66 -6 145
-17 175 -24 30 -7 98 -16 150 -20 52 -4 102 -11 110 -15 9 -5 54 -13 100 -19
130 -17 406 -72 510 -101 36 -10 91 -23 122 -29 31 -5 109 -26 173 -46 65 -19
125 -35 134 -35 18 0 247 -70 326 -100 28 -11 86 -29 130 -41 44 -12 112 -37
150 -56 39 -19 97 -45 130 -58 153 -58 441 -213 542 -292 96 -75 149 -132 181
-197 l24 -47 -22 -42 c-27 -53 -83 -112 -135 -142 -151 -88 -525 -171 -875
-195 -199 -14 -743 -14 -930 0 -220 17 -341 28 -415 40 -38 6 -135 17 -215 25
-80 7 -158 18 -175 24 -16 5 -59 14 -95 20 -222 35 -330 53 -365 62 -22 5 -74
16 -115 24 -41 9 -92 22 -113 30 -20 8 -52 15 -70 15 -18 0 -62 9 -98 20 -35
12 -84 27 -109 35 -25 8 -97 28 -161 44 -64 17 -147 42 -185 57 -38 14 -93 32
-123 39 -30 8 -89 27 -130 44 -42 16 -110 42 -151 57 -162 60 -424 196 -587
307 -84 56 -190 167 -223 233 -28 57 -24 119 13 167 40 53 257 151 382 173 22
4 54 13 72 21 18 7 50 13 71 13 38 0 116 12 202 31 53 11 137 17 405 28 307
12 330 12 640 0z m-1664 -833 c169 -113 383 -230 539 -294 160 -66 208 -84
285 -109 44 -14 99 -34 122 -44 45 -20 186 -59 212 -59 9 0 38 -9 66 -19 27
-10 70 -24 95 -31 25 -6 77 -20 115 -31 133 -38 260 -70 335 -84 87 -17 141
-30 225 -55 33 -11 87 -22 120 -25 33 -4 85 -13 115 -20 30 -8 84 -17 120 -20
36 -3 90 -10 120 -16 30 -5 111 -16 180 -25 69 -8 174 -21 235 -29 60 -7 112
-12 115 -10 3 2 64 -3 135 -11 182 -20 837 -30 965 -16 55 7 146 17 203 22
115 12 203 25 262 39 22 5 63 14 90 20 157 31 284 72 400 129 44 22 81 39 83
37 1 -1 -7 -22 -18 -46 -11 -24 -20 -58 -20 -76 0 -18 -9 -55 -20 -83 -11 -28
-20 -66 -20 -85 0 -19 -6 -54 -14 -77 -17 -51 -40 -147 -56 -238 -7 -35 -20
-81 -30 -100 -10 -20 -26 -65 -35 -101 -9 -35 -41 -138 -71 -229 -144 -434
-333 -815 -534 -1080 -15 -19 -65 -87 -112 -150 -142 -190 -450 -460 -628
-550 -36 -19 -72 -39 -80 -45 -8 -7 -26 -16 -40 -20 -14 -4 -68 -28 -120 -53
-92 -43 -118 -52 -315 -106 -94 -25 -360 -58 -480 -59 -177 -2 -471 19 -575
40 -41 9 -109 21 -150 28 -41 7 -86 17 -100 22 -14 6 -50 14 -80 18 -30 4 -98
21 -150 37 -89 29 -133 46 -334 128 -79 33 -262 138 -326 189 -19 15 -53 38
-75 51 -43 26 -155 120 -221 186 -60 60 -233 282 -279 358 -22 37 -67 108 -99
159 -54 84 -132 248 -183 387 -37 99 -98 320 -112 400 -14 83 -31 166 -52 258
-10 45 -19 110 -19 144 0 33 -7 97 -15 142 -32 178 -37 251 -32 486 7 292 23
589 37 672 5 35 10 99 10 143 l0 79 43 -46 c23 -26 99 -85 168 -132z m6059
-613 c68 -19 187 -77 219 -106 104 -97 211 -280 211 -364 0 -21 5 -55 11 -75
7 -26 7 -85 0 -188 -13 -189 -42 -302 -122 -466 -32 -67 -59 -128 -59 -136 0
-8 -17 -34 -37 -58 -21 -24 -49 -61 -63 -81 -102 -152 -311 -349 -455 -429
-33 -19 -73 -43 -90 -55 -27 -20 -64 -38 -177 -88 -69 -30 -183 -66 -248 -76
-36 -6 -90 -16 -120 -22 -120 -24 -458 6 -497 44 -3 3 4 18 14 34 11 15 39 64
62 108 22 45 54 96 69 115 l29 33 47 -23 c44 -21 57 -22 189 -18 113 4 156 10
212 28 143 47 255 93 307 125 29 19 82 51 118 71 77 45 251 210 288 274 14 25
40 64 58 88 47 62 121 210 129 257 4 22 13 60 21 85 7 25 15 90 16 145 3 186
-75 346 -205 419 -21 11 -53 29 -70 38 -18 10 -51 18 -74 18 -24 0 -63 5 -88
12 -38 10 -56 9 -117 -6 -40 -11 -85 -25 -100 -32 -15 -8 -36 -14 -46 -14 -21
0 -133 -57 -200 -101 -36 -25 -42 -26 -38 -11 4 11 13 55 21 98 35 196 30 184
102 233 35 24 88 52 117 61 29 10 70 27 92 38 21 11 64 25 94 31 30 6 64 13
75 15 39 9 251 -6 305 -21z m-209 -512 c95 -42 152 -139 151 -256 -1 -99 -60
-269 -134 -389 -81 -131 -260 -299 -393 -369 -90 -48 -249 -104 -313 -110 -35
-4 -72 -12 -84 -18 -22 -12 -77 -8 -151 12 -59 15 -59 10 13 169 28 63 59 140
67 170 8 30 21 66 28 80 16 31 111 323 120 369 7 30 54 88 151 185 27 27 94
69 203 128 l86 46 106 1 c85 1 115 -3 150 -18z m-4996 -2437 c229 -131 591
-267 830 -312 191 -36 227 -42 355 -52 69 -6 141 -15 160 -20 60 -17 529 -12
586 5 27 8 74 15 104 15 64 1 231 35 357 74 34 11 45 11 53 1 15 -18 60 -154
60 -180 0 -36 -34 -70 -112 -110 -121 -64 -234 -89 -527 -116 -155 -15 -509 0
-641 26 -41 8 -127 21 -191 29 -64 7 -122 16 -128 20 -7 4 -51 14 -99 21 -48
8 -127 25 -177 39 -49 15 -125 35 -168 46 -96 25 -258 90 -392 157 -78 39
-206 137 -241 185 -37 49 -20 119 45 191 13 15 30 27 35 27 6 0 47 -21 91 -46z
M32755 10138 c-30 -17 -41 -30 -64 -76 -25 -49 -26 -72 -5 -142 31 -106 121
-154 178 -97 22 22 23 30 21 130 -3 118 -13 144 -68 177 -37 23 -36 23 -62 8z
M33918 9770 c-14 -11 -41 -48 -59 -84 -32 -61 -32 -65 -20 -107 26 -87 126
-148 191 -114 53 28 64 76 30 133 -18 29 -19 39 -10 68 10 29 9 39 -4 59 -35
53 -93 73 -128 45z M35169 9505 c-40 -22 -84 -92 -84 -134 0 -46 52 -133 86
-145 39 -14 124 27 139 67 7 18 22 51 33 74 29 57 16 83 -62 123 -68 34 -76
35 -112 15z M36548 9436 c-57 -34 -78 -56 -104 -108 -38 -75 -30 -127 24 -146
39 -13 93 11 153 69 75 73 86 133 34 185 -30 30 -59 30 -107 0z M32944 9084
c-42 -27 -84 -89 -84 -123 0 -32 44 -123 77 -158 55 -59 113 -51 149 19 15 29
15 33 -4 72 -15 30 -19 52 -15 82 6 50 -16 98 -56 118 -26 14 -31 13 -67 -10z
M35153 8812 c-64 -64 -65 -133 -4 -164 30 -15 37 -15 62 -2 56 29 79 124 39
164 -25 25 -74 26 -97 2z M34440 8748 c-36 -18 -51 -34 -74 -80 -43 -88 -17
-144 84 -178 52 -18 55 -18 90 0 58 30 76 89 42 145 -10 17 -22 43 -26 58 -7
28 -47 77 -63 77 -5 0 -29 -10 -53 -22z M33678 8745 c-31 -17 -48 -65 -48
-138 0 -40 5 -54 29 -78 55 -55 107 -35 152 58 25 51 16 93 -31 143 -31 33
-60 37 -102 15z M35942 8405 c-39 -33 -75 -117 -67 -156 5 -21 0 -40 -18 -70
-24 -40 -25 -43 -9 -76 45 -93 162 -27 231 129 l33 78 -26 45 c-26 43 -68 75
-100 75 -8 0 -28 -11 -44 -25z M33684 8011 c-18 -11 -39 -30 -48 -42 -45 -66
13 -187 117 -245 48 -26 94 -4 124 62 22 49 23 55 9 82 -8 16 -26 37 -40 46
-14 9 -35 34 -46 56 -31 62 -64 73 -116 41z M34810 7748 c-49 -25 -90 -77 -90
-116 0 -47 114 -131 161 -119 32 9 106 78 119 112 14 37 6 58 -33 88 -35 26
-91 57 -104 57 -5 0 -29 -10 -53 -22z"/>
</g>
</g>
</svg>
